<svg id="Layer_1" data-name="Layer 1" xmlns="http://www.w3.org/2000/svg" viewBox="0 0 495.19 203.26"><title>films-active</title><path d="M364.38,96.29a89.67,89.67,0,0,0-3.31,9.32c-3.43,14.24-6.81,28.5-9.92,42.82-1.14,5.22-2.51,7-7.84,7.63-7.55.87-11.35-1.58-14.62-8.36-6.63-13.73-9.85-28.38-12.4-43.25q-1.34-7.8-2.76-15.61a8.22,8.22,0,0,0-.85-1.64c-1.53,6.48-3.29,12.29-4.21,18.24-1.42,9.22-2.4,18.5-3.32,27.79-.45,4.55-.27,9.16-.53,13.73-.39,6.67-2,8-7.45,9.19-5.18,1.17-9.29-.41-11.29-4.91a17.1,17.1,0,0,1-1.64-6.66c0-14.07.42-28.15.24-42.22a196.33,196.33,0,0,0-1.84-27.09c-.69-4.54-.89-9.3-2.88-13.87-1.14-2.63,0-7.42,1.89-9.94,3.49-4.71,8.74-7.35,15-6.07,1.55.32,3,1.43,4.38,2.25,1.25.73,2.43,1.56,3.78,2.43.36-.58.55-.89.76-1.2,1.25-1.91,2.08-4.59,3.85-5.58a17.75,17.75,0,0,1,12.17-2.2c1.37.28,2.53,1.74,3.71,2.75,5.62,4.81,7.61,11.27,8.11,18.32.83,11.68,1.32,23.39,2.35,35.06.6,6.67,2,13.27,3,19.9h.81c1.17-3.82,2.52-7.59,3.48-11.45,2.38-9.62,4.45-19.33,9-28.26,1.34-2.65,1-5.22.21-7.9-1.74-5.72,4.26-13.84,10.23-14.21,8.85-.56,14,4.06,16.65,11.87,2.43,7.24,4.46,14.61,6.46,22,2.18,8,3.76,16.28,6.24,24.23,3.58,11.43,7.78,22.65,11.61,34,1.56,4.61-1,8.6-5.63,10.18-5.3,1.81-9.81.54-14-2.58a5.71,5.71,0,0,1-1.77-2.84c-2.37-8.31-4.52-16.69-7-25-2.32-7.92-4.88-15.76-7.37-23.63-.75-2.39-1.59-4.74-2.39-7.11Z" transform="translate(-10.81 -11.65)"/><path d="M37.74,94.66c4.8-3,8.73-5.76,13-8C58,82.85,65.39,79.08,73,75.91c6.64-2.74,12.8-.3,16.09,5.37,3.46,5.94,1.73,8.62-2.87,11.65-5,3.28-10.49,5.76-15.58,8.89-8.44,5.2-16.74,10.65-25.09,16a46.05,46.05,0,0,0-5.17,3.4,4.5,4.5,0,0,0-1.68,3.06c.48,6.66,1.31,13.3,1.83,20a91.47,91.47,0,0,1,.41,12.93c-.23,3.81-5.13,7.34-9,7.14a10.38,10.38,0,0,1-9.39-8.64c-1.29-6.86-2.15-13.8-3.33-20.68-1.11-6.49-2.4-13-3.6-19.42a9.3,9.3,0,0,1-.13-1.17c-.51-10.51-.76-21-1.6-31.51-.61-7.53-2.06-15-3-22.49a16.69,16.69,0,0,1,.2-4.41c.78-5.22-.85-10.44.67-15.78C13.53,34.1,19.59,28.61,25.5,30a24,24,0,0,1,7.57,3.39c1.53,1,2.55,1.46,4.19.41,8-5.09,15.77-10.44,24-15,6.45-3.61,13-7.22,21-7.1,6.32.09,12.82,7.36,10.94,13.23-1.23,3.87-4.6,5.55-8,7.26A140.54,140.54,0,0,0,70.87,40c-8,5.27-15.8,10.88-23.61,16.46-2.4,1.72-4.52,3.81-6.76,5.74s-2.73,4.49-2.75,7.21C37.71,77.61,37.74,85.73,37.74,94.66Z" transform="translate(-10.81 -11.65)"/><path d="M154.34,116.28c6.76,0,13.14-.13,19.51,0,4.62.13,9.23.55,13.82,1.08,2.93.35,6,5,6.06,8.57a7.87,7.87,0,0,1-6.5,7.73l-31,6c-6.85,1.3-13.66,3-20.58,3.67-7.2.74-14.55,1.43-21.68-.77-7.67-2.36-12.91-7.71-10.36-15.54a7.28,7.28,0,0,1,3.67-4.2,73.44,73.44,0,0,1,12.65-3.57c3.54-.68,7.25-.49,10.82-1a3.8,3.8,0,0,0,2.48-2.54c.55-3.75.75-7.56.93-11.35q1-20.07,1.86-40.11c.17-3.9,0-7.81,0-11.72,0-2.37-.65-3.43-3.54-3.2-5.8.47-11.66,1.53-17.28-1.71s-8.22-9.06-6.43-14.09c1.38-3.87,4.67-5.48,8.09-6.67a34.68,34.68,0,0,1,8-1.58q20.25-2,40.52-3.87c5.29-.48,10.59-1,15.89-1.06,3.94,0,8,.3,10.8,4,3,3.9,4.35,8.17,1.93,10.89A15.82,15.82,0,0,1,186.28,40c-5.92,1.38-12.05,1.87-18.1,2.69-2.27.3-3.75,1.11-4,3.76-.78,7.28-1.8,14.54-2.74,21.8-.33,2.53-.69,5.07-1.08,7.59-1.18,7.77-2.41,15.53-3.58,23.3C155.92,104.91,155.13,110.72,154.34,116.28Z" transform="translate(-10.81 -11.65)"/><path d="M434.33,89l10.25,2.14a93.06,93.06,0,0,1,28.49,11.11c8.25,4.85,16,10.44,22.44,17.67C500.9,126,505.58,132.49,506,141c.25,5.66-.82,10.89-5.32,15-5,4.56-10.46,8.23-17.19,9.85-2.55.62-4.84,2.32-7.39,2.9-7.48,1.68-15,3.31-22.54,4.46a16.51,16.51,0,0,1-14-4.11,11,11,0,0,1-3.26-11.59,78.36,78.36,0,0,1,2.71-8.36c.61-1.37,2.18-3.13,3.38-3.17s2.5,1.82,3.38,3.11.86,3.77,1.78,4.08a17.42,17.42,0,0,0,7.28.62,32.36,32.36,0,0,0,8.21-2.14,161.37,161.37,0,0,0,16.73-7.32c5.3-2.85,5.39-6.5,1.33-10.93a65.86,65.86,0,0,0-26.17-17.71c-7.9-2.88-16.08-5.08-24.69-5.3a92.29,92.29,0,0,1-16.3-2.09c-7-1.46-11-6.73-13.69-12.77-2.25-5,.37-11.18,5-14.21,7.81-5.09,15.42-10.49,23.32-15.42,5.11-3.19,10.35-6.5,16-8.48,8.07-2.84,16.18-6.25,25.17-5.12a10.12,10.12,0,0,1,8.2,5.46,34.51,34.51,0,0,1,1.83,4.35A8.16,8.16,0,0,1,469.56,73c-4.41-1.49-7.34.24-10.48,1.68-5.42,2.48-10.5,5.72-15.75,8.59-3.05,1.68-6.15,3.26-9.23,4.88Z" transform="translate(-10.81 -11.65)"/><path d="M223.55,134c3.07-1.59,5.83-2.83,8.41-4.37,10-6,21.17-8.85,32.09-12.4,3.49-1.14,11.23,1.38,12.56,4.58,1.21,2.92,1.36,6.41,1.32,9.65,0,1.19-1.7,2.92-3,3.43-4.63,1.8-9.45,3.11-14.16,4.74a117.14,117.14,0,0,0-31.24,16.18c-4.8,3.5-10.26,8.2-17.24,5.15-3.5-1.53-7.49-2.86-9.14-6.87a16.43,16.43,0,0,1-1.58-6.38c.33-9.9,1.05-19.79,1.49-29.69.62-14,1.34-28,1.57-41.95.14-8.65-.7-17.32-.79-26A64.12,64.12,0,0,1,205,38.66c.67-4,6.89-8.25,11.52-8.31,8.13-.1,15.46,7.38,14.72,15.49-1.08,12-2.59,23.86-3.77,35.81-.83,8.31-1.43,16.64-2.11,25q-.9,11.16-1.76,22.36C223.45,130.51,223.55,132.05,223.55,134Z" transform="translate(-10.81 -11.65)"/><path d="M28.71,187.91q177.39,3.19,354.34,17.86,49.38,4.11,98.67,9.11c7.68.77,7.63-11.23,0-12Q305.22,185,127.8,178.58q-49.53-1.79-99.09-2.67c-7.73-.14-7.73,11.86,0,12Z" transform="translate(-10.81 -11.65)"/></svg>