<svg id="Layer_1" data-name="Layer 1" xmlns="http://www.w3.org/2000/svg" viewBox="0 0 448.01 167.44"><title>finn-nav</title><path d="M438.67,134.64c1.57-7.46,3.39-14.88,4.63-22.39,1.85-11.17,3.23-22.41,4.94-33.6.83-5.41,2.28-10.73,2.83-16.16.36-3.51-.43-7.14-.65-10.71s-.78-7.26,1.29-10.6c1.88-3,7.67-3.64,11.45-1.56,6.24,3.41,8,8.45,7,15.3-1.84,12.24-3,24.58-4.9,36.82q-3.44,22.68-7.57,45.27a165.56,165.56,0,0,1-4.83,17.77,10,10,0,0,1-7.71,7.32c-8.73,2.07-13.35.31-18.91-6.68-9.23-11.59-14.52-25.12-19.59-38.76-3.26-8.74-6.24-17.59-9.35-26.38a19.56,19.56,0,0,0-1-1.78c-.87,3.37-1.72,6-2.21,8.69-2.77,15-2.44,30.18-1.38,45.33.34,4.9.9,9.78,1.12,14.69.24,5.17-4.34,8.74-10.46,8.87a11.39,11.39,0,0,1-10.65-6,12.51,12.51,0,0,1-1.15-5.63C371,141.94,370.52,129.47,370,117c-.41-9.93-.9-19.86-1.25-29.79-.33-9.54-1.09-19.11-.6-28.61.48-9.05,3.85-13.3,14.57-13.26a3.89,3.89,0,0,0,2.9-1.14c3.4-5.13,10.27-6.85,15-3.91a21,21,0,0,1,7.82,8.9A97.76,97.76,0,0,1,414,68c2.43,11.94,4,24.08,8.85,35.39,3.76,8.64,7.49,17.29,11.38,25.88a42.6,42.6,0,0,0,3.56,5.5Z" transform="translate(-22.42 -11.5)"/><path d="M308.88,126.45c1.16-7.2,2.28-14.41,3.47-21.61,1.35-8.12,2.87-16.21,4.1-24.34.46-3,.22-6.08.49-9.1a63.68,63.68,0,0,1,1.26-8.71c.48-2,4.3-3.65,6.78-3.11,7.37,1.62,11.21,5.3,10.94,13-.31,8.55-1.07,17-4,25.25-1.78,5.11-1.74,10.86-2.51,16.32l-4.65,33c-.34,2.43-.81,4.85-1,7.29-.48,6.82-12.36,10-17.2,6.4A35.91,35.91,0,0,1,297,150.27c-9.36-15.48-15.64-32.36-22.5-49-1.07-2.6-2-5.26-2.93-7.9l-.79.06c-.63,6.79-1.32,13.57-1.88,20.36-1.15,14.12-2.28,28.23-3.31,42.35-.31,4.21-.12,8.46-.52,12.66a5.7,5.7,0,0,1-2.23,3.8c-3.88,2.5-8.24,3.78-12.86,2.57-3.22-.85-4.54-3.81-6.12-6.43-2.3-3.79-1.12-7.91-1.09-11.82.11-13.31.85-26.61.87-39.91,0-8.74-.92-17.49-1.25-26.24-.42-11-.86-22-.92-33,0-6.75,5.39-14.29,13.74-14a13.39,13.39,0,0,0,6.14-1.48c8.43-4.13,14.43-2.2,18.95,6,4.62,8.39,6.51,17.55,8.77,26.72a310.94,310.94,0,0,0,9.5,30.6c2.39,6.64,5.87,12.9,8.86,19.33.25.51.56,1,.84,1.5Z" transform="translate(-22.42 -11.5)"/><path d="M139.33,150.44c4.2-.45,8.41-.84,12.6-1.38,2.57-.33,4.22-1.8,4.06-4.53-.48-8.36-1.09-16.7-1.63-25-.28-4.42-.46-8.84-.75-13.26-.38-5.93-.77-11.86-1.23-17.78-.51-6.55-1.11-13.08-1.64-19.62-.34-4.16-2.86-6-7-5.52a67.21,67.21,0,0,1-11.68.53c-5.35-.32-9.24-3.89-12.76-7.41-4-4-2.52-12.27,2.31-15.25a30.41,30.41,0,0,1,15.31-4.49c3-.11,6-1.15,9.09-1.47,4.85-.5,9.73-.91,14.6-1.07,11.45-.37,22.9-.67,34.36-.81,7.09-.08,12,5.43,13.31,11.64.88,4.06-4.49,9.52-9.17,9.86-5.28.39-10.55,1-15.83,1.36a3.45,3.45,0,0,0-3.61,3.49c-1.13,13.31-2.76,26.6-3.17,39.93-.29,9.78,1.09,19.6,1.63,29.4.26,4.73.44,9.47.38,14.19,0,2.39.91,2.9,3,2.72,10.09-.88,20.2-1.6,30.28-2.58,6.69-.64,12.27,1.51,15.68,7.11s4,10.22-.1,14.36c-3.26,3.26-7.83,3.24-12.18,3.3-5.65.08-11.32-.19-16.93.33-5.86.54-11.66,1.74-17.45,2.86-1.31.25-2.45,1.37-3.69,2.06-3.46,1.92-6.75,4.57-10.46,5.47-2.29.56-5.51-1.12-7.8-2.59a7,7,0,0,0-5.84-.85c-9.65,2.17-19.31,1.63-29,.17a26.38,26.38,0,0,1-4.62-.89,11,11,0,0,1-7.6-8.89c-.75-4.14,1.36-7.16,4.56-9.85A20.54,20.54,0,0,1,129,151.24c3.43-.21,6.85-.64,10.27-1Z" transform="translate(-22.42 -11.5)"/><path d="M47.35,79.2c5.59-.35,10.55-1.24,15.4-.82,7.71.68,14.62-2.58,22-3.39a17,17,0,0,1,2.37,0c5.43.17,6.5,4.71,4.55,8.76A43.87,43.87,0,0,1,79.33,98.56,40.35,40.35,0,0,1,57,107.81c-1.78.15-3.65-.59-5.45-1-3.56-.86-4.41-.44-4.26,3.15.33,7.78,1,15.54,1.42,23.31q.87,15.34,1.61,30.7c.23,4.62-2.12,8.13-5.57,10.77-1,.78-3.05.31-4.62.34-6.12.12-8.93-2.55-10.89-8.31-2.6-7.66-1.82-15.51-2.36-23.28-.61-8.82-1.23-17.65-1.5-26.48-.4-13.1-.4-26.22-.76-39.32-.14-5.29-.84-10.57-1.15-15.86-.14-2.42.19-4.87.06-7.29-.33-5.88-1.1-11.75-1.14-17.63-.05-7,8.07-14.9,15.65-12.7,1.79.52,3.87.72,5.28,1.78,3.84,2.86,7.59,1.56,11.22.1,7.36-3,14.57-6.32,21.9-9.38,4.25-1.77,8.48-3.79,12.91-4.82,8.19-1.9,13.22,3.8,15.12,10.71.58,2.11-3.65,8.18-6.42,9.29C86.47,36.51,75.86,43,65.15,49.35c-3.45,2-7.71,2.85-11.69,3.82-2.2.53-3.56,1.15-3.79,3.64C49,64.32,48.12,71.81,47.35,79.2Z" transform="translate(-22.42 -11.5)"/></svg>