<svg xmlns="http://www.w3.org/2000/svg" viewBox="0 0 444.34 209.73"><title>fotos-active</title><g id="Layer_1" data-name="Layer 1"><path d="M475.07,197.47q-168.81-3.14-337.58,5.15Q89.86,205,42.3,208.22c-7.67.53-7.72,12.53,0,12q168.45-11.5,337.43-11.62,47.67,0,95.34.87c7.73.15,7.73-11.85,0-12Z" transform="translate(-36.53 -10.51)"/></g><g id="fotos"><path d="M64.88,162.7c-.27,1.9-.77,4.74-1,7.61s0,5.6-.55,8.3c-.62,3.17-2.14,5.93-5.6,7-.72.24-1.22,1.15-1.94,1.41A26.77,26.77,0,0,1,50,188.74c-1.16.15-2.45-.57-3.67-.93a7.63,7.63,0,0,0-1.85-.63c-2.63-.06-4.37-1.5-5.8-3.51-.77-1.08-1.91-1.92-.94-3.63.4-.7-.22-1.95-.28-3-.19-2.7-.36-5.4-.46-8.1a25.26,25.26,0,0,1,.24-2.76c.28-3.88.54-7.76.81-11.64s.62-8,.84-12c.23-4.24.32-8.49.55-12.73.11-2.11.62-4.22.52-6.3-.08-1.8.85-3.62-.08-5.41-.13-.25.11-.68.15-1,.15-1.25.31-2.49.43-3.73.05-.56,0-1.13,0-1.69.16-2.55.36-5.11.5-7.66.2-3.73.37-7.47.56-11.21.11-2.25.29-4.5.36-6.75.14-4.54.34-9.09.27-13.63,0-2.46-.65-4.91-.85-7.38a26.35,26.35,0,0,1,.09-4.53,42.06,42.06,0,0,0-.48-10.63A39.92,39.92,0,0,0,39.6,44.8a10,10,0,0,1,.08-5c.6-2.48,3.16-3.7,3.21-6.26a.49.49,0,0,1,.26-.36c2-1,4.07-1.92,6.1-2.88a7.82,7.82,0,0,0,1.21-.65c1-.73,1.91-1.44,3.16-.51a.78.78,0,0,0,.7,0c1.86-1.34,3.92-.07,5.88-.46.86-.17,1.95,1,2.84.83,3.53-.48,7.22.71,10.61-1.6,1.89-1.29,4.44-1.59,6.62-2.49,3.48-1.44,6.86-3.14,10.38-4.51,2.78-1.08,5.72-1.75,8.54-2.73,2.33-.8,4.51-1.8,6.77-2.6,1.19-.43,2.45-.67,3.68-1,3.48-.87,6.94-1.84,10.45-2.58,3-.65,6.09-1.11,9.16-1.49a5.81,5.81,0,0,1,2.62.63,18.47,18.47,0,0,1,6.77,5.1c1.4,1.53,2.38,3.41,1.81,5.66a33,33,0,0,1-1,3.35c-.87,2.32-3,2.95-5.07,3.52-.3.08-.62.08-.91.18L119,33.65c-2.88.93-5.79,1.74-8.62,2.81a31.46,31.46,0,0,0-4.15,2.36c-.44.25-.94.39-1.4.62-.76.37-1.5.78-2.24,1.18-.27.14-.53.48-.78.46-2.3-.15-3.93,1.44-5.56,2.51-2,1.33-4.46,1.61-6.4,3.24-2.49,2.09-5.55,3.48-8.26,5.33-1.59,1.08-3,2.48-4.46,3.7-.46.37-1.2.49-1.5.93-1.19,1.75-3.27,2.81-3.6,5.27S70.7,67,70.33,69.51c-.57,4-.9,8-1.26,11.93a24.08,24.08,0,0,0,.17,2.81,4.8,4.8,0,0,1-.16,2.13c-1.12,2.24-1,4.58-1,7a28,28,0,0,1-.38,3.41c0,.38,0,1,.19,1.1a1.86,1.86,0,0,0,1.27-.11c3-1.37,6-2.89,9-4.14,4.27-1.74,8.58-3.39,12.94-4.87,3.22-1.09,6.54-1.88,9.84-2.72a31.18,31.18,0,0,1,5.66-1.13c3.08-.23,5.47,1.44,7.11,3.8,1,1.49,1.38,3.48,2,5.26.08.25-.24.63-.36,1l-1.41,3.72c-.15.38-.18.91-.45,1.12-1.57,1.24-3.17,2.44-4.81,3.57-2,1.35-4,2.63-6,3.9l-4.93,3c-1.17.7-2.34,1.41-3.51,2.1-2.34,1.39-4.7,2.73-7,4.14s-4.56,2.87-6.85,4.31c-.94.59-1.88,1.18-2.83,1.75-1.62,1-3.24,2-4.88,2.93a56.44,56.44,0,0,0-5.09,3,3.77,3.77,0,0,0-1.24,2.33c-.54,3.78-1,7.57-1.32,11.37-.27,3.65-.29,7.33-.32,11C64.71,156,64.88,158.84,64.88,162.7Z" transform="translate(-36.53 -10.51)"/><path d="M131.88,150.27c-.42-1.17-.94-2.31-1.25-3.51a22.6,22.6,0,0,1-.68-4c-.21-3.26-.3-6.54-.47-9.81-.07-1.36-.35-2.72-.34-4.08,0-1.72.23-3.45.29-5.18,0-1-.15-2.07-.11-3.11.12-3.21.26-6.43.47-9.65.16-2.52.32-5.05.7-7.55.27-1.78,1-3.52,1.36-5.29.5-2.28.76-4.59,1.31-6.86s1.31-4.75,2.13-7.08c.73-2.05,1.69-4,2.53-6.05,1.36-3.23,2.5-6.55,4.1-9.68a29.63,29.63,0,0,1,7.15-9.67c1.54-1.3,2.7-3,4.3-4.22,2-1.54,3.9-3.5,6.55-4a9.93,9.93,0,0,1,4.13.24,15.8,15.8,0,0,1,7.08,3.2c.43.38,1.43.25,2.18.25,2,0,4-.14,6,0a42.14,42.14,0,0,1,5.59.85,31.47,31.47,0,0,1,4.67,1.23A45.21,45.21,0,0,1,196,59c1.62.87,3.34,1.64,4.44,3.29s2.81,2.58,4,4a25.59,25.59,0,0,1,5.48,10.84c.77,3.8,2.14,7.46,2.93,11.26s1.24,7.9,1.82,11.86a10.46,10.46,0,0,1,.1,1.68q-.08,4.26-.18,8.54c0,2.33-.08,4.66-.23,7-.11,1.81-.32,3.63-.58,5.43a74.58,74.58,0,0,1-1.34,8,58.57,58.57,0,0,1-2.35,6.1c-.9,2.4-1.63,4.86-2.63,7.23-1.23,2.89-2.58,5.75-4.05,8.55a54.11,54.11,0,0,1-3.25,5c-1.81,2.63-3.57,5.3-5.54,7.84a66.44,66.44,0,0,1-8.22,8.47c-2.35,2.12-5.42,3-7.79,4.89a1.84,1.84,0,0,1-.7.31c-3.41.76-6.72,1.85-10.26,2.12-2.85.21-5.51-.69-8.2-.55-3.49.18-6.14-1.5-8.92-2.54a19.58,19.58,0,0,1-7.92-5.27,94.53,94.53,0,0,1-7.13-10,7.93,7.93,0,0,1-.65-2.28c-.22-.76-.44-1.51-.69-2.26-.91-2.66-1.84-5.32-2.75-8Zm23.3-5.66c.3.91.46,1.54.72,2.13,1,2.24,2,4.49,3,6.7s2.06,4.11,3.2,6.12a4.21,4.21,0,0,0,1.65,1.67,5.5,5.5,0,0,0,2.71.52c1-.08,2-.68,3-.83,4.35-.64,6.79-3.7,9.21-6.55,1.63-1.91,2.58-4.29,3.84-6.46.53-.92,1.13-1.82,1.65-2.75,1.23-2.22,2.58-4.4,3.62-6.69,1.33-2.91,2.5-5.89,3.56-8.88a44,44,0,0,0,1.23-5.16c.07-.27.1-.55.19-.81.56-1.69,1.29-3.35,1.68-5.07a62.32,62.32,0,0,0,.95-6.37,81.13,81.13,0,0,0,.86-9.19,88.17,88.17,0,0,0-.72-11.25c-.35-2.68-.57-5.48-2.37-7.76-.13-.17-.1-.45-.15-.67-.31-1.48-.15-3.32-1-4.36-1.75-2-2.28-4.87-4.85-6.32a15.58,15.58,0,0,0-2.94-1.74c-2.35-.74-4.81-1.24-7.22-1.84a5.22,5.22,0,0,0-5.4,2.07,52.37,52.37,0,0,1-3.29,4.81,31.68,31.68,0,0,1-3.5,3.45,2.11,2.11,0,0,1-1.27.47,2.83,2.83,0,0,0-2.87,2.37c-.41,1.32-.68,2.66-1.08,4-.51,1.66-1.2,3.28-1.6,5-.67,2.83-1.17,5.69-1.72,8.54-.16.82-.24,1.66-.37,2.49-.17,1.11,0,2.39-.62,3.3-1.39,2.15-.58,4.4-1.09,6.59a42.91,42.91,0,0,0-.61,8.24,89,89,0,0,0,0,9.8c.35,4.87,1.08,9.78,1.64,14.43Z" transform="translate(-36.53 -10.51)"/><path d="M324.52,178.2c-5,.1-9.59-1.41-14.15-3.14-.64-.24-1.13-.88-1.76-1.21-1-.52-2-.93-3-1.37-.23-.1-.54-.08-.72-.23-3.76-3.22-7.62-6.41-10.13-10.72a45.89,45.89,0,0,1-4.51-10,40.12,40.12,0,0,1-2-12.81c.14-3.85-.08-7.71.08-11.55.19-4.46.43-8.93,1-13.34a76.91,76.91,0,0,1,2.26-9c.3-1.13.55-2.29.92-3.39.72-2.1,1.52-4.16,2.27-6.24.44-1.23.77-2.51,1.28-3.71.79-1.84,1.65-3.66,2.56-5.46,1.86-3.69,3.8-7.35,5.67-11,.93-1.84,1.6-3.84,2.69-5.58,2.14-3.42,4.36-6.8,6.79-10a71.24,71.24,0,0,1,6-6.75,9.74,9.74,0,0,1,2.88-2A83.45,83.45,0,0,1,333,46.07c2.93-.93,6.15-1,8.82,1.2.93.78,1.61,1.93,2.63,2.49,2.2,1.21,4.56,2.13,6.83,3.21a18.4,18.4,0,0,1,2.2,1.26,68.5,68.5,0,0,1,6.34,4.23,14,14,0,0,1,3,3.8c3.16,5.12,6,10.36,7.63,16.12,1,3.71,2.38,7.32,2.45,11.32.06,3.79,1.09,7.56,1.25,11.36a63.28,63.28,0,0,1-.74,8.58c-.23,2.44-.44,4.88-.68,7.32a4,4,0,0,1-.27,1.27,7.64,7.64,0,0,0-.61,5.53c.64,2.25-.56,4.21-1.16,6.24-.84,2.8-2.07,5.51-2.74,8.34a39,39,0,0,1-2.84,7.76,73.07,73.07,0,0,1-5.42,10.28c-2,2.82-3.49,6-6.46,8.19-2.3,1.67-4.09,4-6.19,6a16,16,0,0,1-6.7,3.91,2.64,2.64,0,0,0-.73.2,25.58,25.58,0,0,1-14.19,3.5Zm32.63-76.92a38,38,0,0,0-1.27-13.84c-.51-1.79-1-3.57-1.43-5.38a17,17,0,0,0-3-7.19c-1.57-2-2.57-4.39-5.27-5.49-2.07-.88-3.66-.76-5.15,1-1.89,2.27-4,4.36-5.88,6.62-1.79,2.11-3.2,4.6-6.06,5.55a.72.72,0,0,0-.25.18,32.6,32.6,0,0,1-4,3.61,12.19,12.19,0,0,0-3.72,4.49A81.38,81.38,0,0,0,317.24,99a57.71,57.71,0,0,0-2.26,6,71.47,71.47,0,0,0-1.85,7.08c-.76,3.69-1.51,7.4-2,11.14-.36,2.75-.3,5.56-.46,8.34a35,35,0,0,0,1.75,14.21,25,25,0,0,0,6.05,9.46,7.36,7.36,0,0,0,3.84,2,19.74,19.74,0,0,0,8.48-.44c2.84-.86,4.46-2.68,6.09-4.69a66.16,66.16,0,0,0,4.2-5.93c1.23-1.91,2.36-3.89,3.44-5.9s2.12-4.28,3.2-6.42c.89-1.77,1.91-3.48,2.69-5.3,1-2.46,1.26-5.26,3-7.45a3,3,0,0,0,.39-1.16c.83-3.47,1.64-6.94,2.46-10.41a21.43,21.43,0,0,0,.68-2.82c.13-1.91.14-3.77.21-5.43Z" transform="translate(-36.53 -10.51)"/><path d="M430.14,106.94c-3.63-.2-7.58-.33-11.52-.66-6.25-.52-12.56-.81-18.71-1.91-3.17-.57-6.55-1.51-9.23-3.78-.68-.57-1.78-.62-2.48-1.18a46.13,46.13,0,0,1-5.6-4.94,22.44,22.44,0,0,1-2.55-4.57c-.15-.27-.26-.55-.41-.82-.82-1.46-1.64-2.91-2.45-4.37a1,1,0,0,1-.17-.43c0-3.62-.7-7.26.53-10.83.94-2.75,1.64-5.59,2.74-8.27a16.14,16.14,0,0,1,4.45-6.1c1.05-.91,1.74-2.23,2.8-3.12,1.57-1.33,3.33-2.45,5-3.64a34.06,34.06,0,0,1,3.88-2.65,111.52,111.52,0,0,1,10.66-5.19,41.13,41.13,0,0,1,7.67-1.73,58.73,58.73,0,0,1,8.53-1.37c3.86-.15,7.79-.39,11.52,1.18,1.31.55,2.75.79,4,1.39a9.29,9.29,0,0,1,4.37,5,7.47,7.47,0,0,1,.59,1.86c.18,1,.81,2-.17,3.15-.51.6-.28,1.78-.54,2.66-.18.61-.48,1.44-1,1.67a16.1,16.1,0,0,1-5.3,1.9c-1.06.07-2.42-1.18-3.28-2.15-2.06-2.35-2.21-2.44-4.94-1-.75.38-1.73.31-2.49.68-2.28,1.09-4.49,2.33-6.76,3.42-.86.41-1.92.43-2.74.89-2,1.14-4,2.37-6,3.67A31,31,0,0,0,406.21,69c-1.67,1.6-3.33,3.26-4,5.63-.54,1.79-1.39,3.5-1.89,5.3a3.28,3.28,0,0,0,2.15,4.11l.29.08c.62.2,1.15.7,1.78.86a47.75,47.75,0,0,0,11.91,1.3c.82,0,1.64.12,2.46.16,3.64.21,7.28.43,10.92.62,2,.1,4,0,6,.27,1.44.16,2.82.72,4.25,1,.57.11,1.24-.27,1.79-.13,1.92.47,3.82,1.05,5.72,1.61.43.13.81.43,1.25.52a28.83,28.83,0,0,1,8.88,3.78c2,1.18,3.91,2.45,5.82,3.75a9.71,9.71,0,0,1,1.75,1.7,17.51,17.51,0,0,0,1.72,2.12c2.89,2.42,4.75,5.66,6.41,8.88a53.43,53.43,0,0,1,3.46,7.34c1,3,1.35,6,2.09,9,.31,1.22,0,2.63.48,3.75s.95,1.86-.25,2.77c-.31.23-.24,1-.31,1.48-.35,2.91-.55,5.86-1.09,8.74-.38,2.08-1.32,4-1.81,6.12a11.94,11.94,0,0,1-3.15,5.94c-2.4,2.31-4.71,5-8.43,5.46a17.69,17.69,0,0,0-4,1.44C457,164,453.48,164,449.9,163.8c-2.64-.16-5.29-.09-7.93-.11a32.93,32.93,0,0,0-5.79.09c-1.7.29-3.17-.45-4.77-.43-3.67,0-7.35.14-11,.08a57.43,57.43,0,0,1-9.36-.52,13.25,13.25,0,0,1-5.32-2.74,25.91,25.91,0,0,1-5.09-5c-1.92-2.66-2-7.08,2.59-8.47,2-.62,3.86-2,5.8-3a3.38,3.38,0,0,1,1.73-.41c5,.32,10,.81,15.07,1,3.54.15,7.09-.19,10.63-.09,3,.09,6.06.7,9.09.71a36.55,36.55,0,0,0,7.81-.84c.74-.15,1.55-1.56,1.71-2.5.62-3.45,1.06-6.93,1.39-10.41a18.54,18.54,0,0,0-.39-3.94,30.29,30.29,0,0,0-.49-3.17c-1.06-4.61-2.88-8.7-7.58-10.77a2.32,2.32,0,0,1-.86-.59c-1.51-1.77-3.56-2.37-5.72-2.86C437.74,108.93,434.13,108,430.14,106.94Z" transform="translate(-36.53 -10.51)"/><path d="M253.47,62.49c-2.26.73-4.15,1.27-6,2-1.3.47-2.51,1.16-3.79,1.67-1.73.69-3.5,1.29-5.24,2A4.34,4.34,0,0,0,237,69c-1.48,1.43-3.32,1.5-5.21,1.65-3,.23-5.28-1.41-7.57-3a9.83,9.83,0,0,1-2.64-2.25,26.55,26.55,0,0,1-1.92-4.16.42.42,0,0,1,0-.31c1.59-3.64,3.28-7.2,6.73-9.57,1.81-1.25,3.44-2.78,5.32-3.92,2.62-1.6,5.36-3,8.11-4.38,2.25-1.13,4.54-2.18,6.87-3.1,3-1.21,6.11-2.31,9.2-3.34,1.87-.62,3.82-1,5.73-1.53,1.74-.48,3.47-1,5.22-1.47a42.63,42.63,0,0,1,4.9-.89c3-.35,6-.7,8.93-.82,2.71-.12,5.43.1,8.14.09a41.08,41.08,0,0,1,5.32-.19,15.38,15.38,0,0,1,5.55,1.54,14.61,14.61,0,0,1,4.86,4.12c1.55,2.21,3.56,4.53,2,7.77-.45.93-.07,2.29-1.36,2.85a19.43,19.43,0,0,1-2.94,1.14c-2.44.6-4.89,1.15-7.35,1.63s-5.21.85-7.79,1.41c-.36.08-.62.93-.82,1.46-.41,1.07-.75,2.16-1.12,3.24a6.53,6.53,0,0,0-.34,1c-.31,1.81-.47,3.66-.92,5.43s-1.23,3.42-1.77,5.15c-.76,2.47-1.46,5-2.14,7.46a51.85,51.85,0,0,1-2.73,7.64c-1.2,2.68-1.65,5.69-2.4,8.57-.81,3.14-1.59,6.29-2.36,9.44a5.57,5.57,0,0,0,0,1,14,14,0,0,1-.13,2.14q-1.18,6.33-2.44,12.68c-.34,1.74-.89,3.45-1.14,5.2-.34,2.38-.5,4.78-.71,7.17-.29,3.31-.6,6.62-.85,9.93-.19,2.54-.3,5.09-.46,7.63-.07,1.23-.13,2.47-.27,3.69-.63,5.42-1.32,10.84-1.92,16.26-.13,1.16.37,2.5,0,3.5-1.17,2.84-.86,5.85-.95,8.7-.09,2.57-1.44,4.48-2,6.74-.12.52-.85,1-1.39,1.3a24.76,24.76,0,0,1-3.89,2.11c-1.84.7-3.74,1.75-5.73.24a1.68,1.68,0,0,0-1-.25c-2.47.19-4.29-1.27-6.07-2.57-.83-.61-1.17-1.89-1.7-2.88-.1-.16,0-.49-.1-.59-2-1.63-1.24-3.78-1-5.74.8-6.86,1.76-13.71,2.55-20.57.46-4,.76-8,1.08-11.92.22-2.71.35-5.43.56-8.14.27-3.53.5-7.06.88-10.58.76-6.9,1.49-13.81,2.47-20.69.76-5.38,1.84-10.72,2.83-16.06.34-1.85,1-3.66,1.22-5.52.47-3.82.79-7.66,1.11-11.5q.33-4,.48-7.94A14,14,0,0,0,253.47,62.49Z" transform="translate(-36.53 -10.51)"/></g></svg>