<svg xmlns="http://www.w3.org/2000/svg" viewBox="0 0 433.22 214.26"><defs><style>.cls-1{fill:#9e9d9e;}.cls-2{fill:#ee3924;}.cls-3{fill:#76b6e3;}.cls-4{fill:none;stroke:#000;stroke-miterlimit:10;stroke-width:2.5px;}</style></defs><title>home-guy-desktop</title><g id="colour"><path class="cls-1" d="M93.77,90.7l.27.21a1.12,1.12,0,0,0,1.55,0l.32-.33a1.12,1.12,0,0,0,0-1.57c-1.73-1.45-4.4-.71-6.52-.65l-13.85.33L76,92.26A101,101,0,0,0,94.4,87.83c2.22-.78,2.08-4.76-.6-4.43L82.22,84.84l.6,4.47a37,37,0,0,0,12.52-4.2c2.23-1.21.7-5.15-1.78-4.2A43.1,43.1,0,0,1,74.75,83.7v4.68a101.42,101.42,0,0,0,11.53-1.3L85,82.52a48.78,48.78,0,0,1-22.7-.1l-.65,4.77L75,88.07V83.14c-4-.12-8-.37-12-.36-1.93,0-4.07-.08-5.45,1.54s-.93,3.59-.73,5.48c.48,4.52,1.06,9,1.6,13.53L63.17,102,62,99.3l-2.89,3.76a102.43,102.43,0,0,0,16.31,1.15V99.07l-13.33.86.68,5,15.71-2.86c3-.55,2-4.76-.68-5a105.81,105.81,0,0,0-12.07-.47l.67,5L76.2,100c2.87-.49,2.11-5-.68-5a74.86,74.86,0,0,0-14.25,1.35l1.35,4.88,12.77-2.86c2.85-.63,2.1-4.87-.67-5a51.33,51.33,0,0,0-12.06,1.06L64,99.32l12.06-3c2.72-.69,2.19-5-.66-4.92a85.38,85.38,0,0,0-12.66,1.36l1.33,4.83L76,94.79c2.7-.63,2.17-5.09-.66-4.9l-12.19.81.66,4.88L74.29,94c3-.44,1.92-4.67-.67-4.92a71.2,71.2,0,0,0-10.12-.24v5l9.9-1.22c2.59-.32,3.74-4.34.68-5A28.83,28.83,0,0,0,64,87.23c-3.18.41-3.39,5,0,5.11a41.53,41.53,0,0,0,7.31-.4c2.58-.36,2.31-4.4,0-5a29.66,29.66,0,0,0-8.9-.85c-2.73.16-3.74,4.63-.69,5.09L87.13,95l.7-5.16L80,90.16c-2.8.13-3.76,4.65-.7,5.18q6.84,1.17,13.72,2c2.92.37,3.64-4.74.7-5.19a79.32,79.32,0,0,0-16-.86,2.66,2.66,0,0,0-.7,5.21A58.92,58.92,0,0,0,90.91,99c2.94.17,3.69-4.77.7-5.23a55,55,0,0,0-14.67-.34c-2.82.32-3.83,4.39-.71,5.24L88.32,102,89,96.73l-12.51-1.5c-3.06-.37-3.51,4.43-.71,5.25L84.66,103l.71-5.25c-6.24-.64-12.32-1-18.37.94-3,1-2.22,4.92.71,5.25a24.56,24.56,0,0,1,19.2,12.67l4.66-2.72a72.47,72.47,0,0,0-9-10.85l-2.65,4.56,5.25,2.2c2.73,1.14,4.31-2.76,2.67-4.58l-3.34-3.7-2.68,4.6,11.38,3.07c3.52,1,4.75-4.1,1.47-5.36a32.69,32.69,0,0,0-11.14-2.18c-3.3-.1-3.62,4.5-.75,5.5a94.6,94.6,0,0,0,15.44,4,2.84,2.84,0,0,0,1.51-5.47,38.56,38.56,0,0,0-14.52-2.14c-3.11.13-4,4.91-.77,5.64l10,2.24.77-5.68a47.76,47.76,0,0,0-12.74.77c-2.9.55-2.65,4.92,0,5.62a95.71,95.71,0,0,0,12.1,2.34c3.27.43,4-5.16.78-5.78a31,31,0,0,0-8-.55c-3.12.19-4.25,5.15-.78,5.8l6,1.14a3,3,0,0,0,2.89-5,5,5,0,0,0-6.94-.53c-2.84,2.26-1.94,5.9-.32,8.57L93,114.56l-3-2.59c-1.75-1.48-5.42-.7-5.12,2.13l.68,6.35c.2,1.83,1.77,3.54,3.8,2.89,7.15-2.3,13.33,2.58,19.69,5.1,4.84,1.91,11.32,2.87,16.46,1.74a10,10,0,0,0,8.15-9.92c.15-7.46-.74-15.1-1-22.57l-9,1.22L126,105.7l5.62-5.63a45.5,45.5,0,0,0-21.29-.86c-5.44,1-3.47,8.4,1.21,8.93l9.56,1.07V100.3a106.33,106.33,0,0,0-12.24-.07c-4.65.24-6.19,7.49-1.15,8.54a74.65,74.65,0,0,0,10.44,1.42v-8.52a77.87,77.87,0,0,0-14.79.89c-4.31.66-3.54,6.87,0,8A53.68,53.68,0,0,0,117.64,113c5.25.2,5-7.52,0-8a129.05,129.05,0,0,0-17-.67c-4.42.13-5.64,6.83-1.07,7.93,4.19,1,8.39,1.85,12.64,2.56l1.08-8a107.18,107.18,0,0,0-15.62.39c-5.38.53-5.27,7.64,0,8.29L110.77,117c4.65.57,5.78-7.49,1.12-8.23a66.48,66.48,0,0,0-17.65-.59,4.26,4.26,0,0,0,0,8.51L106.45,118v-8.61l-11.56.31c-4.71.12-6.12,7.5-1.15,8.53l10.74,2.23,2.33-8.46a26.32,26.32,0,0,0-10.16.22c-5.1,1.1-3.52,8.26,1.16,8.61,4,.31,8.11.6,12.16,1l-1.15-8.49a49.61,49.61,0,0,1-6.2.69c-5.63.29-5.57,8.28,0,8.7,4.46.33,8.89.45,13.36.37,5.67-.1,5.66-8.61,0-8.8a62.17,62.17,0,0,0-7.72.24,4.43,4.43,0,0,0,0,8.86l9.24,1v-8.93l-7.18.7a4.49,4.49,0,0,0,0,9c3.22.3,6.45.57,9.67.84l-1.19-8.78c-1.75.26-3.5.55-5.26.78-5.53.71-6,9.07,0,9l8.54-.14c2.3,0,5-2.13,4.68-4.68a15.31,15.31,0,0,0-7.53-11.79l-2.32,8.57c1.52.12,3,.25,4.56.36,4.23.31,5.48-5,3.18-7.68a9.57,9.57,0,0,0-8.31-3.37V117l5.11-.64c2.92-.37,4.72-2.44,4.15-5.45-.14-.69-.26-1.38-.35-2.07a4.13,4.13,0,0,0-3-3l-3.11-.7v8.3l2.86-1.08c2.8-1,4.61-4.93,1.92-7.24a35.38,35.38,0,0,0-20.59-8.58v9.15l2.24.19c5.49.48,5.93-7.52,1.24-9.14q-4.74-1.64-9.59-2.84l1.2,9.15,4-2.72c4.5-3.09,1.86-11.7-4-9.48A23.17,23.17,0,0,0,92,94.52c-2.21,1.73-1.94,5.8,0,7.57,1.34,1.23,2.73,2.37,4.14,3.52l2.39-9a12,12,0,0,1-4.37.63c-6.5-.15-6.7,8.42-1.43,10.55a7.58,7.58,0,0,0,3.29.91c5.86.94,9.39-6.25,4.12-9.76L94,94.82V104a11.35,11.35,0,0,1,3.06-.91c4.43-.56,8.08-7.42,2.66-9.8l-5.67-2.48c-3-1.33-6.69-.43-7.67,3.12L85,99.15a5.24,5.24,0,0,0,6.38,6.38c3.14-.81,7.58-1.16,10-3.66,2.73-2.88,1.47-6.57,5.33-8.75,5.39-3.05,1.53-10.4-4-9.45l-5.89,1,5.07,8.71,6.76-5.31c1.67-1.32,5-5,7.3-4.82,4.56.38,6.91,9.82,7.37,13.29l10.27-1.39C131.37,90,129,85,126.32,80c-3.17-5.91-12.11-.67-9,5.25,2.41,4.57,4.59,9.22,6.64,14,2.57,5.91,10.34,1.27,9.56-4C132.33,87,128,76.23,119.3,73.52c-9.56-3-18.22,7.14-24.84,12.51C90,89.62,95,95.6,99.53,94.74l5.86-1.1-4-9.45a16.47,16.47,0,0,0-7,7.51c-.63,1.42-2.44,4,.19,2.37-1.44.91-4.32,1.05-6,1.45L95,101.9l1.51-5.23-7.67,3.12,5.63,2.55,2.65-9.8a27.71,27.71,0,0,0-8.41,2.28c-3.94,1.73-2.92,7.15,0,9.15l6.06,4.14,4.12-9.76-2-.43-2.71,10a21.71,21.71,0,0,0,7.25-.93c3.62-1.09,5.63-6.31,2.38-9-1.74-1.47-3.48-2.89-5.3-4.27l1.08,8.41a7.44,7.44,0,0,1,2.83-1.75L96.12,92.2l-3.75,3c-2.85,2.27-1.32,7.76,2.21,8.38,3.29.58,6.54,1.29,9.77,2.16l1.24-9.14-2.24,0c-5.93-.09-5.83,8.79,0,9.15a24.75,24.75,0,0,1,14.45,5.56l1.92-7.25-2.85,1.14c-3.52,1.41-4.62,7.37,0,8.3l3.13.63-3-3,.12.94,4.3-4.3-5.11.45c-5.55.5-5.73,9.06,0,8.8a1.46,1.46,0,0,1,2,.93l3.18-7.68-4.56-.56c-5-.58-5.66,6.28-2.32,8.57,1.92,1.32,2.53,2.9,3,5.09l4.51-5.92-8.54.53,1.2,8.81c2.14-.36,4.29-.66,6.44-1,5.33-.76,3.43-8.35-1.19-8.78-3.22-.3-6.44-.61-9.67-.88v9l7.18-.75a4.47,4.47,0,0,0,0-8.93l-9.24-.91v8.86a60.26,60.26,0,0,1,7.72-.3v-8.8c-4.47.12-8.9,0-13.36-.27v8.7a71.49,71.49,0,0,0,8.5-1c5.07-.94,3.4-8.13-1.15-8.49-4.06-.32-8.11-.71-12.16-1.08L99,120.71a15.41,15.41,0,0,1,5.5-.22c5.45.8,8-7.34,2.33-8.46l-10.76-2.15-1.16,8.54,11.56-.39c5.62-.19,5.42-8.07,0-8.61l-12.21-1.21v8.51a58.53,58.53,0,0,1,15.42.16l1.11-8.23-13.12-1.52v8.29a107.23,107.23,0,0,1,15.62-.51c4.51.18,5.7-7.3,1.09-8-4.26-.67-8.47-1.49-12.67-2.47l-1.07,7.93a107.55,107.55,0,0,1,17,.63v-8a44.87,44.87,0,0,1-12.08-2.38l-1.1,8.13a71.18,71.18,0,0,1,13.69-.5c5.51.33,5.4-8.06,0-8.52a58.78,58.78,0,0,1-8.13-1.29l-1.16,8.54a106.32,106.32,0,0,1,12.24.29c5.82.48,5.54-8.19,0-8.91l-9.56-1.25,1.21,8.93a35.19,35.19,0,0,1,16.44.91c3.17.91,6.82-2.3,5.62-5.62l-2.44-6.8c-1.65-4.6-9.19-4.24-9,1.22.2,5.77.4,11.53.5,17.29,0,2.36.74,5.77-.95,7.43-2,1.92-5.9,1.65-8.33,1.17-9.45-1.84-16.75-9.3-26.93-6l3.79,2.9-.68-6.35-5.12,2.12,3.06,2.57c2.47,2.07,6.57-.55,4.7-3.63l-2.1-.82,2.89-5-6.06-1.11-.79,5.81a24,24,0,0,1,6.49.31l.78-5.78a84.4,84.4,0,0,1-10.55-2.07v5.62a41.57,41.57,0,0,1,11.19-.61c3.24.24,3.94-5,.77-5.68L86,103.67l-.76,5.63a34.06,34.06,0,0,1,13,1.87l1.51-5.47a95.66,95.66,0,0,1-15.46-3.91l-.74,5.5a28.52,28.52,0,0,1,9.67,1.94l1.47-5.36-11.39-3a2.77,2.77,0,0,0-2.67,4.6L84,109.14l2.67-4.59-5.26-2.17c-2.62-1.09-4.46,2.78-2.66,4.56a64.89,64.89,0,0,1,8.19,9.71c2,2.84,6.36.36,4.66-2.72-4.93-9-13.82-14.19-23.86-15.3l.71,5.25c5.58-1.8,11.22-1.34,17-.74,3.07.32,3.52-4.44.72-5.25l-8.86-2.57-.71,5.25L89,102.07c3,.36,3.54-4.48.71-5.25l-12.09-3.3-.71,5.25a49.89,49.89,0,0,1,13.26.13l.71-5.22a52.76,52.76,0,0,1-12.53-2.25l-.71,5.21a72,72,0,0,1,14.6.64l.7-5.19c-4.12-.51-8.22-1.13-12.32-1.83L80,95.43l7.88-.36c2.79-.13,3.78-4.72.7-5.17L63.11,86.23l-.68,5.08a24.81,24.81,0,0,1,7.53.63V87a33.76,33.76,0,0,1-5.94.25v5.11a24.54,24.54,0,0,1,8.71.27l.67-5-9.9,1.27c-3.12.4-3.33,5.21,0,5a71.23,71.23,0,0,1,10.12.21L73,89.21,62.45,90.79c-2.76.41-2.13,5.06.66,4.88l12.19-.79L74.63,90,62.74,92.71c-3.17.73-1.8,5.39,1.33,4.83A76.91,76.91,0,0,1,75.4,96.36l-.67-4.92-12.07,3c-3.16.8-1.81,5.49,1.34,4.85a46.49,46.49,0,0,1,10.72-.87l-.67-5L61.27,96.34c-3.2.71-1.82,5.48,1.35,4.88a67.28,67.28,0,0,1,12.9-1.15l-.67-5L65,96.73c-2.86.47-2.14,5,.68,5a108.15,108.15,0,0,1,12.07.47l-.68-5L61.37,100c-2.83.51-2.2,5.22.68,5l13.33-.85c3.27-.2,3.34-5.17,0-5.14a98.44,98.44,0,0,1-14.95-.95,2.6,2.6,0,0,0-2.89,3.76l1.21,2.74c1,2.25,5.07,1.18,4.77-1.29l-1-7.73c-.1-.88-1.48-7.3-1-7.73.9-.73,4.86,0,6,0l7.41.18c3.19.08,3.14-4.73,0-4.93l-13.36-.81c-2.73-.17-3.3,4.15-.64,4.77a54.28,54.28,0,0,0,25.25,0c3-.7,1.69-5.08-1.26-4.56A86.56,86.56,0,0,1,74.75,83.7a2.34,2.34,0,0,0,0,4.68,46.32,46.32,0,0,0,20-3L93,81.14a33.13,33.13,0,0,1-11.4,3.79c-2.51.37-1.94,4.79.61,4.47L93.8,87.91l-.6-4.43a156.78,156.78,0,0,1-18.14,5.28c-2,.43-1.57,3.76.48,3.56l10.16-1c1.86-.18,7.39-1.67,8.87-.6L94.35,89h.73c-1-.69-2.26.93-1.31,1.7Z" transform="translate(-5.44 -44.16)"/><path class="cls-1" d="M105.47,76.23a5.06,5.06,0,0,0,1,1.06L108,73.64l.42.16-2.18,3.75-.13-.26,2.66-3.46a14.4,14.4,0,0,0-2.46-.44v5a3.45,3.45,0,0,1,1.5,0V73.63l-.72,0-.63,4.61a12.79,12.79,0,0,1,1.64,0l-2.18-3.81-.33.52,2.24-1.28a8.67,8.67,0,0,0-4.09.82A33.41,33.41,0,0,0,101,76.85a21.41,21.41,0,0,0-2.9,3c-.57.62-.81,1-1.73.92-4.28-.32-4,6.94.84,6.19a12.13,12.13,0,0,0,7.58-5,6.7,6.7,0,0,1,2.46-2.55c1.52-.91,2.62-1.32,3.28-3.1.74-2-1.41-3.37-3.11-3.11a14.43,14.43,0,0,0-1.59.32,2.36,2.36,0,0,0,.62,4.61l.72,0c2.94.49,4.26-3.74,1.26-4.56a9.54,9.54,0,0,0-2.13-.32c-3.19-.15-3.21,5.07,0,5h1.21c2.21.31,4.07-2.09,2.29-3.93a4,4,0,0,0-3-1.3A2.27,2.27,0,0,0,105.24,77a3.19,3.19,0,0,0,3.32.86c2.65-.77,1.54-4.73-1.14-4.13a2.56,2.56,0,0,0-2,1.34,1.12,1.12,0,0,0,0,1.18Z" transform="translate(-5.44 -44.16)"/><path class="cls-1" d="M119.35,87a21.57,21.57,0,0,0-10.88-2.18A2.16,2.16,0,0,0,107.9,89a23,23,0,0,0,9.46,1.73c2.94,0,2.83-4.21,0-4.49a77.91,77.91,0,0,1-7.75-1.33l-.72,5.29a18.71,18.71,0,0,0,8.24-2c2.3-1.1,1.58-4.65-.68-5.27a22.48,22.48,0,0,0-6.16-.77l.75,5.56a33.77,33.77,0,0,1,5-.9l-.75-5.57a48,48,0,0,0-5.68,1.52c-2.18.76-3.33,4.43-.73,5.55A42,42,0,0,0,118.65,91l.78-5.82c-3.21.07-6.43.14-9.65.19a3.13,3.13,0,0,0-.83,6.12,60.2,60.2,0,0,0,10.79,2.19c3.43.41,4.27-5.56.82-6.07A57.7,57.7,0,0,0,107,87.13c-3.33.29-4.51,5.28-.84,6.17a60.36,60.36,0,0,0,12.14,1.35c3.86.14,3.73-5.57,0-5.92a57.1,57.1,0,0,0-12.19.1c-3,.36-4.42,5.23-.79,5.85,4.44.77,8.88,1.51,13.34,2.18l.79-5.84c-4-.08-7.93.08-11.89.38-3,.22-4.17,5.15-.76,5.62l12.2,1.7.77-5.67-13.26-.92c-3.25-.23-4,5-.77,5.71l12.5,2.57.78-5.75a41.55,41.55,0,0,0-13.12-.09c-2.79.51-2.84,5.21,0,5.69a43.6,43.6,0,0,0,11.12.53,2.94,2.94,0,0,0,0-5.87c-3.73-.35-7.11-.36-10.56,1.19-3,1.35-1,5.28,1.51,5.56a38.81,38.81,0,0,0,14-1,3.12,3.12,0,0,0,1.37-5.17l-.87-.91L118,98.94a10.9,10.9,0,0,0,3.15,2.28c1.14.55,2.89.63,3.8-.49,3-3.73.13-7.85-2.53-10.93-2.28-2.64-5.58.31-5.2,3A5.33,5.33,0,0,0,120.52,97c1.17.59,3-.1,2.89-1.66-.11-1.11.06-2.18-.06-3.29L118,94.19a11,11,0,0,1,1.32,1.93c.28,1.27.51,1.54.68.81l3.54-1.44-1.18-.92c-2.79-2.87-7.11,1.48-4.38,4.37l.87.92,1.37-5.17a39.85,39.85,0,0,1-12.31,1l1.5,5.57c2.41-1.22,5-.82,7.55-.48V94.92a42.36,42.36,0,0,1-9.55-.35v5.69c3.83-.72,7.71-.23,11.55.26,3.26.41,4-5.1.77-5.75l-12.51-2.54-.77,5.71,13.26.88c3.19.21,4-5.22.76-5.66L108.3,91.5l-.76,5.62A100.35,100.35,0,0,1,119.43,97c3.3.15,4.13-5.26.79-5.85-4.44-.78-8.88-1.49-13.34-2.18v5.74a43.51,43.51,0,0,1,11.4,0V88.73a52.85,52.85,0,0,1-10.47-1.49L107,93.41a38.25,38.25,0,0,1,11.94.16l1.64-6a91.24,91.24,0,0,1-10-2.13l-.83,6.12c3.22-.18,6.43-.33,9.65-.49s4.27-5.32.79-5.83a53.58,53.58,0,0,1-9-2.48l.73,5.55a19.37,19.37,0,0,1,4.84-1.6c3.11-.6,2.44-5.83-.75-5.57a35.56,35.56,0,0,0-6.48,1.11c-3,.82-2.48,5.64.75,5.56a13.41,13.41,0,0,1,4.62.67l-.69-5.27a25.83,25.83,0,0,1-6,1.69c-3.1.53-2.19,5.18.71,5.29,2.63.1,5.27.1,7.87.45l.6-4.41A30.52,30.52,0,0,1,109,84.88V89a22,22,0,0,1,9.55-.24c1,.21,1.83-1.3.76-1.8Z" transform="translate(-5.44 -44.16)"/><path class="cls-2" d="M185.72,81.88a62.62,62.62,0,0,0,9.46-4.14c1.08-.59.35-2.43-.84-2a21.82,21.82,0,0,1-9.47,1.19l.68,2.52a60.79,60.79,0,0,1,6.95-4.52c1.76-1,.19-3.65-1.58-2.7A99.5,99.5,0,0,0,181,78.35l2.12,2.75a49.71,49.71,0,0,1,7.45-5.2c2-1.16.24-4.09-1.79-3.08l-5.84,2.92,2.46,2.46a13.23,13.23,0,0,1,6-5.35l-1.84-3.15a48.15,48.15,0,0,0-8.82,7.8c-1.09,1.25-.06,3.87,1.81,3.11a113,113,0,0,0,13.07-6.3L193.68,71l-8.43,5.34c-2.09,1.33-.2,4.62,1.95,3.34a50.57,50.57,0,0,1,12-5.19l-1.52-3.61L189,76.3c-2.24,1.38-.29,4.52,2,3.46q8.43-3.86,17.16-7L206.56,69a122.87,122.87,0,0,1-13.85,6.48c-2.5,1-1.41,5.06,1.12,4.07L207,74.42l-1.63-3.87-13.9,6.81c-2.51,1.23-.3,4.72,2.15,3.68l10.55-4.47c2.23-.94.64-4.66-1.64-3.9q-9.47,3.14-18.65,7l1.66,3.93a43.14,43.14,0,0,1,18.85-6.75l-1.11-4.12L195.06,77c-2.23,1.15-.69,5,1.73,4.1l10.89-3.86-1.76-4.18-6.56,3.82c-2.58,1.51-.29,5.41,2.35,4a56,56,0,0,1,7.56-3.34L207,73.63a34.42,34.42,0,0,1-5.47,3.6l2.41,4.12a35.07,35.07,0,0,1,9-3.6l-1.87-4.43-6.73,4.52c-2.22,1.49-.9,5.33,1.9,4.5L215,79.73,213,75.17l-4.81,2.75c-2.42,1.39-.81,5.52,1.94,4.6l9.51-3.16-2-4.68A8.9,8.9,0,0,1,214,76.45l2,4.71a91.91,91.91,0,0,0,8.43-5.53c2.15-1.58,1-5.78-2-4.71l-8.14,2.93,2,4.71a40.61,40.61,0,0,1,8.75-4l-2-4.72a36.33,36.33,0,0,1-6,2.89c-3.05,1.15-1.86,6,1.37,5a26.5,26.5,0,0,0,9.58-5.25c2.15-1.8-.23-4.74-2.51-4.31a53,53,0,0,0-12.78,4.24l2.61,4.45,9.24-4.58c2.58-1.28.76-5.78-2-4.71l-11,4.28,2,4.71L222.4,72c2.56-1.32.78-5.75-2-4.73l-11.07,4.09c-3.12,1.15-1.8,6.18,1.39,5A50.89,50.89,0,0,0,222,70.74c2.26-1.5.88-5.8-2-4.67-3.55,1.41-7.1,2.85-10.69,4.16-3,1.1-1.81,5.93,1.35,4.91a65,65,0,0,0,15.08-6.94c3.14-2,.41-6.53-2.89-4.94a110,110,0,0,1-15.39,6l1.56,5.67,13.57-5.54c3.53-1.44,2-7.24-1.59-5.78l-10.63,4.3c-3.58,1.45-2.05,7.33,1.62,5.88q9.56-3.78,18.87-8.1l-3.17-5.4-5.49,3.14c-3,1.72-1,7.07,2.43,5.77l13.11-5-2.48-5.88L226,62.91c-3.82,1.89-.47,7.26,3.29,5.63a103.85,103.85,0,0,1,15.92-5.37l-2.57-6.1q-7.71,4.44-15.71,8.27c-4,1.91-.51,7.65,3.44,5.89l15.09-6.73-3.51-6q-8,4.26-16.33,7.93c-3.64,1.61-1,8,2.74,6.5l20.18-8-2.81-6.66-17.63,9.38c-3.72,2-1.18,8,2.88,6.82a88.47,88.47,0,0,0,19.46-8.65c4-2.41.45-8.52-3.68-6.29L238.45,64c-4.11,2.21-.5,8.1,3.61,6.18a103.57,103.57,0,0,1,14.36-5.43l-2.68-6.34-8.19,4.32c-3.34,1.76-1,7.71,2.63,6.23L255.34,66l-2.59-6.14a110.28,110.28,0,0,0-18.48,10.74c-2.85,2-1.28,7.26,2.55,6l14.08-4.45-2.59-6.13c-5.15,2.61-10.39,5-15.76,7.15l2.63,6.23a101.35,101.35,0,0,1,19.38-6.67l-2.67-6.34-12.4,5.32c-3.66,1.57-1.05,7.61,2.7,6.41l15.81-5-2.74-6.5L239.51,75c-3.63,1.91-1.13,7.74,2.79,6.6l16.55-4.84L256,70.05l-8.26,6c-3.06,2.25-1.39,8.39,2.85,6.75a59.71,59.71,0,0,1,10-2.89l-2.87-6.81-9.9,6.69c-3.44,2.32-1.39,8,2.89,6.87l10.93-2.92-2.92-6.93a120.58,120.58,0,0,1-12.18,5.58c-4.49,1.75-2.83,8.71,2,7.38L262.52,86l-2-7.46-24,9.36,2.09,7.59,15.24-6.32c4.58-1.89,2.93-9.21-2.12-7.67a186.88,186.88,0,0,0-22.55,8.54l4.07,7a62.39,62.39,0,0,1,17.08-7.42l-3.15-7.48L224.47,92l4.2,7.18a109,109,0,0,1,22.69-9.27l-3.25-7.72C242.54,86,237,89.88,231.42,93.76c-4.56,3.18-.69,9.47,4.28,7.33l21.37-9.21-4.2-7.18a108.48,108.48,0,0,1-29.45,12.41l3.93,6.74A115.31,115.31,0,0,1,245,92.54c4.51-2.37.53-9.15-4-6.83-8.14,4.2-16.39,8.19-24.7,12-4.64,2.16-.6,8.92,4,6.85l15.12-6.81c4.09-1.84,1.18-8.74-3.07-7.27a254.41,254.41,0,0,1-46,11.2l4.55,5.92c1-2.18,5.87-3,8-3.75l9.16-3.31,17.4-6.31-2.1-7.6-17.7,6.62,3,7.12a179,179,0,0,1,21.71-9.15l-3-7q-6.33,3.42-12.93,6.25c-3.93,1.68-1.12,8.44,2.93,7l21.32-7.78-2-7.25a312.6,312.6,0,0,1-29.93,10l2.92,6.93A90.86,90.86,0,0,1,227.6,89.7l-2-7.38Q211,88.23,196.77,94.79l3.91,6.7q10.14-5.8,20.75-10.64l-4-6.77Q206,89.5,194.24,94.39l3,7.23,19.33-10.09c4.59-2.4.56-9.11-4-6.89q-13,6.27-26.41,11.61l3.1,7.36L209,91.88c4.49-2.67.56-9.12-4-6.92l-25.47,12.2,4.83,6.26A128.56,128.56,0,0,1,200,92.87c4.48-2.55.54-9.1-4-6.85l-18.85,9.3,4,6.82L202,90.32c4.47-2.53.55-8.93-4-6.79L172,95.88l4,6.75a122.47,122.47,0,0,1,17.19-11.12c4.45-2.38.53-9-3.93-6.73L184.84,87c-4.48,2.23-.55,9,3.92,6.72l4.36-2.17-3.93-6.73A124,124,0,0,0,172,95.88c-3.94,3-.7,9,4,6.75L202,90.32l-4-6.79L177.19,95.32c-4.47,2.52-.54,9.05,4,6.82L200,92.87,196,86a141,141,0,0,0-17.41,11.77c-3.78,3,1,8.07,4.83,6.26L209,91.88l-4-6.92L185.22,96.65c-3.77,2.24-1.27,9.1,3.1,7.36q14.38-5.72,28.3-12.48l-4-6.89-19.3,10.15c-3.88,2-1.14,9,3.05,7.23Q209,96.71,221.43,90.85c4.57-2.17.59-8.85-4-6.77Q206.88,89,196.77,94.79c-4.4,2.54-.54,8.78,3.91,6.7Q214,95.3,227.6,89.7c4.48-1.84,2.56-9.22-2-7.38A98.89,98.89,0,0,0,205.84,92.8c-3.39,2.35-1.43,8.17,2.93,6.94,10.13-2.88,20.08-6.28,29.91-10.07,4.44-1.72,2.6-8.9-2-7.25l-21.34,7.69,2.93,7c4.43-1.87,8.74-3.93,13-6.2,3.79-2,1.2-8.43-3-7a193.94,193.94,0,0,0-23.61,9.83c-3.9,1.94-1.16,8.66,3,7.12l17.72-6.53c4.71-1.74,2.71-9.32-2.1-7.6l-22.92,8.19c-5.2,1.86-13.93,3.11-16.49,8.71-1.54,3.38,1,6.45,4.55,5.92a254.45,254.45,0,0,0,46-11.3l-3.07-7.27-15.1,6.83,4,6.85Q232.71,98.78,245,92.54l-4-6.83a127.12,127.12,0,0,0-19.32,12.43c-3.38,2.62.36,7.64,3.92,6.75a116.13,116.13,0,0,0,31.51-13c3.88-2.31,1.27-9.49-3.21-7.6l-21.43,9,3.27,7.76c5.58-3.84,11.12-7.72,16.67-11.59,3.75-2.62,1.61-9.14-3.25-7.73A118.89,118.89,0,0,0,224.47,92c-4.79,2.64-.58,9.28,4.2,7.18l22.64-10c4.31-1.9,1.21-8.67-3.15-7.48a69.66,69.66,0,0,0-19,8.34c-4.47,2.82-.59,9.11,4.07,7a171.84,171.84,0,0,1,20.6-7.84l-2.12-7.67-15.21,6.4c-4.56,1.92-2.66,9.47,2.09,7.59L262.52,86c4.51-1.79,2.86-8.83-2-7.46l-13.89,3.88,2,7.38a140,140,0,0,0,14-6.41c3.83-2,1.19-8-2.92-6.93l-10.92,3,2.9,6.87,9.87-6.75a3.74,3.74,0,0,0-2.87-6.8,58.75,58.75,0,0,0-10,3l2.84,6.75,8.23-6.1c3.11-2.31,1.46-8-2.82-6.7l-16.53,4.93,2.78,6.6,15.69-8.38c3.53-1.88,1.12-7.75-2.74-6.5l-15.78,5.11,2.7,6.42,12.36-5.39c3.71-1.61,1-7.23-2.68-6.34a109.76,109.76,0,0,0-21,7.47c-3.45,1.63-1,7.69,2.62,6.23,5.9-2.4,11.68-5,17.34-7.93,3.36-1.73,1-7.3-2.59-6.13L235.06,70.3l2.55,6A100.25,100.25,0,0,1,256.14,65.7c3.44-1.52,1-7.53-2.59-6.14l-7.19,2.82L249,68.61l8.26-4.22c3.53-1.8,1.07-7.41-2.68-6.34A115.31,115.31,0,0,0,238.45,64l3.61,6.18,8.33-4.34-3.68-6.29a87.92,87.92,0,0,1-17.77,7.74l2.88,6.82,17.54-9.53c3.54-1.92,1.09-8.24-2.81-6.66l-20.13,8.15,2.74,6.5q8.28-3.74,16.25-8.06c4-2.17.49-7.83-3.51-6l-15,6.85,3.44,5.89q8-3.92,15.64-8.4c3.27-1.91,1.1-7.06-2.57-6.09A113.62,113.62,0,0,0,226,62.91l3.29,5.63,9.34-4.72c3.2-1.61.94-7.22-2.48-5.88L223,63.07l2.43,5.77,5.48-3.19c3.53-2.05.43-7.11-3.17-5.4q-8.55,4.05-17.32,7.62l1.62,5.88,10.6-4.4-1.59-5.78-13.54,5.65c-3.37,1.41-2.15,6.83,1.56,5.67a119.47,119.47,0,0,0,16.72-6.69l-2.89-4.94a69.62,69.62,0,0,1-13.54,7l1.35,4.91c3.54-1.46,7.12-2.79,10.7-4.15l-2-4.66a50.49,50.49,0,0,1-10.12,5l1.39,5,11.05-4.14-2-4.73-8.89,4.6c-2.55,1.31-.77,5.78,2,4.71l11-4.28-2-4.71-9.25,4.58c-3,1.48-.37,5.86,2.61,4.45a47.34,47.34,0,0,1,11.55-3.71l-2.51-4.31A19.84,19.84,0,0,1,217,72.76l1.37,5a47.65,47.65,0,0,0,7.27-3.41c2.47-1.45.85-5.62-2-4.72a47.19,47.19,0,0,0-10,4.5c-2.41,1.45-.85,5.73,2,4.71l8.14-2.93-2-4.71a94,94,0,0,1-8.43,5.53c-2.49,1.45-.85,5.58,2,4.71a17.39,17.39,0,0,0,4.93-2.32c2.26-1.54.93-5.67-2-4.68l-9.48,3.25,1.94,4.6,4.78-2.79c2.41-1.4.83-5.4-1.92-4.56l-8.71,2.67,1.89,4.5,6.7-4.58c2.21-1.52.9-5.15-1.87-4.44a39.6,39.6,0,0,0-10.15,4.16c-2.66,1.54-.28,5.6,2.41,4.12a41.21,41.21,0,0,0,6.4-4.39c1.79-1.48-.13-4.73-2.3-3.94a65.66,65.66,0,0,0-8.65,3.88l2.35,4L208.23,77c2.16-1.28.75-5.1-1.77-4.18l-10.87,3.94,1.73,4.1,8.2-4.34c1.84-1,1.1-4.38-1.12-4.12a48.57,48.57,0,0,0-21,7.46c-2.4,1.54-.32,4.77,2.17,3.71q8.92-3.76,18.12-6.81L202,72.88l-10.55,4.48L193.63,81l13.89-6.83c2.12-1,.61-4.76-1.64-3.88l-13.17,5.18,1.12,4.07a124.28,124.28,0,0,0,14.81-7c2-1.1.65-4.58-1.59-3.77Q197.84,72.16,189,76.3l2,3.46,8.69-5.44c1.86-1.16.69-4.25-1.52-3.61a54.41,54.41,0,0,0-12.91,5.66l1.95,3.34,8.4-5.4c2.05-1.31.22-4.51-1.92-3.28a105.18,105.18,0,0,1-12.14,6l1.81,3.11a44.1,44.1,0,0,1,8-7.28,1.83,1.83,0,0,0-1.84-3.15,16.73,16.73,0,0,0-7.27,6.69,1.81,1.81,0,0,0,2.46,2.46l5.81-2.95-1.79-3.08a57.52,57.52,0,0,0-8.14,5.8c-1.49,1.28.5,3.9,2.12,2.75,3.18-2.26,6.43-4.42,9.77-6.45l-1.58-2.7a64.88,64.88,0,0,0-7,5.09c-.95.8-.12,2.27,1,2.31a22.77,22.77,0,0,0,10-1.77l-.85-2a58.82,58.82,0,0,1-8.8,4.41c-1,.4-.59,2,.45,1.63Z" transform="translate(-5.44 -44.16)"/><path class="cls-2" d="M149.36,127.54a9.26,9.26,0,0,1-1.63-5.63l-2,.27,1.43,7.93,3.65-1a75.25,75.25,0,0,0-3.73-7.53c-1-1.92-3.86-.94-3.93,1.06a15.76,15.76,0,0,0,2.09,8.67l3.3-2.56-1.37-2.94c-.62-2.68-4.48-1.5-4.06,1.12a15.43,15.43,0,0,0,3.63,7.78c1.46,1.77,3.87-.2,3.52-2.05a75.93,75.93,0,0,0-2.67-10.16c-.86-2.54-4.89-1.47-4.05,1.11a66.22,66.22,0,0,0,6,13.3,2.11,2.11,0,0,0,3.83-1.62q-2-7.42-4.58-14.63a2.09,2.09,0,0,0-4,1.11,32.21,32.21,0,0,0,5.44,13.08,2.09,2.09,0,0,0,3.81-1.6,110.43,110.43,0,0,0-4.64-14.41c-1-2.43-4.69-1.56-4,1.1A62.66,62.66,0,0,0,151.42,135c1.12,2,4.69.63,3.79-1.6l-5.84-14.56-4,1.1,7.23,17.54c1,2.38,4.8,1.5,4-1.1-2-6.18-4-12.33-5.93-18.51a2,2,0,0,0-3.8,1.05,64.29,64.29,0,0,0,7.26,17.29c1.09,1.81,4.37.63,3.55-1.49q-3.87-9.94-7.67-19.9l-3.61,1.52q4,8.46,7.44,17.16c1,2.46,5,1.48,4.06-1.12l-5.62-16.28c-.93-2.68-5.21-1.53-4.28,1.18a120.89,120.89,0,0,0,9.67,21.15c1.25,2.17,5,.74,4.15-1.74q-4.26-12-9.32-23.7c-1.08-2.49-4.71-.64-4.19,1.76a63.17,63.17,0,0,0,7.06,18.33c1.52,2.64,5.16.33,4-2.33l-7.89-17.87-4,2.35c2.94,6.2,5.86,12.42,8.81,18.61,1.14,2.4,5,.71,4.26-1.8a131.18,131.18,0,0,0-9.23-22.74c-1.16-2.23-5.09-.67-4.14,1.75a135.68,135.68,0,0,0,10.61,21.61,2.18,2.18,0,0,0,4-1.67,187.66,187.66,0,0,0-7.64-22.6c-.86-2.07-4.07-1.34-3.46.95a92.8,92.8,0,0,0,10.54,25c1.2,2,3.89.26,3-1.76q-5.1-11.65-9.22-23.7a1.81,1.81,0,0,0-3.49,1,93.91,93.91,0,0,0,9.45,24.41,1.86,1.86,0,0,0,3.39-1.43,185.08,185.08,0,0,0-9.06-26.09c-.84-1.94-3.85-.54-3.34,1.41a89.58,89.58,0,0,0,11,25.27c1,1.6,4,.57,3.23-1.36-3.59-8.56-6.81-17.25-9.74-26.06a1.7,1.7,0,0,0-3.27.9,76.84,76.84,0,0,0,11.46,26.68c1.24,1.8,4.41.75,3.71-1.56-1.7-5.56-3.33-11.14-5.22-16.64-.77-2.24-4.63-2.07-4.4.6a34.26,34.26,0,0,0,7.47,18.82c1.28,1.62,3.75-.16,3.29-1.92a65.5,65.5,0,0,0-5.56-14.22c-.67-1.27-3-1.1-3.23.42a20,20,0,0,0,3.47,15.5,1.62,1.62,0,0,0,3-.81,26.53,26.53,0,0,0-2.46-14.8c-.68-1.49-2.58-.51-2.74.74A15.82,15.82,0,0,0,169,135a1.62,1.62,0,0,0,2.42-1.39A48,48,0,0,0,167.22,118c-.88-1.93-3.48-.45-3.18,1.34a61.3,61.3,0,0,0,4.84,15.57c.9,1.95,4.19.56,3.49-1.47l-5.83-16.92a2.1,2.1,0,0,0-4,1.11,61.75,61.75,0,0,0,2.89,10.95l4.27-1.18L163,109.48c-1.08-2.87-5.39-1.79-4.66,1.29a48.56,48.56,0,0,0,3.89,10.63c1.33,2.65,5.24.75,4.62-2a86.14,86.14,0,0,0-5.22-15.55c-1.08-2.45-5.19-1.21-5,1.36a32.82,32.82,0,0,0,3,11.67c1.34,2.93,6.28.85,5.22-2.2l-4.25-12.25a3.18,3.18,0,0,0-6.22.84,30,30,0,0,0,.77,10.51l6.55-1.8-3.44-10.09c-1.31-3.85-7.06-3.27-7.17,1a16.91,16.91,0,0,0,3,10.38c2.61,3.79,7.66,1.3,7.07-3-.51-3.7-1.24-7.37-1.9-11l-7.55,2.08a41.8,41.8,0,0,0,5.35,12.4,3.93,3.93,0,0,0,7.25-2,59.8,59.8,0,0,0-1.47-15.61c-1.11-4.93-8.18-2.74-7.43,2a31.7,31.7,0,0,0,4.9,12.62c2.46,3.75,7.7,1.28,7-2.94a94.9,94.9,0,0,0-2.88-12.12c-1.44-4.66-8.5-2.74-7.32,2a30.21,30.21,0,0,0,6.72,12.72c2.69,3.09,6.91-.31,6.29-3.66A135.28,135.28,0,0,0,166.48,92c-1.39-4.58-8.41-2.68-7.19,2a50.45,50.45,0,0,0,5.36,12.85c2.21,3.77,7.52,1.15,6.76-2.85l-2-10.49-7.12,2a45.35,45.35,0,0,0,4.31,8.44c1.88,2.85,7.12,2,6.88-1.86a76.57,76.57,0,0,0-1.84-12.6c-1.11-4.72-7.79-2.61-7.11,2a24.4,24.4,0,0,0,4.08,10.37c1.86,2.73,7.22,2.08,6.85-1.86l-1-11-7.21,1a37.84,37.84,0,0,0,3.23,8.48c1.42,2.74,6,2.17,6.7-.88a25.23,25.23,0,0,0,.57-7.55l-7.2,1a12.59,12.59,0,0,0,3,6.35c1.32,1.66,3.8,1.13,5.18,0,1.21-1,1-2.15,1.81-3.15,1.29-1.59-1.16.21,1.23-.92s3.7-.73,5.41-3.08l-6.31-3.69a137.41,137.41,0,0,1-11.18,15c-2.5,2.91.9,8.41,4.43,5.74a58.18,58.18,0,0,1,7.8-5l-3.69-6.31A99.32,99.32,0,0,0,165.43,107c-3.34,3.46,1.58,8.07,5.17,5.17l10-8.1-5.74-4.43a73.44,73.44,0,0,1-10.12,10.66c-3.09,2.69,1,8.15,4.43,5.74,4.65-3.29,9.18-6.72,13.63-10.28,3.2-2.57-1.08-8.21-4.43-5.74a113.72,113.72,0,0,0-14.91,13c-2.79,2.91.84,8.08,4.43,5.74l14.75-9.62-4.43-5.74a85.43,85.43,0,0,0-13.07,14.07c-2.7,3.61,2.79,6.77,5.74,4.43l15.23-12.07L181,104.6,168,116.67c-3.5,3.27,1.6,8.1,5.17,5.17q5.69-4.66,11.69-8.93l-3.7-6.31a63.79,63.79,0,0,0-14.1,14.21c-2.14,3,2.06,7,5,5l18-12.25-4.43-5.75a113.69,113.69,0,0,0-15,15c-3,3.6,1.61,8.34,5.17,5.17l11.88-10.57c3.05-2.72-1.06-8.22-4.43-5.75a62.27,62.27,0,0,0-13.78,13.86c-2.22,3.06,2,6.75,5,5l13.09-7.74L183.18,117,171,128.89c-3,2.92.83,7.79,4.43,5.75A133.56,133.56,0,0,0,187.35,127l-4.43-5.74a66.68,66.68,0,0,1-8.2,7.56c-3.26,2.54,1,8,4.43,5.74a79.44,79.44,0,0,0,8.67-6.73c3.25-2.9-.88-7.51-4.43-5.74a58,58,0,0,0-12.7,8.64c-2.63,2.34.14,7.44,3.56,6.11a72.93,72.93,0,0,0,13.94-7.11L183.76,124l-6.4,5.67c-3.36,3,.93,7.26,4.43,5.74a93.31,93.31,0,0,0,14.14-7.59l-4.48-5.8-10.31,8.89c-2.73,2.35.18,7.67,3.64,6.25A133,133,0,0,0,199.83,130l-4.61-6-7.64,6.67c-3.43,3,.94,7.91,4.66,6l12.4-6.29-4.72-6.11-6,4.76c-3.76,3,1,7.83,4.75,6.16l11.75-5.3-4.81-6.24-5.19,5.06c-2.69,2.62,0,8.19,3.89,6.68l11.4-4.51-3.12-7.38-8.2,6.26c-3.37,2.58-1.66,9,3.15,7.46a70,70,0,0,0,14.44-6.38l-5-6.49-4.55,4.22c-3.55,3.3,1,8.71,5,6.53l10.07-5.39-5.09-6.59L217,127.7c-3.28,2.75.24,8.26,4.11,7.06a95.64,95.64,0,0,0,10.87-4.13c5-2.23.66-9.64-4.31-7.37a77.3,77.3,0,0,1-8.8,3.35l4.11,7.06,5.39-4.57c3.74-3.18-1-8.81-5.09-6.6l-10,5.46,5,6.53,4.51-4.26c3.43-3.23-1-8.89-5-6.49a60.31,60.31,0,0,1-12.43,5.65l4,6.82,8.15-6.33c3.13-2.43-.28-8.23-3.93-6.75l-11.38,4.59L206,134.4l5.15-5.09c3.39-3.35-.88-8-4.81-6.24l-11.69,5.39,4.75,6.15,6-4.79c3.6-2.88-1-8-4.72-6.12l-12.35,6.38,4.66,6,7.58-6.72c3.28-2.92-.93-8.07-4.61-6a119.86,119.86,0,0,1-13.2,6.53l3.65,6.26,10.24-9c3.13-2.74-1-8.13-4.48-5.8a89.36,89.36,0,0,1-14.1,7.66l4.43,5.74,6.4-5.67c3.08-2.74-1-8-4.43-5.74a64.56,64.56,0,0,1-12.19,6.37l3.55,6.11a51.25,51.25,0,0,1,11.22-7.5l-4.43-5.74a65.89,65.89,0,0,1-7.19,5.59l4.43,5.74a66.68,66.68,0,0,0,8.2-7.56c2.66-2.89-.89-8.27-4.43-5.74a133.45,133.45,0,0,1-11.91,7.61l4.43,5.74,12.17-11.85c3-2.9-.84-7.87-4.43-5.75l-13.09,7.74,5,5A51,51,0,0,1,187,118l-4.43-5.74-11.88,10.57,5.17,5.17a113.69,113.69,0,0,1,15-15c3.18-2.63-1-8.07-4.43-5.74l-18,12.25,5,5a52.42,52.42,0,0,1,11.49-11.59c3.73-2.75.17-9.06-3.7-6.31q-6.75,4.8-13.16,10.07l5.17,5.17,12.93-12.07c3.52-3.28-1.58-8-5.17-5.17l-15.23,12.07,5.74,4.43a77.71,77.71,0,0,1,11.93-12.59c3.15-2.69-1-8-4.43-5.74l-14.75,9.62,4.43,5.74a103.54,103.54,0,0,1,13.43-11.84l-4.43-5.74q-5.94,4.76-12.15,9.14l4.43,5.74a82,82,0,0,0,11.26-12.14c2.72-3.55-2.8-6.81-5.74-4.43l-10,8.1,5.17,5.17a90,90,0,0,1,11.31-10c3.72-2.74.55-8.57-3.69-6.31a57.2,57.2,0,0,0-7.8,5l4.43,5.74a151,151,0,0,0,12.32-16.48c2.6-4-3.59-7.41-6.31-3.69.38-.51-4.52.38-5.22.92A5.79,5.79,0,0,0,174,89.46a17,17,0,0,0-.41,2.61h5.18a5.36,5.36,0,0,1-1.1-3.13c-.58-4-7.52-3.13-7.19,1a17.61,17.61,0,0,1-.31,5.6l6.7-.87a29.89,29.89,0,0,1-2.48-6.73c-1-3.93-7.59-3.21-7.21,1l1,11L175,98a19.85,19.85,0,0,1-3.32-8.62l-7.11,2A62.5,62.5,0,0,1,166.12,102l6.87-1.86a36.91,36.91,0,0,1-3.56-6.68,3.69,3.69,0,0,0-7.12,2l2,10.49,6.76-2.85A42.11,42.11,0,0,1,166.48,92l-7.19,2a135.93,135.93,0,0,1,3.54,14.89l6.29-3.66a21.83,21.83,0,0,1-4.73-9.42l-7.32,2a92.84,92.84,0,0,1,2.83,12.13l7-3a26.21,26.21,0,0,1-4.07-10.81l-7.43,2a51.05,51.05,0,0,1,1.12,13.56l7.25-2a34.75,34.75,0,0,1-4.52-10.55c-1.23-5-8.4-2.8-7.55,2.08.64,3.68,1.21,7.38,2,11l7.07-3a10.18,10.18,0,0,1-2.41-6.48l-7.17,1,3.93,10c1.57,4,7.82,2.49,6.55-1.8a24.92,24.92,0,0,1-1-8.71l-6.21.84,4.85,12.09,5.21-2.2a22.94,22.94,0,0,1-2.53-8.79l-5,1.36a79.07,79.07,0,0,1,5,14.18l4.62-2a42.29,42.29,0,0,1-3.6-9.37l-4.66,1.29,7.07,17.77c1,2.61,5.31,1.49,4.27-1.18a61.42,61.42,0,0,1-3.11-10.88l-4,1.11,6.2,16.82,3.48-1.47a57.21,57.21,0,0,1-4.77-14.57l-3.18,1.34a44.06,44.06,0,0,1,3.95,13.94l2.41-1.39a12.8,12.8,0,0,1-5.73-12.51l-2.74.74a21.94,21.94,0,0,1,1.86,12.9l2.92-.39a16.59,16.59,0,0,1-2.82-12.94l-3.24.43A59.71,59.71,0,0,1,165.65,134l3.6-1.52A29.92,29.92,0,0,1,163.17,116l-4.4.59c1.73,5.56,3.71,11,5.63,16.52l3.7-1.56A64.54,64.54,0,0,1,156.41,106l-3.27.9q4.25,13.26,9.6,26.1l3.23-1.36a85.51,85.51,0,0,1-10.54-24.46l-3.34,1.4a188.72,188.72,0,0,1,8.64,25.24l3.39-1.43a90.21,90.21,0,0,1-9.16-23.5l-3.49,1q4.34,12.47,9.69,24.5l3-1.76a79.48,79.48,0,0,1-10.1-24.23l-3.46.95a183.6,183.6,0,0,1,6.91,22.8l4-1.67a150.91,150.91,0,0,1-10-20.63l-4.13,1.75A125.28,125.28,0,0,1,156,133.29l4.26-1.79q-4.38-9.33-8.82-18.61c-1.29-2.73-5.21-.35-4,2.35l7.92,17.85,4-2.33a59.18,59.18,0,0,1-6.63-17.21l-4.19,1.76q4.83,11.14,8.9,22.59l4.15-1.75a120.31,120.31,0,0,1-9.31-20L148,117.29l5.84,16.22,4.06-1.12q-3.75-9.15-8.09-18c-1-2-4.43-.57-3.61,1.52q3.92,9.91,7.73,19.88l3.55-1.5a60.48,60.48,0,0,1-6.81-16.38l-3.8,1.05c1.94,6.18,3.8,12.38,5.75,18.56l4-1.1-7.22-17.54c-1-2.42-5-1.38-4,1.1l5.83,14.56,3.79-1.6a58.47,58.47,0,0,1-5.63-14.07l-4,1.1A112.06,112.06,0,0,1,150,134.36l3.81-1.61a29.66,29.66,0,0,1-5-12.09l-4,1.11q2.61,7.22,4.56,14.64l3.83-1.62a60.16,60.16,0,0,1-5.56-12.29l-4.05,1.11a74.93,74.93,0,0,1,2.66,10.17l3.52-2a11.37,11.37,0,0,1-2.55-5.93l-4.06,1.12a10.39,10.39,0,0,0,2.45,4.8c1.58,1.89,4.42-.52,3.31-2.55a11.67,11.67,0,0,1-1.5-6.54l-3.93,1.06a73.71,73.71,0,0,0,3.91,6.87c1.12,1.63,4.34.64,3.46-1.46l-3.12-7.47c-.49-1.17-2.31-.77-2,.54a13,13,0,0,0,3.11,5.75c.25.29.7-.07.52-.39Z" transform="translate(-5.44 -44.16)"/><path class="cls-2" d="M190.16,107.34l-3.65,4.23c-2.82,3.27,1.71,8,4.8,4.8,1.94-2,3.87-4,5.84-5.92l-5.52-4.27a49,49,0,0,1-6.42,7l5.37,5.36a83.83,83.83,0,0,0,7.39-9.2c2.25-3.27-2.66-6.79-5.37-4.15A50.1,50.1,0,0,0,184.15,116c-1.65,2.84,1.86,7,4.81,4.81a135.7,135.7,0,0,0,11.66-9.6l-5.11-5.12L187,115.4c-2.65,2.89.9,8.28,4.42,5.73a90.09,90.09,0,0,0,13.83-12.27L200,103.64l-12.81,15.78c-3,3.67,1.72,8.69,5.29,5.29q7.28-6.9,14.53-13.82l-6-4.6A130,130,0,0,1,189.94,120c-3.18,3.4,1.72,8.32,5.11,5.11a134.91,134.91,0,0,0,15.23-17.16c2.47-3.29-3-7.48-5.72-4.4-4.53,5.12-9.05,10.26-13.62,15.35-2.64,2.95.8,8.17,4.45,5.76a72.48,72.48,0,0,0,17.93-16.83l-6.63-3.88c-4,5.29-8,10.56-11.95,15.87-2.77,3.7,3,7.72,6.19,4.77a177.48,177.48,0,0,0,15.68-16.76L210.4,103l-14.62,19.36c-2.76,3.65,3.13,7.93,6.23,4.81a229.21,229.21,0,0,0,17.76-20.13c3.11-4-2.34-9.63-5.63-5.63A111.44,111.44,0,0,0,201.67,120a4,4,0,0,0,6.19,4.77,111.4,111.4,0,0,0,14.73-16.55c2.6-3.53-3.38-8.2-6.13-4.73q-6.42,8.16-12.88,16.29c-3.12,3.93,2.07,9.52,5.66,5.66q8.35-9,16.67-18l-6.41-4.94q-6,9.24-12.88,17.9c-2.77,3.48.6,8.57,4.89,6.34,7.94-4.13,10.76-13,17.72-18.07l-5.58-5.58-12.16,17.4c-2.69,3.84,3.63,8.82,6.57,5.06l14.66-18.75L226,101.64c-4.65,6.22-8.95,12.48-11.08,20-1.14,4.06,4.42,7.72,7.37,4.29a228,228,0,0,0,16-20.68l-7.71-4.51c-4.31,7.07-8.41,14.18-10.69,22.2-1.44,5.1,5.12,7,7.94,3.35a125.07,125.07,0,0,0,12.66-20.12c2.52-5-5-9.48-7.57-4.43-3.57,7.13-7.06,14.29-8.87,22.09-1.13,4.86,5.43,7.79,8.11,3.42a145.55,145.55,0,0,0,11.53-23.35l-8.67-2.39c-2.1,5.9-3.87,11.7-4.17,18-.21,4.35,6.67,6.52,8.54,2.31,3.13-7,6.21-14.12,9.31-21.18,2.34-5.34-4.51-9.55-7.91-4.62a37.5,37.5,0,0,0-6.63,21.75,4.59,4.59,0,0,0,8.49,2.3c3.15-5.32,6.28-10.64,9.44-16l-7.86-4.59a64.65,64.65,0,0,0-4.79,11c-1.68,5,6.19,8.42,8.62,3.64,2.57-5.07,4.94-10.22,7.05-15.51s-6.52-8.76-9-3.79a48.24,48.24,0,0,0-4.82,16.26c-.64,5.31,6.78,6.12,9.23,2.5A60.74,60.74,0,0,0,258,97.86c2.07-6.52-7.66-8.88-10.07-2.77a51.47,51.47,0,0,0-2.88,13c-.73,6.26,8.52,6.65,10.39,1.4q2.67-7.45,4.73-15.09L249.84,93a42.71,42.71,0,0,0,.9,15.07c1.19,5.15,8.82,4.89,10.16,0l3.49-12.82-10.32-1.39c-.21,4.3-.42,8.6-.7,12.9-.45,7,9.82,6.62,10.65,0a74.6,74.6,0,0,1,4.23-16.69l-10.85-3a60,60,0,0,0-.71,16.65c.79,7.62,10.82,7.49,11.76,0a54.58,54.58,0,0,0-.72-17.48c-1.1-5.7-10.71-5.86-11.69,0a32.9,32.9,0,0,0,1.66,18.29c2,4.92,10.55,6.62,11.77,0L272.7,87l-12.08-1.64a82.4,82.4,0,0,0,.33,15.86c.79,6.79,9.79,8.59,12.17,1.65a59.17,59.17,0,0,0,3.14-18.56c.1-8.12-11.89-7.92-12.49,0a205.23,205.23,0,0,0,2.11,47.56l9.35-7.19a28.47,28.47,0,0,0-15.5-4.58l5.47,9.53A49,49,0,0,0,271.39,113c1.1-6.4-8.23-11.78-11.44-4.83a49.62,49.62,0,0,0-4.59,17.61h12.39l.71-13.37c.32-6-8.67-8.44-11.43-3.09a40.92,40.92,0,0,0-4.72,18.89l11.91-1.61-3-10.42c-1.54-5.39-8-5.42-11-1.44a30.32,30.32,0,0,0-5.82,13.73c-1.18,7.67,8.83,10.56,11.65,3.21a37.88,37.88,0,0,0,2.38-17c-.51-5.74-8.14-8.66-11.38-3.08a33.57,33.57,0,0,0-4.64,18.24c.24,7.1,9.78,8.12,12.07,1.63a26.32,26.32,0,0,0,.36-16.46,6.22,6.22,0,0,0-10.29-2.72,19.94,19.94,0,0,0-6.12,16.7,6.55,6.55,0,0,0,4.53,5.95l1.9.68c3.28,1.18,6.57-1.35,7.59-4.31,2.36-6.81-.16-16.07-8.88-15.8-7.58.23-11.8,8.47-11.68,15.17.09,4.57,5.23,7.86,9.31,5.34,4.47-2.76,6.32-8.41,3.15-13-1.52-2.18-4.23-3.71-7-2.83-6.7,2.15-9.85,8-8.7,14.76.4,2.36,3.45,4.78,5.88,4.48,5.84-.71,10.25-6.65,6.23-12.16S229.55,124,226,128.55c-3.32,4.26-.48,12.14,5.86,10,3-1,4.39-2.45,5.5-5.45,2.68-7.25-8.92-10.38-11.57-3.19l-.35.95,4.19-4.19-1,.28,5.85,10.06q3.64-3.65-3.4-8.08l4.31-1.78-.81.08,5.88,4.48a.81.81,0,0,1,.22.38l-7-2.84,1.26-4,9.3,5.34c0-.67.61-2.25.53-2.64.77-.85.21-1.19-1.69-1q-2.46-1.72-2.55,1l7.59-4.3-1.9-.69,4.52,6c-.39-3.25.1-5.63,2.49-8L243,118.28a14.89,14.89,0,0,1-.33,9.92l12.07,1.64a21.91,21.91,0,0,1,2.89-12.08l-11.37-3.08a29.6,29.6,0,0,1-1.82,13.82l11.65,3.21a21.92,21.92,0,0,1,4.55-10.87l-11-1.44,2.89,10.45c1.83,6.62,11.81,5.25,11.9-1.61a27.42,27.42,0,0,1,3.19-12.7l-11.42-3.1-.84,13.37c-.5,8,11.74,7.87,12.39,0a32.39,32.39,0,0,1,3-11.29l-11.44-4.82a39.11,39.11,0,0,1-5,13.55c-2.53,4.2.75,9.42,5.46,9.52a16.67,16.67,0,0,1,9.07,2.91c5.13,3.29,10.18-2.12,9.36-7.19a191,191,0,0,1-1.9-44.17H263.77a47.72,47.72,0,0,1-2.6,15.26l12.17,1.65a83.23,83.23,0,0,1-.42-15.86c.47-6.83-10.86-8.49-12.08-1.63l-3.14,17.54h11.77a21.38,21.38,0,0,1-1.74-11.82H256a49,49,0,0,1,.65,14.25l11.55-1.56a45,45,0,0,1,0-12.1c1-7-8.49-10.06-10.85-3a86.35,86.35,0,0,0-4,19.68H264c.14-4.3.35-8.6.56-12.9.3-6-8.77-7-10.32-1.4l-3.52,12.81H260.9A34.22,34.22,0,0,1,260.39,93c.76-6-8.84-7-10.36-1.41q-2.09,7.65-4.75,15.09l10.39,1.41A63.81,63.81,0,0,1,258,97.86L248,95.09a43.27,43.27,0,0,1-6.08,13.54l9.23,2.5a34.36,34.36,0,0,1,3.42-11.29l-9-3.8c-1.78,4.51-3.64,9-5.7,13.37l8.63,3.63a50.78,50.78,0,0,1,3.55-8.88c2.66-5.18-4.87-9.67-7.86-4.59q-4.71,8-9.45,15.93l8.5,2.31a29,29,0,0,1,5.42-17.13l-7.91-4.62c-3.11,7.06-6.24,14.1-9.32,21.17l8.55,2.32c.2-5.43,1.91-10.51,3.67-15.61,1.91-5.52-6.66-7.73-8.67-2.39a121.24,121.24,0,0,1-10.52,21.27l8.1,3.41c1.7-7.07,4.7-13.53,7.89-20l-7.57-4.43a109,109,0,0,1-11.91,19.29l7.25,4.22c2.15-7.26,6-13.63,10-20,3.08-4.94-4.47-9.17-7.71-4.51-4.55,6.54-9.34,12.87-14.48,19L223.4,124c1.84-6.81,5.88-12.43,10-18,3.3-4.51-4.12-8.65-7.42-4.34l-14.48,18.9,7.22,4.22q6-8.76,12-17.5c2.22-3.24-2.33-8.07-5.58-5.58-6.74,5.14-10.07,14.25-17.69,18.14l4.9,6.34a240.44,240.44,0,0,0,14.22-19.5c2.52-3.86-3.27-8.35-6.41-4.94q-8.31,9-16.56,18.1l5.66,5.66q6.36-8.22,12.74-16.43l-6.13-4.73a95,95,0,0,1-13.56,14.92l6.18,4.78a104.76,104.76,0,0,1,11.3-17l-5.63-5.63a230.69,230.69,0,0,1-17.74,20.15l6.23,4.8L217.23,107c2.67-3.55-3.37-8.26-6.21-4.79A177.61,177.61,0,0,1,195.35,119l6.19,4.78c4-5.31,7.85-10.65,11.78-16,2.57-3.48-3.31-8.07-6-4.66a82.9,82.9,0,0,1-15.6,15.15l4.44,5.76c4.5-5.15,9.05-10.26,13.58-15.39L204,104.25A124.9,124.9,0,0,1,189.94,120l5.11,5.11a186.72,186.72,0,0,0,12.55-15c2.66-3.53-3-7.48-6-4.6q-7.22,7-14.45,13.9l5.29,5.29,12.74-15.85c2.92-3.63-2-8.82-5.22-5.22a81.51,81.51,0,0,1-12.29,11.19l4.42,5.73,8.5-9.37c3.12-3.45-1.7-8.32-5.11-5.12a128,128,0,0,1-10.1,8.65l4.81,4.81a41.67,41.67,0,0,1,7.21-9.49l-4.83-4.84a103.41,103.41,0,0,1-7.39,8c-3.52,3.39,1.91,8.83,5.37,5.36a55,55,0,0,0,7.12-8.82c2.18-3.32-2.84-7.22-5.52-4.26-1.87,2.06-3.77,4.07-5.67,6.1l4.8,4.8,3.56-4.32c2.69-3.27-1.88-8-4.71-4.71Z" transform="translate(-5.44 -44.16)"/><path class="cls-2" d="M145.34,124.69c.1-3.81,0-7.6-.08-11.42,0-1.77-2.54-3.18-3.83-1.59a20.93,20.93,0,0,0-4.4,9c-.65,3,3.77,4.25,4.61,1.27a82.43,82.43,0,0,1,14.81-29.31c2.05-2.55-1.17-6-3.67-3.67-1.19,1.11-2.37,2.21-3.54,3.33-1.88,1.81,0,5.35,2.61,4.49,2.74-.92,3.39-2.73,5.36-4.55,3.08-2.83,9.45-2.47,13.47-3,3.14-.43,2.43-5.94-.76-5.59-8.9,1-14.71,10.18-20,16.53-6.07,7.21-7.76,16.6-9.17,25.66l5.14-.67c-.8-1.17-1.55-2.35-2.32-3.54-1.32-2.06-5.16-2-5.67.74-1.85,10.12,6,18.64,16.11,18.42,2.88-.06,4.48-4.39,1.57-5.77-3.37-1.6-6.65-1.27-9.26,1.54-1.78,1.92-.6,5.43,2.21,5.35a67.75,67.75,0,0,0,13.68-1.79L160.48,134l-4.87,1.3c-3.44.92-2.86,6.61.85,6.36,4.57-.32,9.14-.78,13.71-1a3.37,3.37,0,0,0,.89-6.58,12.3,12.3,0,0,0-9,.41c-3,1.27-3.57,5.64,0,6.72,6.39,1.93,14.16-.23,20.75-.45,7.72-.26,15.47-.4,23.19-.17,5.3.15,5-7.48,0-8.06a18.67,18.67,0,0,0-9.23,1.2c-4,1.58-4,8.43,1.1,8.16,12.7-.68,25.36-1.88,38.06-2.66v-8.19l-12,1.34c-5.2.59-5.47,8.6,0,8.35a169.3,169.3,0,0,0,25.2-3l-2.21-8c-3.52.75-7.07,1.31-10.62,1.9-4.89.82-3.75,8.87,1.17,8.64a134.23,134.23,0,0,0,21.49-3l-2.38-8.65c-3.76.83-7.52,1.64-11.27,2.51-4.75,1.1-3.84,9.19,1.17,8.66,8.77-.92,17.55-1.59,26.34-2.24,5.75-.43,5.9-9.15,0-9.06-3.75.06-7.52.09-11.27.3-2.78.15-5.5.09-7.45,2.36-1.41,1.64-2.2,4.34-.81,6.3a5.81,5.81,0,0,0,5.14,2.88c3.05,0,5-2.39,5.25-5.25l0-.27c.68-6.72-9.83-6.67-10.5,0l0,.27,3.86-5.06-.42.08,5.07,1.34-.25-.29.81,6.3.39-.57-3.08,2.37c4.12-1.39,8.95-1.5,13.26-1.7v-9.06c-8.78.93-17.54,1.82-26.34,2.48l1.17,8.67c3.78-.76,7.55-1.57,11.31-2.37,5.66-1.19,3.26-9.8-2.38-8.65-6.33,1.29-12.7,2.11-19.11,2.84l1.17,8.65c3.49-.83,7-1.7,10.49-2.38,5.27-1,3-8.92-2.21-8a204.08,204.08,0,0,1-23,2.68v8.35l12-1.5c5.08-.64,5.35-8.59,0-8.19-12.68.95-25.39,1.49-38.06,2.54l2.1,7.74a11.83,11.83,0,0,1,6-.73v-8.06c-7.1,0-14.18.1-21.26.71-3.21.28-6.43.6-9.64.95-3.61.39-7.65,1.43-11.19.3v6.72a9,9,0,0,1,5.34-.67l.89-6.58c-4.55.52-9.14.79-13.71,1.21l.86,6.35,4.85-1.4c4-1.12,2.3-7.11-1.69-6.14a59.8,59.8,0,0,1-12,1.66l2.22,5.35,1.7-.62,1.56-5.77c-6.9.16-10.43-4.94-10-11.41l-5.3,2.2c.94,1,1.87,2.1,2.78,3.19,1.7,2,4.63.21,4.8-2,.6-8,1.52-15.52,7.13-21.65,4.69-5.12,9.1-14.67,16.55-15.6l-.75-5.59c-4,.6-8.76.6-12.49,2.15-2.71,1.13-3.8,4.86-6.26,5.72L153,96.15c1.15-1.14,2.28-2.3,3.42-3.46l-4.08-3.14A97.45,97.45,0,0,0,137,120.73l4.61,1.27a21,21,0,0,1,3.32-7.59l-4.19-1.14c.51,4,1,7.88,1.72,11.81.29,1.66,2.81,1.2,2.85-.39Z" transform="translate(-5.44 -44.16)"/><path class="cls-3" d="M104.89,108.88a2.28,2.28,0,0,0-1.71-2.69,2.37,2.37,0,0,0-2.74,1.47,2.45,2.45,0,0,0,1.51,3.06c1.49.55,2.77-.38,3.77-1.4a1.44,1.44,0,0,0,0-2,3.92,3.92,0,0,0-6,.88,1.44,1.44,0,0,0,0,1.47c1.43,2.18,4.36,2.93,6.22.77a1.49,1.49,0,0,0-.3-2.28A17.13,17.13,0,0,1,104,106a3.09,3.09,0,0,0-3-1.15c-2.47.57-3.94,3.49-2.27,5.56a6.82,6.82,0,0,0,2.54,1.8c1,.42,2.82,1,3.2-.54s-1.29-1.74-2.23-2.15a4.76,4.76,0,0,1-1.09-.63,3.33,3.33,0,0,1-.33-.31c-.07-.08-.12-.28-.13-.18,0-.28.48-.66.8-.79s.14,0,0,0a1.32,1.32,0,0,1,.4.39,13.27,13.27,0,0,0,2.26,2.64l-.3-2.28c-.58.68-1.16.57-1.65-.18v1.47a1,1,0,0,1,1.49-.33v-2c-.19.2-.76.55-.87.77.15-.29,0,.6,0,.49.16.26,1.15.55,1.47.69a.43.43,0,0,0,.64-.37Z" transform="translate(-5.44 -44.16)"/><path class="cls-3" d="M111,89.17a22.55,22.55,0,0,0-4.21-1.68c-2.08-.58-2.9,2.53-.88,3.22a13.2,13.2,0,0,0,4.95.72c2.22-.1,2.24-3.5,0-3.47a32,32,0,0,1-5.71-.43c-2.16-.37-3.11,2.72-.92,3.34.2,0,.22.14.06.32a1.73,1.73,0,0,0,1.65,2.17,19.64,19.64,0,0,1,6.53.55,1.83,1.83,0,0,0,2.23-2.23,2.19,2.19,0,0,1,.07-1.29c.55-2.46-2.75-3.22-3.67-1a4.61,4.61,0,0,0,.29,3.7l1.56-2.73a38.22,38.22,0,0,0-7-.42l1.65,2.17a3.52,3.52,0,0,0-2.44-4.57l-.92,3.34a35.83,35.83,0,0,0,6.63.56V88a12.44,12.44,0,0,1-4.07-.47l-.88,3.22a17.26,17.26,0,0,1,3.52,1.15c1.79.81,3.38-1.75,1.57-2.69Z" transform="translate(-5.44 -44.16)"/><path class="cls-1" d="M87,114.32a56.84,56.84,0,0,0-7.8-6.58c-.24-.16-.51.2-.31.39.56.51,5.17,5,4.78,5.36.75-.7-1.61-3.64-2.3-2.77.47-.59,2.63,4.45,3.37,2.72-.11.26-5.3-5.89-5.28-5.85-.41-.59-1.38,0-1,.57a29.32,29.32,0,0,0,3.9,4.91l.88-.87c-5.14-4.66-10.11-8.53-17.35-7.62a21.82,21.82,0,0,0-5.14,1l.83.3a22.09,22.09,0,0,1,3.94-1.43c5.56-1,6.67,4.11,11.33,4.86,1.41.23,2.05-1.87.6-2.18l-.67-.14a.72.72,0,0,0-.87.87l.15.66,1.39-1.39c-4.45-1.75-5.79-6-11.17-5.48-2.07.22-7.67,1.34-8.07,4.19-.31,2.23,1.66,2.47,3.26,2.35,3.67-.27,6.59-2.18,10.52-1.4,4.15.83,7.27,3.53,10.37,6.24.59.53,1.45-.31.88-.87a28.93,28.93,0,0,1-3.8-4.61l-1,.57a32.58,32.58,0,0,0,6.95,7c.47.36.91-.37.59-.76a40.94,40.94,0,0,0-5.16-5.29.43.43,0,0,0-.6.61l4.25,5.05c.27.32.82-.1.58-.45a34.38,34.38,0,0,0-4.19-5.13c-1.18-1.21.32.31.89.8,1.73,1.49,3.52,2.75,5.14,4.38,0,0,.11,0,.07-.07Z" transform="translate(-5.44 -44.16)"/><path class="cls-1" d="M93.18,122.29l-.86.45s0,.05,0,.05c2-.14,6.22-.11,7.73,1.55.71.78-1-.2-1.58-.42A42.93,42.93,0,0,1,94,122.05l-.7,1.2,11,4.78c2.31,1,4.37,2,7,1.85.88-.07,1.41-1.34.49-1.81a100.17,100.17,0,0,0-10.5-4.5c-1-.37-1.63,1.19-.72,1.7L104,127.2a.85.85,0,0,0,1-1.33c-2.07-2.06-5-1.35-7.57-2.55a16.75,16.75,0,0,0-7.81-1.89l.26,1.88a7.3,7.3,0,0,1,3-.32,1,1,0,0,0,.85-1.48,1.58,1.58,0,0,0-1.49-.89c-.87-.09-1,1.08-.4,1.49l.09.16,1-1.25a12.73,12.73,0,0,0-3.48.44,1,1,0,0,0,.25,1.89,14.85,14.85,0,0,1,4.61.39c1.35.43,2.38,1.39,3.71,1.84,1.94.67,4.29,0,5.86,1.49l1-1.33-3.33-2.08-.72,1.71c3.36,1.4,6.7,2.89,10,4.38l.49-1.81c-3,.37-6-1.27-8.71-2.4L93.83,122c-.83-.33-1.2,1-.37,1.34a38.92,38.92,0,0,0,8.28,2.27A.35.35,0,0,0,102,125c-1.84-1.14-6.62-3.56-8.78-2.57.06,0,0-.12,0-.09Z" transform="translate(-5.44 -44.16)"/><path class="cls-1" d="M96.22,83.33a6.37,6.37,0,0,0-1.31,0l.43,1A18.45,18.45,0,0,0,100.12,77c.28-.8-.86-1.17-1.29-.55a15.63,15.63,0,0,1-3.69,3.79.72.72,0,0,0,.73,1.24,28.77,28.77,0,0,0,4.1-2.75,14.25,14.25,0,0,1,5.9-1.81l-.33-1.19a9.44,9.44,0,0,1-6.1.06l-.17,1.29,6.54.28-.33-1.22a36.14,36.14,0,0,1-7.33,2.4l.33,1.2c2.62-1,5.24-2,7.88-2.91a.7.7,0,0,0-.37-1.34,10.55,10.55,0,0,1-5.45-.5l-.41,1.5a1.86,1.86,0,0,1,1.37.56c.67.51,1.57-.65.91-1.18a3.69,3.69,0,0,0-1.87-.88.78.78,0,0,0-.41,1.5,10.51,10.51,0,0,0,6.23.34L106,75.48c-2.6,1-5.21,2.06-7.84,3a.62.62,0,0,0,.33,1.2,37.22,37.22,0,0,0,7.66-2.47c.64-.29.26-1.19-.33-1.22l-6.54-.29A.66.66,0,0,0,99.09,77a10.12,10.12,0,0,0,6.78-.13.62.62,0,0,0-.33-1.19,21.49,21.49,0,0,0-5.24,1.41c-1.78.83-3.14,2.31-5,3l.56,1.31a14.84,14.84,0,0,0,4.18-4.32l-1.29-.54a16.85,16.85,0,0,1-4.28,6.89.61.61,0,0,0,.86.87,7,7,0,0,0,.92-1,0,0,0,0,0,0-.08Z" transform="translate(-5.44 -44.16)"/><path class="cls-3" d="M103.89,113.76a.05.05,0,1,0,0-.1.05.05,0,0,0,0,.1Z" transform="translate(-5.44 -44.16)"/><path class="cls-3" d="M105.28,111.71c.53-.92,1.15-2.09.54-3.14a1.42,1.42,0,0,0-1.95-.53,2.8,2.8,0,0,0-.45,4.48c.14.11.34-.08.2-.2a2.63,2.63,0,0,1-.42-3.44c.68-1,2.23-1.21,2.66.15a3.47,3.47,0,0,1-.67,2.64s.06.1.09,0Z" transform="translate(-5.44 -44.16)"/><path class="cls-3" d="M102.14,110.48c-.82.35-1.73,1-1.6,2a1.4,1.4,0,0,0,1.83,1.16c.89-.39,1.44-2,1.64-2.83a2.65,2.65,0,0,0-1-2.88,1.94,1.94,0,0,0-2.52.1c-.78.82-.7,2.46-.38,3.45a1.9,1.9,0,0,0,2.42,1.32,3.84,3.84,0,0,0,2.21-2.43c.38-1.09.24-2.74-1.18-2.89-1-.12-2,.79-1.44,1.8.25.47,1.1.28,1.05-.28,0-.05.13-.24.39,0s0,.7-.07.85a2.82,2.82,0,0,1-.93,1.43c-1.37,1.06-1.86-1.71-1.15-2.4.39-.38.92-.15,1.25.25a2.29,2.29,0,0,1,.15,2,4.44,4.44,0,0,1-.59,1.57c-.39.41-.67.36-.85-.13a.65.65,0,0,1-.12-1,2.52,2.52,0,0,1,1-.85c.14-.07.05-.32-.1-.26Z" transform="translate(-5.44 -44.16)"/><path class="cls-3" d="M105,110.32c-.39.53-.83.31-1.39.33a6.14,6.14,0,0,1-1.76-.11c-1.59-.34-3.23,1.77-1.74,3a5.22,5.22,0,0,0,8.19-1.86,5,5,0,0,0-.68-4.8c-1-1.33-2.91-2.67-4.61-2.07a1.69,1.69,0,0,0-.4,3c.79.42,2.79.92,2.11,2.32a1.8,1.8,0,0,1-2.45.56l-.9,3.33c1.46.14,3.31.2,4.07-1.3a2.09,2.09,0,0,0-.22-2.46.14.14,0,0,0-.22,0Z" transform="translate(-5.44 -44.16)"/><path class="cls-2" d="M173.2,84.66a9.09,9.09,0,0,1,2.37-4.39L172.9,77.6a84.1,84.1,0,0,1-6.16,6.77l3.38,1.4.4-3.14c.24-1.82-2.29-2.51-3.42-1.42L164,82.62l2.32,3a63.6,63.6,0,0,1,36.87-26.94l-1.33-4.81c-3.46,1.2-6.9,2.41-10.35,3.65l1.33,4.83c13.55-5.56,27.47-11.23,42.33-11.31V46.54l-27.57,3.54.61,4.49a85.09,85.09,0,0,1,35-2.27c2.34.34,4.46-3.1,1.8-4.26a22.83,22.83,0,0,0-11.8-2,2.35,2.35,0,0,0,0,4.7c5.92.75,11.85,1.45,17.75,2.27,2.41.34,4.64-3.22,1.86-4.41a25.66,25.66,0,0,0-13-2.15c-2.93.29-4.18,5-.76,5.61a99,99,0,0,1,21.2,6.3c4.27,1.84,7.93-3.83,3.74-6.4a27.69,27.69,0,0,0-12-3.85c-3.45-.37-4.67,3.69-3.56,6.2,1.44,3.24,4.29,5.29,7.43,6.74,2.9,1.34,6.45,2,8,5,2.92,5.46,12.43,1.71,10.2-4.3a19.21,19.21,0,0,0-9.28-11c-4.88-2.56-11.44,2.86-8,8S267,67.11,272.36,70.28c5.9,3.52,11-4.21,7-9a36.08,36.08,0,0,0-5.53-5.52c-5.65-4.41-13.74,3.35-8,8A59.83,59.83,0,0,1,276.58,75.1c4.2,5.87,13.47.79,9.84-5.75a28.49,28.49,0,0,0-8.92-9.67c-4.9-3.43-10.41,3.13-7.81,7.82,2.46,4.44,8.28,6.75,12.53,3.15s3-9.2-1-12.3c-4.26-3.29-9.36,2.12-8.39,6.45a15.84,15.84,0,0,0,1.45,3.81l9-6.92a25.35,25.35,0,0,0-6.06-4.86,5.76,5.76,0,0,0-8.37,3.4c-3.06,9.93,8.82,17.93,14.86,24,3.75,3.75,11.7,0,9.51-5.54l-2-5C289,68.21,279.53,68.2,280,75.18a12,12,0,0,0,6.12,10.26,5.8,5.8,0,0,0,7.82-2,8.76,8.76,0,0,0-5.32-12.87c-3-.86-5.95.23-8.81,1.11a24.52,24.52,0,0,1-10.84.9l5.56,4.23a15.1,15.1,0,0,1-.31-4.55c.19-3.51-3.88-6.86-7.31-5.57a63.23,63.23,0,0,0-9.08,4.19c-6.62,3.76-.81,13,5.85,10A31.54,31.54,0,0,0,271,76.16c4.78-3.93-.46-10.89-5.65-9.71a70.51,70.51,0,0,1-8.15,1.42l4,9.68,3.38-3.85c2.51-2.87,2-8.56-2.47-9.35a36.76,36.76,0,0,0-8.88-.61L256,74l3.89-2.78c5.11-3.64,1.94-10.84-4.17-9.87l-3.22.51,2.85,10.32a14.79,14.79,0,0,0,5.53-3.56c3.43-3.63.08-10.63-5.15-8.84a63.07,63.07,0,0,0-20.45,11.63c-4.2,3.53.44,9.26,4.89,8.41,5-1,12.31-1,16.58-4,2-1.41,2.35-3,3.25-5.11s-.34-1.24,1.49-2.43a11.15,11.15,0,0,1,3.56-.93L259.41,65l.59.81L259.5,62c-.25,1.59-5.47,3.45-6.79,4.1-2.51,1.24-5.05,2.41-7.48,3.78a29.7,29.7,0,0,0-11.45,10.76c-2.1,3.6,1.43,9,5.72,7.44l13.37-4.77c6.09-2.17,3.52-11.92-2.7-9.79a107.05,107.05,0,0,1-23,5.24l1.35,10a12.93,12.93,0,0,0,7.53-6.15c2.28-4.13-1.46-8.29-5.76-7.5a49.74,49.74,0,0,0-8.22,2.25l5,8.54a14.66,14.66,0,0,1,3.36-3c1.78-1.14,3.13-3.6,2.35-5.75-1.08-3-3-4.8-6.19-5.14-3.65-.39-5,2.22-8.14,3l3.92,9.29A19.47,19.47,0,0,0,230,77.65c3.07-4.25-2.81-9.37-6.94-6.94L205,81.41l7.58,4.35c.68-10.5-13.21-5.76-18.67-4.6l3.87.51a10.82,10.82,0,0,0-9.43-1.22l4.87,8.36a12.38,12.38,0,0,0,2.25-3.27c1.8-3.93-1.16-8.4-5.64-7.35A47.1,47.1,0,0,0,181.63,81c-4.73,2.08-2.08,9.28,2.52,9.3h.42a5,5,0,0,0,4.3-2.47,5.54,5.54,0,0,0-2.26-8c-3.55-1.72-8,.55-11.31,1.83l6.3,4.8c.72-6.42-6.4-7.42-10.78-5.37l6.73,6.72a15.46,15.46,0,0,0,3.11-11.4c-.49-4-4.89-6.4-8.13-3.37l-2.89,2.7c-3.88,3.64,1.14,10.17,5.69,7.38,5.31-3.26,10.59-6.47,16.07-9.43l-5.77-7.48-3.16,2.67c-4.3,3.63,1.26,10.62,6,7.73,18.33-11.24,41.1-14.33,62.17-12,4.81.54,6.74-7.11,2.48-9.14-11-5.24-22.73-4-34.37-1.91-8.59,1.56-24.8,3.39-22,15.9a4.58,4.58,0,0,0,3.3,3.31c11.86,1.83,22.6-8.42,31.1-15.45,2.61-2.15,1.23-7.13-2-7.75-7-1.32-14.73,3.33-20.79,6.38-7.16,3.59-14.29,7.59-22.47,8l3.88,6.76c1.15-2.35,2.62-3.66,5.31-3.76,5.71-.2,5.75-9.07,0-8.9A14.49,14.49,0,0,0,182,66.25c-1.41,2.87.26,6.93,3.88,6.76,7.42-.35,14.06-2.78,20.71-6,3.33-1.59,6.6-3.32,9.94-4.89,2.38-1.11,7.44-4.14,10.15-3.61l-2-7.75q-5.15,4.23-10.67,7.95c-3.18,2.13-7.29,5.58-11.35,4.93L205.87,67c-.41-1.85,19.47-4.82,21.38-5.06,7-.9,14.38-1.1,20.89,2.05l2.47-9.14c-22-2.6-48.73-.09-67.14,13.28l6,7.73,2.93-2.9c3.77-3.73-1.15-10.46-5.77-7.47-5.24,3.37-10.6,6.46-16,9.54l5.69,7.37,3-2.61-8.12-3.36c.18,2,.05,3.78-1.31,5.44-3.65,4.46.79,9.93,6,7.73l-4.14-3.12c-.36,3,3.5,5.86,6.3,4.79,1.33-.51,2.67-1,4-1.44.54-.18,1.09-.35,1.64-.5,1.18-.29,1.09-.33-.26-.12l-3.48-3.48.12.49.51-3.84-.26.44,4.31-2.47h-.42l2.52,9.3a32.92,32.92,0,0,1,5.79-1.81l-5.64-7.34-.69,1.24C183,85.31,186,91.59,191,90.1c1.13-.34,2.49.73,3.57.82a13.3,13.3,0,0,0,3.89-.48l3.77-.8,2.83-.59c1.6-.19,1.26-.43-1-.74l-1.48-3.56-.07,1c-.26,3.88,4.46,6.18,7.58,4.35l18.12-10.64-6.94-6.94a9.34,9.34,0,0,1-4,3c-5.32,2.52-1.52,10.7,3.92,9.29.9-.23,5.34-1.7,3.83-2.75l-2.34-3,.29.82,2.35-5.76a24.74,24.74,0,0,0-5.45,4.59c-3,3.5-.21,10.45,5,8.54A51.05,51.05,0,0,1,233,85l-5.76-7.5a2,2,0,0,1-1.43,1.48c-5,1.8-4.75,10.69,1.36,10a118.15,118.15,0,0,0,25.66-5.64l-2.7-9.79L236.8,78.31l5.72,7.44C246.06,79.66,253,77.18,259,74.1c4.8-2.47,13.76-7.51,8.95-14.1a5.2,5.2,0,0,0-5.59-2.27c-4.44.94-9.23,2.8-11.18,7.25-.34.78-.34,2.35-.78,3,.55-.77-1.53.07-2.44.23-3.5.65-7,1.26-10.52,1.89l4.89,8.41a46.66,46.66,0,0,1,16.16-8.55l-5.15-8.84-.9.72c-5.13,1.95-5,11.34,1.43,10.51l3.23-.41-2.73-10.07-4,2.65c-4.28,2.86-3,10.39,2.77,10.2a23.4,23.4,0,0,1,5.9.45l-2.46-9.35-3.49,3.74c-3.13,3.35-1.14,10,4,9.68a77.53,77.53,0,0,0,11.24-1.56l-5.66-9.71a20.53,20.53,0,0,1-4.88,2.89l5.85,10a43.59,43.59,0,0,1,6.3-3.06l-7.32-5.57a28,28,0,0,0,.75,7.62c.62,2.69,3.08,3.93,5.56,4.23a31.93,31.93,0,0,0,9.56-.26,32.7,32.7,0,0,0,4.33-1.1l1.42-.52q3.82-.44-.21-4.56l7.82-2.05-.49-.39-11.2,1.51,2,5,9.51-5.54c-2.32-2.3-4.63-4.59-6.94-6.9-1.05-1-5.5-4.35-5-6l-8.37,3.41a14.29,14.29,0,0,1,3.74,3.09c4.54,5,11.76-1.36,9-6.91l-.29-1.08-9.55,5.55,5.23-5.59-7.81,7.82a15.76,15.76,0,0,1,4.84,5.55l9.84-5.75A70.32,70.32,0,0,0,273.8,55.73l-8,8a20.13,20.13,0,0,1,4.53,4.45l7.86-7.87c-2.08-1.5-4.12-3.08-6.25-4.51-1.22-.82-4.1-1.9-4.92-3l-8,8A8.76,8.76,0,0,1,264,66l9.64-5.64c-1.84-3.39-5.24-5.26-8.79-6.43-2.82-.94-7.57-1-9.21-3.79l-3.55,6.19a19.39,19.39,0,0,1,8.22,2l2.86-6.77a105.61,105.61,0,0,0-23.3-5.14l.76,5.61A20.43,20.43,0,0,1,251,53l.65-4.74c-6.14-.68-12.27-1.48-18.4-2.23v4.7a18.19,18.19,0,0,1,9.45,1.33l1.79-4.26A90.52,90.52,0,0,0,207,50.16c-2.39.67-2,4.84.6,4.5l27.57-3.61c2.78-.36,3-4.53,0-4.51-15.37.13-29.55,5.36-43.66,11-2.92,1.16-1.76,5.9,1.33,4.83q5.19-1.81,10.35-3.67c3-1.07,1.8-5.71-1.33-4.81a68,68,0,0,0-39.09,29.68c-1,1.67.67,3.28,2.32,3a7.86,7.86,0,0,0,4.81-2.53l-3.43-1.42-.35,3.14c-.19,1.75,2.26,2.54,3.38,1.4a86.06,86.06,0,0,0,6-6.9c1.47-1.87-1.12-4.56-2.67-2.67a16.24,16.24,0,0,0-3.23,6.08c-.64,2.28,2.85,3.22,3.53,1Z" transform="translate(-5.44 -44.16)"/><path class="cls-2" d="M272,89.67a61.41,61.41,0,0,0,7.7,17.26,2.45,2.45,0,0,0,4.22-2.47L276.6,88.09l-4.26,2.49,4.43,8.22c1.24,2.29,4.48,1.07,4.63-1.26a23.32,23.32,0,0,0-2.84-12.88c-1.39-2.6-5.12-.74-4.57,1.93a39,39,0,0,0,4.11,11.06c1.15,2.07,4.95,1.27,4.69-1.27a27.46,27.46,0,0,0-4.28-12.46,2.53,2.53,0,0,0-4.37,2.56A60.43,60.43,0,0,0,282,97.76c1.77,2,4.81-.15,4.26-2.48a47.38,47.38,0,0,0-5.9-14.23c-1.74-2.81-6-.31-4.43,2.59a36.47,36.47,0,0,0,7.06,9.1,2.6,2.6,0,0,0,4.39-1.82,25,25,0,0,0-1.25-9.67l-4.28,2.49a17.07,17.07,0,0,0,3.61,2.52c1.29.67,3.52.21,3.76-1.52.85-6.08-2.52-13-4.17-18.85l-3.72,2.85a40.13,40.13,0,0,1,13.36,16l2.84-2.84a12.62,12.62,0,0,0-4.88-2.24,1.79,1.79,0,0,0-1.37,3.26c2.29,1.39,4.53,2.87,6.82,4.25,2,1.2,3.94-1.12,3-3a7.21,7.21,0,0,0-9.3-3.66,2.29,2.29,0,0,0-1.6,2.1c-.24,6,6.07,5.65,10,3.89a2.28,2.28,0,0,0,1.05-2.59c-3.11-7.66-9.9-12.33-14.69-18.82l-3.16,3.15c10.91,7.1,15.35,19.79,19.38,31.54,1,2.83,5.32,1.7,4.52-1.24L305,90l-3.92,2.28c2,1.88,4.06,3.74,6,5.66,1.59,1.54,4.86,0,4-2.31a18.15,18.15,0,0,0-3.89-6.27c-2-2.13-5.24.57-3.93,3a52.81,52.81,0,0,1,6.37,24.39c0,2.52,2.84,3.32,4.6,1.91,4.22-3.39.27-11.39-.77-15.44-.89-3.47-6.08-2-5.33,1.47a33.57,33.57,0,0,1,.05,12.44c-.18,1.18-1.37,11.07-4.18,9.48v5.16c10.54-6.21,10.67-18.66,9.27-29.47l-5.46,2.26c5.09,6.13,1.11,16,1.72,23.15.25,3,4.24,4.51,5.93,1.61a7.21,7.21,0,0,0-.05-8c-1.54-2.53-6.25-1.69-5.95,1.61.45,4.94-2.94,8.91-8.14,7.74-4.09-.92-5.76,5.05-1.73,6.28a13.71,13.71,0,0,0,14.89-4.34c2.71-3.35-1.81-8.14-4.84-4.84a11.73,11.73,0,0,1-9.51,4.09c-3.79-.07-4.68,5.81-.91,6.68,4.26,1,9.64,2.3,13.37-.77a7,7,0,0,0,1.62-9,3.48,3.48,0,0,0-4.62-1.21,33.16,33.16,0,0,1-22.7,1.29,3.35,3.35,0,0,0-3.23,5.56,8.35,8.35,0,0,0,6.76,2.71c3-.11,4.92-4.81,1.68-6.18a18.66,18.66,0,0,0-12.78-1,3.33,3.33,0,0,0-2.3,4.06,6,6,0,0,0,6.11,4.51c3.93-.05,4.19-5.16.87-6.47a11.34,11.34,0,0,0-7.87-.29c-3,.86-3.27,5.62,0,6.33a11.69,11.69,0,0,0,4.75.11c3.88-.55,2.65-6.34-.89-6.54-11.34-.65-24.58-1.21-35.59,2.1-4.83,1.45-2.82,8.86,2.09,7.57a72.32,72.32,0,0,0,10.59-3.73l-5.86-3.36.94-1.31c-5.11-.25-4.89,7.28,0,7.82a19.43,19.43,0,0,0,6.67-.45c4.27-1,3.42-8.07-1-7.73l-7.09.54c-5,.38-5.12,8.24,0,7.93,6-.37,12.07-.77,18.1-1.16L267.78,132l-7.37,1.16c-4.65.73-3.21,7.64,1.06,7.86a142.59,142.59,0,0,0,31.22-1.88c5.15-.87,2.88-8.44-2.14-7.75a28.73,28.73,0,0,0-5.57,1.31c-4.86,1.66-2.88,9.26,2.14,7.76a32.16,32.16,0,0,1,10.5-1.35V131H292c-4.53,0-5.55,6.81-1.07,8a15.19,15.19,0,0,0,9.17-.28c4.94-1.71,2.79-9.62-2.17-7.87a7.34,7.34,0,0,1-4.85.33l-1.08,8,5.66,0c5.21,0,5.19-7.92,0-8.07A39.75,39.75,0,0,0,285,132.68l2.14,7.76a29.51,29.51,0,0,1,5.57-1.32l-2.14-7.75A132.33,132.33,0,0,1,261.47,133l1.06,7.86,7.37-1.17c4.43-.71,3.42-8.15-1.06-7.85-6,.4-12.06.79-18.1,1.22V141l7.09-.6-1.05-7.73a12.2,12.2,0,0,1-4.58.22v7.82c4.1.17,6.54-2.6,6.85-6.51.25-3.28-3.42-4.39-5.86-3.36a59.72,59.72,0,0,1-8.75,2.88l2.09,7.57c5.12-1.5,10.46-1.34,15.73-1.88A140.75,140.75,0,0,1,280,138.26l-.88-6.53-1.23,0V138a4.8,4.8,0,0,1,4.37.31l.88-6.47.25.32-2.31,4.06a11.28,11.28,0,0,1,7.68.42l1.67-6.19-2.06-.77-3.23,5.56A40.51,40.51,0,0,0,313,133.39l-4.61-1.21c.61,1-6.73,0-7.36-.14l-.9,6.67a18.44,18.44,0,0,0,14.35-6.05l-4.84-4.84c-2.2,2.7-4.89,3.85-8.32,2.9L299.63,137c9,1.77,17.17-4.53,16.26-14l-6,1.62.07,1.54,5.93,1.61c-.86-9.69,3.19-19.31-3.56-27.67-1.67-2.06-5.76-.42-5.45,2.26,1,8.33,2.46,19.16-5.9,24.31a3,3,0,0,0,0,5.16c14,7.57,14.06-21.7,12.48-28.55l-5.33,1.47c.37,1.37,3.38,9.26,2.29,10.15l4.6,1.91a54.89,54.89,0,0,0-7.44-26.92l-3.93,3a13.38,13.38,0,0,1,3.08,4.56l3.74-2.88c-2.06-1.84-4.07-3.74-6.09-5.62a2.37,2.37,0,0,0-3.92,2.28l2.34,8.54,4.52-1.24c-4.44-13-9.68-26.41-21.57-34.28-1.86-1.23-4.52,1.28-3.16,3.16,4.6,6.33,11,11.13,14.49,18.26l.82-3.14-3.34.07L293,84.71q2.89-1.38,4.34,1.69l3-3c-2.4-1.21-4.85-2.32-7.25-3.53l-1.37,3.26,3.3,2.06c1.42,1.28,4.26.07,3.48-2a41.31,41.31,0,0,0-14.61-18.79c-1.84-1.35-4.27.88-3.72,2.86l2.25,8c.67,2.39,2.23,5.66,1.88,8.16l3.75-1.53a8.43,8.43,0,0,1-2.57-1.73c-1.79-1.59-5.12-.09-4.28,2.49a21.35,21.35,0,0,1,1,8.31l4.39-1.82a32.69,32.69,0,0,1-6.27-8L276,83.64a43,43,0,0,1,5.42,13l4.26-2.48a53.57,53.57,0,0,1-7.13-10.23l-4.37,2.56a21.81,21.81,0,0,1,3.62,9.9l4.68-1.27a34.65,34.65,0,0,1-3.63-9.85l-4.57,1.92a18.54,18.54,0,0,1,2.2,10.36l4.62-1.25-4.46-8.2c-1.54-2.84-5.54-.34-4.26,2.49l7.35,16.35,4.22-2.47a120.49,120.49,0,0,1-9.43-15.84c-.66-1.4-2.91-.41-2.49,1Z" transform="translate(-5.44 -44.16)"/><path class="cls-2" d="M284.39,108.33l.4-2.35-2.37-1c.7,5.25,4,9.36,7.77,12.91,1.77,1.67,5.31.59,5.12-2.12a21.94,21.94,0,0,0-5.43-13.28c-2.4-2.83-5.92.79-4.71,3.64A56.17,56.17,0,0,0,296,122.68c2.3,2.45,5.84-.16,5.27-3.06-1.33-6.8-4.19-13-7.21-19.15l-5.73,3.35c4.08,7,8.46,13.69,15.54,17.89,3,1.76,6.37-1.74,4.68-4.69L300,102.24c-2.24-3.91-8.17-.43-6,3.52a30.29,30.29,0,0,0,9.38,10.43c2.38,1.69,6.38-1.18,5.2-4l-6-14.48L296,100.48a42.23,42.23,0,0,0,8,9.74,3.63,3.63,0,0,0,5.67-4.38l-4.48-9.09-5.67,4.38a31.13,31.13,0,0,0,8.76,7.05c2.68,1.46,6.22-1,5.3-4.08L311.69,98l-6,3.51a5.34,5.34,0,0,1,1.61,3.56l2.52-4.44c-2.74.91-5.16,2.72-8,1.31-3.15-1.55-4.64-5.41-5.9-8.46L290,96.94c2.73,2.47,6.74,4.5,10,1.65s1.5-7.33-1.45-9.73c-3.43-2.78-7.91,1.51-4.9,4.91a17.67,17.67,0,0,0,3.92,3.29c3.5,2.24,6.52-2.56,4.17-5.4a18,18,0,0,0-6.24-4.89L292.88,93l2.87.7c3.95.95,5.55-4,2.61-6.19-4.38-3.32-13.19-1.87-14,4.52a4.73,4.73,0,0,0,3.87,5.29c3.24.61,5.49-1.74,6.68-4.44a3.47,3.47,0,0,0-1.2-4.56c-2.9-2.17-6.51-.61-8.47,2.12-2.65,3.71-2.92,8.5-1.67,12.74a3.38,3.38,0,0,0,5.6,1.48c3.59-3.8,4.25-12.27-1.95-14.17-7.8-2.38-6.78,9.24-5.08,13.21.85,2,3.95,2.12,5.29.68,3.89-4.2,5-13.55-1.55-16.23-7.76-3.18-8.66,10.12-8.42,14.66.2,3.79,5.78,4.85,6.81.92a6.26,6.26,0,0,0-1.72-6.61,3.51,3.51,0,0,0-5.47.71,17.76,17.76,0,0,0-1.81,12.39c.78,4.06,6.63,2.8,6.86-.93S281,99.52,276.5,98.75s-6.28,4.07-5.66,7.74,3.57,9.15,8.16,8.22c4.86-1,4.94-7.83,3.67-11.45-.89-2.53-4.91-3.7-6.28-.82a26,26,0,0,0-2.16,16.66c.46,2.4,4.19,3.5,5.77,1.52a20.56,20.56,0,0,0,4.57-9.85c.58-3.59-4.35-6.4-6.32-2.66a34.78,34.78,0,0,0-4,13.54c-.3,3.42,5,4.75,6.47,1.75l4.49-8.94-6.36-2.68a39.92,39.92,0,0,0-3,13.24c-.23,3.62,4.78,4.53,6.52,1.76a26.4,26.4,0,0,0,3.67-9.23c.69-3.6-4.76-6.6-6.42-2.7a127.7,127.7,0,0,0-4.53,12.31c-1.36,4.41,5.18,6,6.79,1.87l5.4-13.91c1.65-4.25-5.18-6.07-6.82-1.88-2.18,5.53-3.6,10.6-2.78,16.56.53,3.93,5.72,2.76,6.85,0q2.65-6.47,5.27-12.94L283,115l-2.61,12.16c-1,4.48,5.25,6.12,6.81,1.88a112.24,112.24,0,0,1,4.66-11l-6.45-2.71a30.89,30.89,0,0,0-1.3,12c.25,2.83,3.87,5,6.1,2.52a31.79,31.79,0,0,0,5.94-9.73l-7-1.92-2.73,9c-1.05,3.47,3.62,6.2,6.11,3.56A19.67,19.67,0,0,0,298,119.87c.53-3.73-4.8-7-6.77-2.85a15.57,15.57,0,0,0-.81,12.5c.85,2.36,4.33,4,6.25,1.65a23.49,23.49,0,0,0,4.81-9.46c1.16-4.73-5.89-6.67-7.29-2a17.33,17.33,0,0,0-.74,6.59c.27,3.46,3.84,4.72,6.44,2.67a16.73,16.73,0,0,0,4.86-6.05L298,120.07a31.78,31.78,0,0,0-1.91,6.76c-.55,3.21,3.38,6.42,6,3.49C305,127,313.49,120,307,115.91a3.53,3.53,0,0,0-4.23.55q-3.19,3.23-6.26,6.56c-3.11,3.38,2,8.46,5,5q3-3.39,6.16-6.67l-4.23.55.57.35-1.73-3c.16,1.2-4.45,5-5.33,6l6,3.49a27.88,27.88,0,0,1,1.73-5.83c1.85-4.23-4.11-8-6.36-3.72a10.42,10.42,0,0,1-3.07,3.84l5.68,3.26a12.88,12.88,0,0,1,.48-4.58l-7.29-2a14.87,14.87,0,0,1-2.81,6.18l6.25,1.65a8.19,8.19,0,0,1,0-6.78l-6.76-2.85a13.08,13.08,0,0,1-3.46,7.71l6.11,3.56,2.65-9c1.34-4.55-5.33-6.17-7-1.92a21.42,21.42,0,0,1-4,6.6l6.1,2.53a25.75,25.75,0,0,1,1-10.14c1.12-3.75-4.69-6.37-6.44-2.71q-3,6.19-5.38,12.63L287.2,129l2.64-12.16c1-4.57-5.14-6-6.84-1.88s-3.53,8.61-5.28,12.93h6.85c-.61-4.45,1.17-8.74,2.75-12.79l-6.82-1.88-5.37,13.92,6.79,1.87a117.36,117.36,0,0,1,4.16-11.48l-6.77-1.86a21.18,21.18,0,0,1-2.94,7.56l6.52,1.77a34.69,34.69,0,0,1,2.71-11.39c1.51-3.63-4.61-6.2-6.36-2.69l-4.48,9,6.47,1.75a25.73,25.73,0,0,1,3-10.05l-6.32-2.67a13.87,13.87,0,0,1-2.78,6.81l5.76,1.52a18,18,0,0,1,1.44-11.36l-6.27-.82a3.58,3.58,0,0,1,.07,3.85l2.42-1-1.24-.07,2.42,1s-2.81-3.56-2.39-3.77l-2.67.35a6.21,6.21,0,0,1,.46,3.84l6.87-.93a10.19,10.19,0,0,1,1.09-7l-5.48.7,0-.16,6.81.92c-.05-.82-.36-8.19.68-8.46L282.44,94c2.2,1.25,1.56,4.15.21,5.61l5.28.68a3.4,3.4,0,0,0-1.14-3.5l-2.58-.34q2,1.69.2,3.47l5.6,1.47a7.58,7.58,0,0,1-.54-3.59,13.39,13.39,0,0,0,.86-3.73l-1.2-4.57c-.9,1.12-.46,1.69,1.3,1.72l.34,2.57a2.21,2.21,0,0,1,3.49-1l3.29-5.66-2.86-.73c-3.61-.91-6.18,4.44-2.62,6.22a13.65,13.65,0,0,1,4.81,3.88l4.17-5.4a8,8,0,0,1-2.5-2.26l-4.9,4.91a1.47,1.47,0,0,1,1.11,1.51l1-2.47c.67.21.39-.08-.83-.87-2.36-2.19-7.31-.06-5.91,3.44,1.94,4.86,4.1,10,8.87,12.73,5,2.87,8.78,1.16,13.79-.5a3.73,3.73,0,0,0,2.52-4.44,13.22,13.22,0,0,0-3.47-6.74c-2.42-2.72-7,.14-6,3.51l1.81,6.08,5.3-4.08A25.28,25.28,0,0,1,304.55,96c-2.82-3.26-7.39.9-5.67,4.38l4.47,9.09,5.67-4.38a37,37,0,0,1-6.85-8.26c-2.48-4.07-8-.52-6.22,3.63l6.17,14.44,4.84-4.85a22.56,22.56,0,0,1-6.92-7.83l-6,3.52,8.59,14.72,4.68-4.69c-6.09-3.53-9.72-9.43-13.26-15.32-2.22-3.69-7.63-.45-5.73,3.35,2.82,5.65,5.5,11.27,6.86,17.47l5.27-3.06a48,48,0,0,1-10.07-15.12l-4.71,3.64a15.08,15.08,0,0,1,3.67,9l4.52-2.59c-3.85-2.4-6.14-5.83-9-9.18-.85-1-2.28-.11-2.37,1a3.81,3.81,0,0,0,1.42,3.66.33.33,0,0,0,.55-.32Z" transform="translate(-5.44 -44.16)"/><path class="cls-2" d="M293,134c-.27-1.52-1.71-1.74-3-1.46s-1.29,2-.34,2.67l2.78,2,.42-3.2a4.39,4.39,0,0,1-2.06-.24,1.93,1.93,0,0,0-2.3,1.13,2,2,0,0,0,.79,2.43,8.48,8.48,0,0,0,3.54,1.45v-3.92a1.78,1.78,0,0,1-1.36-.14l-1.62,3.85L293,139.8l.58-4.31a3.76,3.76,0,0,1-.67,0c.36,0-.31-.08-.42-.11s-.14,0,0,0a1.74,1.74,0,0,0-.83-.27,1.21,1.21,0,0,0-.5,0c-.63.11-.76.12-.39,0a1.89,1.89,0,0,0-1.62,2.82c-.19-.4.15.34.16.37a2.75,2.75,0,0,0,.69.79,3.9,3.9,0,0,0,1.41.62,6.88,6.88,0,0,0,2.75.05,2.21,2.21,0,0,0,1.61-2.11,2.28,2.28,0,0,0-1.61-2.12L291,134.46c-2.24-.79-3.77,2.8-1.62,3.85a5.93,5.93,0,0,0,4.56.42,2,2,0,0,0,1.45-2.23,2.06,2.06,0,0,0-2-1.76,5.42,5.42,0,0,1-2.11-.82l-1.5,3.56a6.68,6.68,0,0,0,4-.14,1.78,1.78,0,0,0,1.26-1.46,1.72,1.72,0,0,0-.84-1.75l-3.08-1.46-.35,2.66a4,4,0,0,1,.9-.16,5.61,5.61,0,0,0,.84-.32A.74.74,0,0,0,293,134Z" transform="translate(-5.44 -44.16)"/><path class="cls-2" d="M231.8,54.77c2,.51,4.1.95,6.18,1.33,2.84.51,4-3.51,1.21-4.38l-.53-.22-2.84,3.67c5.2,2.69,18.53,5.29,19.16-3.62a2.36,2.36,0,0,0-1.72-2.26l-.88-1-3.79,2.22a10.24,10.24,0,0,0,6.6,2.7,27.41,27.41,0,0,1,13.17,4.41l1.78-4.21c-1.75-.54-3.54-1-5.26-1.62-2.09-.75-3.82-2-5.75-2.91-2.83-1.3-4.7-.11-7.72-.62a2.31,2.31,0,0,0-1.23,4.45c2,.78,3.59,1.36,5.58.43a1.73,1.73,0,0,0,.34-2.67c-1.15-1.47-3-1.66-4.69-2.21l-.62,4.53a25.9,25.9,0,0,0,3.42-.1c2.79,0,2.93,1,4.81,2.15,2.82,1.76,6.74,2.2,9.89,3,2.51.64,4.09-2.9,1.78-4.22a32,32,0,0,0-9.46-4.06c-3-.61-7.09.08-9.43-2.29-1.71-1.73-4.16.1-3.8,2.21.43,2.5,1.65,3.63,4,4.36l-1.72-2.26c-.27,3.71-10.89.21-12.12-.42a2.34,2.34,0,0,0-2.36,4,5.08,5.08,0,0,0,2.16.93l.6-4.46q-2.87-.3-5.7-.77c-2.52-.43-3.65,3.26-1.08,3.9Z" transform="translate(-5.44 -44.16)"/><path class="cls-2" d="M282.24,87.08c1.74.63,3.15,2,4.62,3.16,1.27,1,3.63.15,3-1.75-.55-1.65-1.13-3.28-1.7-4.93l-2.54,2.54a4.16,4.16,0,0,1,1.73,1.27,2.12,2.12,0,0,0,2.82.75,2.09,2.09,0,0,0,.74-2.83,7.63,7.63,0,0,0-4.19-3.17c-1.86-.55-3,1.49-2.33,3s1.44,3.16,2.18,4.73L289,87.42c-1.37-.82-2.73-1.73-4.15-2.46-1.06-.54-2.26-.87-3.18.07a1.24,1.24,0,0,0,.54,2Z" transform="translate(-5.44 -44.16)"/><path class="cls-2" d="M298.4,85.12a7.16,7.16,0,0,0,1,2.92,14.84,14.84,0,0,0,2,2.44,1,1,0,0,0,1.65-.68,5.06,5.06,0,0,0-1-3.51l-1.52,1.52a2.75,2.75,0,0,1,1.06,1,1.16,1.16,0,0,0,2-1.17l-1-1.76a4,4,0,0,0-1.25-1.31c-.74-.53-1.49.34-1.38,1.06a8.67,8.67,0,0,0,1.66,3.18l2-1.17a5,5,0,0,0-1.94-1.75,1.12,1.12,0,0,0-1.35,1.75,3.76,3.76,0,0,1,.79,2.16l1.46-.84a12.71,12.71,0,0,1-2.12-2c-.6-.69-1.3-1.28-1.9-2-.07-.08-.17,0-.16.09Z" transform="translate(-5.44 -44.16)"/><path class="cls-1" d="M110.06,128.86c.39,1,2.17,1.4,3.14,1.59a.64.64,0,0,0,.8-.61,1.7,1.7,0,0,0-1.17-1.63c-.54-.23-1,.51-.75,1,.55.85,1.8,1.42,2.48.42a.38.38,0,0,0-.23-.55c-.36-.13-.9-.2-1.11-.53l-.74,1,.26.37.8-.6a8.3,8.3,0,0,1-1.65-.41c-.48-.18-.91-.54-1.44-.48-.23,0-.49.24-.39.51Z" transform="translate(-5.44 -44.16)"/><path class="cls-1" d="M77.17,101.68l-.34-.41c-1.42-1.65-3.61.18-3.31,1.93a11,11,0,0,0,3.22,6.11c2,2,4.83-1,3.07-3.07l-2.93-3.51-3.1,3.1c1.76,1.83,3.47,4.2,5.64,5.58,1,.63,2.19.75,3.19,1.33,1.33.76,1.81,2.25,2.3,3.63l3.84-2.23c-1.07-1.34-2.13-2.7-3.27-4-1.67-1.88-5.06.66-3.53,2.73,1.13,1.54,2.35,3,3.55,4.51,1.44,1.78,4.59-.14,3.84-2.24-.92-2.59-2.06-5.24-4.65-6.54-1.57-.78-2.79-.84-4.09-2.1s-2.48-2.52-3.72-3.78c-2-2-4.9,1-3.1,3.1l3,3.48,3.07-3.07a9.44,9.44,0,0,1-2.47-4.09l-.2,1.52.25-.33a1.38,1.38,0,0,0-.22-1.66Z" transform="translate(-5.44 -44.16)"/><path class="cls-2" d="M257,55.52a6.3,6.3,0,0,1,0-2.29,5.64,5.64,0,0,0,.26-1.95c-.17-1.42-1.47-1.92-1.85-3.19L252,50.79l.18.15c2.27,2.07,5.66-1.3,3.38-3.38a12.53,12.53,0,0,0-1.14-.9c-1.73-1.22-4.09.8-3.51,2.7.67,2.24,2,2.65,4,3.34l-1.08-.82c.24.31-.1,1.62-.07,2a6.37,6.37,0,0,0,.64,2.3c.58,1.22,2.82.68,2.64-.71Z" transform="translate(-5.44 -44.16)"/><path class="cls-2" d="M247.27,135.37a3.55,3.55,0,0,0,0,1.52,7.62,7.62,0,0,0,.33.91c0,.09.47,0-.24-.39l-1,3.53a2.61,2.61,0,0,1,1.07.42l1.57-3.72c-1.74-.38-4-.43-5.6-1.19l.91,3.47.08-.16a2.34,2.34,0,0,0-.36-2.79l-.12-.12a2.55,2.55,0,0,0-4.23,1.12c-.56,2,1.28,3.37,3.11,3.11a11.18,11.18,0,0,1,2.76.26c1,.12,1.94.21,2.91.29,1.94.17,2.87-3,1-3.79a7.36,7.36,0,0,0-3.13-.69,1.91,1.91,0,0,0-.5,3.73c1.89.72,4.42.59,5-1.79.44-1.88-1.61-3.61-3.29-3.92a.3.3,0,0,0-.35.2Z" transform="translate(-5.44 -44.16)"/><path class="cls-2" d="M299.55,137.15a2,2,0,0,0-1.65.66,1.37,1.37,0,0,0,.28,2.12,3.94,3.94,0,0,0,4.25-.14,1.59,1.59,0,0,0,.55-2.12,1.57,1.57,0,0,0-2.12-.55,2.51,2.51,0,0,1-1.64.34l.81,2c.1-.18.06-.18-.12,0s-.23.17,0,.11a1.23,1.23,0,0,0,.88-1.35,1.25,1.25,0,0,0-1.21-1.07Z" transform="translate(-5.44 -44.16)"/><path class="cls-2" d="M313.47,134.24c.46-.2.66-.57,1-.94-.29.34.14-.13.2-.19s.58-.45.18-.18l.61-.37L312,130.62q0,.51.24-.36a1,1,0,0,1,.41-.69l3.34,2.57.44-1.16a2.3,2.3,0,0,0-1.61-2.82,2.34,2.34,0,0,0-2.82,1.6l-.39,1.17c-.64,1.92,1.69,3.53,3.34,2.57a3.18,3.18,0,0,0,1.47-3.48,2.25,2.25,0,0,0-3.3-1.34c-1.34,1-2.86,2.59-2.51,4.42a1.84,1.84,0,0,0,1.11,1.24,2,2,0,0,0,1.71-.1Z" transform="translate(-5.44 -44.16)"/><path class="cls-2" d="M183.72,141.27l78-.28c7.66,0,7.68-11.93,0-11.91l-78,.28c-7.66,0-7.67,11.93,0,11.91Z" transform="translate(-5.44 -44.16)"/><path class="cls-2" d="M159.08,141.18a10.1,10.1,0,0,1,1.87-.57l-1.59.21a4.4,4.4,0,0,1,1,0l-1.58-.21a1.93,1.93,0,0,1,.47.13l-1.42-.6a3,3,0,0,1,.43.24l-1.2-.93a2.79,2.79,0,0,1,.51.52l-.93-1.21.12.21-.6-1.43a1.41,1.41,0,0,1,.14.44l-.21-1.58a1.48,1.48,0,0,1,0,.47,5.92,5.92,0,0,0,1.74,4.21,6,6,0,0,0,8.42,0,6.86,6.86,0,0,0,1.74-4.21c.34-2.84-1.73-5.73-4.14-7a9.39,9.39,0,0,0-7.88-.17,6.44,6.44,0,0,0-3.56,2.73,6,6,0,0,0,2.13,8.15,5.84,5.84,0,0,0,4.59.6Z" transform="translate(-5.44 -44.16)"/><path class="cls-2" d="M175.64,141.38a10.45,10.45,0,0,0,4.08.44,4.54,4.54,0,0,0,2.3-.51,4.43,4.43,0,0,0,1.91-1.24,5.93,5.93,0,0,0,0-8.41,5.75,5.75,0,0,0-4.21-1.75,6.3,6.3,0,0,1-1.44,0l1.58.21a7.7,7.7,0,0,1-1.06-.23,5.95,5.95,0,0,0-6.72,8.74,6.34,6.34,0,0,0,3.56,2.74Z" transform="translate(-5.44 -44.16)"/></g><g id="outline"><path class="cls-3" d="M105,88.64v-.33a.15.15,0,0,0-.29,0v.33a.15.15,0,0,0,.29,0Z" transform="translate(-5.44 -44.16)"/><path class="cls-2" d="M161.61,134.27a14.6,14.6,0,0,1,4.92-.58v-4.46c-1.87,0-4.65.72-5.74,2.39a2.69,2.69,0,0,0,0,2.93,3.33,3.33,0,0,0,1.07,1,3.79,3.79,0,0,0,.34.2c.33.21.23.11-.29-.3l-.29-1.07,0,.16,4-1.07c-1.17-2.44-4.82-1.77-5.53.63a2.17,2.17,0,0,0,1,2.42,4.36,4.36,0,0,0,4.48,0c2.1-1.22.71-4.89-1.7-4l-1.77.63a2.27,2.27,0,0,0-1.61,2.47,2.22,2.22,0,0,0,2.21,2,5.65,5.65,0,0,0,3.42-1.21,2.71,2.71,0,0,0,.91-1.23l.06-.47c-.09.34-.09.4,0,.16a3.48,3.48,0,0,0,.29-.69c.29-.75-.55-1.35-1.21-1.21-.85.18.76.35-.39,0a3.07,3.07,0,0,0-1.09,0c-.67.05-1.33.14-2,.13l.59,4.42,1.75-.72-1.7-4c-.55.36,0,.15-.08.1l1,2.43c-.55.95-1.23,1.16-2,.62l-.54-.94.07.19a2.17,2.17,0,0,0,2.34,1.52,2.11,2.11,0,0,0,1.84-2.09,2.84,2.84,0,0,0-.79-2,2.34,2.34,0,0,0-.73-.56l-.17-.1a1.4,1.4,0,0,1,.46.63v1.16l0,.11-.79.79a8.19,8.19,0,0,1,3.33-1c2.43-.48,1.92-4.7-.59-4.38a19,19,0,0,0-6.26,1.85c-1.78.89-.54,3.74,1.34,3.19Z" transform="translate(-5.44 -44.16)"/><path d="M202.72,141.35c-3.18,8.8-6.76,17.77-5.57,27.3,1,7.76,3.72,15.44,9.42,21a30.85,30.85,0,0,0,18.12,8.49c5.19.54,12.35-.07,14-6a1,1,0,0,0-1.93-.53c-1.95,7.06-13.62,4.75-18.4,3a28.09,28.09,0,0,1-14.93-12.32c-7.69-13.29-3.59-27.1,1.23-40.44.44-1.21-1.49-1.73-1.93-.53Z" transform="translate(-5.44 -44.16)"/><path d="M310,137.94c-37.22,3.94-75,2.77-112.38,2.92-9.11,0-18.23.1-27.35.27-4,.08-7.94.17-11.91.3-5.58.19-9.57.14-14-4-3.7-3.45-6.38-8.58-6-13.74.29-4.49,2.68-9.4,4.17-13.64C146,100,152,87.4,163.83,85.83c7.29-1,15-.54,22.4-.57s14.51,0,21.77.22c14.89.35,29.76,1.07,44.63,2,1.28.08,1.28-1.92,0-2-28.9-1.8-58.22-3.41-87.16-1.84-10,.55-16.78,8.13-21.06,16.6a95.64,95.64,0,0,0-5.16,13.29c-1.35,4.1-3.27,8.16-2.84,12.57.68,7.21,6.45,15.07,13.56,17.16,3.63,1.07,8.25.17,12,.06q7.14-.19,14.28-.28c21.84-.3,43.67-.17,65.51-.35,22.73-.19,45.59-.35,68.21-2.75,1.27-.14,1.28-2.14,0-2Z" transform="translate(-5.44 -44.16)"/><path d="M417.63,228.11c2.86-.62,4.89-2.26,7.41-3.61,7.47-4,11.44,4.8,11.62,10.7a18.13,18.13,0,0,1-4.1,12.05c-4.07,4.94-11.76,7.47-16.29,1.47-.77-1-2.5,0-1.73,1,8.56,11.33,22.21-.36,23.87-10.81.89-5.58-.53-13.08-5.64-16.38-5.83-3.77-10.21,2.46-15.67,3.64-1.26.27-.72,2.2.53,1.93Z" transform="translate(-5.44 -44.16)"/><path d="M400.51,222.3c-5.95-3.76-7.25-13.14-15-14.23-7.22-1-10.89,3.59-10.32,10.38.11,1.27,2.11,1.28,2,0-.35-4.23,1-8,5.71-8.4,4.31-.38,6.83,1.88,9.14,5.21s4,6.56,7.5,8.77c1.1.69,2.1-1,1-1.73Z" transform="translate(-5.44 -44.16)"/><path d="M386.91,224.83c-6.92-2-10.23-7-14.25-12.48-2.25-3.08-4.76-6.24-8.75-6.94-3.42-.6-13.61,2.56-10.88,7.49.63,1.13,2.35.12,1.73-1-.91-1.64,3.77-3.68,4.64-4a7.31,7.31,0,0,1,6.26.16c3.47,1.7,5.47,5.63,7.65,8.63,3.48,4.8,7.22,8.41,13.07,10.06a1,1,0,0,0,.53-1.93Z" transform="translate(-5.44 -44.16)"/><path d="M335.87,256.14a26.14,26.14,0,0,1-2.9-10.39c-.21-3.82,0-12.35,7.74-9.3,4.11,1.6,6.74,7.05,9.13,10.46,4.31,6.15,8.83,9.35,16.44,10a90.39,90.39,0,0,0,16.28-.4c4.62-.43,9.51-.67,14-2.09,6.61-2.1,12.23-7.49,13.21-14.59a14.65,14.65,0,0,0-8.87-15.45c-9-3.56-18.16,5-27.28,4.93-12.44-.09-14.07-10.47-20.39-18.41a16.81,16.81,0,0,0-20-5.16c-8.45,3.81-10.27,13.27-12.47,21.39-2.86,10.51,1.92,20.58,5,30.58.38,1.23,2.31.71,1.93-.53-2.77-9.07-7.71-19.23-5.19-28.77,2.4-9.1,5-21.58,16.63-22.12,11.84-.54,14.26,10.49,20,18.06,3.89,5.14,9.85,7.33,16.19,6.9,8.62-.57,19.16-9.32,27.23-3.77,11.19,7.7,3.3,22.23-7.27,25.24a82.54,82.54,0,0,1-29.87,2.11c-9.72-1.12-12.61-8.24-18.07-15.05-3.15-3.93-9.71-9.38-14.18-4-4.6,5.55-1.71,15.72,1.07,21.34.58,1.15,2.3.14,1.73-1Z" transform="translate(-5.44 -44.16)"/><path d="M230.55,216c1.41-5-8.89-4.75-11.38-3a7.22,7.22,0,0,0,.3,11.91c3.18,2.21,12.07,2.36,12.54-2.88.18-2.06-.16-6.19-1.75-7.76a3,3,0,0,0-4.51,0c-.82,1,.58,2.4,1.42,1.42,2-2.3,2.54,3.11,2.59,3.54.21,1.74.29,3.32-1.47,4.31a7.54,7.54,0,0,1-8.23-.73,5.16,5.16,0,0,1-.55-7.52,5.46,5.46,0,0,1,4.61-1.57c.39,0,4.81.6,4.5,1.71a1,1,0,0,0,1.93.53Z" transform="translate(-5.44 -44.16)"/><path d="M40.41,82.88c.42-3.06.83-6.13,1.26-9.2.31-2.22.42-5.88,1.87-7.69,3.24-4,7.81-2,12-1.2a64.3,64.3,0,0,0,7,1.07,24.58,24.58,0,0,0,13.36-2.28c4.59-2.36,8.06-6.44,12.67-8.76,3.57-1.8,8.73-2.8,12,.24,3.44,3.22,2.58,8.59,1.22,12.51-2.36,6.75-5.91,11.9-13.3,13.29C76.58,83.1,61.6,83,50.47,78c-1.17-.52-2.19,1.2-1,1.72,7,3.13,14.42,4.09,22.06,4.11,7,0,16,.48,22.51-2.61,8.29-3.92,16.41-22.26,6.64-28.63-4.88-3.18-11.29-.92-15.67,2-3,2-5.65,4.6-8.78,6.45a22.54,22.54,0,0,1-13.69,2.77c-5.26-.43-14.45-5.07-19.13-1s-4.15,13.87-4.92,19.44c-.17,1.26,1.76,1.81,1.93.53Z" transform="translate(-5.44 -44.16)"/><path d="M54.21,80c-1.17.38-1.11.48-1.7,1.6a4.91,4.91,0,0,0-.18,1.33c-.45,2.4-.32,5-.81,7.41a48,48,0,0,1-3.15,10.46c-.31.7-1.76,5.57-2.31,5.91l1.21,1.57,1.12-1.33c.82-1-.59-2.4-1.42-1.42l-1.12,1.33c-.69.83.19,2.19,1.21,1.57s.8-.79,1.35-1.76c.75-1.33,1.05-3.4,1.69-4.86.4-.92.81-1.82,1.15-2.76a62.54,62.54,0,0,0,2.39-9.13c.18-.94.67-7.85,1.11-8,1.22-.39.69-2.33-.54-1.93Z" transform="translate(-5.44 -44.16)"/><path d="M45.61,108.23a10.48,10.48,0,0,1,5.46,5.59l.6-1.47-.23.05.77.1-.21-.15.5.86,0-.23c-.13-1.27-2.13-1.28-2,0a1.34,1.34,0,0,0,1.73,1.3,1,1,0,0,0,.6-1.47,12.16,12.16,0,0,0-6.18-6.31c-1.16-.52-2.18,1.2-1,1.73Z" transform="translate(-5.44 -44.16)"/><path d="M53.51,118c-.69-6.22,6-8.8,10.93-9.62s9.29,1,13.47,3.54a13.74,13.74,0,0,1,7,11.62,7.59,7.59,0,0,1-5.74,8c-3.07,1-5.62-.8-8.22-2.28-3.29-1.89-7.48-3.55-10.85-1-1.16.88-1.76,2.52-3,3.28-5.33,3.32-6,.26-7.72-2.12a8.19,8.19,0,0,0-3.7-3.09c-1.19-.49-1.7,1.44-.53,1.93,3.67,1.53,3.93,6.93,8.39,7.11a6,6,0,0,0,3.86-1.42c1.23-.88,2-2.34,3.12-3.25,2.85-2.25,5.42-1.83,8.39-.12,2,1.15,3.77,3.34,6.17,3.7,1.94.3,4.08-.55,5.8-1.3,2.89-1.28,5.45-3.09,6.07-6.37,1.91-10.11-7.1-17.84-15.93-20-7.33-1.8-20.6,2-19.54,11.43.14,1.27,2.15,1.28,2,0Z" transform="translate(-5.44 -44.16)"/><path d="M49.23,129.73c0-1.65-1.76-1.79-2.7-.79-1.15,1.23-1.57,2.14-3.32,2.59a14.37,14.37,0,0,1-5.35-.06l.7,1.71.59-.53c1-.88-.47-2.29-1.42-1.42l-.58.54c-.71.65-.08,1.61.71,1.7,2.22.28,4.54.53,6.69-.27A6.92,6.92,0,0,0,46.6,132a3.5,3.5,0,0,0,.87-.89l.16-.2c.51-.47.38-.87-.4-1.22,0,1.29,2,1.29,2,0Z" transform="translate(-5.44 -44.16)"/><path d="M22.94,91.33c-.28-3.74.08-8.24,3.66-10.48A7.72,7.72,0,0,1,36,82.06c3.75,3.81,4.15,11.55,4.93,16.62.92,6,1.29,12.11-.05,18A27.29,27.29,0,0,1,37.61,125,12.18,12.18,0,0,1,35,128.4c-5.54,3.93-7.3-.22-8.3-3.4-.39-1.22-2.32-.7-1.93.53,2.15,6.8,7.84,8.9,12.77,3,6.52-7.79,6.88-19,5.57-28.59-1-7.13-1.36-20.07-10.32-22C24.3,76.2,20.4,84.05,20.94,91.33c.1,1.27,2.1,1.28,2,0Z" transform="translate(-5.44 -44.16)"/><path d="M20.24,134.68c9.72-6.2,7.72-21.43,6.44-31.07-.67-5-5.54-24.35-14.16-16.94C8.71,89.94,6.79,97.32,6,102a53.84,53.84,0,0,0,.22,17.09,83.64,83.64,0,0,0,1.94,9c.6,2.22,1.08,5.58,2.74,7.33,2.75,2.9,6.54,1.15,9.32-.75,1.05-.72.05-2.45-1-1.73-3.06,2.1-5.41,3.44-7.84-1-.88-1.64-1.21-4-1.67-5.82a73.92,73.92,0,0,1-2.07-11.81C7,106.31,7.86,98,12,91c1.74-3,4.68-4.43,7.34-1.81,1.58,1.55,2.87,4.76,3.61,6.73,1.5,4,1.93,8.33,2.33,12.57.76,7.8,1.55,19.62-6,24.44-1.09.69-.08,2.43,1,1.73Z" transform="translate(-5.44 -44.16)"/><path d="M22.57,132.65c1.73,2.83,4.45,5.2,7.94,5.14,1.48,0,6.65-1.78,4.28-3.95-.95-.87-2.37.54-1.42,1.42l.24.21-.26-1c-.3,2-4.35,1.24-5.41.74a9,9,0,0,1-3.64-3.59c-.67-1.1-2.4-.1-1.73,1Z" transform="translate(-5.44 -44.16)"/><path d="M41.58,133.59c-4.49,40.79-.37,81.84-2.63,122.72-.07,1.28,1.93,1.28,2,0,2.26-40.88-1.86-81.93,2.63-122.72.14-1.28-1.86-1.27-2,0Z" transform="translate(-5.44 -44.16)"/><path d="M31.69,138q-1.5,59.19-4.34,118.32c-.06,1.29,1.94,1.28,2,0Q32.2,197.18,33.69,138a1,1,0,0,0-2,0Z" transform="translate(-5.44 -44.16)"/><path d="M222.38,216.65a4.16,4.16,0,0,0,0,4.18c.74,1.23,1.87,1.82,3.16,1,2.39-1.58,1.21-6.89-1.89-6.54s-3.13,5.57-.53,6.7a2.24,2.24,0,0,0,2.85-1.37c.72-1.7-.58-3.15-1.8-4.17a1,1,0,0,0-1.21-.15,3.05,3.05,0,0,0-1.52,3.29,2.51,2.51,0,0,0,2.43,1.77,2.07,2.07,0,0,0,.36-4.07,1,1,0,0,0-1,.26c-1.21,1.45,0,4.59,1.93,3a1.66,1.66,0,0,0-2.06-2.6c-2.11,1.58.76,4,2.66,3.35,2.08-.72,2.12-3.62.35-4.73-2.22-1.38-5,1-4.25,3.42a3.13,3.13,0,0,0,5.41,1.11,3.29,3.29,0,0,0-2.21-5.32c-2.74-.3-4.45,2.61-3.86,5.05.55,2.27,3.18,4.56,5.42,2.77a3.87,3.87,0,0,0,.13-5.74,4.38,4.38,0,0,0-6.47.5,4.27,4.27,0,0,0,1.43,6.41c5.28,2.37,8.6-7.7,2.47-8.63a3.47,3.47,0,0,0-4.19,3.75,3.68,3.68,0,0,0,5,3,4,4,0,0,0,1-6.77c-2.21-1.8-5.61-.37-5.17,2.64a3.81,3.81,0,0,0,6.34,2.19c2.42-2.25,1-5.82-1.87-6.71a1,1,0,0,0-1.13.46c-1.28,2.14-.48,5.87,2.67,5.39a2.48,2.48,0,0,0,.17-4.91c-.66-.13-1.55.46-1.23,1.23l1.3,3.15a1,1,0,0,0,1.93,0,5.43,5.43,0,0,0,.38-2.73c-.12-1.25-2-1.31-2,0v2.72a1,1,0,0,0,2,0,14.22,14.22,0,0,0-.32-4l-1.67,1,.18.44,1.83-.77-1.06-1.64-1.58,1.21a4,4,0,0,1,.51,4.41c-.59,1.13-1.83,1.8-2.65,2.75a1,1,0,0,0,.7,1.71,4.87,4.87,0,0,0,5.2-4.13,6,6,0,0,0-1.13-4c-.71-1.27-1-2.69-2.41-3.35-2.26-1-5,.26-6.59,1.94a8.06,8.06,0,0,0-2,7.27l1.93-.53c-.41-1.71-1.25-6.64,2.12-6.05,1.26.22,1.8-1.71.54-1.93a4.14,4.14,0,0,0-4.33,1.91c-1.28,2-.77,4.46-.26,6.6.3,1.26,2.19.72,1.93-.53-.61-2.92,1.25-6.53,4.42-7,1.83-.26,2.57,1.84,3.32,3.23,1.18,2.21,0,4.6-2.72,4.5l.71,1.7c1.44-1.65,3.16-2.6,3.58-4.94a6.12,6.12,0,0,0-1.43-5c-.72-.88-2.19.27-1.57,1.21l1.06,1.64a1,1,0,0,0,1.83-.77,2.4,2.4,0,0,0-.7-1.32c-.69-.82-1.86.07-1.67,1a12.34,12.34,0,0,1,.25,3.48h2v-2.72h-2a4.35,4.35,0,0,1-.31,2.2h1.93l-1.3-3.15L226.55,217c-1.05-.25-1.24-.72-.59-1.4l-1.12.46a2.11,2.11,0,0,1,1.59,2.46c-.47,1.61-2.83,1.9-3.32.21-.42-1.43.91-2,1.88-.91a1.8,1.8,0,0,1-.16,2.65c-2,1.89-4.11-1.77-1.67-2.43,1.78-.49,2.81,1.43,2.33,2.92a3,3,0,0,1-1.86,2,1.94,1.94,0,0,1-2.19-2.15,2.37,2.37,0,0,1,3.95-1.61c1.7,1.59-.53,4.06-1.84,2a2.74,2.74,0,0,1-.2-2.54c.38-.84.93-1,1.66-.51q2.44.33-1,1.51c2-1,2-1.2-.09-.7l1,.25-.15-.27-1,.26L224,218l-1.21-.15a9.26,9.26,0,0,1,.88.78q-.28,2.53.79-.84c.66.78.48,1.31-.54,1.6a2,2,0,0,1,.2-1.71c.59-1.14-1.13-2.15-1.73-1Z" transform="translate(-5.44 -44.16)"/><path d="M101.68,76c5.2-.51,10.58-1.1,15.74,0,6.35,1.4,9.65,5.18,11.84,11a61.65,61.65,0,0,1,3.33,31.25c-.84,5-2.87,9.75-8.26,11.17-4.85,1.28-11.72.64-16.53-.42-7.33-1.62-13.5-7.52-21.24-6.83-1.27.11-1.28,2.11,0,2,5.66-.51,10.67,3,15.75,5.11,5.55,2.33,11.69,2.73,17.67,2.6,9.52-.21,13.72-6.16,14.82-15.14,1.38-11.32,0-24.65-5.55-34.82-5.36-9.85-18-8.94-27.57-8-1.27.13-1.28,2.13,0,2Z" transform="translate(-5.44 -44.16)"/><path d="M100.9,99c6.67-1.58,13.5,4.16,14,10.79.57,8.33-7.5,11.27-14.62,9.52-8.28-2-9.62-10.25-5.26-16.8a6,6,0,0,1,3.79-2.75c.66-.14,1.69.25,2.37-.09s.7-.43,1.2-1.12c.76-1-1-2-1.72-1-.49.67-2.71.21-3.52.49a7.23,7.23,0,0,0-3.17,2.49,16.29,16.29,0,0,0-3.53,11c.74,8.27,9.57,11,16.72,10,3.22-.45,6.16-1.27,7.82-4.2s2.79-6.66,1.75-10c-2.13-6.87-9.19-11.93-16.32-10.24-1.25.3-.72,2.23.53,1.93Z" transform="translate(-5.44 -44.16)"/><path d="M105.62,103.65c-3.72-.3-7.39,1-8.51,4.88a6.5,6.5,0,0,0,5.08,8c7.82,1.81,10.85-11.74,3-12.74-1.27-.16-1.26,1.84,0,2,5.12.65,2.12,11.9-4.13,8.16a4.35,4.35,0,0,1-1.37-6.37c1.36-2,3.72-2.13,5.9-1.95,1.28.11,1.27-1.89,0-2Z" transform="translate(-5.44 -44.16)"/><path d="M117.79,88.78a25.66,25.66,0,0,0-15.4-1.6,1,1,0,0,0-.7,1.23A28.09,28.09,0,0,1,103,94.05a1,1,0,0,0,1,.74c3.59-.43,7.25-.8,10.5,1.09A1,1,0,0,0,116,95a14.11,14.11,0,0,1,.81-5c.42-1.22-1.51-1.75-1.93-.54A15.39,15.39,0,0,0,114,95l1.5-.87c-3.59-2.08-7.51-1.84-11.51-1.36l1,.73a29.51,29.51,0,0,0-1.35-5.64l-.7,1.23a23.19,23.19,0,0,1,13.86,1.4c1.17.49,2.19-1.23,1-1.73Z" transform="translate(-5.44 -44.16)"/><path d="M96,86.91q-7.26,0-14.47.75a1,1,0,0,0-1,1.26,35.44,35.44,0,0,1,.9,5.61,1,1,0,0,0,1.26,1,21.23,21.23,0,0,1,13.14.33,1,1,0,0,0,1.23-1.23,13.45,13.45,0,0,1-.47-6.14c.18-1.26-1.74-1.81-1.93-.54a16,16,0,0,0,.47,7.21l1.23-1.23a23.12,23.12,0,0,0-14.2-.33l1.27,1a37.39,37.39,0,0,0-1-6.14l-1,1.27Q88.75,89,96,88.91a1,1,0,0,0,0-2Z" transform="translate(-5.44 -44.16)"/><path d="M71.46,89.5a4.89,4.89,0,0,1-.82,2.92l1.86.5a6.21,6.21,0,0,0-1.68-3.66,1,1,0,0,0-1.67.44L68.1,92.27l1.47-.6-1.73-1.16a1,1,0,0,0-1.47.6,2.14,2.14,0,0,1-3.28.81c-1.06-.74-2.06,1-1,1.73a4.14,4.14,0,0,0,6.22-2l-1.47.6,1.73,1.15A1,1,0,0,0,70,92.8l1-2.56-1.68.44a3.79,3.79,0,0,1,1.1,2.24,1,1,0,0,0,1.87.51,6.76,6.76,0,0,0,1.09-3.93,1,1,0,0,0-2,0Z" transform="translate(-5.44 -44.16)"/><path d="M59.77,89.63V90a1,1,0,0,0,2,0v-.33a1,1,0,0,0-2,0Z" transform="translate(-5.44 -44.16)"/><path d="M58.16,81.25c-4.59,8-2.36,19.2-1.08,27.9.18,1.18,1.89.79,2-.26l.09-1.25c.09-1.28-1.91-1.28-2,0l-.09,1.25,2-.27c-1.17-8-3.31-19,.87-26.36a1,1,0,0,0-1.72-1Z" transform="translate(-5.44 -44.16)"/><path d="M85.79,104a3.13,3.13,0,0,0-2.2-1.31,1.72,1.72,0,0,0-1.76,1.69,2.14,2.14,0,0,0,1.3,1.94,3.51,3.51,0,0,0,3-.44,1,1,0,0,0,.36-1.37,3.61,3.61,0,0,0-4.68-1.2,1,1,0,0,0-.36,1.37,2.76,2.76,0,0,0,3.16,1.24A1,1,0,0,0,84,104a.73.73,0,0,1-.9-.32L82.78,105a1.54,1.54,0,0,1,1.94.48l.36-1.37a2.91,2.91,0,0,1-.9.35,1,1,0,0,1-.3,0s-.07-.12-.07-.12-.2.29-.18.26c-.18,0-.2.07-.06.08l.16.09a2.4,2.4,0,0,1,.64.63,1,1,0,0,0,1.42,0,1,1,0,0,0,0-1.41Z" transform="translate(-5.44 -44.16)"/><path class="cls-4" d="M153.47,143.65s-11.95,40.4,12,77.76c23,35.91,99.69,42.94,113.18,12.59" transform="translate(-5.44 -44.16)"/><path d="M225.88,216.24l-1.34-1.37a1,1,0,0,0-1-.26,3.08,3.08,0,0,0-2,2.25c-.17.78.7,1.67,1.47,1.13a3,3,0,0,0,1.34-2.65,1,1,0,0,0-1.26-1,1.94,1.94,0,0,0-1.47,1.85,2,2,0,0,0,1.28,2,1,1,0,1,0,.53-1.93.24.24,0,0,1,.21.16c-.05-.1-.06-.11,0,0,0-.11,0-.13,0,0,0-.11,0-.14,0-.07s0,0,0-.11c0,.1-.27.14,0,.1l-1.27-1a1,1,0,0,1-.35.92l1.47,1.13a1,1,0,0,1,.65-.85l-1-.26,1.34,1.37c.9.93,2.32-.49,1.42-1.41Z" transform="translate(-5.44 -44.16)"/><path d="M395.47,253.65l-.9-.07c-1.14-.1-1.32,1.67-.26,2,5.26,1.48,13,2.12,17.72-1.32,3.68-2.69,6.56-8.35,7.21-12.86.8-5.56-.49-13.13-3.92-17.68-4.07-5.41-9.56-2.05-14.65-.22-1.2.43-.68,2.36.53,1.93,1.85-.66,3.62-1.66,5.48-2.24,4.73-1.5,7.48,1.39,9,5.52,1.7,4.77,2.57,10.55.9,15.41-1,2.92-3.64,7.39-6.24,9.07-4,2.61-11.2,1.66-15.46.46l-.27,2,.9.07c1.29.11,1.28-1.89,0-2Z" transform="translate(-5.44 -44.16)"/><path d="M111.51,83.69c4.46-1.07,8.53-.24,10.23,4.64A40,40,0,0,1,123,94.75a58,58,0,0,1,.8,15.72c-.14,1.28,1.86,1.27,2,0,.77-7.14.34-17.31-2.61-24C121,81.32,116,80.56,111,81.76c-1.25.3-.72,2.23.53,1.93Z" transform="translate(-5.44 -44.16)"/><path d="M114.23,129.2a12.47,12.47,0,0,0,10.6-7.9c.48-1.2-1.45-1.72-1.93-.53a10.36,10.36,0,0,1-8.67,6.43c-1.27.11-1.28,2.11,0,2Z" transform="translate(-5.44 -44.16)"/><path d="M252.63,87.48c12.53.69,25.21.14,37.77.21,2.18,0,4.38,0,6.56.08,6.88.27,11.29,3.08,14.41,9.19s3.89,12.86,4.17,19.5c.28,6.85,2.07,19.26-6.3,21.77-1.23.37-.7,2.3.53,1.92,4.77-1.43,7-5.55,7.65-10.31a82.22,82.22,0,0,0-.61-21.65c-.93-6.18-2.95-12.7-7.19-17.46-3.38-3.8-7.73-4.76-12.66-5-14.75-.59-29.58.52-44.33-.29-1.29-.07-1.28,1.93,0,2Z" transform="translate(-5.44 -44.16)"/><path class="cls-4" d="M161.77,85.59s10-31.07,64-39.2S302.9,83.15,305.68,89" transform="translate(-5.44 -44.16)"/></g></svg>