<svg xmlns="http://www.w3.org/2000/svg" viewBox="0 0 215.37 573.6"><defs><style>.cls-1{fill:#ee3924;}.cls-2{fill:#9e9d9e;}.cls-3{fill:#76b6e3;}.cls-4{fill:none;stroke:#000;stroke-miterlimit:10;stroke-width:2.5px;}</style></defs><title>home-guy</title><g id="outline"><path class="cls-1" d="M213.71,150.56l.71-.39c1.79-.57,3.28-3,1.94-4.78l-.35-.76a3.3,3.3,0,0,0-3.13-2.38c-18.23-1.18-37.35,5.38-54.37,11.16-18.27,6.2-36,13.9-54.18,20.25L106,177.6a8.1,8.1,0,0,0,3.55-5.63,2.26,2.26,0,0,0-3.75-2.18,10.33,10.33,0,0,0-2.74,3.15l4,2.31c3.52-6.67,10.78-11.13,17.22-14.68A74,74,0,0,1,145.1,153l-1-3.81-10.14,2.62,1.57,3.72a74.16,74.16,0,0,1,39.31-9.21v-4.2l-9.83-.4v4.23q20.58-.76,41.16.17v-4.32q-14.24.53-28.45-.09c-2.53-.11-3,3.79-.6,4.4,2.61.65,4.17-1.19,3.77-3.69l-2.17,2.85c8.54-.85,23.63-1.7,25,10.08.22,1.9,2.47,3.26,4,1.66a52.28,52.28,0,0,0,7.92-10.49l-4.62-2a85.23,85.23,0,0,0-.41,31.56c.49,2.83,5.19,2.8,5.69,0a143.74,143.74,0,0,0,2.18-31.34c-.14-3.55-5.29-4.42-6.29-.85a140.79,140.79,0,0,0-5,29.67l3.37-3.37a795.62,795.62,0,0,0-99.43,4.33l2.27,5.47L118,175.3a3.24,3.24,0,0,0-2.26-5.46l-3.64-.1,3.07,4a9.18,9.18,0,0,1,1.68-3.88c1.34-2.2-.46-4.43-2.69-4.68a6.85,6.85,0,0,0-5.31,1.42c-2.52,1.85-1.16,6.86,2.34,5.55A136,136,0,0,0,128,164.42c3.14-1.69.38-6.11-2.74-4.7l-4.86,2.21,2.73,4.67,10.34-6-2.7-4.62-5.18,3.77a2.66,2.66,0,0,0,2.68,4.59q8.55-3.76,16.75-8.23l-2.64-4.51-6.54,4.09a2.6,2.6,0,0,0,2,4.74,74.2,74.2,0,0,0,12.58-3.64l-2.49-4.28a41.58,41.58,0,0,1-10.89,7l2.55,4.36,10.09-5.94c2.82-1.66.35-5.61-2.52-4.3l-13.32,6.07c-2.49,1.13-.69,5.5,1.89,4.47l6.69-2.65-1.87-4.44-10,4.3,2.41,4.14c2.91-1.74,10.75-5.53,5.2-9.36l.47,3.72,3.56-3.32c1.76-1.65-.09-4.48-2.29-3.93-.88.22-4.34,1.45-5.14,1l1.17,2L136,155l-1.16,2,.6-.37-2.85-.37.38.34V153.3l-4.58,3.64c-1.8,1.43.16,4.87,2.31,4a182.22,182.22,0,0,1,31.1-10l-1.3-4.71A44.23,44.23,0,0,0,147,152.78c-2.1,1.51-.93,5.56,1.91,4.53,4.41-1.6,8.81-3.26,13.21-4.91L160.25,148,149,153.47c-2.46,1.18-.63,4.6,1.75,4.15a66.65,66.65,0,0,0,13-3.74L162,149.74l-7.23,3.32L157,157a164.46,164.46,0,0,1,23.2-8.81,2.3,2.3,0,0,0-1.22-4.44l-14.39,3.64c-4.88,1.24-9.9,3.1-15,2.52l1.18,4.36a81.27,81.27,0,0,1,18.83-6.64l-1.23-4.46a99.9,99.9,0,0,0-38.95,20.72c-2.07,1.78.57,4.5,2.72,3.52a73.44,73.44,0,0,0,22.67-16,2.22,2.22,0,0,0-1-3.67,4.92,4.92,0,0,0-5.19,1.35c-1.67,1.55.1,4.12,2.12,3.65,19-4.38,38.37,2.9,57.56.17l-3.14-2.39a150.45,150.45,0,0,1-2,19.3l5.13.7.8-12.48h-5.38a49.08,49.08,0,0,1-1.31,12.19h5.35l-1.31-6.08c-.66-3-5.92-2.43-5.52.75l.42,3.37,5.56-.75-1.79-8.19c-.6-2.76-4.94-2.74-5.56,0a26.43,26.43,0,0,0-.62,8.27l5.75-.77a62.66,62.66,0,0,1-1.1-8.63c-.17-2.7-4.22-4.4-5.57-1.51a17.79,17.79,0,0,0-1.54,10.84c.55,3.65,5.65,2.32,6-.81a93.71,93.71,0,0,0,.41-13.3l-6.14.83q.87,5,1.73,10c.52,3,4.41,2.77,5.83.76a13.41,13.41,0,0,0,2.16-10.71c-.69-3.82-5.82-2.38-6.21.84l-.49,4,5.38-2.23L200.47,153a3.2,3.2,0,0,0-4.43,0,13.27,13.27,0,0,0-2.76,3.91,3.13,3.13,0,0,0,4.9,3.78,17.17,17.17,0,0,0,3.49-4.16c1.78-2.86-1.62-5.46-4.25-4.25q-19,8.69-38.45,16.23c-5.71,2.2-11.59,4.87-17.65,5.93-7.42,1.31-14.86-.65-21.67-3.52-3.34-1.41-6.27,3.48-2.89,4.94,6.13,2.62,12.47,4.69,19.19,4.82,7.37.15,14.2-2.52,21-5.05q22.11-8.23,43.62-18l-4.26-4.26a8.29,8.29,0,0,1-2.53,2.89l4.9,3.78a6,6,0,0,1,1.8-2.62H196l4.72,3.92c2.24,1.86,5,.54,5.38-2.22l.51-4-6.21.84a7,7,0,0,1-1.56,5.82l5.82.76c-.62-3.33-1.23-6.65-1.85-10s-6.33-2.68-6.14.83a92.27,92.27,0,0,1-.25,13.3l6-.81a10.34,10.34,0,0,1,.83-6.2l-5.57-1.51a76,76,0,0,0,1.43,10.18c.67,3.19,6.07,2.54,5.76-.78a20.17,20.17,0,0,1,.32-6.74h-5.56l1.89,8.17c.85,3.64,5.94,2,5.46-1.51l-.46-3.37-5.42,1.49,1.38,6.06c.6,2.63,4.76,2.65,5.35,0a55,55,0,0,0,1.34-13.66c-.09-3.47-5.2-3.45-5.38,0l-.64,12.48c-.15,2.88,4.67,3.63,5.13.69a162.84,162.84,0,0,0,1.9-20.69,2.51,2.51,0,0,0-3.14-2.39c-19.13,3-38.3-3.85-57.4.4l2.12,3.65.94-.21-1-3.66a71,71,0,0,1-21.84,15.21l2.72,3.52a94.71,94.71,0,0,1,37-19.43c2.88-.78,1.67-5.1-1.23-4.46a85.76,85.76,0,0,0-20,7.06c-2.31,1.14-.89,4.13,1.18,4.36,4.91.55,9.59-1,14.31-2.22l16.29-4.18L179,143.74a170.89,170.89,0,0,0-24.27,9.32c-2.65,1.26-.34,5.15,2.29,3.93l7.23-3.34c2.3-1.06.64-5.11-1.75-4.13a58.73,58.73,0,0,1-13,3.72l1.76,4.15,11.4-5.23c2.44-1.12.71-5.28-1.85-4.37-4.42,1.57-8.84,3.13-13.25,4.74l1.91,4.53A40.24,40.24,0,0,1,161.76,151c3-.9,1.76-5.41-1.3-4.71a185,185,0,0,0-31.63,10.33l2.87,3.72,4.57-3.65a2.38,2.38,0,0,0,0-3.34l-.39-.33a2.44,2.44,0,0,0-2.86-.37,3.34,3.34,0,0,0-1.84,3.07,2.29,2.29,0,0,0,1.17,2c2.91,1.48,5.73.18,8.76-.56l-2.29-3.93-3.57,3.29a2.39,2.39,0,0,0,.48,3.72l.64.45-1.17-2c0,.28-4.27,2.47-4.69,2.72-2.25,1.33-.73,5.46,1.84,4.38l10.05-4.24c2.81-1.19,1.66-5.83-1.29-4.68l-6.7,2.61,1.89,4.47,13.36-6-2.52-4.3L137,159.48c-2.88,1.67-.36,5.64,2.55,4.36a45.85,45.85,0,0,0,12-7.71c1.87-1.64-.1-5.19-2.49-4.28a74.23,74.23,0,0,1-12.6,3.58l2,4.74,6.57-4.06c2.86-1.77.33-6.11-2.64-4.51q-8.22,4.43-16.79,8.15l2.68,4.59,5.2-3.74c2.74-2,.34-6.37-2.7-4.62l-10.37,6c-3.08,1.77-.38,6.06,2.73,4.67l4.87-2.18-2.74-4.7a98.94,98.94,0,0,1-15.68,6.6l2.34,5.55,1.41-.55-1.86-4.57a18.52,18.52,0,0,0-2.44,5.33,3.21,3.21,0,0,0,3.07,4l3.64.12-2.26-5.45-4.64,4.7c-1.8,1.82-.62,5.77,2.26,5.47a797.39,797.39,0,0,1,99.43-4,3.44,3.44,0,0,0,3.37-3.37,142.91,142.91,0,0,1,4.46-28l-6.28-.85a146.09,146.09,0,0,1-1.47,29.77h5.69a77.69,77.69,0,0,1-.41-28.64c.46-2.65-3.16-4.65-4.62-1.95a47.19,47.19,0,0,1-6.88,9.71l4,1.67c-2-14.8-17.87-15.81-29.72-14.57a2.29,2.29,0,0,0-2.16,2.84l.1.6.57-2.18-.51.47,2.19-.57-.6-.15-.59,4.4q14.22.51,28.45-.07a2.16,2.16,0,0,0,0-4.32q-20.58-.87-41.16-.08a2.12,2.12,0,0,0,0,4.23l9.83.37c2.71.11,2.7-4.09,0-4.2a77.29,77.29,0,0,0-41.37,9.9A2,2,0,0,0,135,155.7L145.1,153c2.47-.67,1.43-4.36-1-3.81a86.81,86.81,0,0,0-23.37,8.67c-6.66,3.69-13.84,8.29-17.62,15.11-1.43,2.58,2.44,4.84,4,2.31a5.55,5.55,0,0,1,2-2.28l-3.83-1.59-1.76,2.83c-1.63,1.35.12,4.38,2.1,3.61,17.37-6.71,35-12.65,52.69-18.45,17.15-5.61,36.45-12.13,54.71-10.64l-3.12-2.38a4.76,4.76,0,0,0,1,2.33l1.94-4.78a7.49,7.49,0,0,0-4.13,2.68,3.27,3.27,0,1,0,5.15,4Z"/><path class="cls-1" d="M125.48,173.94a61.68,61.68,0,0,0,9.46-4.15c1.08-.58.34-2.43-.85-2a21.63,21.63,0,0,1-9.46,1.2l.68,2.51a59.85,59.85,0,0,1,6.95-4.51c1.75-1,.19-3.65-1.58-2.7a100.8,100.8,0,0,0-10,6.13l2.12,2.74a51.86,51.86,0,0,1,7.46-5.2c2-1.15.24-4.09-1.79-3.07l-5.84,2.92,2.46,2.46a13.23,13.23,0,0,1,6-5.35l-1.85-3.15a47.72,47.72,0,0,0-8.81,7.8c-1.1,1.24-.06,3.87,1.81,3.11a113.78,113.78,0,0,0,13.07-6.3l-1.92-3.28L125,168.43c-2.1,1.33-.2,4.62,1.95,3.34a50.16,50.16,0,0,1,12-5.19L137.44,163l-8.72,5.38c-2.23,1.38-.29,4.53,2,3.47q8.43-3.87,17.16-7l-1.59-3.77a122.68,122.68,0,0,1-13.85,6.47c-2.5,1-1.42,5.07,1.12,4.07l13.18-5.15-1.64-3.87-13.89,6.81c-2.51,1.23-.31,4.71,2.15,3.67l10.55-4.46c2.22-.94.64-4.66-1.65-3.91q-9.47,3.15-18.64,7l1.65,3.93a43,43,0,0,1,18.86-6.75l-1.11-4.12-8.24,4.28c-2.22,1.16-.69,5,1.73,4.11l10.9-3.86-1.77-4.19L139.12,169c-2.59,1.51-.29,5.41,2.34,4a56.56,56.56,0,0,1,7.56-3.34l-2.29-3.94a34.42,34.42,0,0,1-5.47,3.6l2.41,4.12a34.93,34.93,0,0,1,9-3.6l-1.87-4.43-6.73,4.52c-2.22,1.49-.91,5.33,1.89,4.49l8.73-2.6-1.92-4.56L148,170c-2.43,1.38-.82,5.52,1.94,4.6l9.51-3.17-2-4.67a8.9,8.9,0,0,1-3.72,1.77l2,4.71a94,94,0,0,0,8.43-5.53c2.15-1.58,1-5.79-2-4.71L154,165.91l2,4.71a40.94,40.94,0,0,1,8.76-4l-2-4.71a38.52,38.52,0,0,1-6,2.89c-3.05,1.14-1.85,6,1.38,5a26.56,26.56,0,0,0,9.58-5.24c2.15-1.8-.23-4.74-2.51-4.31a52.29,52.29,0,0,0-12.78,4.24l2.6,4.45,9.25-4.58c2.58-1.28.76-5.78-2-4.71l-11,4.28,2,4.71,8.89-4.59c2.57-1.31.79-5.75-2-4.72l-11.06,4.09c-3.12,1.15-1.81,6.18,1.39,5a51.15,51.15,0,0,0,11.31-5.66c2.25-1.49.87-5.79-2-4.66-3.56,1.41-7.1,2.85-10.7,4.16-3,1.1-1.8,5.93,1.36,4.91a65.44,65.44,0,0,0,15.08-6.94c3.14-2,.41-6.53-2.89-4.95a109.32,109.32,0,0,1-15.39,6l1.56,5.67,13.57-5.54c3.52-1.44,2-7.24-1.6-5.79l-10.63,4.31c-3.57,1.45-2,7.33,1.62,5.88q9.56-3.78,18.87-8.1l-3.16-5.41-5.5,3.14c-3,1.72-1,7.08,2.44,5.77l13.11-5-2.48-5.87L165.71,155c-3.83,1.89-.48,7.27,3.29,5.63a103.85,103.85,0,0,1,15.92-5.37l-2.57-6.09q-7.71,4.43-15.72,8.27c-4,1.91-.5,7.65,3.44,5.88l15.1-6.72-3.52-6q-8,4.26-16.32,7.92c-3.65,1.61-1,8,2.74,6.5l20.18-8-2.81-6.67-17.63,9.39c-3.73,2-1.18,8.05,2.87,6.82a88.3,88.3,0,0,0,19.46-8.66c4-2.4.45-8.51-3.68-6.29L178.21,156c-4.11,2.22-.5,8.11,3.61,6.19a103.93,103.93,0,0,1,14.35-5.43l-2.67-6.35-8.19,4.33c-3.35,1.76-1,7.71,2.62,6.23l7.16-2.91L192.5,152A109.79,109.79,0,0,0,174,162.7c-2.85,2-1.28,7.26,2.55,6.05l14.07-4.45-2.58-6.13c-5.16,2.61-10.4,5-15.76,7.15l2.63,6.23a100.43,100.43,0,0,1,19.38-6.67l-2.68-6.34-12.4,5.32c-3.65,1.56-1,7.6,2.71,6.41l15.81-5L195,158.74,179.27,167c-3.63,1.91-1.13,7.75,2.79,6.61l16.55-4.84-2.82-6.69-8.26,6c-3.07,2.25-1.39,8.39,2.85,6.75a58.78,58.78,0,0,1,10-2.89l-2.87-6.81-9.91,6.69c-3.43,2.31-1.38,8,2.9,6.87l10.93-2.92-2.92-6.93a123,123,0,0,1-12.19,5.58c-4.48,1.75-2.83,8.71,2,7.38l13.91-3.81-2.06-7.45L176.28,180l2.09,7.58,15.24-6.31c4.57-1.9,2.93-9.21-2.12-7.67a189.32,189.32,0,0,0-22.56,8.53l4.08,7a62.09,62.09,0,0,1,17.08-7.42l-3.15-7.48-22.71,9.87,4.2,7.18A109.24,109.24,0,0,1,191.12,182l-3.26-7.73c-5.57,3.85-11.14,7.68-16.69,11.56-4.55,3.19-.68,9.48,4.29,7.33l21.36-9.2-4.19-7.18a108.77,108.77,0,0,1-29.45,12.4l3.92,6.75a114.92,114.92,0,0,1,17.61-11.31c4.51-2.38.52-9.15-4-6.83-8.15,4.2-16.39,8.18-24.7,12-4.64,2.16-.61,8.92,4,6.84l15.11-6.8c4.09-1.84,1.19-8.74-3.06-7.28a253,253,0,0,1-46,11.2l4.55,5.92c1-2.17,5.87-3,8-3.74l9.15-3.32,17.4-6.3-2.09-7.6-17.7,6.61,3,7.13a176.67,176.67,0,0,1,21.72-9.15l-3-7q-6.33,3.42-12.93,6.25c-3.93,1.68-1.12,8.44,2.93,7l21.31-7.79-2-7.24a309.05,309.05,0,0,1-29.94,10l2.93,6.94a90.54,90.54,0,0,1,17.92-9.65l-2-7.39q-14.55,5.91-28.79,12.48l3.91,6.7q10.14-5.81,20.75-10.65l-3.95-6.76q-11.52,5.42-23.25,10.31l3,7.23,19.34-10.09c4.59-2.4.56-9.11-4-6.9q-13,6.27-26.41,11.61l3.1,7.36,19.67-11.72c4.49-2.67.56-9.13-4.05-6.92l-25.47,12.2,4.83,6.26a128.29,128.29,0,0,1,15.78-10.55c4.48-2.56.54-9.1-4-6.86L117,187.37l4,6.83,20.81-11.82c4.46-2.53.54-8.93-4-6.79l-26,12.35,4,6.75a122.47,122.47,0,0,1,17.19-11.12c4.44-2.38.53-9-3.93-6.73L124.59,179c-4.48,2.24-.54,9,3.93,6.72l4.36-2.16L129,176.84a122.54,122.54,0,0,0-17.21,11.1c-3.94,3-.7,8.95,4,6.75l26.06-12.31-4-6.79L117,187.37c-4.47,2.53-.54,9,4,6.83l18.86-9.27-4-6.86a142.37,142.37,0,0,0-17.4,11.77c-3.78,3,1,8.08,4.83,6.26l25.49-12.16L144.66,177,125,188.71c-3.77,2.24-1.27,9.1,3.11,7.36q14.38-5.72,28.3-12.48l-4-6.9-19.3,10.15c-3.89,2-1.14,9,3,7.24q12.68-5.31,25.09-11.18c4.57-2.16.59-8.85-3.95-6.76q-10.61,4.88-20.71,10.71c-4.4,2.54-.55,8.77,3.91,6.7q13.32-6.2,26.91-11.79c4.49-1.84,2.57-9.22-2-7.39a99.17,99.17,0,0,0-19.72,10.49c-3.4,2.34-1.43,8.17,2.92,6.93,10.14-2.88,20.08-6.28,29.91-10.07,4.44-1.71,2.6-8.9-2-7.24l-21.34,7.68,2.93,7c4.42-1.87,8.73-3.92,13-6.19,3.78-2,1.2-8.44-3-7a193.94,193.94,0,0,0-23.61,9.83c-3.91,1.93-1.16,8.66,3,7.12l17.72-6.53c4.71-1.74,2.71-9.32-2.09-7.6l-22.93,8.19c-5.19,1.85-13.93,3.11-16.48,8.71-1.55,3.38,1,6.45,4.55,5.92a254.14,254.14,0,0,0,46-11.3L171.12,183,156,189.81l4,6.84c8.3-3.87,16.51-7.92,24.69-12.05l-4-6.83A125.6,125.6,0,0,0,161.4,190.2c-3.39,2.62.35,7.64,3.92,6.74a116,116,0,0,0,31.5-13c3.88-2.31,1.28-9.49-3.2-7.6l-21.43,9,3.27,7.76c5.57-3.83,11.12-7.71,16.67-11.59,3.75-2.61,1.6-9.13-3.26-7.72a119,119,0,0,0-24.64,10.23c-4.79,2.65-.58,9.29,4.2,7.18l22.64-10c4.31-1.91,1.21-8.67-3.16-7.48a69.9,69.9,0,0,0-19,8.33c-4.47,2.83-.58,9.12,4.08,7a171.84,171.84,0,0,1,20.6-7.84l-2.12-7.67L176.28,180c-4.57,1.92-2.66,9.47,2.09,7.58l23.91-9.49c4.51-1.79,2.86-8.82-2.06-7.45l-13.89,3.88,2,7.38a141.11,141.11,0,0,0,14-6.42c3.83-2,1.18-8-2.92-6.92l-10.92,3,2.9,6.87,9.87-6.75a3.74,3.74,0,0,0-2.87-6.81,59.16,59.16,0,0,0-10,3l2.85,6.75,8.23-6.11c3.11-2.31,1.46-8-2.83-6.69l-16.53,4.93,2.79,6.6,15.69-8.38c3.52-1.88,1.12-7.76-2.74-6.5l-15.79,5.11,2.71,6.42,12.36-5.39c3.71-1.62,1-7.24-2.68-6.34a109.76,109.76,0,0,0-21,7.47c-3.45,1.63-1,7.69,2.62,6.23,5.9-2.4,11.67-5,17.33-7.93,3.37-1.73,1-7.3-2.58-6.13l-14.05,4.53,2.55,6a100.17,100.17,0,0,1,18.52-10.65c3.45-1.52,1-7.53-2.58-6.14l-7.19,2.81,2.63,6.24,8.25-4.22c3.53-1.8,1.08-7.41-2.67-6.35A117.89,117.89,0,0,0,178.21,156l3.61,6.19,8.32-4.35-3.68-6.29a87.08,87.08,0,0,1-17.76,7.75l2.87,6.82,17.55-9.53c3.54-1.92,1.09-8.24-2.81-6.67l-20.13,8.16,2.74,6.5q8.28-3.74,16.25-8.06c4-2.18.48-7.84-3.52-6l-15,6.85,3.44,5.88q8-3.9,15.65-8.39c3.26-1.92,1.1-7.06-2.57-6.1A115,115,0,0,0,165.71,155l3.29,5.63,9.34-4.71c3.19-1.62.94-7.22-2.48-5.88l-13.08,5.12,2.43,5.78,5.47-3.19c3.53-2.06.44-7.11-3.16-5.41q-8.55,4.06-17.33,7.63l1.62,5.88,10.61-4.4-1.6-5.79-13.53,5.66c-3.37,1.41-2.16,6.83,1.56,5.67a120,120,0,0,0,16.72-6.69l-2.89-4.95a68.92,68.92,0,0,1-13.55,7l1.36,4.91c3.53-1.46,7.12-2.79,10.7-4.15l-2-4.66a51.3,51.3,0,0,1-10.12,5l1.39,5,11-4.14-2-4.73-8.89,4.6c-2.54,1.31-.76,5.78,2,4.71l11-4.28-2-4.71-9.25,4.58c-3,1.48-.37,5.86,2.6,4.45a47.8,47.8,0,0,1,11.55-3.72l-2.51-4.3a20.14,20.14,0,0,1-7.31,3.91l1.38,5a45.72,45.72,0,0,0,7.26-3.41c2.48-1.44.85-5.61-2-4.71a46.48,46.48,0,0,0-10,4.5c-2.42,1.45-.85,5.73,2,4.71l8.14-2.93-2-4.71a92.48,92.48,0,0,1-8.42,5.53c-2.49,1.44-.85,5.58,2,4.71a17.4,17.4,0,0,0,4.93-2.33c2.26-1.53.93-5.66-2-4.67l-9.49,3.24,1.94,4.61,4.79-2.79c2.41-1.4.83-5.41-1.92-4.56l-8.71,2.67,1.89,4.5,6.7-4.58c2.21-1.52.9-5.15-1.87-4.44a39.11,39.11,0,0,0-10.15,4.16c-2.66,1.54-.29,5.6,2.41,4.12a41.13,41.13,0,0,0,6.39-4.39c1.8-1.48-.13-4.73-2.29-3.94a64.38,64.38,0,0,0-8.65,3.88l2.34,4,6.53-3.88c2.15-1.28.74-5.1-1.77-4.19l-10.87,3.95,1.73,4.1,8.2-4.35c1.83-1,1.1-4.37-1.12-4.11a48.61,48.61,0,0,0-21,7.46c-2.39,1.54-.32,4.76,2.17,3.71q8.94-3.76,18.13-6.81l-1.65-3.91-10.54,4.48,2.15,3.67,13.88-6.82c2.13-1.05.62-4.76-1.63-3.88l-13.17,5.17,1.12,4.07a123.39,123.39,0,0,0,14.81-7c2-1.11.65-4.58-1.59-3.77q-9.21,3.35-18.09,7.47l2,3.47,8.69-5.44c1.85-1.16.68-4.26-1.52-3.61A54.23,54.23,0,0,0,125,168.43l1.95,3.34,8.4-5.4c2-1.32.22-4.51-1.92-3.28a107.66,107.66,0,0,1-12.14,6l1.81,3.11a44.1,44.1,0,0,1,8-7.28,1.83,1.83,0,0,0-1.85-3.15,16.82,16.82,0,0,0-7.27,6.68,1.81,1.81,0,0,0,2.46,2.46l5.82-3-1.79-3.07a54.89,54.89,0,0,0-8.14,5.8c-1.5,1.27.49,3.9,2.12,2.75,3.18-2.26,6.43-4.43,9.77-6.45l-1.58-2.7a64.88,64.88,0,0,0-7,5.09c-1,.8-.12,2.27,1,2.31a22.81,22.81,0,0,0,10.05-1.78l-.85-2a59.78,59.78,0,0,1-8.8,4.41c-1,.4-.6,2,.45,1.63Z"/><path class="cls-1" d="M85.1,217.75c.1-3.82,0-7.6-.08-11.42,0-1.77-2.54-3.18-3.83-1.59a20.89,20.89,0,0,0-4.4,9c-.65,3,3.77,4.25,4.61,1.27a82.44,82.44,0,0,1,14.8-29.3c2-2.56-1.17-6-3.67-3.67-1.18,1.11-2.37,2.21-3.53,3.33-1.88,1.81,0,5.35,2.61,4.48,2.73-.92,3.39-2.72,5.36-4.54,3.07-2.83,9.45-2.47,13.47-3,3.14-.42,2.43-5.93-.76-5.58-8.9,1-14.71,10.18-20.05,16.52-6.06,7.22-7.75,16.61-9.16,25.67l5.14-.67c-.8-1.17-1.56-2.35-2.32-3.54-1.32-2.06-5.16-2-5.67.74-1.85,10.12,6,18.64,16.11,18.42,2.87-.06,4.47-4.39,1.56-5.77-3.36-1.6-6.64-1.28-9.26,1.54-1.77,1.92-.59,5.43,2.22,5.35a67.84,67.84,0,0,0,13.68-1.79l-1.69-6.14-4.88,1.3c-3.44.91-2.85,6.61.86,6.35,4.57-.31,9.13-.77,13.71-1a3.37,3.37,0,0,0,.89-6.58,12.33,12.33,0,0,0-9,.41c-3,1.27-3.57,5.64,0,6.72,6.4,1.92,14.17-.23,20.76-.45,7.72-.26,15.47-.4,23.19-.17,5.3.15,5-7.48,0-8.06a18.53,18.53,0,0,0-9.23,1.2c-4,1.58-4,8.43,1.1,8.16,12.7-.68,25.36-1.88,38.05-2.66v-8.19l-12,1.34c-5.21.59-5.48,8.6,0,8.35a170.66,170.66,0,0,0,25.19-3l-2.2-8c-3.52.75-7.08,1.3-10.62,1.9-4.9.82-3.75,8.87,1.17,8.64a134.38,134.38,0,0,0,21.49-3l-2.38-8.65c-3.76.82-7.53,1.64-11.28,2.51-4.74,1.09-3.84,9.19,1.18,8.66,8.77-.92,17.54-1.59,26.34-2.24,5.74-.43,5.9-9.16,0-9.06-3.76.05-7.52.09-11.27.29-2.79.15-5.5.1-7.46,2.37-1.4,1.63-2.19,4.34-.81,6.29a5.83,5.83,0,0,0,5.15,2.89c3.05,0,5-2.39,5.25-5.25l0-.28c.67-6.71-9.83-6.67-10.5,0l0,.28,3.85-5.06-.41.08,5.07,1.34-.25-.29.81,6.29.39-.56-3.08,2.37c4.11-1.39,9-1.5,13.26-1.7v-9.06c-8.78.92-17.54,1.82-26.34,2.48l1.17,8.66c3.78-.75,7.54-1.56,11.31-2.36,5.66-1.2,3.25-9.8-2.38-8.65-6.33,1.29-12.7,2.1-19.11,2.84l1.17,8.64c3.48-.83,7-1.7,10.48-2.37,5.28-1,3-8.92-2.2-8a204.08,204.08,0,0,1-23,2.68v8.35l12-1.5c5.09-.64,5.36-8.6,0-8.19-12.68,1-25.38,1.48-38.05,2.54l2.1,7.74a11.73,11.73,0,0,1,6-.73v-8.06c-7.1,0-14.18.1-21.26.71-3.22.28-6.43.6-9.64.94-3.61.39-7.66,1.43-11.19.31v6.72a8.9,8.9,0,0,1,5.34-.67l.89-6.58c-4.56.52-9.14.79-13.71,1.21l.86,6.35,4.85-1.4c3.94-1.13,2.3-7.11-1.69-6.14a60.63,60.63,0,0,1-12,1.66l2.21,5.35,1.71-.62,1.56-5.78c-6.91.17-10.43-4.93-10-11.4l-5.29,2.2c.94,1,1.87,2.1,2.77,3.18,1.7,2,4.64.21,4.81-2,.6-8,1.52-15.53,7.13-21.66,4.68-5.12,9.1-14.66,16.55-15.6l-.75-5.58c-4,.6-8.77.6-12.5,2.15-2.7,1.12-3.79,4.85-6.25,5.72l2.61,4.49c1.15-1.14,2.28-2.3,3.41-3.46l-4.07-3.14a97.3,97.3,0,0,0-15.34,31.17l4.61,1.27a21,21,0,0,1,3.31-7.59l-4.18-1.13c.5,4,1,7.88,1.71,11.81.3,1.66,2.82,1.19,2.86-.39Z"/><path class="cls-1" d="M89.11,219.59A9.22,9.22,0,0,1,87.49,214l-2,.27,1.44,7.93,3.65-1a77.44,77.44,0,0,0-3.73-7.53c-1-1.92-3.86-.93-3.93,1.07A15.81,15.81,0,0,0,85,223.36l3.31-2.55-1.38-2.94c-.61-2.68-4.48-1.5-4,1.12a15.39,15.39,0,0,0,3.63,7.78c1.46,1.77,3.86-.2,3.51-2.05a75.93,75.93,0,0,0-2.67-10.16c-.86-2.54-4.88-1.47-4,1.11a65.34,65.34,0,0,0,6,13.29,2.1,2.1,0,0,0,3.82-1.61q-2-7.42-4.57-14.64a2.09,2.09,0,0,0-4,1.11A32.35,32.35,0,0,0,90,226.91a2.09,2.09,0,0,0,3.81-1.6,113.68,113.68,0,0,0-4.64-14.42c-1-2.42-4.7-1.55-4,1.11a62,62,0,0,0,6.06,15.06c1.12,2,4.69.63,3.79-1.6l-5.84-14.55-4,1.1,7.22,17.54c1,2.37,4.8,1.5,4-1.1-1.94-6.18-4-12.33-5.93-18.51A2,2,0,0,0,86.62,211a64.26,64.26,0,0,0,7.25,17.29c1.09,1.81,4.38.62,3.55-1.5-2.57-6.62-5.14-13.25-7.66-19.89l-3.61,1.52q4,8.46,7.44,17.16c1,2.46,5,1.48,4.06-1.12L92,208.16c-.93-2.68-5.21-1.53-4.28,1.18a120.66,120.66,0,0,0,9.67,21.16c1.25,2.16,5,.73,4.14-1.75q-4.26-12-9.32-23.69c-1.07-2.49-4.7-.64-4.19,1.76a63.48,63.48,0,0,0,7.07,18.33c1.51,2.64,5.16.33,4-2.33l-7.88-17.88-4,2.35c2.93,6.21,5.85,12.42,8.81,18.62,1.14,2.4,5,.71,4.26-1.8A131.22,131.22,0,0,0,91,201.37c-1.16-2.23-5.08-.67-4.14,1.74a136.69,136.69,0,0,0,10.62,21.62,2.18,2.18,0,0,0,4-1.67,183.09,183.09,0,0,0-7.64-22.6c-.85-2.07-4.06-1.35-3.45.95a92.94,92.94,0,0,0,10.54,25c1.2,2,3.89.25,3-1.76Q98.85,213,94.71,201a1.81,1.81,0,0,0-3.48,1,94.24,94.24,0,0,0,9.44,24.41,1.87,1.87,0,0,0,3.4-1.43A183.43,183.43,0,0,0,95,198.84c-.83-1.94-3.85-.54-3.33,1.4a89.52,89.52,0,0,0,11,25.28c1,1.59,4,.56,3.22-1.36-3.58-8.57-6.8-17.26-9.73-26.06a1.7,1.7,0,0,0-3.27.9,76.34,76.34,0,0,0,11.46,26.67c1.24,1.81,4.41.76,3.7-1.56-1.69-5.56-3.33-11.13-5.21-16.63-.77-2.24-4.64-2.07-4.4.6a34.22,34.22,0,0,0,7.47,18.82c1.28,1.62,3.75-.16,3.29-1.92a65.3,65.3,0,0,0-5.56-14.22c-.67-1.27-3-1.1-3.24.42a20,20,0,0,0,3.48,15.5,1.62,1.62,0,0,0,3-.81,26.54,26.54,0,0,0-2.47-14.8c-.67-1.49-2.58-.51-2.73.74a15.77,15.77,0,0,0,7,15.28,1.61,1.61,0,0,0,2.42-1.38A48.11,48.11,0,0,0,107,210c-.88-1.93-3.48-.45-3.18,1.34a60.66,60.66,0,0,0,4.84,15.57c.9,2,4.19.57,3.48-1.47l-5.83-16.91a2.1,2.1,0,0,0-4,1.11,60.8,60.8,0,0,0,2.89,10.94l4.27-1.17-6.69-17.88c-1.07-2.87-5.38-1.79-4.65,1.29A48.05,48.05,0,0,0,102,213.46c1.32,2.65,5.24.74,4.62-2A86.66,86.66,0,0,0,101.36,196c-1.08-2.45-5.19-1.21-5,1.36a32.82,32.82,0,0,0,3,11.67c1.33,2.92,6.28.85,5.22-2.2l-4.25-12.25a3.18,3.18,0,0,0-6.22.84,30,30,0,0,0,.77,10.51l6.55-1.81L98,194c-1.31-3.85-7.06-3.27-7.17,1a16.87,16.87,0,0,0,3,10.38c2.6,3.79,7.66,1.3,7.07-3-.51-3.7-1.24-7.38-1.9-11.05l-7.56,2.08a41.62,41.62,0,0,0,5.36,12.39,3.92,3.92,0,0,0,7.25-2,60.24,60.24,0,0,0-1.47-15.61c-1.11-4.93-8.18-2.74-7.43,2a31.53,31.53,0,0,0,4.9,12.63c2.46,3.75,7.7,1.28,7-2.95a93.06,93.06,0,0,0-2.87-12.11c-1.44-4.66-8.51-2.74-7.32,2a30,30,0,0,0,6.72,12.72c2.68,3.1,6.91-.3,6.29-3.66A132.92,132.92,0,0,0,106.23,184c-1.39-4.58-8.41-2.68-7.18,2a50.42,50.42,0,0,0,5.35,12.85c2.22,3.76,7.53,1.15,6.77-2.86l-2-10.49-7.13,2a45.71,45.71,0,0,0,4.32,8.44c1.88,2.85,7.11,2,6.87-1.86a74.2,74.2,0,0,0-1.84-12.6c-1.11-4.72-7.79-2.61-7.1,1.95a24.36,24.36,0,0,0,4.08,10.38c1.85,2.73,7.21,2.07,6.85-1.86l-1-11-7.21,1a37.54,37.54,0,0,0,3.23,8.48c1.42,2.74,6,2.16,6.7-.88a25,25,0,0,0,.56-7.56l-7.19,1a12.59,12.59,0,0,0,3,6.35c1.31,1.66,3.79,1.13,5.18,0,1.21-1,1-2.15,1.81-3.15,1.28-1.59-1.16.21,1.23-.92s3.69-.73,5.41-3.08l-6.31-3.69a138.38,138.38,0,0,1-11.18,15c-2.5,2.91.89,8.41,4.43,5.74a58.72,58.72,0,0,1,7.79-5L118,187.92A100.62,100.62,0,0,0,105.19,199c-3.35,3.46,1.58,8.08,5.17,5.17l10-8.09-5.75-4.43a72.76,72.76,0,0,1-10.11,10.65c-3.09,2.7,1,8.16,4.43,5.75q7-4.94,13.62-10.28c3.21-2.57-1.08-8.21-4.43-5.75a115.87,115.87,0,0,0-14.91,13c-2.79,2.9.85,8.08,4.43,5.74l14.75-9.62L118,195.39a86.77,86.77,0,0,0-13.07,14.08c-2.69,3.61,2.79,6.77,5.75,4.43l15.22-12.07-5.17-5.17-12.93,12.07c-3.5,3.26,1.6,8.1,5.17,5.17q5.7-4.68,11.69-8.93L121,198.65a64.09,64.09,0,0,0-14.11,14.22c-2.13,3,2.06,7,5,5l18-12.25-4.44-5.74a114.3,114.3,0,0,0-15,15c-3,3.59,1.61,8.34,5.17,5.17l11.89-10.58c3-2.71-1.06-8.22-4.43-5.74a62,62,0,0,0-13.78,13.85c-2.22,3.07,2,6.76,5,5l13.1-7.74-4.43-5.75L110.77,221c-3,2.92.83,7.79,4.43,5.74a133.45,133.45,0,0,0,11.91-7.61l-4.43-5.74a66.83,66.83,0,0,1-8.21,7.56c-3.26,2.54,1,8,4.43,5.74a79.55,79.55,0,0,0,8.68-6.73c3.24-2.9-.88-7.51-4.43-5.75a58.16,58.16,0,0,0-12.7,8.65c-2.64,2.34.14,7.44,3.56,6.11a72.84,72.84,0,0,0,13.93-7.11l-4.43-5.74-6.39,5.67c-3.37,3,.92,7.26,4.43,5.74a93,93,0,0,0,14.14-7.6l-4.48-5.8L120.9,223c-2.73,2.35.17,7.67,3.64,6.26a132.07,132.07,0,0,0,15-7.19l-4.61-6-7.63,6.66c-3.43,3,.94,7.92,4.66,6l12.4-6.29-4.72-6.11-6.05,4.76c-3.77,3,1,7.83,4.75,6.16L150.13,222l-4.81-6.23-5.19,5.06c-2.69,2.62.05,8.19,3.89,6.68L155.41,223l-3.11-7.39-8.2,6.27c-3.37,2.58-1.67,9,3.14,7.46a70.51,70.51,0,0,0,14.44-6.38l-5-6.5-4.54,4.23c-3.55,3.3,1,8.71,5,6.53l10.06-5.39-5.09-6.6-5.42,4.54c-3.29,2.75.23,8.27,4.11,7.07a95.55,95.55,0,0,0,10.86-4.14c5-2.23.67-9.63-4.3-7.36a79.39,79.39,0,0,1-8.81,3.35l4.11,7.06,5.39-4.58c3.74-3.18-1-8.8-5.09-6.59L153,220l5,6.53,4.51-4.26c3.42-3.23-1-8.89-5-6.49a60.31,60.31,0,0,1-12.43,5.65l4,6.82,8.16-6.33c3.13-2.43-.28-8.23-3.93-6.75l-11.38,4.59,3.89,6.68,5.15-5.1c3.38-3.34-.89-8-4.81-6.23l-11.7,5.38,4.75,6.16,6-4.8c3.6-2.87-1-8-4.72-6.11l-12.35,6.37,4.65,6,7.58-6.71c3.29-2.92-.92-8.08-4.61-6A118,118,0,0,1,122.55,222l3.64,6.26,10.24-9c3.14-2.75-1-8.13-4.47-5.8a90.25,90.25,0,0,1-14.1,7.66l4.43,5.74,6.39-5.67c3.09-2.74-1-8-4.43-5.75a63.73,63.73,0,0,1-12.19,6.38l3.56,6.11a50.32,50.32,0,0,1,11.22-7.5l-4.43-5.74a67.27,67.27,0,0,1-7.2,5.59l4.43,5.74a66.83,66.83,0,0,0,8.21-7.56c2.66-2.9-.9-8.27-4.43-5.74a133.45,133.45,0,0,1-11.91,7.61l4.43,5.74,12.17-11.86c3-2.89-.85-7.86-4.43-5.74l-13.1,7.74,5,5A50.72,50.72,0,0,1,126.74,210l-4.43-5.75-11.89,10.58,5.17,5.17a114.37,114.37,0,0,1,15-15c3.17-2.63-1-8.07-4.44-5.74l-18,12.25,5,5A52.37,52.37,0,0,1,124.64,205c3.74-2.75.18-9.06-3.69-6.32q-6.76,4.82-13.17,10.08L113,213.9l12.93-12.07c3.52-3.29-1.58-8-5.17-5.17l-15.22,12.07,5.74,4.43a77.71,77.71,0,0,1,11.92-12.6c3.16-2.68-1-8-4.43-5.74L104,204.45l4.43,5.74a104.88,104.88,0,0,1,13.43-11.84l-4.43-5.74c-4,3.17-8,6.2-12.14,9.13l4.43,5.74A81.92,81.92,0,0,0,121,195.35c2.71-3.55-2.8-6.82-5.75-4.43l-10,8.09,5.17,5.17a89,89,0,0,1,11.3-10c3.73-2.74.56-8.57-3.69-6.31a57.65,57.65,0,0,0-7.79,5l4.43,5.75a151,151,0,0,0,12.32-16.48c2.6-4-3.59-7.41-6.31-3.69.38-.52-4.52.38-5.22.92a5.69,5.69,0,0,0-1.69,2.14,15.7,15.7,0,0,0-.41,2.6h5.18a5.24,5.24,0,0,1-1.1-3.12c-.58-4.06-7.53-3.13-7.19,1a17.66,17.66,0,0,1-.31,5.61l6.7-.87A29.58,29.58,0,0,1,114.1,180c-1-3.93-7.6-3.22-7.21,1l1,11,6.85-1.86a19.78,19.78,0,0,1-3.33-8.61l-7.1,1.95a62.75,62.75,0,0,1,1.56,10.65l6.88-1.87a36.25,36.25,0,0,1-3.56-6.68,3.7,3.7,0,0,0-7.13,2L104,198l6.77-2.85A42.48,42.48,0,0,1,106.23,184l-7.18,2a135.71,135.71,0,0,1,3.53,14.88l6.29-3.66a21.83,21.83,0,0,1-4.72-9.41l-7.32,2A93.56,93.56,0,0,1,99.65,202l7-2.94a26.12,26.12,0,0,1-4.07-10.81l-7.43,2a51.16,51.16,0,0,1,1.12,13.57l7.25-2A34.61,34.61,0,0,1,99,191.32c-1.23-5-8.41-2.81-7.56,2.08.64,3.68,1.21,7.38,2,11l7.07-3A10.13,10.13,0,0,1,98.09,195l-7.17,1,3.93,9.95c1.56,4,7.82,2.49,6.55-1.81a24.84,24.84,0,0,1-1-8.7l-6.22.84L99,208.31l5.22-2.2a23,23,0,0,1-2.54-8.79l-5,1.36a78.94,78.94,0,0,1,5,14.17l4.62-1.94a43.3,43.3,0,0,1-3.6-9.37l-4.65,1.29,7.07,17.76c1,2.61,5.3,1.5,4.27-1.17a61.45,61.45,0,0,1-3.12-10.88l-4,1.11,6.2,16.82,3.48-1.47a57.63,57.63,0,0,1-4.78-14.57L104,211.77a43.73,43.73,0,0,1,4,13.94l2.42-1.39a12.83,12.83,0,0,1-5.74-12.51l-2.73.74a21.91,21.91,0,0,1,1.86,12.89l2.92-.38a16.51,16.51,0,0,1-2.82-12.94l-3.24.42A60.46,60.46,0,0,1,105.41,226l3.6-1.52a29.92,29.92,0,0,1-6.08-16.43l-4.4.59c1.73,5.56,3.71,11,5.63,16.52l3.7-1.56A64.46,64.46,0,0,1,96.17,198.1l-3.27.9c2.82,8.84,6,17.52,9.6,26.1l3.22-1.36a85.7,85.7,0,0,1-10.53-24.47l-3.34,1.41a192,192,0,0,1,8.64,25.23l3.39-1.43A90.31,90.31,0,0,1,94.71,201l-3.48,1q4.33,12.45,9.69,24.5l3-1.76a79.73,79.73,0,0,1-10.1-24.23l-3.45.95a187.07,187.07,0,0,1,6.91,22.8l4-1.67a150.81,150.81,0,0,1-10-20.63l-4.14,1.74a124.9,124.9,0,0,1,8.65,21.7l4.27-1.8c-2.92-6.21-5.88-12.4-8.82-18.61-1.29-2.72-5.21-.34-4,2.35l7.92,17.86,4-2.33a59.41,59.41,0,0,1-6.63-17.22l-4.18,1.77q4.83,11.15,8.9,22.59l4.14-1.75A121.17,121.17,0,0,1,92,208.16l-4.28,1.18,5.84,16.23,4.06-1.12c-2.51-6.1-5.19-12.11-8.09-18-1-2-4.44-.58-3.61,1.52,2.61,6.61,5.17,13.24,7.73,19.88l3.55-1.5a60.5,60.5,0,0,1-6.82-16.38L86.62,211c1.94,6.18,3.8,12.38,5.74,18.56l4-1.1-7.21-17.54c-1-2.42-5-1.39-4,1.1L91,226.57l3.79-1.6a58.14,58.14,0,0,1-5.63-14.08l-4,1.11a111.92,111.92,0,0,1,4.63,14.41l3.81-1.6a29.37,29.37,0,0,1-5-12.1l-4,1.11q2.61,7.23,4.57,14.64l3.82-1.61a61,61,0,0,1-5.56-12.29l-4,1.11A77.16,77.16,0,0,1,86,225.84l3.51-2a11.53,11.53,0,0,1-2.55-5.93l-4,1.12a10.39,10.39,0,0,0,2.45,4.8c1.58,1.89,4.41-.52,3.31-2.55a11.68,11.68,0,0,1-1.51-6.54l-3.92,1.06a69.29,69.29,0,0,0,3.91,6.86c1.12,1.64,4.34.65,3.46-1.46l-3.12-7.46c-.49-1.18-2.31-.77-2,.54A12.91,12.91,0,0,0,88.6,220c.25.28.69-.08.51-.4Z"/><path class="cls-1" d="M129.92,199.4l-3.65,4.23c-2.82,3.27,1.7,8,4.8,4.79,1.94-2,3.87-4,5.84-5.92l-5.53-4.26a48.4,48.4,0,0,1-6.41,7l5.36,5.36a82.75,82.75,0,0,0,7.4-9.2c2.24-3.28-2.66-6.79-5.38-4.15A50.37,50.37,0,0,0,123.91,208c-1.66,2.84,1.85,7,4.8,4.81a134.11,134.11,0,0,0,11.67-9.61l-5.11-5.11-8.55,9.33c-2.65,2.89.9,8.28,4.42,5.73A90.15,90.15,0,0,0,145,200.91l-5.22-5.22-12.82,15.79c-3,3.67,1.73,8.69,5.3,5.29L146.76,203l-6-4.6A131.4,131.4,0,0,1,129.69,212c-3.17,3.4,1.73,8.32,5.12,5.11A135.52,135.52,0,0,0,150,200c2.48-3.29-3-7.48-5.71-4.41-4.54,5.12-9,10.26-13.62,15.35-2.65,3,.8,8.18,4.45,5.77a72.48,72.48,0,0,0,17.93-16.83L146.44,196c-4,5.29-8,10.56-11.95,15.87-2.76,3.7,3.06,7.71,6.19,4.77a174.91,174.91,0,0,0,15.68-16.76l-6.21-4.79-14.61,19.36c-2.76,3.65,3.13,7.93,6.23,4.8a232.2,232.2,0,0,0,17.76-20.12c3.11-4-2.34-9.63-5.63-5.64a110.91,110.91,0,0,0-12.47,18.63,4,4,0,0,0,6.19,4.77,112.41,112.41,0,0,0,14.73-16.55c2.6-3.53-3.38-8.21-6.13-4.73q-6.43,8.16-12.88,16.29c-3.12,3.93,2.06,9.52,5.66,5.66q8.35-9,16.67-18l-6.41-4.94q-6,9.24-12.89,17.9c-2.77,3.48.61,8.57,4.9,6.34,7.94-4.13,10.76-12.95,17.72-18.07l-5.58-5.58q-6.07,8.7-12.17,17.39c-2.69,3.85,3.64,8.82,6.57,5.07l14.67-18.75-6.76-5.21c-4.65,6.22-8.94,12.48-11.07,20-1.15,4.06,4.42,7.72,7.37,4.29A229.41,229.41,0,0,0,178,197.34l-7.7-4.5c-4.32,7.07-8.42,14.18-10.69,22.2-1.45,5.09,5.12,7,7.93,3.35a124.52,124.52,0,0,0,12.67-20.13c2.52-5-5-9.47-7.57-4.42-3.57,7.12-7.07,14.29-8.87,22.09-1.13,4.86,5.43,7.79,8.1,3.42A145.59,145.59,0,0,0,183.37,196l-8.67-2.39c-2.11,5.9-3.88,11.7-4.18,18-.2,4.34,6.68,6.52,8.55,2.31,3.13-7,6.2-14.12,9.3-21.18,2.35-5.34-4.5-9.55-7.9-4.62a37.48,37.48,0,0,0-6.64,21.74,4.6,4.6,0,0,0,8.5,2.31q4.71-8,9.43-15.95l-7.86-4.59a65.1,65.1,0,0,0-4.79,11c-1.67,5,6.2,8.42,8.63,3.64,2.57-5.07,4.94-10.23,7-15.51s-6.52-8.76-9-3.8A48.3,48.3,0,0,0,181,203.19c-.65,5.31,6.78,6.12,9.23,2.5a61.22,61.22,0,0,0,7.6-15.77c2.07-6.52-7.67-8.89-10.07-2.77a51.3,51.3,0,0,0-2.88,13c-.73,6.27,8.52,6.66,10.39,1.41q2.65-7.46,4.72-15.09L189.6,185a42.54,42.54,0,0,0,.9,15.08c1.19,5.14,8.82,4.89,10.15,0l3.5-12.82-10.32-1.4c-.21,4.31-.42,8.61-.7,12.91-.47,7,9.82,6.62,10.65,0A74.42,74.42,0,0,1,208,182.12l-10.9-3a60.43,60.43,0,0,0-.72,16.66c.79,7.67,10.88,7.53,11.83,0a54.63,54.63,0,0,0-.7-17.49c-1.12-5.75-10.8-5.91-11.79,0a33,33,0,0,0,1.66,18.31c2,5,10.64,6.67,11.86,0l3.23-17.51-12.17-1.65a82.41,82.41,0,0,0,.33,15.86c.8,6.84,9.86,8.66,12.26,1.66a58.94,58.94,0,0,0,3.14-18.57c.1-8.18-12-8-12.58,0A205.32,205.32,0,0,0,205.59,224L215,216.7a28.56,28.56,0,0,0-15.52-4.58l5.5,9.6a48.74,48.74,0,0,0,6.2-16.62c1.11-6.45-8.29-11.87-11.53-4.86a49.73,49.73,0,0,0-4.59,17.63h12.48l.71-13.37c.33-6.06-8.73-8.51-11.51-3.12A41,41,0,0,0,192,220.3l12-1.62-3-10.43c-1.55-5.43-8.06-5.46-11.07-1.45a30.41,30.41,0,0,0-5.83,13.75c-1.19,7.72,8.9,10.63,11.74,3.23a37.79,37.79,0,0,0,2.38-17c-.51-5.79-8.2-8.73-11.46-3.1a33.62,33.62,0,0,0-4.65,18.26c.24,7.15,9.85,8.18,12.16,1.64a26.27,26.27,0,0,0,.36-16.49,6.27,6.27,0,0,0-10.37-2.74,20,20,0,0,0-6.13,16.74c.36,2.95,1.72,5,4.56,6l1.91.68c3.3,1.19,6.61-1.36,7.64-4.34,2.37-6.84-.17-16.13-8.92-15.86-7.61.23-11.85,8.49-11.73,15.22.09,4.61,5.27,7.92,9.38,5.38,4.49-2.77,6.35-8.46,3.17-13-1.53-2.21-4.27-3.74-7-2.86-6.73,2.16-9.88,8-8.73,14.82.4,2.38,3.48,4.81,5.93,4.51,5.88-.71,10.31-6.69,6.26-12.23s-11.32-3.37-14.9,1.22c-3.35,4.3-.49,12.24,5.89,10.14,3.07-1,4.42-2.47,5.54-5.49,2.7-7.31-9-10.47-11.66-3.22l-.35.95,4.22-4.22-1,.29,5.9,10.13q3.67-3.68-3.47-8.14l4.34-1.8-.8.09,5.92,4.51a.63.63,0,0,1,.19.43l-7-2.86,1.28-4,9.38,5.38c0-.67.59-2.22.51-2.61.78-.86.2-1.2-1.73-1q-2.49-1.78-2.58,1l7.64-4.34-1.91-.68,4.57,6c-.4-3.24.09-5.6,2.47-8l-10.37-2.74a14.83,14.83,0,0,1-.33,9.9l12.16,1.65a21.84,21.84,0,0,1,2.89-12.06L186,206.74a29.58,29.58,0,0,1-1.82,13.81l11.74,3.23a21.89,21.89,0,0,1,4.55-10.86l-11.07-1.45,2.89,10.45c1.85,6.67,11.9,5.29,12-1.62a27.21,27.21,0,0,1,3.18-12.68l-11.51-3.12-.84,13.37c-.5,8,11.83,7.93,12.48,0a32.43,32.43,0,0,1,3-11.27L199,201.74A39.06,39.06,0,0,1,194,215.28c-2.55,4.23.76,9.49,5.51,9.6a16.53,16.53,0,0,1,9,2.9c5.16,3.31,10.25-2.13,9.42-7.24a191.43,191.43,0,0,1-1.9-44.16H203.48a47.7,47.7,0,0,1-2.6,15.25l12.26,1.66a83.23,83.23,0,0,1-.41-15.86c.47-6.89-10.95-8.56-12.18-1.65l-3.14,17.54h11.86a21.18,21.18,0,0,1-1.73-11.79H195.75a48.93,48.93,0,0,1,.66,14.24L208,194.2a44.83,44.83,0,0,1,0-12.08c1-7-8.53-10.11-10.9-3a86.38,86.38,0,0,0-4,19.69h10.65c.13-4.31.35-8.6.56-12.91.3-6-8.78-7-10.33-1.39l-3.51,12.81h10.15a34.26,34.26,0,0,1-.5-12.28c.75-6-8.84-7-10.37-1.4q-2.07,7.65-4.74,15.09l10.39,1.4a61.84,61.84,0,0,1,2.37-10.2l-10.07-2.77a43.06,43.06,0,0,1-6.09,13.54l9.24,2.5a34.11,34.11,0,0,1,3.41-11.29l-9-3.8c-1.78,4.51-3.64,9-5.7,13.36l8.62,3.64a52.39,52.39,0,0,1,3.55-8.88c2.67-5.19-4.86-9.67-7.86-4.59q-4.69,8-9.45,15.93l8.5,2.3a29.13,29.13,0,0,1,5.42-17.12l-7.9-4.62c-3.11,7.06-6.25,14.1-9.32,21.17l8.54,2.32c.21-5.44,1.92-10.51,3.68-15.61,1.9-5.52-6.66-7.73-8.67-2.39a120.5,120.5,0,0,1-10.53,21.26l8.11,3.42c1.69-7.07,4.69-13.53,7.89-20l-7.57-4.42a108.37,108.37,0,0,1-11.92,19.28l7.26,4.23c2.14-7.26,6-13.63,10-20,3.08-4.93-4.47-9.16-7.7-4.5-4.55,6.53-9.34,12.87-14.48,18.95l7.37,4.29c1.85-6.8,5.89-12.42,10-18,3.3-4.51-4.13-8.65-7.43-4.34l-14.48,18.89,7.23,4.23,12-17.51c2.22-3.23-2.32-8.06-5.58-5.57-6.73,5.14-10.07,14.25-17.68,18.13l4.89,6.35a238.06,238.06,0,0,0,14.22-19.5c2.53-3.86-3.26-8.35-6.4-4.94q-8.31,9-16.56,18.1l5.66,5.66q6.36-8.22,12.74-16.43l-6.13-4.73A95.08,95.08,0,0,1,142,211.3l6.19,4.77a104.46,104.46,0,0,1,11.3-17l-5.63-5.64a231.09,231.09,0,0,1-17.74,20.15l6.23,4.81L157,199.06c2.68-3.55-3.36-8.26-6.21-4.79a177.41,177.41,0,0,1-15.66,16.78l6.19,4.77c3.95-5.3,7.85-10.64,11.78-16,2.57-3.48-3.31-8.07-6-4.66a82.31,82.31,0,0,1-15.6,15.15l4.45,5.76c4.49-5.16,9.05-10.26,13.57-15.39l-5.71-4.41A124.81,124.81,0,0,1,129.69,212l5.12,5.11a186.26,186.26,0,0,0,12.54-15c2.66-3.53-3-7.49-6-4.6l-14.46,13.9,5.3,5.29L145,200.91c2.91-3.62-2-8.81-5.22-5.22a80.64,80.64,0,0,1-12.3,11.2l4.42,5.73,8.51-9.38c3.12-3.44-1.71-8.31-5.11-5.11a129.78,129.78,0,0,1-10.1,8.65l4.8,4.81a42,42,0,0,1,7.22-9.49l-4.84-4.84a101.33,101.33,0,0,1-7.38,8c-3.52,3.39,1.91,8.82,5.36,5.36a55.49,55.49,0,0,0,7.13-8.82c2.18-3.32-2.84-7.23-5.53-4.26-1.86,2.05-3.77,4.07-5.66,6.1l4.8,4.79,3.56-4.32c2.69-3.26-1.88-8-4.71-4.7Z"/><path class="cls-2" d="M52.15,365.07l.23-.27a1.11,1.11,0,0,0,0-1.54l-.36-.33a1.14,1.14,0,0,0-1.57,0c-1.52,1.69-.72,4.43-.66,6.52l.4,13.85,3.55-.48A96.36,96.36,0,0,0,49,364.45c-.82-2.17-4.79-2.11-4.43.6l1.55,11.58,4.47-.6a35.42,35.42,0,0,0-4.49-12.52c-1.26-2.17-5.22-.7-4.2,1.77a40.55,40.55,0,0,1,3,18.82h4.67a93,93,0,0,0-1.38-11.53l-4.56,1.26a45.34,45.34,0,0,1-.11,22.7l4.77.64,1-13.35H44.28c-.13,4.24-.68,8.73-.41,13,.12,1.8.26,3.56,1.87,4.72,2,1.44,4.93.59,7.12.35l12.89-1.41-.68-5-2.93,1.2,3.15,3.16a96.9,96.9,0,0,0,1.23-16.31H61.37l.92,13.32,5-.68-3.06-15.7c-.59-3-4.75-2-5,.68a99.28,99.28,0,0,0-.49,12.07l5-.68L62,382.65c-.52-2.87-5-2.12-5,.68a69.67,69.67,0,0,0,1.44,14.25l4.89-1.35-3.07-12.77c-.68-2.84-4.87-2.12-5,.67a48.39,48.39,0,0,0,1.14,12.06l4.85-1.34L58,382.78c-.73-2.68-5-2.2-4.93.67a80.49,80.49,0,0,0,1.46,12.66l4.83-1.33-2.95-11.89c-.66-2.68-5.1-2.19-4.9.66l.87,12.19,4.88-.66q-.84-5.26-1.66-10.52c-.47-3-4.65-1.91-4.91.66a65.91,65.91,0,0,0-.26,10.13h5l-1.32-9.91c-.34-2.59-4.26-3.72-5-.67a27.5,27.5,0,0,0-.42,10.73c.43,3,4.9,2.07,5-.68a37.94,37.94,0,0,0-.43-7.3c-.38-2.6-4.35-2.29-5,0a27.51,27.51,0,0,0-.9,8.9c.17,2.72,4.59,3.73,5.07.69q2-12.71,4-25.4l-5.16-.7.37,7.88c.14,2.81,4.61,3.77,5.17.7q1.21-6.48,2.09-13c.45-3.29-4.54-4.79-5.09-1.4a73.17,73.17,0,0,0-.91,16,2.67,2.67,0,0,0,5.21.71,55.2,55.2,0,0,0,2.62-13.94c.19-2.94-4.73-3.68-5.22-.71a51.59,51.59,0,0,0-.36,14.68c.35,2.83,4.33,3.8,5.24.71l3.54-12.09-5.25-.71-1.6,12.5c-.4,3.09,4.39,3.47,5.25.71l2.75-8.85L60,373.47c-.7,6.26-1.09,12.34,1,18.38,1,3,4.9,2.25,5.24-.71A24.59,24.59,0,0,1,80,371.93l-2.72-4.65a77,77,0,0,0-11.6,9l4.28,3.3,2.36-5.25A2.75,2.75,0,0,0,68,371l-4,3.34L68.6,377l3.29-11.37c1-3.53-4-4.68-5.35-1.48a31,31,0,0,0-2.34,11.15c-.11,3.34,4.45,3.55,5.5.74A88.74,88.74,0,0,0,74,360.61a2.83,2.83,0,0,0-5.46-1.5,36.13,36.13,0,0,0-2.28,14.52c.14,3.11,4.84,4,5.62.76l2.4-10.05-5.66-.76a44.61,44.61,0,0,0,.81,12.73c.6,2.91,4.87,2.64,5.62,0A83.9,83.9,0,0,0,77.4,365c.51-3.64-4.89-5.34-5.66-1.56a29.32,29.32,0,0,0-.59,8c.22,3.12,5.1,4.25,5.8.79l1.22-6a3,3,0,0,0-5-2.89,4.91,4.91,0,0,0-.55,6.94c2.34,2.87,6.12,1.88,8.91.32L78,365.9,75.19,369c-1.58,1.74-.64,5.37,2.12,5.1l6.81-.67c1.8-.18,3.58-1.79,2.89-3.79-2.59-7.53,3.2-13.81,5.77-20.47a26.84,26.84,0,0,0,1-16.26c-1.51-5.16-6.26-7.6-11.42-7.56-7.54.07-15.13.74-22.67,1l1.21,9,7.29-2.46-5.63-5.62a42.68,42.68,0,0,0-.93,21.29C62.76,354,70,352,70.59,347.31c.39-3.19.77-6.38,1.16-9.57H62.82A98,98,0,0,0,62.74,350c.26,4.68,7.43,6.19,8.55,1.16a72,72,0,0,0,1.53-10.44H64.28a69.77,69.77,0,0,0,.94,14.79c.71,4.36,6.81,3.5,8,0a50.35,50.35,0,0,0,2.61-14.28c.21-5.27-7.5-5-8.06,0a119.48,119.48,0,0,0-.7,17c.15,4.44,6.75,5.6,7.92,1.07,1.08-4.19,2-8.39,2.75-12.64l-8-1.09a100.73,100.73,0,0,0,.43,15.63c.57,5.37,7.58,5.25,8.27,0l1.73-13.13c.61-4.63-7.43-5.76-8.22-1.11a61.74,61.74,0,0,0-.61,17.64,4.25,4.25,0,0,0,8.49,0l1.4-12.2H72.61L72.94,364c.13,4.73,7.42,6.09,8.52,1.16l2.39-10.75L75.4,352a25.43,25.43,0,0,0,.21,10.17c1.14,5.12,8.27,3.52,8.65-1.18q.51-6.07,1-12.15L76.79,350a47.7,47.7,0,0,1,.75,6.2c.31,5.61,8.23,5.55,8.67,0a132.39,132.39,0,0,0,.4-13.36c-.11-5.66-8.58-5.65-8.78,0a55.3,55.3,0,0,0,.27,7.72c.58,5.7,8.19,5.66,8.83,0l1-9.25H79.07l.75,7.18a4.48,4.48,0,0,0,9,0c.32-3.22.64-6.44.93-9.66l-8.8,1.19,1,6.44c.81,5,9,3.79,8.76-1.19-.13-2.84-.16-5.69-.21-8.54,0-2.25-2.09-4.93-4.61-4.6-5.44.7-9.29,2.85-12.4,7.43l8.67,2.35.4-4.56c.39-4.38-5-5.43-7.79-3.23a9.46,9.46,0,0,0-3.53,8.35L80,341.32l-.69-5.08c-.33-2.51-3.3-3.37-5.36-3.05l-2.22.36a4.17,4.17,0,0,0-3,3c-.19,1.05-.41,2.1-.67,3.13h8.24l-1.16-2.86c-1.13-2.8-4.78-4.51-7.19-1.9a33.87,33.87,0,0,0-9.06,20.57h9c.07-.75.12-1.49.16-2.24.33-5.43-7.28-5.75-8.95-1.21-1.16,3.15-2.16,6.33-3,9.58l9-1.17-2.94-4c-3.08-4.18-11.67-1.88-9.29,3.92a22.51,22.51,0,0,0,3.81,6.37c1.8,2.14,5.6,1.91,7.43,0,1.29-1.35,2.58-2.7,3.85-4.06l-9.08-2.4a11.26,11.26,0,0,1,.69,4.37c-.13,5,7.85,7.76,10,2.72a18.15,18.15,0,0,0,1.53-4.58c1-6-6.2-9.22-9.8-4.13-1.45,2-2.91,4.07-4.37,6.11h9.18a13.81,13.81,0,0,1-1.21-4.46c-.6-4.43-7.81-5.16-9.64-1.26l-2.67,5.67c-1.39,3-.38,6.79,3.13,7.69l5.63,1.44a5.25,5.25,0,0,0,6.4-6.4c-.86-3.14-1.29-7.61-3.82-9.95-3-2.78-7.12-1.43-9.48-5.32C51.31,347,44,350.58,45,356.2l1.1,5.88L54.82,357l-6.33-7.51c-1.36-1.6-5.31-4.8-4.53-7.26C45.31,338,54.88,336,58.5,335.58l-1.39-10.26c-5.52,2.14-10.9,4.56-16.19,7.21-6,3-.73,11.93,5.25,9,4.5-2.21,9.07-4.23,13.72-6.12,4.87-2,5-11.11-1.39-10.25-8.7,1.17-19.82,4.52-23.89,13.18-4.72,10,7.08,19.4,12.86,26.05,3.67,4.22,9.63-.38,8.69-5.05L55,353.46l-9.42,4a17.34,17.34,0,0,0,7.86,7c.92.4,4.9,2.43,2.75-.19.95,1.16,1.18,4.51,1.56,6l6.4-6.4-5.61-1.51L61.65,370l2.73-5.62-9.83-2.67a26.42,26.42,0,0,0,2.39,8.43c1.88,4,7.06,2.89,9.18,0q2.22-3,4.45-6.07L60.77,360l-.49,2,10,2.72a20.46,20.46,0,0,0-1-7.25c-1.16-3.6-6.29-5.69-9.08-2.4q-1.81,2.15-3.6,4.3h7.43a6.87,6.87,0,0,1-1.95-2.85l-8,6.16,3.21,3.76c2.31,2.71,7.53,1.34,8.2-2.17.63-3.3,1.41-6.54,2.34-9.77L59,353.26c0,.74-.07,1.49-.09,2.24-.2,5.86,8.64,5.75,9,0A24.15,24.15,0,0,1,74,341l-6.77-.87L68.47,343c1.46,3.4,7,2.34,7.81-1q.31-1.58.75-3.12L72.87,342l2.23-.27-4.36-4.36.5,5.11c.54,5.61,9.2,5.81,8.91,0l.15-1.18-6.87-3.94-.57,4.56c-.65,5.11,6.3,5.56,8.66,2.35a8,8,0,0,1,5.6-3.08l-5.84-4.45c.19,2.85.4,5.69.51,8.54l8.76-1.18-1-6.45c-.83-5.37-8.34-3.43-8.8,1.19-.33,3.22-.63,6.44-.93,9.66h9l-.8-7.18a4.46,4.46,0,0,0-8.91,0l-1,9.25h8.83a56.91,56.91,0,0,1-.32-7.72H77.83a132.33,132.33,0,0,1-.29,13.36h8.67a65.66,65.66,0,0,0-1.1-8.5c-1-5.1-8-3.35-8.47,1.15Q76,355,75.45,361l8.65-1.17a13.59,13.59,0,0,1-.25-5.5c.86-5.44-7.25-7.93-8.45-2.32L73.1,362.8,81.61,364,81.2,352.4c-.2-5.63-8-5.4-8.59,0l-1.3,12.2H79.8A54.49,54.49,0,0,1,80,349.19l-8.22-1.12L70.14,361.2h8.27a99.51,99.51,0,0,1-.54-15.63c.2-4.51-7.23-5.67-8-1.08-.73,4.26-1.61,8.47-2.65,12.67l7.91,1.07a100.85,100.85,0,0,1,.7-17H67.76a42.27,42.27,0,0,1-2.54,12.07h8a60.13,60.13,0,0,1-.39-12.58c.35-5.53-8-5.41-8.54,0a56.15,56.15,0,0,1-1.39,8.13L71.45,350a100,100,0,0,1,.3-12.24c.43-4.95-8.07-6.18-8.77-1.18-.44,3.18-.89,6.36-1.33,9.54h8.77a32.87,32.87,0,0,1,1-16.44c1-3.23-2.34-6.72-5.62-5.62l-7.29,2.43c-4.71,1.58-4.18,9.18,1.22,9,5.66-.18,11.33-.36,17-.44,2.32,0,6.28-.86,8.49-.28,3.4.9,3.06,5.78,2.69,8.35-1.43,9.94-10.35,17.39-6.67,28.08l2.9-3.8-6.81.69,2.11,5.11,2.76-3.06c2.23-2.47-.58-6.41-3.62-4.69l-1.15,2.09-5-2.88-1.19,6.06,5.79.78A22.81,22.81,0,0,1,77.4,365l-5.66-1.56a84.25,84.25,0,0,1-2.35,11.32H75a38.83,38.83,0,0,1-.66-11.18c.25-3.25-4.93-3.91-5.67-.77l-2.36,10.06,5.63.76a31.76,31.76,0,0,1,2-13l-5.46-1.5a89,89,0,0,1-4.2,15.46l5.5.74a26.46,26.46,0,0,1,2.09-9.67l-5.35-1.48L63.3,375.55c-.8,2.8,2.6,4.37,4.59,2.68l4-3.36-4.3-3.32-2.33,5.27c-1.21,2.71,1.89,5.56,4.27,3.3A69.11,69.11,0,0,1,80,371.93a2.7,2.7,0,0,0-2.72-4.65,30.23,30.23,0,0,0-16.32,23.86l5.25-.71c-1.93-5.57-1.44-11.21-.8-17,.34-3.09-4.39-3.47-5.25-.71l-2.76,8.85,5.25.71,1.61-12.5c.39-3.07-4.43-3.51-5.25-.71q-1.77,6-3.53,12.09l5.23.71a46.39,46.39,0,0,1,.16-13.26l-5.22-.71a49.9,49.9,0,0,1-2.42,12.53l5.2.7a66.62,66.62,0,0,1,.7-14.59L54,365.18q-.89,6.52-2.07,13l5.17.7L56.7,371c-.14-2.78-4.68-3.77-5.16-.69-1.33,8.47-2.63,16.94-3.95,25.41l5.08.69a23,23,0,0,1,.68-7.53h-5a31,31,0,0,1,.27,5.93l5-.67a20.49,20.49,0,0,1,.38-8H49.18l1.35,9.9c.38,2.8,5.1,2.14,4.95-.67a65.9,65.9,0,0,1,.22-10.13l-4.91.67q.84,5.25,1.69,10.51c.43,2.75,5.08,2.13,4.88-.66l-.85-12.19-4.9.66,2.93,11.9c.78,3.15,5.43,1.8,4.83-1.33a72,72,0,0,1-1.27-11.33l-4.93.67,3.26,12.07c.85,3.14,5.54,1.81,4.85-1.34a43,43,0,0,1-.94-10.72l-5,.67,3,12.78c.76,3.18,5.53,1.82,4.89-1.35a62.14,62.14,0,0,1-1.25-12.9l-5,.67,1.77,9.84c.51,2.85,5,2.15,5-.68a101.26,101.26,0,0,1,.51-12.07l-5,.68,3,15.71c.54,2.81,5.23,2.2,5-.69l-.9-13.32c-.23-3.27-5.18-3.35-5.15,0a92.18,92.18,0,0,1-1,14.94c-.26,1.67,1.13,4,3.15,3.16l2.93-1.22c2.37-1,2.47-5.38-.68-5l-7.37.85c-2.06.24-6.43,1.57-8.29.95s-.54.6-1.2-1.27c-.33-.92.07-2.72.1-3.71l.22-8.33c.08-3.19-4.72-3.14-4.93,0l-.87,13.35c-.18,2.75,4.1,3.28,4.76.65a50.8,50.8,0,0,0,0-25.25c-.76-3-5.11-1.7-4.56,1.26a82.54,82.54,0,0,1,1.27,10.27,2.34,2.34,0,0,0,4.67,0,43.24,43.24,0,0,0-3.24-20l-4.2,1.77a31.92,31.92,0,0,1,4.07,11.41c.47,2.91,4.78,1.63,4.39-1.21L49,364.45l-4.35,1.2a145.7,145.7,0,0,1,5.64,18.13c.45,2,3.75,1.58,3.55-.48l-1-10.15c-.16-1.58-1.68-7.49-.77-8.65H50.45v-.73c-.72,1,.9,2.23,1.7,1.3Z"/><path class="cls-2" d="M47.57,339.5a21.76,21.76,0,0,0-2.18,10.87,2.16,2.16,0,0,0,4.22.58,23,23,0,0,0,1.74-9.46c-.05-2.94-4.22-2.83-4.49,0-.26,2.61-.83,5.18-1.33,7.75l5.28.71a18.78,18.78,0,0,0-2-8.24c-1.09-2.29-4.65-1.57-5.26.69a22.83,22.83,0,0,0-.78,6.16l5.56-.76a35,35,0,0,1-.9-5l-5.56.75a46.16,46.16,0,0,0,1.52,5.68c.75,2.17,4.42,3.33,5.55.72a42.25,42.25,0,0,0,2.65-9.78l-5.83-.79c.07,3.22.14,6.44.19,9.66a3.13,3.13,0,0,0,6.12.83,60.3,60.3,0,0,0,2.19-10.8c.42-3.42-5.56-4.26-6.06-.82a57.77,57.77,0,0,0-.49,13.59c.3,3.33,5.29,4.5,6.17.83a59.55,59.55,0,0,0,1.35-12.13c.14-3.86-5.57-3.73-5.92,0a57,57,0,0,0,.1,12.18c.37,3,5.23,4.43,5.86.8.76-4.45,1.51-8.89,2.18-13.34l-5.85-.8c-.07,4,.08,7.93.38,11.9.22,3,5.15,4.17,5.62.76l1.7-12.2-5.66-.77-.93,13.26c-.23,3.24,5,4,5.71.77L61,340.63l-5.76-.78A41.54,41.54,0,0,0,55.15,353c.51,2.79,5.22,2.84,5.69,0a43.65,43.65,0,0,0,.53-11.12,2.94,2.94,0,0,0-5.87,0c-.35,3.72-.36,7.1,1.19,10.56,1.36,3,5.28,1,5.57-1.51a39.34,39.34,0,0,0-1-14,3.12,3.12,0,0,0-5.17-1.36l-.92.87,4.37,4.37a10.72,10.72,0,0,0,2.28-3.14c.55-1.15.63-2.9-.49-3.8-3.72-3-7.84-.14-10.93,2.53-2.63,2.28.32,5.58,3,5.2a5.33,5.33,0,0,0,4.12-3.28c.6-1.18-.1-3.05-1.65-2.9-1.11.11-2.19-.06-3.3.07l2.2,5.31a10.63,10.63,0,0,1,1.93-1.32c1.26-.29,1.53-.52.8-.69l-1.44-3.54-.92,1.19c-2.86,2.78,1.48,7.11,4.37,4.37l.92-.87-5.17-1.36a39.82,39.82,0,0,1,1,12.31l5.57-1.51c-1.22-2.4-.82-5-.48-7.54H55.5a41.82,41.82,0,0,1-.35,9.55h5.69c-.72-3.84-.23-7.71.26-11.55.41-3.26-5.1-4-5.75-.78l-2.54,12.51,5.71.78.88-13.26c.22-3.19-5.22-4-5.66-.77l-1.66,12.22,5.63.76a98.43,98.43,0,0,1-.16-11.9c.15-3.29-5.25-4.13-5.84-.79-.79,4.44-1.5,8.89-2.19,13.34h5.75a43,43,0,0,1,0-11.39H49.31A52.85,52.85,0,0,1,47.82,351l6.17.83a38.62,38.62,0,0,1,.16-11.95l-5.95-1.64a91.46,91.46,0,0,1-2.14,10l6.12.83q-.26-4.83-.49-9.66c-.15-3.14-5.31-4.26-5.83-.79a54,54,0,0,1-2.47,9l5.55-.72a18.94,18.94,0,0,1-1.61-4.85c-.6-3.1-5.83-2.44-5.56.76a35.68,35.68,0,0,0,1.1,6.48c.83,3,5.64,2.48,5.56-.75a14,14,0,0,1,.67-4.63l-5.26.69a26.92,26.92,0,0,1,1.69,6.05c.52,3.1,5.17,2.19,5.28-.72.1-2.62.11-5.26.46-7.86l-4.41-.6a31.3,31.3,0,0,1-1.39,8.31h4.14a21.94,21.94,0,0,1-.24-9.54c.21-1-1.3-1.84-1.8-.76Z"/><path class="cls-2" d="M37.89,339.91c1.46.34.73-1,.35-1.85a2,2,0,0,0-3.08-.4,21.49,21.49,0,0,0-2.83,4.16l4.12,1.74c.65-4.77,4.75-7.51,9-9.12,2.4-.91,2.22-4.67-.63-4.67a11.8,11.8,0,0,0-8.48,3.29c-3,2.84-3.41,6.69-4.54,10.48-1.21,4-.46,7.71,1,11.6a8.52,8.52,0,0,0,2.72,4c1.29,1,5.9,2.2,6,4.05.18,2.7,4.29,4.48,5.64,1.53,2.31-5.08-3.09-7.35-6.45-9.58-5.94-3.92-3.49-19.95,4.08-20.61l-1.2-4.44C37.65,333,32.6,335.8,32,343c-.18,2.18,3.26,3.14,4.19,1.14.64-1.38,1.36-2.7,2-4.06l-3.08.4c.61.62.25,1.77,1.76,2.1a1.44,1.44,0,0,0,1.71-1l.08-.21a1.18,1.18,0,0,0-.82-1.45Z"/><path class="cls-3" d="M47.17,356.2c-1,.21-2,.66-2.07,1.81a2.09,2.09,0,0,0,1.48,2.22A2.16,2.16,0,0,0,49,358.8,3.39,3.39,0,0,0,48,355.37a1.43,1.43,0,0,0-2.21.29,3.89,3.89,0,0,0,.67,5.19,1.45,1.45,0,0,0,2,0c1.46-1.8,2.56-4.56.08-6.07a1.47,1.47,0,0,0-1.76.22c-1.07,1.31-2.06,3-1.11,4.64a2.67,2.67,0,0,0,4.12.62c1.44-1.25,1.33-3.12.71-4.75s-2.17-2.67-3.81-1.35c-2.13,1.73-4.28,5.81-1.07,7.72,3,1.82,7.09-3.19,4.1-5.33a.56.56,0,0,0-.56,0,2.6,2.6,0,0,0-1,.89c-.27.49-.18,1.11-.48,1.58-.68,1.06-1.06-.15-.77-.83a4,4,0,0,1,.95-1.21,6.23,6.23,0,0,0,.63-.6l-.74-.1.14.38c0,.33.26.62.21,1,0-.08-.14.64-.21.46.14.34.35,0,.36,0a10.88,10.88,0,0,0,.63-1l-1.76.23c.44.26-.47,1.33-.63,1.53h2a1.15,1.15,0,0,1-.26-1.74l-2.21.29c.31.33.78,1.09,1.4.52.13-.12.18-.77.33-1s-.15-.76-.53-.69Z"/><path class="cls-3" d="M49.22,353.9h-.33a.14.14,0,0,0,0,.28h.33a.14.14,0,1,0,0-.28Z"/><path class="cls-3" d="M61.71,367.31A21.88,21.88,0,0,0,60,371.52c-.58,2.09,2.53,2.9,3.22.89a13.25,13.25,0,0,0,.71-5c-.09-2.22-3.49-2.24-3.46,0a32.17,32.17,0,0,1-.44,5.71c-.36,2.15,2.73,3.11,3.34.92q.06-.31.33-.06a1.73,1.73,0,0,0,2.17-1.66,19.17,19.17,0,0,1,.55-6.53,1.84,1.84,0,0,0-2.23-2.23,2.31,2.31,0,0,1-1.3-.06c-2.45-.56-3.21,2.74-1,3.67a4.59,4.59,0,0,0,3.71-.3l-2.73-1.56a38.33,38.33,0,0,0-.42,7l2.17-1.65a3.53,3.53,0,0,0-4.58,2.45l3.34.92a34.32,34.32,0,0,0,.56-6.63H60.5a12.38,12.38,0,0,1-.47,4.06l3.22.89a17.55,17.55,0,0,1,1.15-3.53c.81-1.79-1.75-3.37-2.69-1.57Z"/><path class="cls-1" d="M101.37,226.33a14.57,14.57,0,0,1,4.92-.58v-4.46c-1.87,0-4.65.72-5.75,2.39a2.68,2.68,0,0,0,0,2.93,3.3,3.3,0,0,0,1.06,1l.34.2c.33.21.24.11-.28-.3l-.29-1.08v.17l4-1.08c-1.18-2.43-4.83-1.77-5.54.63a2.19,2.19,0,0,0,1,2.43,4.35,4.35,0,0,0,4.47,0c2.1-1.22.72-4.89-1.69-4l-1.78.63a2.27,2.27,0,0,0-1.61,2.47,2.24,2.24,0,0,0,2.21,2,5.67,5.67,0,0,0,3.42-1.21,2.6,2.6,0,0,0,.91-1.24l.07-.47c-.09.35-.09.4,0,.16a2.71,2.71,0,0,0,.28-.68c.29-.75-.55-1.35-1.21-1.21-.84.18.77.35-.38,0a2.67,2.67,0,0,0-1.09,0c-.68.05-1.33.14-2,.13l.6,4.42,1.75-.72-1.7-4c-.55.36,0,.15-.08.1l1,2.43c-.56.95-1.23,1.16-2,.62l-.55-.94.08.18a2.16,2.16,0,0,0,2.33,1.53,2.13,2.13,0,0,0,1.85-2.09,2.84,2.84,0,0,0-.79-2,2.3,2.3,0,0,0-.73-.56l-.17-.11a1.41,1.41,0,0,1,.45.63v1.17l0,.11-.79.79a8,8,0,0,1,3.33-1c2.43-.48,1.91-4.7-.59-4.38a19.13,19.13,0,0,0-6.27,1.85c-1.77.89-.53,3.74,1.35,3.19Z"/><path d="M140.92,234.27c-2.52,8.45-5.48,17.14-4.29,26.08,1.07,7.92,4.28,15.95,10.25,21.43a30.79,30.79,0,0,0,19.1,8c5.17.27,12.38-.74,13.68-6.73.27-1.25-1.65-1.79-1.93-.53-1.61,7.41-13.81,5.55-18.89,3.94a27.79,27.79,0,0,1-15.22-11.77c-8-12.85-4.8-26.38-.77-39.89a1,1,0,0,0-1.93-.53Z"/><path d="M215.4,230.18c-38.32,4.12-76.88,2.81-115.33,4.13-5.3.18-10.5,1-15-2.36a20,20,0,0,1-7.16-9.75c-2.26-6.89,1.52-14.51,3.83-21,2.6-7.29,6.09-14.35,12.09-19.43,4.59-3.9,9.58-4.06,15.34-4.21q7.9-.21,15.82-.24c22.15-.09,44.29.85,66.4,2.25,1.28.09,1.28-1.91,0-2-22.77-1.44-45.57-2.39-68.38-2.24q-7.91,0-15.82.28c-4.26.13-8.42.36-12.12,2.69-6.16,3.88-10.36,10.55-13.19,17.08-1.51,3.48-2.71,7.08-3.88,10.68-1.08,3.36-2.7,6.79-2.9,10.34-.34,6.19,3,12.34,7.6,16.26,2,1.69,4.63,3.57,7.26,4,4.89.83,11.05-.41,16-.55,11.14-.3,22.28-.42,33.42-.55,25.37-.3,50.76-.68,76-3.39,1.26-.14,1.28-2.14,0-2Z"/><path d="M216.89,140.75c-23.2-1.65-47.29-3.35-69.83,3.73C136.74,147.72,127,152.67,117.6,158c-7.24,4.13-15.06,9.3-17,17.94-.28,1.26,1.65,1.79,1.93.53,2.21-9.74,12.41-14.79,20.48-19.16,9.48-5.14,19.29-9.73,29.79-12.39,20.91-5.3,42.82-3.7,64.11-2.19,1.29.09,1.28-1.91,0-2Z"/><path d="M185.69,43.21c-.61-2.85-2.25-4.89-3.6-7.41-4-7.46,4.8-11.44,10.69-11.61a18.06,18.06,0,0,1,12.05,4.1c4.94,4.06,7.47,11.76,1.47,16.29-1,.76,0,2.5,1,1.72,11.33-8.55-.36-22.2-10.81-23.87-5.57-.89-13.07.54-16.38,5.64-3.77,5.83,2.46,10.22,3.64,15.68.28,1.25,2.21.72,1.93-.54Z"/><path d="M179.89,60.33c-3.77,6-13.14,7.25-14.24,15-1,7.21,3.6,10.88,10.38,10.31,1.27-.1,1.28-2.1,0-2-4.23.36-8-1-8.4-5.7-.38-4.32,1.88-6.83,5.21-9.15s6.57-4,8.77-7.5c.69-1.09-1-2.09-1.72-1Z"/><path d="M182.41,73.94c-1.95,6.92-7,10.22-12.48,14.24-3.08,2.26-6.24,4.77-6.94,8.76-.6,3.41,2.57,13.61,7.49,10.87,1.13-.62.12-2.35-1-1.72-1.63.91-3.67-3.78-4-4.65a7.26,7.26,0,0,1,.17-6.25c1.69-3.47,5.62-5.47,8.62-7.65,4.8-3.48,8.41-7.23,10.06-13.07a1,1,0,0,0-1.93-.53Z"/><path d="M213.72,125a26.26,26.26,0,0,1-10.39,2.9c-3.81.21-12.35,0-9.3-7.75,1.61-4.11,7.05-6.73,10.46-9.12,6.15-4.31,9.35-8.83,10-16.44a89.48,89.48,0,0,0-.4-16.28c-.43-4.63-.66-9.51-2.08-14-2.11-6.62-7.5-12.23-14.6-13.21A14.64,14.64,0,0,0,182,60c-3.55,9,5,18.16,4.94,27.29-.1,12.43-10.48,14.07-18.42,20.39a16.79,16.79,0,0,0-5.15,20c3.8,8.46,13.27,10.28,21.38,12.48,10.51,2.86,20.58-1.93,30.58-5,1.23-.37.71-2.31-.53-1.93-9.07,2.78-19.22,7.72-28.77,5.2-9.09-2.41-21.58-5-22.11-16.64-.55-11.83,10.49-14.25,18.05-20,5.14-3.88,7.33-9.85,6.91-16.18-.58-8.62-9.32-19.17-3.77-27.23,7.69-11.19,22.23-3.31,25.23,7.26a82.6,82.6,0,0,1,2.11,29.88c-1.12,9.72-8.24,12.6-15,18.07-3.93,3.15-9.37,9.71-4,14.18,5.56,4.6,15.72,1.71,21.34-1.08,1.15-.57.14-2.29-1-1.72Z"/><path d="M170.3,308c1.42-5-8.88-4.75-11.37-3a7.22,7.22,0,0,0,.29,11.91c3.19,2.2,12.08,2.35,12.54-2.89.19-2.05-.15-6.18-1.74-7.75a3,3,0,0,0-4.51,0c-.83,1,.58,2.4,1.42,1.41,1.95-2.29,2.54,3.12,2.59,3.55.2,1.74.28,3.31-1.47,4.31a7.58,7.58,0,0,1-8.23-.73,5.16,5.16,0,0,1-.55-7.52,5.45,5.45,0,0,1,4.61-1.57c.38,0,4.81.6,4.49,1.7a1,1,0,0,0,1.93.54Z"/><path d="M36.3,348c0-4.57,2.24-7.55,6.79-8.44a62.15,62.15,0,0,1,10.81-1.05c5.7-.12,12.14-.19,17.74,1,4,.83,6,1.55,5.19,6.39a18.67,18.67,0,0,1-1,3.26c-1,2.71-2.33,5.22-3.18,8a39.61,39.61,0,0,0-1.41,15.27c.12,1.27,2.12,1.29,2,0a38.05,38.05,0,0,1,1.34-14.74c1.3-4.26,4.09-8.35,4.44-12.88.49-6.25-3-6.86-8.29-7.38-8.74-.84-17.6-1.46-26.32-.08-7.06,1.12-10.14,3.31-10.09,10.69a1,1,0,0,0,2,0Z"/><path d="M33.2,353.28c-.62-5-1.36-10.35.48-15.19,2.3-6.07,7.85-7.86,13.59-9.42a88.35,88.35,0,0,1,30.19-2.82c4.66.37,10.77.82,14.18,4.51,3.58,3.9,2.65,12.78,1.29,17.5-1.18,4.13-4.09,7.37-5.63,11.34A24.08,24.08,0,0,0,86,371c.15,1.27,2.15,1.28,2,0a22.42,22.42,0,0,1,1.25-11.15c1.15-2.94,3.06-5.42,4.39-8.26,2.12-4.52,2.54-10.07,2.28-15-.53-10.07-10-12.08-18.45-12.76-12.07-1-25.84.17-37.11,4.95C30.12,333.13,30,343.63,31.2,353.28c.16,1.26,2.16,1.28,2,0Z"/><path d="M40.15,359.75c-1.34-5.28,3.58-10.33,8.63-11.05,7.09-1,10.49,6.17,8.37,12.2-2.24,6.34-8.89,6.71-14,3.5-1.88-1.17-1.72-2.3-2.26-4.09-.37-1.2-.09-1.12-1.14-1.83s-2.07,1-1,1.72a31.93,31.93,0,0,0,.78,3.61,7.79,7.79,0,0,0,2.62,2.32,14.64,14.64,0,0,0,8.69,2.31c6.91-.59,9.66-7.52,8.74-13.69a9.56,9.56,0,0,0-12.41-7.83c-5.71,1.67-10.42,7.32-8.89,13.37a1,1,0,0,0,1.93-.54Z"/><path d="M43.15,355.68c-.19,3,.5,6.62,3.83,7.54,3,.83,5.15-1.91,5.65-4.55a5.67,5.67,0,0,0-3.56-6.55,4.47,4.47,0,0,0-5.82,3.9c-.14,1.28,1.86,1.27,2,0,.25-2.25,2.89-2.64,4.34-1.33a4.13,4.13,0,0,1,.7,4.81c-.78,1.69-2.51,2.55-4,1.05-1.27-1.26-1.22-3.23-1.11-4.87.08-1.29-1.92-1.28-2,0Z"/><path d="M61.32,360.51a25.53,25.53,0,0,0-1.6,15.4,1,1,0,0,0,1.23.7,28.76,28.76,0,0,1,5.64-1.34,1,1,0,0,0,.73-1c-.42-3.58-.79-7.25,1.1-10.5a1,1,0,0,0-.87-1.5,14.18,14.18,0,0,1-5-.81c-1.22-.42-1.74,1.51-.53,1.93a15.79,15.79,0,0,0,5.49.88l-.86-1.51c-2.09,3.6-1.84,7.51-1.37,11.51l.74-1a28.76,28.76,0,0,0-5.64,1.34l1.23.7A23.28,23.28,0,0,1,63,361.52c.5-1.17-1.22-2.19-1.72-1Z"/><path d="M66,341.8q-1.53,7.23-2.41,14.56a1,1,0,0,0,1,1,33.52,33.52,0,0,1,5.67.3c.6.08,1.32-.24,1.27-1a21.27,21.27,0,0,1,3.11-12.78,1,1,0,0,0-.87-1.51,14,14,0,0,1-6.35-.92c-1.2-.46-1.73,1.47-.53,1.93a15.38,15.38,0,0,0,6.88,1l-.86-1.5a23.14,23.14,0,0,0-3.38,13.79l1.27-1a36.86,36.86,0,0,0-6.21-.37l1,1q.86-7.08,2.34-14c.26-1.25-1.66-1.79-1.93-.53Z"/><path d="M60.1,383.35a4.82,4.82,0,0,1,2.92.82l.5-1.87A6.22,6.22,0,0,0,59.86,384a1,1,0,0,0,.44,1.67l2.56,1-.59-1.47L61.11,387a1,1,0,0,0,.6,1.47,2.15,2.15,0,0,1,.81,3.29c-.74,1,1,2.06,1.73,1a4.16,4.16,0,0,0-2-6.23l.6,1.47L64,386.25a1,1,0,0,0-.6-1.47l-2.56-1,.44,1.67a3.87,3.87,0,0,1,2.25-1.1,1,1,0,0,0,.5-1.86,6.64,6.64,0,0,0-3.92-1.09,1,1,0,0,0,0,2Z"/><path d="M60.22,395h.34a1,1,0,0,0,0-2h-.34a1,1,0,0,0,0,2Z"/><path d="M53.32,370.83a2.93,2.93,0,0,0-4.59-1.13,4.37,4.37,0,0,0-.42,5.77,3.16,3.16,0,0,0,5-.31c1.34-1.87.26-4.34-1.53-5.45-1.09-.68-2.1,1.05-1,1.73a2,2,0,0,1,1,2.33,1.21,1.21,0,0,1-1.93.47,2.48,2.48,0,0,1-.19-2.62c.26-.46,1.38-1,1.7-.26.48,1.17,2.41.66,1.92-.53Z"/><path d="M43.47,418.44l-9.21-1.27c-2.22-.31-5.87-.41-7.69-1.87-4-3.23-2-7.81-1.2-11.95a61.8,61.8,0,0,0,1.07-7A24.57,24.57,0,0,0,24.16,383c-2.36-4.6-6.44-8.06-8.76-12.68-1.8-3.57-2.8-8.72.24-12,3.22-3.44,8.59-2.58,12.51-1.22,6.75,2.35,11.91,5.9,13.3,13.29,2.23,11.9,2.12,26.88-2.83,38-.52,1.17,1.2,2.18,1.73,1,3.12-7,4.09-14.42,4.1-22.06,0-7.06.49-16-2.61-22.52-3.92-8.29-22.26-16.4-28.62-6.64-3.19,4.89-.92,11.29,2,15.68,2,3,4.6,5.64,6.45,8.78a22.53,22.53,0,0,1,2.77,13.69c-.43,5.26-5.07,14.45-1,19.12s13.87,4.16,19.44,4.92c1.26.18,1.81-1.75.54-1.92Z"/><path d="M40.55,404.63c.38,1.17.47,1.12,1.59,1.71.38.2.92.09,1.33.17,2.4.46,5,.32,7.41.82a48.79,48.79,0,0,1,10.47,3.14c.69.32,5.57,1.77,5.9,2.32l1.57-1.21-1.33-1.12c-1-.83-2.4.58-1.41,1.41L67.4,413c.83.7,2.2-.18,1.58-1.21s-.8-.79-1.77-1.34c-1.33-.75-3.4-1.06-4.85-1.69-.93-.41-1.82-.81-2.77-1.15a61,61,0,0,0-9.13-2.39c-.93-.19-7.84-.68-8-1.11-.4-1.22-2.33-.7-1.93.53Z"/><path d="M68.81,413.24a10.48,10.48,0,0,1,5.59-5.46l-1.47-.6,0,.23.1-.77-.15.2.87-.49-.24,0c-1.26.13-1.28,2.14,0,2a1.32,1.32,0,0,0,1.3-1.72,1,1,0,0,0-1.47-.6,12.13,12.13,0,0,0-6.31,6.18c-.52,1.16,1.2,2.18,1.73,1Z"/><path d="M78.54,405.33c-6.22.7-8.81-6-9.63-10.92s1-9.29,3.54-13.48a13.75,13.75,0,0,1,11.63-7,7.59,7.59,0,0,1,8,5.73c1,3.07-.79,5.63-2.28,8.23-1.89,3.29-3.55,7.47-1,10.85.87,1.15,2.52,1.76,3.28,3,3.31,5.33.25,5.95-2.13,7.71a8.17,8.17,0,0,0-3.09,3.71c-.49,1.18,1.44,1.7,1.93.53,1.53-3.67,6.93-3.94,7.12-8.4a6,6,0,0,0-1.42-3.85c-.89-1.24-2.35-2-3.26-3.12-2.24-2.85-1.83-5.42-.12-8.4,1.15-2,3.34-3.76,3.71-6.17.29-1.94-.56-4.08-1.31-5.79-1.28-2.89-3.09-5.45-6.37-6.07C77,370,69.28,379,67.11,387.8c-1.81,7.32,1.94,20.59,11.43,19.53,1.26-.14,1.28-2.14,0-2Z"/><path d="M90.31,409.62c-1.65,0-1.79,1.76-.79,2.69,1.23,1.15,2.14,1.58,2.59,3.33a14.59,14.59,0,0,1,0,5.35l1.7-.71-.53-.58c-.88-.95-2.29.47-1.42,1.41l.54.59c.65.7,1.61.08,1.71-.71.27-2.23.52-4.55-.28-6.7a7,7,0,0,0-1.16-2.05,3.64,3.64,0,0,0-.89-.86l-.2-.16c-.47-.52-.87-.38-1.22.4a1,1,0,0,0,0-2Z"/><path d="M51.91,435.9c-3.74.28-8.24-.07-10.47-3.65a7.72,7.72,0,0,1,1.2-9.43c3.81-3.74,11.55-4.14,16.62-4.92,6-.92,12.11-1.29,18,.05a27,27,0,0,1,8.3,3.29A12.15,12.15,0,0,1,89,423.81c3.93,5.55-.22,7.3-3.39,8.31-1.23.38-.7,2.32.53,1.93,6.79-2.16,8.89-7.85,3-12.77-7.79-6.52-19-6.88-28.59-5.57-7.13,1-20.07,1.36-22,10.31-1.8,8.53,6.05,12.43,13.33,11.88,1.28-.09,1.29-2.09,0-2Z"/><path d="M95.26,438.61c-5.49-9-21.62-7.67-30.4-6.35-5,.76-25.84,5.27-17.26,14.61,7.35,8,24.45,6.36,34,5.73,4.69-.3,11.63-.58,15-4.46,3.52-4.09.38-5.92-1.07-9.65a1.06,1.06,0,0,0-1-.74l-1.92,0a1,1,0,0,0,0,2c1.42,0,1.35.59,2.07,1.36,3.76,4-.58,7-4.38,8.21s-8.26,1.36-12.33,1.47c-8,.22-16.59.62-24.07-2.48-3.13-1.3-8.66-3.7-4.46-8.75,1.38-1.66,4.24-2.37,6.17-3a58.62,58.62,0,0,1,13.22-2.72c7.31-.65,20.34-1.39,24.76,5.83.67,1.1,2.4.09,1.72-1Z"/><path d="M41.83,400.69c8,4.59,19.2,2.36,27.9,1.07,1.18-.17.79-1.88-.26-2l-1.25-.09c-1.28-.1-1.27,1.9,0,2l1.25.09-.27-2c-8,1.17-19,3.31-26.36-.88a1,1,0,0,0-1,1.73Z"/><path d="M93.24,436.28c2.82-1.73,5.19-4.46,5.13-7.94,0-1.48-1.77-6.65-3.94-4.28-.87.94.54,2.36,1.41,1.41l.22-.23-1,.25c2,.3,1.24,4.36.74,5.41a8.89,8.89,0,0,1-3.59,3.65,1,1,0,0,0,1,1.73Z"/><path d="M94.17,417.26c40.79,4.5,81.84.38,122.72,2.63,1.29.07,1.28-1.93,0-2C176,415.64,135,419.76,94.17,415.26c-1.27-.14-1.26,1.86,0,2Z"/><path d="M98.58,427.16q59.18,1.48,118.31,4.34c1.29.06,1.28-1.94,0-2q-59.13-2.85-118.31-4.34a1,1,0,0,0,0,2Z"/><path d="M87.2,341.36c-3.55.22-5.64,3.2-5.79,6.59-.13,2.85,1.4,6.13,4.75,5.54,3.63-.63,4.57-4.56,4.94-7.67.19-1.57.08-3.3-1.29-4.34a2.82,2.82,0,0,0-1.7-.58c-.77,0-1.5.63-2.25.46-1.26-.27-1.79,1.65-.54,1.93,1.69.37,3.75-1.32,3.88,1.52a9.41,9.41,0,0,1-1.49,5.48c-.69.87-2,1.76-3.16,1.06-.92-.55-1.11-1.82-1.15-2.77-.1-2.41,1.12-5.06,3.8-5.22,1.27-.07,1.28-2.07,0-2Z"/><path d="M46.44,333.26l-1,.53,1.21,1.57c2.12-2.63,2.56-3.45,5.87-3.49a55.16,55.16,0,0,0,8.66-1.19A58.68,58.68,0,0,1,72,329.9c.74,0,4.09-.32,4.64.3,1.24,1.39-.1,3.35-1.22,4s-.09,2.4,1,1.73c1.86-1.14,5.47-2,5.27-4.86-.23-3.41-5.59-3-7.84-3.13-6.13-.35-11.73.76-17.74,1.58-2,.27-5.38-.66-7,.09s-2.85,3-3.86,4.3a1,1,0,0,0,1.21,1.57l1-.53c1.14-.61.13-2.33-1-1.73Z"/><path d="M86.27,332.77a4.07,4.07,0,0,1,2.33,2,11.72,11.72,0,0,1,.68,1.32c.1.22.19.45.28.67s.11.31.17.46.08.2.1,0l.86-.5h-.12l.87.49,0,.28-.74,1,.09,0a1,1,0,0,0-.53-1.93l-.09,0a1,1,0,0,0-.73,1,1.17,1.17,0,0,0,1.71,1.09c1.06-.62.45-1.93.1-2.77-.88-2.14-2.14-4.21-4.49-4.88a1,1,0,0,0-.54,1.92Z"/><path d="M162.14,308.71a4.12,4.12,0,0,0,0,4.18c.74,1.23,1.87,1.81,3.16,1,2.39-1.59,1.2-6.89-1.9-6.54s-3.13,5.57-.52,6.69a2.23,2.23,0,0,0,2.85-1.37c.71-1.7-.58-3.14-1.8-4.16a1,1,0,0,0-1.21-.15,3.07,3.07,0,0,0-1.53,3.29,2.5,2.5,0,0,0,2.44,1.76,2.06,2.06,0,0,0,.36-4.06,1,1,0,0,0-1,.26c-1.22,1.45,0,4.59,1.93,3a1.66,1.66,0,0,0-2.07-2.6c-2.11,1.57.76,4,2.67,3.35,2.08-.72,2.11-3.62.35-4.73-2.22-1.39-5,1-4.25,3.42a3.13,3.13,0,0,0,5.41,1.11,3.29,3.29,0,0,0-2.21-5.32c-2.74-.31-4.45,2.61-3.86,5s3.18,4.57,5.41,2.78a3.87,3.87,0,0,0,.14-5.75,4.39,4.39,0,0,0-6.47.5c-1.52,2.07-1,5.31,1.42,6.41,5.28,2.38,8.6-7.7,2.47-8.62a3.48,3.48,0,0,0-4.19,3.75,3.69,3.69,0,0,0,5,3,4,4,0,0,0,1.06-6.77c-2.21-1.81-5.62-.38-5.18,2.64a3.82,3.82,0,0,0,6.35,2.19c2.41-2.25,1-5.82-1.88-6.71a1,1,0,0,0-1.13.46c-1.28,2.14-.48,5.87,2.67,5.39a2.49,2.49,0,0,0,.18-4.92c-.66-.13-1.55.47-1.23,1.23l1.29,3.16a1,1,0,0,0,1.93,0,5.55,5.55,0,0,0,.39-2.73,1,1,0,0,0-2,0v2.72a1,1,0,0,0,2,0,14.6,14.6,0,0,0-.32-4l-1.67,1,.18.44,1.83-.77-1.07-1.64-1.57,1.21a4.08,4.08,0,0,1,.51,4.41c-.6,1.13-1.84,1.8-2.66,2.75a1,1,0,0,0,.71,1.7,4.87,4.87,0,0,0,5.2-4.13c.21-1.57-.4-2.64-1.14-4s-1-2.69-2.4-3.34c-2.27-1-5,.26-6.59,1.93a8.08,8.08,0,0,0-2,7.28l1.92-.54c-.4-1.7-1.25-6.63,2.13-6,1.26.22,1.8-1.71.53-1.93a4.12,4.12,0,0,0-4.32,1.91c-1.29,2-.77,4.46-.26,6.6.29,1.25,2.19.72,1.92-.54-.61-2.92,1.26-6.52,4.42-7,1.83-.25,2.58,1.84,3.32,3.24,1.19,2.21,0,4.6-2.71,4.49l.71,1.71c1.44-1.66,3.16-2.6,3.58-4.94a6.12,6.12,0,0,0-1.43-5c-.72-.88-2.19.26-1.57,1.21l1.06,1.64a1,1,0,0,0,1.83-.77,2.46,2.46,0,0,0-.7-1.33c-.69-.81-1.86.08-1.67,1a12.72,12.72,0,0,1,.25,3.48h2v-2.72h-2a4.37,4.37,0,0,1-.32,2.2h1.93l-1.3-3.16-1.23,1.23c-1-.24-1.24-.71-.58-1.39l-1.13.46a2.09,2.09,0,0,1,1.59,2.46c-.46,1.61-2.82,1.9-3.32.21-.41-1.43.92-2,1.89-.92a1.81,1.81,0,0,1-.16,2.66c-2,1.89-4.12-1.77-1.67-2.44,1.78-.48,2.81,1.43,2.33,2.93a3,3,0,0,1-1.86,2,1.92,1.92,0,0,1-2.19-2.15,2.37,2.37,0,0,1,4-1.6c1.7,1.59-.54,4.06-1.84,2a2.76,2.76,0,0,1-.2-2.55c.37-.83.93-1,1.66-.5,1.63.21,1.28.72-1.05,1.5q3-1.44-.09-.7l1,.26-.15-.27-1,.26.27-1.2-1.21-.15a9.15,9.15,0,0,1,.87.78c-.18,1.69.08,1.41.8-.84.66.78.47,1.31-.55,1.59a2,2,0,0,1,.2-1.7c.6-1.14-1.13-2.15-1.72-1Z"/><path d="M50.33,370.53a3.2,3.2,0,0,0-1.31,2.2,1.73,1.73,0,0,0,1.69,1.76,2.16,2.16,0,0,0,1.95-1.3,3.48,3.48,0,0,0-.45-3,1,1,0,0,0-1.37-.36,3.59,3.59,0,0,0-1.19,4.68,1,1,0,0,0,1.37.36,2.76,2.76,0,0,0,1.23-3.16c-.37-1.23-2.3-.7-1.92.53a.74.74,0,0,1-.32.9l1.36.36a1.55,1.55,0,0,1,.48-1.94l-1.36-.36a2.66,2.66,0,0,1,.34.9,1.51,1.51,0,0,1,0,.3s-.12.07-.13.07.3.2.26.18q.08.27.09.06l.09-.16a2.4,2.4,0,0,1,.63-.64,1,1,0,0,0,0-1.42,1,1,0,0,0-1.42,0Z"/><path class="cls-4" d="M92.22,235.71s-11.94,40.39,12,77.76c23,35.91,99.68,42.94,113.18,12.59"/><path d="M165.64,308.3l-1.35-1.38a1,1,0,0,0-1-.25,3.08,3.08,0,0,0-2,2.25c-.17.77.7,1.66,1.47,1.13a3,3,0,0,0,1.34-2.65,1,1,0,0,0-1.27-1,2,2,0,0,0-1.46,1.86,1.92,1.92,0,0,0,1.28,2,1,1,0,0,0,1.23-.69,1,1,0,0,0-.7-1.23.24.24,0,0,1,.21.16c-.06-.1-.06-.11,0,0,0-.12,0-.13,0,0v-.08s0,0,0-.1c0,.09-.26.14,0,.09l-1.27-1a1,1,0,0,1-.35.92l1.47,1.13a1.05,1.05,0,0,1,.64-.86l-1-.25,1.34,1.37c.9.92,2.31-.49,1.42-1.41Z"/><path d="M211.24,65.37l-.08.9c-.09,1.15,1.67,1.33,2,.27,1.47-5.26,2.11-13-1.33-17.72-2.69-3.69-8.35-6.56-12.86-7.21-5.55-.81-13.13.49-17.67,3.91-5.41,4.08-2.06,9.57-.23,14.66.43,1.2,2.37.68,1.93-.54-.66-1.84-1.65-3.61-2.24-5.47-1.49-4.74,1.39-7.48,5.52-9,4.78-1.71,10.55-2.57,15.41-.9,2.93,1,7.39,3.63,9.08,6.23,2.6,4,1.66,11.21.46,15.47l2,.26.08-.9c.11-1.28-1.9-1.27-2,0Z"/></g></svg>