<svg id="Layer_2" data-name="Layer 2" xmlns="http://www.w3.org/2000/svg" viewBox="0 0 464.16 340.2"><defs><style>.cls-1{opacity:0.25;}</style></defs><title>TRV900-transparent</title><path class="cls-1" d="M4,156C-.67,165.55-.29,176.43.45,186.75a154,154,0,0,0,6.69,34.42C13.08,240.44,22.94,259,38,272.64c6.83,6.19,17.09,13.15,25.77,6.16,1.5-1.21-.63-3.32-2.12-2.12-7,5.64-16-1.14-21.28-5.94A95,95,0,0,1,22.65,249a127.48,127.48,0,0,1-11.87-26.3,154.48,154.48,0,0,1-7-32,126.45,126.45,0,0,1-.75-17,39.82,39.82,0,0,1,3.52-16.3C7.4,155.8,4.81,154.27,4,156Z" transform="translate(0 0)"/><path class="cls-1" d="M64.43,278.79c8.74-6.61,10.74-19.2,11.25-29.45.62-12.37-1.62-24.72-4.5-36.7a117.37,117.37,0,0,0-5.27-17.52,129.92,129.92,0,0,0-8.24-15.89c-5.69-9.76-12-19.45-21.15-26.28-4.87-3.63-10.7-6.51-16.79-7.2-5.85-.67-12,1.59-14.37,7.28a1.51,1.51,0,0,0,1,1.85,1.56,1.56,0,0,0,1.85-1c2-4.75,7.92-5.75,12.43-4.93a34.32,34.32,0,0,1,13.66,6.15c8.65,6.2,14.62,15.3,19.94,24.33a158.44,158.44,0,0,1,7.88,14.56A93.36,93.36,0,0,1,67.44,210c2.82,11.18,5.19,22.59,5.34,34.16a69.55,69.55,0,0,1-2.11,18.62c-1.32,5-3.5,10.21-7.76,13.43-1.52,1.15,0,3.76,1.52,2.59Z" transform="translate(0 0)"/><path class="cls-1" d="M19,148.77C6,164.61,9.84,187,13.49,205.49a121.84,121.84,0,0,0,8.86,28.43A108.72,108.72,0,0,0,29.9,247.1c2.66,4,5.41,8,8.42,11.83,6.45,8.12,14.89,15.37,25.39,17.22,1.89.33,2.7-2.56.8-2.89-8.89-1.57-16.17-7.22-22-13.89a119.67,119.67,0,0,1-8.4-11.29,134.39,134.39,0,0,1-7.48-12.19,106.66,106.66,0,0,1-9.36-26.71c-2.14-9.57-3.94-19.49-4.28-29.31-.35-10.15,1.45-20.92,8.07-29,1.21-1.48-.9-3.61-2.13-2.12Z" transform="translate(0 0)"/><path class="cls-1" d="M52.93,171.61c-1.16-2.61-4.57-3-7.06-2.75-2.84.29-6.07,1.19-8.15,3.26-2.91,2.9-2.82,7.21-3.37,11a69.47,69.47,0,0,0-1.06,13.19A66.16,66.16,0,0,0,41.16,224c2,3.78,3.53,7.91,6,11.41a25.86,25.86,0,0,0,10.47,8.21c4.11,1.88,8.66,2.55,12.47-.29,2.75-2,5.8-5.62,5-9.32-.42-1.88-3.32-1.09-2.89.8.53,2.33-2.29,5-4,6.21-2.92,2.06-6.42,1.28-9.46-.18a23,23,0,0,1-9.12-7.1c-2.09-3-3.4-6.44-5.06-9.67-3.9-7.55-7-15.37-8-23.88a52.73,52.73,0,0,1-.07-11.51c.19-1.85.59-3.67.83-5.51a52.53,52.53,0,0,1,.73-5.31,6.75,6.75,0,0,1,2.22-4,10.38,10.38,0,0,1,3.7-1.62c1.69-.44,5.42-1.18,6.34.91.78,1.76,3.37.23,2.59-1.52Z" transform="translate(0 0)"/><path class="cls-1" d="M11.83,148.81c5.89.47,10.26-5.24,16.15-4.32,5.72.88,11.15,4.24,15.45,8,9.13,7.93,15.44,18.88,21.16,29.38a166.14,166.14,0,0,1,15.1,37.09,119,119,0,0,1,3.46,19.46,81.37,81.37,0,0,1-.26,20c-1.09,6.79-3.74,13.39-9.11,17.9a17.6,17.6,0,0,1-8.35,3.93A21.63,21.63,0,0,1,54,278.63c-1.8-.7-2.58,2.2-.8,2.89,6.31,2.48,13.32,2.75,19.32-.71,5.42-3.12,9.22-8.42,11.35-14.22,2.42-6.58,2.81-13.79,2.67-20.74A117.18,117.18,0,0,0,84.18,225,157.15,157.15,0,0,0,70,185.63c-3.08-6.07-6.45-12-10.11-17.76a87.71,87.71,0,0,0-11.38-14.78,41.4,41.4,0,0,0-16.74-10.75A14.36,14.36,0,0,0,21,142.7c-3,1.29-5.82,3.38-9.19,3.11-1.92-.15-1.91,2.85,0,3Z" transform="translate(0 0)"/><path class="cls-1" d="M72.78,281.53,85,277c3.86-1.45,8-2.63,11.67-4.51,3.22-1.64,5-4.62,6.06-7.94a85.71,85.71,0,0,0,2.82-11.14,118.66,118.66,0,0,0-.56-45.69,139.56,139.56,0,0,0-16.15-42.48C81.65,152.85,72.21,141.48,60,133.86c-3.35-2.08-6.87-3.85-10.92-3.62s-8.14,1.47-12,2.6a115.49,115.49,0,0,0-22.09,9c-1.79,1-3.56,2-5.3,3a1.5,1.5,0,0,0,1.51,2.59A112.49,112.49,0,0,1,32,137.59c3.55-1.24,7.17-2.31,10.83-3.2,3.91-.94,7.77-1.84,11.61-.15a46.42,46.42,0,0,1,9,5.62,73.45,73.45,0,0,1,7.68,6.75,94.78,94.78,0,0,1,12.72,16.13,136.09,136.09,0,0,1,16.88,39.59,119.62,119.62,0,0,1,3,43.62,99.83,99.83,0,0,1-2,10.85c-.78,3.31-1.49,7-3.23,9.93-1.9,3.26-5.71,4.13-9,5.36l-11.75,4.4L72,278.64c-1.79.67-1,3.57.8,2.89Z" transform="translate(0 0)"/><path class="cls-1" d="M52,133.68l30.94-10.16,15.58-5.11c2.58-.85,5.14-1.74,7.73-2.53a7.52,7.52,0,0,1,3.39-.43,14.77,14.77,0,0,1,3.36,1.13c16.89,7.23,28,23,35.56,39.14,2.42,5.16,4.54,10.45,6.57,15.77q1.47,3.87,2.91,7.76a36.81,36.81,0,0,1,2.44,8.61l1.5-1.5a32.94,32.94,0,0,0-16.05,3.23,6.75,6.75,0,0,0-4,5.72,61.82,61.82,0,0,0,0,8.39,132.92,132.92,0,0,0,1.84,17.8,82.25,82.25,0,0,0,1.83,8.77c.69,2.39,2.33,4,4.92,3.9a70.78,70.78,0,0,0,8.69-1.26l4.41-.69c.94-.14,2.86-.81,3.81-.38.8.35.44,2.09.45,2.87q0,2.49,0,5,0,4.6,0,9.21c0,3.07-.07,6.15-.14,9.22,0,1.49-.06,3-.11,4.48,0,1.21-.07,2.37-1.25,3a20.35,20.35,0,0,1-3.58,1.2l-4.32,1.37q-4.2,1.35-8.38,2.79-18.8,6.46-37,14.6c-1.76.78-.24,3.37,1.51,2.59q16.06-7.17,32.66-13,8.2-2.91,16.53-5.49c2.22-.69,4.95-1.19,6.12-3.46a7.55,7.55,0,0,0,.67-3.17c.08-1.62.09-3.24.12-4.86q.19-9.09.16-18.18c0-1.42,0-2.83,0-4.24a17.26,17.26,0,0,0-.2-4.48c-.65-2.27-3.1-2.58-5.1-2.31-3,.4-5.93.91-8.9,1.37l-4.16.64c-1.17.18-3,.74-3.68-.51a11.62,11.62,0,0,1-.91-3.27c-.34-1.5-.65-3-.93-4.52-.56-3-1-6-1.35-9-.37-3.3-.61-6.62-.73-9.94q-.09-2.43-.09-4.86a14.37,14.37,0,0,1,.32-4.48c.47-1.39,1.85-2,3.1-2.53a27.6,27.6,0,0,1,4.32-1.5,30.72,30.72,0,0,1,9.45-1,1.5,1.5,0,0,0,1.5-1.5c-.58-5.22-2.8-10.14-4.64-15s-3.78-9.83-5.89-14.66A111.88,111.88,0,0,0,138,132.64a64.48,64.48,0,0,0-20.66-17.31,32.1,32.1,0,0,0-6.32-2.64c-2.6-.67-5,.08-7.43.89l-16.06,5.27L51.19,130.78c-1.83.6-1,3.5.8,2.9Z" transform="translate(0 0)"/><path class="cls-1" d="M113.45,285.21c-3.9.33-7.28-2.79-10.24-4.9L92.34,272.6c-1.58-1.12-3.08,1.49-1.52,2.59l11.57,8.21c3.26,2.31,6.81,5.17,11.06,4.81C115.36,288,115.37,285,113.45,285.21Z" transform="translate(0 0)"/><path class="cls-1" d="M115.75,284.71c.44-25.13.85-50.54-4.28-75.27-4.19-20.22-12.36-39.82-24.68-56.45a117.2,117.2,0,0,0-24.24-24.43C61,127.4,59.5,130,61,131.15c16.22,12.06,28.63,28.66,37.06,46.94,9.44,20.47,13.32,42.74,14.44,65.13.69,13.82.46,27.66.21,41.49,0,1.93,3,1.93,3,0Z" transform="translate(0 0)"/><path class="cls-1" d="M63.14,127.37a100.11,100.11,0,0,1-.21-18.32L61,110.5a5.63,5.63,0,0,0,4.41-.6,1.5,1.5,0,0,0,.51-2.08,1.35,1.35,0,0,0-.2-.27c-1.27-1.4-.32-3.56.87-4.66,1.59-1.48,3.81-2.2,5.78-3,4.5-1.93,8.89-4.09,13.37-6.07A77.15,77.15,0,0,1,99.38,89a16.51,16.51,0,0,1,7.26-.45,22.17,22.17,0,0,1,6.52,2.89c5.07,3,10.06,6.12,15,9.26l-.3-2.36c-4.4,4.15-10.94,2-16,4.22-3.82,1.69-5.26,8-3.52,11.58.85,1.73,3.43.21,2.59-1.52-.72-1.47-.15-3.73.4-5.16a4.16,4.16,0,0,1,1.13-1.83,7.22,7.22,0,0,1,3.71-1c4.84-.52,10.08-.6,13.84-4.14a1.53,1.53,0,0,0,0-2.15,1.39,1.39,0,0,0-.27-.21c-5-3.14-10-6.27-15-9.27a24.57,24.57,0,0,0-7.45-3.23,19.51,19.51,0,0,0-8,.34c-10.64,2.32-20.39,7.85-30.31,12.14-2.33,1-4.81,2.35-6,4.72a6,6,0,0,0,.68,6.87l.3-2.36a2.51,2.51,0,0,1-2.1.29A1.53,1.53,0,0,0,60,108.7a1.41,1.41,0,0,0,0,.35,100.11,100.11,0,0,0,.21,18.32C60.32,129.27,63.33,129.29,63.14,127.37Z" transform="translate(0 0)"/><path class="cls-1" d="M88.46,120l2.36-7.91a1.52,1.52,0,0,0-1.09-1.85,1.34,1.34,0,0,0-.35,0L86.5,110l-1.44-.11c-.6,0-1.21-.45-.63.42.46.7.48.36,1.17.08l1.15-.45,2.75-1.1,10.57-4.18,21.12-8.38c1.78-.7,1-3.6-.79-2.89L94.68,103.55l-6.43,2.55L85,107.38a6.85,6.85,0,0,0-2.4,1.27c-1.19,1.17-1.37,3.18.4,3.9a9.45,9.45,0,0,0,2.75.37l3.6.28-1.45-1.9-2.37,7.91c-.55,1.86,2.34,2.65,2.9.8Z" transform="translate(0 0)"/><path class="cls-1" d="M87,118.28c-3.85-.53-7-2.7-10.18-4.84a60.52,60.52,0,0,0-10.86-6,1.5,1.5,0,0,0-1.84,1,1.54,1.54,0,0,0,1,1.85,61.36,61.36,0,0,1,10.72,6.1c3.15,2.13,6.48,4.22,10.32,4.75a1.56,1.56,0,0,0,1.85-1,1.53,1.53,0,0,0-1-1.85Z" transform="translate(0 0)"/><path class="cls-1" d="M131,99.46c2.38-4.34,7.26-6.2,11.73-7.61,6.2-1.94,12.44-3.73,18.66-5.59s12.53-3.85,18.85-5.59a56.74,56.74,0,0,1,9.41-1.94c3.2-.33,6.28.1,9.47.16,3.72.08,6.78-1.54,10-3.11l10-4.81a1.51,1.51,0,0,0,.69-1.7,8.35,8.35,0,0,1,3.72-9.82c2.22-1.22,4.89-1.19,7.34-1.14a45.58,45.58,0,0,0,7.66-.28,31.63,31.63,0,0,0,13.77-5.68c3.55-2.5,7.2-5.85,11.63-6.59,3.52-.6,8.23.62,9.14,4.53l1.45-1.9a49.49,49.49,0,0,0-28.75,8.42,47.66,47.66,0,0,0-10.2,9.39c-1.56,2-2.76,3.81-5.19,4.71-2.68,1-5.38,1.91-8.07,2.87q-32.81,11.63-65.73,22.9-18.51,6.34-37.06,12.57c-1.82.61-1,3.51.8,2.89q32.87-11,65.63-22.43,16.26-5.64,32.48-11.39l8.18-2.89c2.35-.84,5.15-1.45,7.23-2.89s3.21-3.5,4.74-5.29a45.33,45.33,0,0,1,35.94-15.86,1.52,1.52,0,0,0,1.5-1.54,2.23,2.23,0,0,0,0-.36c-1-4.25-5.1-6.44-9.18-6.81-4.91-.45-9.19,2.16-13,4.92a62.93,62.93,0,0,1-6.85,4.59A28.22,28.22,0,0,1,238.61,55c-5.43.93-11.54-.93-16.58,1.85a11.35,11.35,0,0,0-5.1,13.21l.69-1.69-9.13,4.39c-2.85,1.37-5.68,3.11-8.93,3.13s-6.58-.51-9.94-.17a60.42,60.42,0,0,0-9.52,1.85c-6.47,1.75-12.88,3.8-19.3,5.72S148.18,87,141.91,89c-5.23,1.64-10.76,3.94-13.53,9-.93,1.7,1.66,3.21,2.59,1.52Z" transform="translate(0 0)"/><path class="cls-1" d="M110,109.61c14,6.81,30.44,8.6,43.1,18.19a30.62,30.62,0,0,1,11.72,17.67A117.82,117.82,0,0,1,166.67,158l1.64,13.25c2.19,17.78,4.38,35.57,6.71,53.34s4.78,35.61,7.34,53.4c2.35,16.31,4.94,32.83,11.21,48.18.77,1.88,1.59,3.73,2.46,5.57l1.69-2.2C194,328.21,189.9,326.82,187,324c-3.37-3.3-4.13-8.34-5.25-12.72q-3.9-15.21-7.06-30.6-1.77-8.64-3.31-17.34c-.34-1.9-3.23-1.1-2.9.79q2.88,16.19,6.55,32.21,1.84,8,3.89,16c1.18,4.62,2.1,9.65,5.44,13.28s8.09,5.31,12.57,6.87c1.35.47,2.21-1.12,1.7-2.21-7.18-15.15-10.22-31.81-12.67-48.27-2.65-17.78-5.06-35.59-7.41-53.41s-4.59-35.9-6.81-53.86c-1.07-8.72-1.9-17.51-3.31-26.18a38.57,38.57,0,0,0-3.55-11.59,32,32,0,0,0-6.09-8.11c-11.3-11.09-27.35-13.75-41.56-19.27q-2.93-1.14-5.75-2.5c-1.73-.84-3.25,1.74-1.51,2.59Z" transform="translate(0 0)"/><path class="cls-1" d="M135.41,340.2a43,43,0,0,0,7.41-.92c2.25-.49,4.36-1.32,6.55-1.95s4.34-.21,6.6,0a34.41,34.41,0,0,0,6.73-.17c9.25-1.09,17.76-5.15,26-9.19,1.73-.84.21-3.43-1.52-2.59-8,3.92-16.4,8-25.41,8.88a34.6,34.6,0,0,1-6.75,0,16.74,16.74,0,0,0-6.07.11c-2.2.57-4.29,1.45-6.5,2a37.62,37.62,0,0,1-7.08.92c-1.93.07-1.94,3.07,0,3Z" transform="translate(0 0)"/><path class="cls-1" d="M136,336.92A153.69,153.69,0,0,1,105.6,322c-4.5-2.79-9.07-5.62-12.95-9.26a30.66,30.66,0,0,1-5.17-6.24,86.55,86.55,0,0,1-3.94-7.74l-9.39-19.67c-.83-1.75-3.42-.22-2.59,1.51l8.53,17.88c2.56,5.37,4.94,10.75,9.13,15.09,3.82,4,8.49,7,13.13,9.93,4.87,3.06,9.86,5.94,15,8.56a140.66,140.66,0,0,0,17.91,7.78C137.07,340.45,137.85,337.55,136,336.92Z" transform="translate(0 0)"/><path class="cls-1" d="M82.47,279.7a89.31,89.31,0,0,1,17.44,9.95c4.8,3.51,9.67,7.67,15.7,8.76a24.42,24.42,0,0,0,9.92-.62c3.65-.84,7.28-1.78,10.92-2.68l10.48-2.58c1.67-.41,3.33-.91,5-1.21,1.46-.26,2.85-.16,3.6,1.29a16.13,16.13,0,0,1,1.12,4.38c.36,1.95.66,3.92.89,5.89a91.71,91.71,0,0,1,.63,10.74,4.12,4.12,0,0,1-.21,2c-.31.52-1,.58-1.58.71-1.86.43-3.73.82-5.59,1.23L139.87,320c-3.54.78-7.07,1.6-10.62,2.33-1.43.3-3.1.61-4.37-.34s-1.88-2.38-2.72-3.56a49.74,49.74,0,0,0-11.3-11.18c-10.09-7.45-21.91-12.15-31.92-19.72-1.54-1.16-3,1.44-1.52,2.59,9.43,7.13,20.45,11.73,30.14,18.45a47.47,47.47,0,0,1,12.22,11.68c1.72,2.47,3.26,5,6.55,5.34a16.3,16.3,0,0,0,4.86-.62l6.07-1.33,11.18-2.45,5.84-1.28c1.6-.35,3.5-.5,4.93-1.34,2.85-1.67,2-6.11,1.89-8.84a97.68,97.68,0,0,0-1.2-11.59c-.47-2.86-.73-6.7-3.1-8.71-2.73-2.3-6.69-.75-9.71,0-7.45,1.83-14.88,3.77-22.36,5.5-3.86.89-7.58,1.18-11.36-.23-3.41-1.27-6.43-3.51-9.32-5.66A100,100,0,0,0,84,277.11c-1.76-.76-3.29,1.83-1.52,2.59Z" transform="translate(0 0)"/><path class="cls-1" d="M125.42,334.76a26.13,26.13,0,0,0-4.52-18.88,1.54,1.54,0,0,0-2.05-.54,1.51,1.51,0,0,0-.54,2.05A23.1,23.1,0,0,1,122.52,334a1.56,1.56,0,0,0,1,1.85,1.52,1.52,0,0,0,1.85-1.05Z" transform="translate(0 0)"/><path class="cls-1" d="M174.07,184.89a71.63,71.63,0,0,0,18.36-4.35c3-1.09,6.06-2.25,9.1-3.35,1.41-.52,2.82-1,4.24-1.49a25.67,25.67,0,0,1,4.75-1.42,1.79,1.79,0,0,1,1.82.59,17.59,17.59,0,0,0,1.29,1.3,26.33,26.33,0,0,1,3,2.92,23.19,23.19,0,0,1,3.76,6.31,39.69,39.69,0,0,1,2.47,14c0,1.29,0,2.59,0,3.88a3.85,3.85,0,0,0,1.06,3.27c.91.86,2,1.17,2.34,2.46a10.53,10.53,0,0,1-.21,5l.69-.89A135.59,135.59,0,0,1,197.81,222a1.5,1.5,0,0,0-1.1,1.44q1,24.17,4.09,48.18,1.59,12.06,3.71,24.06,1,5.76,2.18,11.52a20.69,20.69,0,0,0,1.26,5.2,4.35,4.35,0,0,0,3.87,2.31c4.05.26,8.34-.86,12.12-2.2a103.67,103.67,0,0,0,11.61-5.17l-2.21-.89a16.69,16.69,0,0,1,.94,7.67l1.5-1.5c-6.86-.22-12.72,3.11-19.08,5.05-5.62,1.72-11.76,0-16.31-3.55a1.51,1.51,0,0,0-2,.54,1.53,1.53,0,0,0,.54,2.05A21.52,21.52,0,0,0,216,320.89c3.27-.65,6.36-2.22,9.48-3.33a28.16,28.16,0,0,1,10.3-2,1.54,1.54,0,0,0,1.5-1.5,18.92,18.92,0,0,0-1-8.47,1.53,1.53,0,0,0-1.91-1l-.3.12c-6.33,3.15-13,6.48-20.15,6.92-1.36.08-3,.41-3.44-1.16a55.19,55.19,0,0,1-1.15-5.55c-.72-3.67-1.41-7.36-2.06-11q-3.93-22.42-5.92-45.13-1.11-12.65-1.6-25.35l-1.1,1.45a135.49,135.49,0,0,0,26.23-7.74c1-.4,2-.78,2.93-1.24,1.13-.54,1.2-1.38,1.38-2.53a11,11,0,0,0-.33-5.91,4.76,4.76,0,0,0-1.27-1.83c-.5-.43-1.41-.8-1.76-1.37a8.45,8.45,0,0,1,0-1.59c0-.81,0-1.62,0-2.43-.06-6.67-1-13.56-4.41-19.41a25.48,25.48,0,0,0-3.2-4.38c-1.21-1.35-2.63-2.48-3.88-3.79-1.49-1.58-3.53-1.55-5.5-1-2.17.58-4.3,1.35-6.42,2.09-9.25,3.29-18.44,7.44-28.35,8.21-1.92.15-1.93,3.15,0,3Z" transform="translate(0 0)"/><path class="cls-1" d="M198.44,333.65a200.35,200.35,0,0,0,20.91-5.24C222,327.64,225,327,227,325c2.33-2.35,2.09-5.57,1.64-8.58-.29-1.9-3.18-1.09-2.89.8.39,2.62.45,5.13-2.14,6.56-2.35,1.3-5.26,1.81-7.82,2.55a182.37,182.37,0,0,1-18.14,4.44c-1.9.34-1.1,3.23.79,2.89Z" transform="translate(0 0)"/><path class="cls-1" d="M229.14,214.37c-1.65-15.94-5.94-31.38-14.3-45.14l-.9,2.2c16.2-3,31.84-8.3,47.14-14.34,15.47-6.11,30.66-12.92,46.1-19.12q23.74-9.54,48-17.7,12.24-4.12,24.61-7.88c2.35-.71,7.28-2.84,9,.08,1,1.67,1.09,4.07,1.47,5.93.41,2.07.8,4.15,1.16,6.22q2.26,12.88,3.26,25.93c.32,4.12.43,8.28,1,12.37a40.2,40.2,0,0,0,3.73,11.26c1.61,3.42,3.36,6.9,3.75,10.7a12.35,12.35,0,0,1-.52,5.33,16.79,16.79,0,0,1-2.76,4.35,11,11,0,0,0-2.19,5,41.7,41.7,0,0,0-.22,6.12q0,6.39-.05,12.77c0,6.83-.15,14.22-3.4,20.42-3.65,7-11.15,10.23-17.73,13.8q-22.8,12.39-45.89,24.24c-15.23,7.82-30.53,15.54-46,22.88A422.09,422.09,0,0,1,238.11,319c-3.87,1.3-7.75,2.51-11.67,3.64l1.85,1.05a7.54,7.54,0,0,1,0-6.17c.8-1.74-1.78-3.26-2.59-1.51a10.52,10.52,0,0,0-.31,8.48,1.54,1.54,0,0,0,1.85,1,353.28,353.28,0,0,0,47.81-18.08c15.75-7.12,31.22-14.89,46.64-22.7q23.7-12,47.1-24.58,5.93-3.19,11.84-6.41a68.35,68.35,0,0,0,9.84-6c5.9-4.65,8.52-11.4,9.44-18.67,1-7.93.56-16.09.59-24.07a21.38,21.38,0,0,1,.42-6.08c.54-1.75,1.85-3.11,2.9-4.56a14,14,0,0,0,2.27-10.25c-.52-3.92-2.2-7.47-3.87-11a38.47,38.47,0,0,1-3.72-11.69c-.54-4.32-.64-8.69-1-13s-.84-8.72-1.42-13.07-1.25-8.61-2-12.9q-.58-3.24-1.25-6.46c-.4-1.92-.66-4-1.89-5.63-2.09-2.72-5.8-2.48-8.79-1.71-4.07,1-8.08,2.43-12.09,3.7q-25.11,7.92-49.71,17.32c-16,6.12-31.74,12.9-47.55,19.5-15.54,6.49-31.29,12.64-47.64,16.79q-5.94,1.51-12,2.64a1.5,1.5,0,0,0-1,1.86,1.43,1.43,0,0,0,.14.34c8.07,13.3,12.29,28.23,13.89,43.63.19,1.9,3.19,1.92,3,0Z" transform="translate(0 0)"/><path class="cls-1" d="M387.94,106.25c3.64-13.14-3.3-26.24-9.86-37.22-2.89-4.83-6.77-9.73-13-9.58-3.17.07-6.14,1.33-9,2.56a48.6,48.6,0,0,1-9.42,3.11c-6.6,1.37-13.4,1.6-19.93,3.39a107.51,107.51,0,0,0-17.1,6.78c-11,5.18-22.21,10.85-34.74,10.34-15-.62-28.64-8.62-41.21-16.12a1.5,1.5,0,0,0-1.52,2.59c11.06,6.59,22.64,13.31,35.45,15.68a47.9,47.9,0,0,0,18.56-.12,80,80,0,0,0,16.41-5.77c5.5-2.49,10.88-5.26,16.47-7.54a72.94,72.94,0,0,1,18.07-4.78c3.31-.44,6.62-.81,9.9-1.46a46.48,46.48,0,0,0,9.35-3c2.88-1.24,5.93-2.74,9.14-2.69a9.37,9.37,0,0,1,6.87,3.65,48.2,48.2,0,0,1,5.25,8.2,89.67,89.67,0,0,1,5,10c2.77,6.7,4.36,14,2.39,21.16a1.5,1.5,0,0,0,2.89.8Z" transform="translate(0 0)"/><path class="cls-1" d="M212.26,135.45c-.48,5.18-.7,11.11,3.12,15.19s9.89,4.36,14.92,3.09a67.76,67.76,0,0,0,9.09-3.42q4.55-1.87,9.21-3.44c6-2,12.13-3.34,18.26-4.91,5-1.29,10.37-3.28,13.52-7.66,2.59-3.61,3.64-9,1.32-13-2.81-4.86-8.85-5.1-13.8-4.39-6.67,1-13.17,2.93-19.66,4.69l-22.59,6.15-5.28,1.43a38.37,38.37,0,0,0-5.17,1.53c-2.52,1.08-4.78,3.28-3.5,6.16.79,1.76,3.38.23,2.59-1.52-.28-.63,1.05-1.36,1.46-1.59a16.32,16.32,0,0,1,3.73-1.23l8.89-2.41,17.78-4.84c5.72-1.56,11.42-3.24,17.22-4.5,4.27-.92,10.57-2.64,14.38.44,3.14,2.53,2.55,7.27.75,10.41-2.39,4.17-7.24,6-11.65,7.18-5.22,1.41-10.52,2.45-15.7,4-5.45,1.67-10.71,3.78-16,6-4.95,2-11,4.07-16,1s-4.33-9.51-3.88-14.41c.18-1.92-2.82-1.91-3,0Z" transform="translate(0 0)"/><path class="cls-1" d="M151.31,112.63a93.48,93.48,0,0,0,8.43,6.83c2.75,1.81,6.28,3,9.52,1.82,1.46-.5,3.36-1.53,3.36-3.31,0-1.55-1.39-3.11-2.52-4-2.7-2.23-6.06-2.89-9.29-4-1.83-.62-3.51-2-5.45-2.2a3.68,3.68,0,0,0-4.11,2.52,1.5,1.5,0,0,0,2.89.8c.31-1.13,2.69.42,3.16.66a29.28,29.28,0,0,0,4.82,1.77,21.86,21.86,0,0,1,4.62,1.75,8.27,8.27,0,0,1,1.77,1.29,5.44,5.44,0,0,1,.67.77,4.94,4.94,0,0,1,.3.49c.11.3.16.34.16.1s-.46.17-.62.26a4.77,4.77,0,0,1-1,.38,6.22,6.22,0,0,1-2.19.18,9.67,9.67,0,0,1-4.21-1.57c-3-1.85-5.55-4.38-8.22-6.62-1.47-1.23-3.6.88-2.12,2.12Z" transform="translate(0 0)"/><path class="cls-1" d="M173.76,107.05a43.49,43.49,0,0,1,10.44,5c2.79,1.83,5.8,4.24,9.3,2.7s3.38-5.63.74-7.85a18.61,18.61,0,0,0-5.09-2.57L183.44,102c-2-.82-4.15-2-6.36-1.48a4.1,4.1,0,0,0-3.31,3.78c-.09,1.93,2.91,1.92,3,0,0-.53.65-.82,1.11-.89a5.63,5.63,0,0,1,2.75.65c1.85.74,3.68,1.52,5.51,2.27,1.19.49,9,2.94,6.74,5.32s-6.16-1.55-7.94-2.67a47.32,47.32,0,0,0-10.38-4.82c-1.84-.61-2.63,2.29-.8,2.89Z" transform="translate(0 0)"/><path class="cls-1" d="M393,247.11l8.87-5.29c2.85-1.7,5.87-3.27,8.6-5.16a6.11,6.11,0,0,0,2.45-2.93,14.51,14.51,0,0,0,.35-4.87c-.05-3.24-.21-6.49-.42-9.73-.23-3.4-.52-6.8-.78-10.2a24.83,24.83,0,0,1,.22-6.94c.43-2,1.31-4.07,3.27-5s4.37-.77,6.47-1.44a6.17,6.17,0,0,0,4.42-5.23,90,90,0,0,0,.71-9.7c.29-6.66.26-13.32.05-20-.42-13.36-1.56-26.68-2.28-40-.82-15-1.09-30,.76-44.92a1.51,1.51,0,0,0-1.51-1.5,1.32,1.32,0,0,0-.39.06,49.09,49.09,0,0,1-10.15,2.92,17.43,17.43,0,0,1-5.25,0,41.69,41.69,0,0,1-5.11-1.54c-6.94-2.15-14,.48-20.36,3.14a1.52,1.52,0,0,0-1,1.91,1.44,1.44,0,0,0,.64.83l12.35,6.76,6.29,3.43c1.54.84,3.75,1.68,4.53,3.39s.18,4.08,0,5.95a20.31,20.31,0,0,0,.4,5.82c.74,3.76,2.29,7.4,2.53,11.25a12.76,12.76,0,0,1-.87,5.36,5.84,5.84,0,0,0,.41,5.47,9.07,9.07,0,0,1,1.63,5.23c0,2-.44,4-.67,6.07-.48,4.25.74,8.17,1.38,12.33a14.16,14.16,0,0,1-.26,6.11,18.87,18.87,0,0,0-1.12,6.21,51.26,51.26,0,0,0,1.24,7.4l1.53,7.73,3.11,15.7c.38,1.9,3.27,1.09,2.9-.79-1.86-9.38-4-18.74-5.56-28.16a13.26,13.26,0,0,1,.54-6.46,16.82,16.82,0,0,0,.8-6.18c-.32-4.25-2-8.33-1.68-12.64.27-4,1.63-8.12-.06-12-.38-.86-1-1.59-1.39-2.41a3.14,3.14,0,0,1,.09-2.83,14.7,14.7,0,0,0,1-5.57c-.1-3.93-1.53-7.64-2.41-11.43a19.54,19.54,0,0,1-.59-5.8c.14-2,.6-4,.25-6a7.39,7.39,0,0,0-3.75-5c-2.21-1.35-4.55-2.51-6.82-3.75l-14.31-7.82-.36,2.75a54.84,54.84,0,0,1,10.12-3.43,19,19,0,0,1,10.41.88,20.89,20.89,0,0,0,10.19,1,51.41,51.41,0,0,0,10.15-2.92l-1.9-1.45c-3.23,26.1,0,52.33,1.26,78.44.31,6.58.49,13.17.4,19.75,0,3.21-.16,6.42-.34,9.62-.09,1.61-.21,3.21-.34,4.81-.11,1.26-.14,2.85-1.21,3.72-1.6,1.32-4.27,1.11-6.19,1.56a8.5,8.5,0,0,0-5.3,3.66c-2.59,3.95-2.1,9.19-1.74,13.65.3,3.72.59,7.45.79,11.18.1,1.86.18,3.73.22,5.6,0,.89,0,1.78,0,2.67A6.07,6.07,0,0,1,410,233c-.65,1.3-2.56,2-3.73,2.74l-5.07,3-9.72,5.8a1.49,1.49,0,0,0-.46,2.07,1.51,1.51,0,0,0,2,.52Z" transform="translate(0 0)"/><path class="cls-1" d="M389.28,109.33c0-2.31-.11-4.62-.08-6.92a1.51,1.51,0,0,1,.94-1.58,12.79,12.79,0,0,1,2.34-.76,53,53,0,0,0,12.25-5.23,1.5,1.5,0,0,0-1.51-2.59,49.13,49.13,0,0,1-6.38,3.16c-2.16.87-4.38,1.47-6.59,2.17s-3.78,1.87-4,4.18a29.53,29.53,0,0,0,0,3.52l0,4a1.51,1.51,0,0,0,1.56,1.45,1.5,1.5,0,0,0,1.44-1.45Z" transform="translate(0 0)"/><path class="cls-1" d="M395.31,114.19h5.41a6.86,6.86,0,0,0,1.81,0c.34.1.41,0,.2-.19,0,.26,0,.51,0,.77,0,.45,0,.9,0,1.35l-.12,3.63c-.14,4.6-.26,9.2-.43,13.81,0,.18-.17.81.08.62-.22.17-1.22-.07-1.49-.09l-1.64-.14-.83-.08c.11.14.14.1.08-.12a5.92,5.92,0,0,1-.1-1.83l-.07-1.37-.2-3.67-.76-14.18c-.1-1.92-3.1-1.94-3,0l.76,14.18c.13,2.34.17,4.69.38,7a3.23,3.23,0,0,0,.9,2.26,4.54,4.54,0,0,0,2.84.79c1.73.14,4.18.79,5.4-.87a4,4,0,0,0,.64-2.3c.07-1.2.08-2.41.12-3.62l.44-14c.07-2.13.24-4.58-2.5-4.89a71.06,71.06,0,0,0-7.86,0,1.5,1.5,0,0,0,0,3Z" transform="translate(0 0)"/><path class="cls-1" d="M423.33,77c0-4.6,5.78-6.54,9.47-7.27,5.8-1.15,11.75-1.43,17.5-2.84,4.9-1.2,11.28-3.24,13-8.59.79-2.53.76-5.43.85-8.06a75.89,75.89,0,0,0-.12-8c-.69-10.14-3.67-20.53-11.05-27.88-7.6-7.58-18.34-10.71-28.6-12.71C417.76.39,410.76-.89,404.13.83c-5.5,1.42-10.42,5-12.51,10.41-.7,1.8,2.2,2.58,2.89.79,1.72-4.44,6.14-7.24,10.6-8.35,5.78-1.44,11.91-.35,17.66.74,9.67,1.83,20,4.49,27.35,11.4,7.23,6.76,10.17,16.62,10.86,26.25q.25,3.69.15,7.4a33.21,33.21,0,0,1-.65,7.64c-.68,2.56-2.83,3.89-5.11,4.93a36.84,36.84,0,0,1-8,2.43c-5.91,1.19-12.19,1.19-17.95,3-4.39,1.4-9,4.39-9.08,9.5a1.5,1.5,0,0,0,3,0Z" transform="translate(0 0)"/><path class="cls-1" d="M391.57,11.51c-18.46,5.39-37,10.79-54.87,17.86-8.68,3.43-17.1,7.75-26.09,10.34C302.86,42,292.93,41.6,288,49.14c-2.23,3.43-2.64,8.82,1.06,11.43,1.94,1.37,4.55,2.06,6.73,3l8,3.25c1.79.73,2.57-2.17.8-2.89-4.2-1.72-8.49-3.32-12.64-5.17-3.73-1.66-3-6.12-.77-8.82,2.49-3.07,6.28-4.29,10-5.08a123,123,0,0,0,12.43-2.88c8.25-2.68,16.06-6.59,24.12-9.76,8.39-3.31,16.92-6.25,25.51-9,9.66-3.09,19.4-5.93,29.14-8.77C394.22,13.87,393.43,11,391.57,11.51Z" transform="translate(0 0)"/><path class="cls-1" d="M293.84,48.56a88.46,88.46,0,0,1,14.25,4.72c4.34,1.88,8.42,4.45,12.91,6,9.47,3.24,19.53-1.27,28.39-4.5,9.08-3.32,18.09-6.9,27.36-9.65A121.6,121.6,0,0,1,391,41.73a46.69,46.69,0,0,1,7-.85,5.76,5.76,0,0,1,2.43.33,3.47,3.47,0,0,1,1.71,2.56c3.11,11.31,5.75,22.76,8.62,34.13.47,1.87,3.36,1.08,2.89-.79L405.75,46c-.53-2.1-.84-4.64-2.41-6.27a7.19,7.19,0,0,0-5.57-1.8,75.22,75.22,0,0,0-14.3,2.32c-9.7,2.29-19.06,5.78-28.39,9.26C350.4,51.2,345.72,53,341,54.55S331.17,57.8,326,57.33c-5.48-.5-10.26-3.86-15.16-6.07a91.38,91.38,0,0,0-16.24-5.59c-1.88-.46-2.68,2.43-.8,2.89Z" transform="translate(0 0)"/><path class="cls-1" d="M331.83,57.49l-37.71,9.89c-5.39,1.41-11.65,3.87-17.26,2.41-2.73-.7-4.8-2.56-7.07-4.11a25.53,25.53,0,0,0-6.22-3c-4.28-1.47-9.73-2.36-12.33-6.51l-.89,2.2L296,46.88c1.87-.47,1.07-3.37-.8-2.89L249.55,55.53a1.51,1.51,0,0,0-1,1.87,1.64,1.64,0,0,0,.14.33c2.5,4,6.9,5.58,11.19,6.94a39.11,39.11,0,0,1,6.62,2.49c2.42,1.29,4.4,3.26,6.86,4.49,5.47,2.72,11.64,1.23,17.24-.24l19.83-5.2,22.24-5.83a1.5,1.5,0,0,0-.8-2.89Z" transform="translate(0 0)"/><path class="cls-1" d="M229,203.42c22.15-2.34,42.64-11.72,62.94-20.27l64.76-27.25,36.74-15.47a1.54,1.54,0,0,0,1-1.84,1.49,1.49,0,0,0-1.84-1.05L327.9,164.8l-32.14,13.53c-10.42,4.38-20.79,8.92-31.37,12.91-11.41,4.31-23.2,7.9-35.37,9.18-1.9.2-1.92,3.2,0,3Z" transform="translate(0 0)"/><path class="cls-1" d="M235.64,311.87c10-1.3,19.59-4.86,28.65-9.06,10.54-4.9,20.83-10.41,31.22-15.63l64.31-32.34L396,236.65c1.72-.87.21-3.46-1.52-2.59l-63.64,32-63.65,32c-9.84,4.95-20.55,9.38-31.55,10.81a1.54,1.54,0,0,0-1.5,1.5A1.5,1.5,0,0,0,235.64,311.87Z" transform="translate(0 0)"/><path class="cls-1" d="M312.12,219.55a36.59,36.59,0,0,0,.12,5.92c.05.45.1.9.17,1.34a.88.88,0,0,0,.43.78,1.67,1.67,0,0,0,1,0,3.68,3.68,0,0,0,1.06-.4,4.62,4.62,0,0,0,2.1-4c.09-1.38.18-3.23-.91-4.28a2.56,2.56,0,0,0-3.61.21,1,1,0,0,0-.13.16c-.29.38.36.76.65.37a1.8,1.8,0,0,1,2.53-.23l.06.06c.85.86.72,2.4.67,3.51a4.12,4.12,0,0,1-1.48,3.39,3.26,3.26,0,0,1-.79.4,2.73,2.73,0,0,1-.41.1s-.43.06-.38.09a2.1,2.1,0,0,1-.09-.54c0-.15,0-.31-.05-.46-.05-.41-.09-.83-.13-1.24a35.43,35.43,0,0,1-.05-5.15c0-.49-.73-.49-.75,0Z" transform="translate(0 0)"/><path class="cls-1" d="M315.56,218.78l1.6-.57-.29-.69-.5.28a.39.39,0,0,0-.13.52l.06.07c1.52,1.74,1.68,4.27,3.34,5.93a.38.38,0,0,0,.54,0,.39.39,0,0,0,.1-.25l1-7.93a.37.37,0,0,0-.37-.37,3.94,3.94,0,0,0-1.57.48.37.37,0,0,0,.29.68,5.4,5.4,0,0,0,2.27-1.1c.38-.3-.16-.83-.53-.53a4.69,4.69,0,0,1-1.94.91l.29.69a2.92,2.92,0,0,1,1.19-.38l-.38-.38-1,7.93.64-.27c-1.64-1.64-1.82-4.19-3.34-5.93l-.08.59.5-.28c.37-.2.12-.83-.29-.68l-1.6.57C314.91,218.22,315.11,218.94,315.56,218.78Z" transform="translate(0 0)"/><path class="cls-1" d="M326.54,213.26a45.23,45.23,0,0,0,.2,7.72c.06.47.81.48.75,0a45.23,45.23,0,0,1-.2-7.72C327.31,212.78,326.56,212.78,326.54,213.26Z" transform="translate(0 0)"/><path class="cls-1" d="M327.31,217.34a7.2,7.2,0,0,0,2.12-.14,2.66,2.66,0,0,0,1.64-.71,3.17,3.17,0,0,0,.2-1.8,21.25,21.25,0,0,0-.15-2.25.37.37,0,0,0-.39-.36.37.37,0,0,0-.36.36q-.09,3.9.15,7.82c0,.48.78.48.75,0-.16-2.61-.21-5.21-.15-7.82h-.75c.07.6.12,1.2.14,1.8a7.18,7.18,0,0,1,0,1.67c-.09.42-1.05.53-1.41.6a7.09,7.09,0,0,1-1.78.08c-.48,0-.48.72,0,.75Z" transform="translate(0 0)"/><path class="cls-1" d="M335.19,213.55c-.58.16-1.16.33-1.73.52s-1.11.28-1.39.7a2.31,2.31,0,0,0-.1,1.53,6.76,6.76,0,0,0,.45,1.67c.18.43.4,1,1,.88a11.76,11.76,0,0,0,1.63-.7c.43-.19,1.2-.35,1.36-.86a1.75,1.75,0,0,0,0-.72c0-.33-.06-.66-.1-1a26.85,26.85,0,0,0-.87-4.15.37.37,0,0,0-.62-.16,12.23,12.23,0,0,1-2.55,1.65c-.43.22-.05.86.38.65a13.37,13.37,0,0,0,2.7-1.77l-.63-.17a27,27,0,0,1,.8,3.65c0,.3.07.6.11.89s0,.31,0,.47a1.1,1.1,0,0,1,0,.36c-.08.17-.54.29-.72.36l-.85.38c-.12,0-.78.42-.86.37.08,0-.08-.28-.07-.25-.06-.14-.12-.29-.17-.43a6.3,6.3,0,0,1-.35-1.66c0-.26-.08-.52.17-.67a4.39,4.39,0,0,1,.83-.31c.57-.19,1.15-.36,1.73-.51a.38.38,0,0,0-.2-.73Z" transform="translate(0 0)"/><path class="cls-1" d="M338.13,216.83c-.06-1.09-.07-2.17,0-3.26,0-.54.06-1.08.11-1.63,0-.33,0-.94.38-1.09a1.94,1.94,0,0,1,.68-.06l.7,0c.21,0,.45-.05.59.14a1.37,1.37,0,0,1,.13.63,19,19,0,0,1,.08,3.29c0,.48.72.48.75,0a19.61,19.61,0,0,0,0-2,9.16,9.16,0,0,0-.19-1.88,1.08,1.08,0,0,0-1.06-.9,8.16,8.16,0,0,0-1.71.06c-1.23.21-1.13,1.79-1.19,2.74a35.76,35.76,0,0,0,0,4C337.41,217.31,338.16,217.31,338.13,216.83Z" transform="translate(0 0)"/><path class="cls-1" d="M345.23,204.84c-.06,1.52-.06,3,0,4.58,0,.76.1,1.52.14,2.28,0,.39-.19.54-.49.76a8.46,8.46,0,0,1-.86.56,3.29,3.29,0,0,1-.94.46l.07.08c0-.08,0-.17-.05-.26s-.05-.33-.08-.5c-.11-.75-.18-1.51-.22-2.27a2,2,0,0,1,.58-1.84,4.25,4.25,0,0,1,1.58-.62.38.38,0,0,0,.24-.47.36.36,0,0,0-.44-.25,3.25,3.25,0,0,0-2.59,1.78,5,5,0,0,0-.08,2c0,.71.14,1.41.25,2.12.07.47.17,1.05.78,1a4.55,4.55,0,0,0,1.75-.86c.44-.29,1.1-.66,1.24-1.2a2.88,2.88,0,0,0,0-.83c0-.41-.06-.82-.09-1.23-.1-1.76-.11-3.52,0-5.28,0-.48-.73-.48-.75,0Z" transform="translate(0 0)"/><path class="cls-1" d="M347.23,206.27a17.26,17.26,0,0,0,.18,4.06,2.7,2.7,0,0,0,.47,1.48c.41.43,1,.25,1.45,0l.84-.45a1.82,1.82,0,0,0,.61-.46,3,3,0,0,0,.18-1.69V205a.37.37,0,0,0-.39-.36.36.36,0,0,0-.36.36v3.38c0,.55,0,1.1,0,1.65,0,.26,0,.44-.2.58s-.44.24-.65.36-.4.22-.61.32-.35.07-.43-.17a7.05,7.05,0,0,1-.28-1.51,16.74,16.74,0,0,1-.07-3.32c0-.49-.71-.48-.75,0Z" transform="translate(0 0)"/><path class="cls-1" d="M350.2,210l0,1.62a5,5,0,0,1,0,.77c0,.22-.22.3-.39.39a10.42,10.42,0,0,0-2.4,1.77.38.38,0,0,0,0,.53.38.38,0,0,0,.51,0,8.38,8.38,0,0,1,1.21-1c.23-.16.47-.31.71-.45a6.11,6.11,0,0,0,.65-.38c.47-.36.45-.88.44-1.42l0-1.81a.37.37,0,0,0-.39-.36.37.37,0,0,0-.36.36Z" transform="translate(0 0)"/><path class="cls-1" d="M355,202.91a7.23,7.23,0,0,0-1.61,0,4.16,4.16,0,0,0-1.38.33c-.47.25-.4.71-.3,1.15l.38,1.6.38,1.6.19.77a2.66,2.66,0,0,0,.18.67c.22.44.68.42,1.06.2s1-.61,1.45-.91,0-.91-.38-.65l-1.06.67-.29.18-.1.06c-.09,0-.1,0,0,.09s.05.06,0,0v-.07c0-.11-.06-.22-.08-.33l-.58-2.43-.29-1.21c0-.18-.09-.37-.13-.55l0-.18s.23-.07.28-.09a6.64,6.64,0,0,1,2.35-.16c.48,0,.48-.71,0-.75Z" transform="translate(0 0)"/><path class="cls-1" d="M357.58,201.93a5.71,5.71,0,0,0,2.51-.49l-.57-.32c.09,1.08.14,2.17.14,3.25,0,.27,0,.53,0,.79s0,.28,0,.42a1.45,1.45,0,0,1,0,.36c-.09.13-.55.22-.7.27l-.73.26-.73.26a1.06,1.06,0,0,0-.34.12q-.17,0,0,.09l-.06-.19a8.52,8.52,0,0,1-.26-1.51c0-.27,0-.42.23-.57s.4-.19.59-.29l1.47-.71c.43-.21.05-.86-.38-.65l-1.41.69a2.4,2.4,0,0,0-1.12.75,2.24,2.24,0,0,0-.06,1.4,4.27,4.27,0,0,0,.34,1.45c.24.43.7.32,1.09.18l1.51-.53c.39-.14,1-.24,1.23-.66a1.47,1.47,0,0,0,.09-.66c0-.28,0-.56,0-.84a34.72,34.72,0,0,0-.13-3.68.37.37,0,0,0-.39-.37.34.34,0,0,0-.17.05,5,5,0,0,1-2.13.38C357.1,201.16,357.1,201.91,357.58,201.93Z" transform="translate(0 0)"/><path class="cls-1" d="M362.25,205.12l0-3.13a10.9,10.9,0,0,1,0-1.4.82.82,0,0,1,.64-.67c.2-.07.8-.27.95-.14s.08.55.1.67c0,.27.06.53.08.79.1,1,.16,2,.18,3h.75a32.94,32.94,0,0,1-.15-4,1.34,1.34,0,0,1,.76-1.31,3.92,3.92,0,0,1,1.79-.28l-.38-.37-.17,5.8a.37.37,0,0,0,.39.36.36.36,0,0,0,.36-.36l.17-5.8a.38.38,0,0,0-.37-.38c-1.23,0-2.83.21-3.21,1.61a8.08,8.08,0,0,0-.08,2.25c0,.82.07,1.63.14,2.45,0,.47.76.49.75,0a37.12,37.12,0,0,0-.26-3.8c-.06-.44,0-1.13-.49-1.37a2,2,0,0,0-1.33.06,2,2,0,0,0-1.09.65,2.19,2.19,0,0,0-.29,1.39l0,3.94a.38.38,0,0,0,.75,0Z" transform="translate(0 0)"/><path class="cls-1" d="M360,209.45a6.85,6.85,0,0,0,.9,2.7.39.39,0,0,0,.51.13.38.38,0,0,0,.14-.51,5.84,5.84,0,0,1-.8-2.32.38.38,0,1,0-.75,0Z" transform="translate(0 0)"/><path class="cls-1" d="M360.8,209.43l.87-.12a4.89,4.89,0,0,1,.66-.05.63.63,0,0,1,.4.19s0,.06,0,.08.07.13.05.07a1.43,1.43,0,0,1,.07.28.13.13,0,0,1,0,.06v0a.81.81,0,0,1,0,.16c0,.11,0,.22,0,.33a.88.88,0,0,1-.19.49,1,1,0,0,1-.46.27,3.87,3.87,0,0,1-.76.11.38.38,0,0,0-.38.37.38.38,0,0,0,.38.38,3.08,3.08,0,0,0,1.45-.36,1.49,1.49,0,0,0,.5-.5,2.06,2.06,0,0,0,.21-.76,2.4,2.4,0,0,0-.19-1.24,1.32,1.32,0,0,0-1.13-.7,4.43,4.43,0,0,0-.81.07l-.92.13a.37.37,0,1,0,.2.72Z" transform="translate(0 0)"/><path class="cls-1" d="M363.86,207.35c-.26.46-.56.91-.78,1.39a1.64,1.64,0,0,0-.19.78,1.18,1.18,0,0,0,.36.75,1.69,1.69,0,0,0,2.38-.05,1.39,1.39,0,0,0,.21-.27.37.37,0,0,0-.14-.51.38.38,0,0,0-.51.13,1,1,0,0,1-.64.41.93.93,0,0,1-.83-.31.37.37,0,0,1-.07-.32,1.43,1.43,0,0,1,.21-.49c.21-.38.43-.75.65-1.13a.38.38,0,0,0-.65-.38Z" transform="translate(0 0)"/><path class="cls-1" d="M366.2,209.67a5.19,5.19,0,0,0-.19-1.61,1.77,1.77,0,0,1-.1-1.2.55.55,0,0,1,.73-.27h0a.75.75,0,0,1,.36.75,1,1,0,0,1-.77.74.38.38,0,0,0,.1.74,2.25,2.25,0,0,1,1.31.56c.35.33.89-.2.53-.53a3.12,3.12,0,0,0-1.84-.78l.1.73a1.73,1.73,0,0,0,1.24-1.09,1.54,1.54,0,0,0-.36-1.56,1.39,1.39,0,0,0-1.58-.2,1.48,1.48,0,0,0-.64,1.54c.05.36.17.7.25,1.05a4.24,4.24,0,0,1,.09,1.12.38.38,0,1,0,.75,0Z" transform="translate(0 0)"/><path class="cls-1" d="M370.52,205.32c.29-.17.59-.32.89-.47l.44-.2.13-.06h0l.25-.11a.38.38,0,0,0,.26-.46.37.37,0,0,0-.46-.26,15.5,15.5,0,0,0-1.93.92.39.39,0,0,0-.13.51.38.38,0,0,0,.51.14Z" transform="translate(0 0)"/><path class="cls-1" d="M370.89,204.4a7,7,0,0,0,.24,3.15.37.37,0,0,0,.72-.2,6.41,6.41,0,0,1-.24-2.75.39.39,0,0,0-.26-.47.38.38,0,0,0-.46.27Z" transform="translate(0 0)"/><path class="cls-1" d="M372.64,203.71a10.1,10.1,0,0,0,.29,3.33.37.37,0,0,0,.72-.2,9.7,9.7,0,0,1-.26-3.13.38.38,0,0,0-.37-.37.38.38,0,0,0-.38.37Z" transform="translate(0 0)"/><path class="cls-1" d="M373.37,204.19a1.37,1.37,0,0,1,.17-.17c.08-.07-.05,0,0,0l.1-.07.11,0c-.06,0,0,0,0,0a.94.94,0,0,1,.24-.06c-.07,0,0,0,0,0h.11s.13,0,.09,0l.09,0a.5.5,0,0,1,.29.16c0-.05,0,0,0,0s0,.08,0,0,0,.11,0,0,0,.1,0,0l-.05.1h0l-.05.05a.27.27,0,0,1-.08.07l0,0a1.78,1.78,0,0,1-.43.18,2.44,2.44,0,0,0-.57.26.38.38,0,0,0,.09.68l1.84.53a.38.38,0,0,0,.46-.27.36.36,0,0,0-.26-.45l-1.84-.53.09.68a2.08,2.08,0,0,1,.43-.19,3.38,3.38,0,0,0,.52-.22,1.23,1.23,0,0,0,.65-.91.94.94,0,0,0-.57-.91,1.75,1.75,0,0,0-2,.47.39.39,0,0,0,0,.53.37.37,0,0,0,.53,0Z" transform="translate(0 0)"/><path class="cls-1" d="M375.56,202.91a10.15,10.15,0,0,0,1.79,2.08.37.37,0,0,0,.53,0,.41.41,0,0,0,.11-.25,15.24,15.24,0,0,1,.21-2.53.4.4,0,0,0-.27-.47.39.39,0,0,0-.46.27,16.58,16.58,0,0,0-.23,2.73l.64-.27a9.06,9.06,0,0,1-1.67-1.93.4.4,0,0,0-.52-.13.38.38,0,0,0-.13.51Z" transform="translate(0 0)"/><path class="cls-1" d="M381,200.09a21.53,21.53,0,0,0,.14,3.5.39.39,0,0,0,.37.38.39.39,0,0,0,.38-.38c-.06-.69-.14-1.38-.23-2.07a5.87,5.87,0,0,0-.15-1,.78.78,0,0,0-.68-.56,1.41,1.41,0,1,0,.62,2.6c.41-.26,0-.9-.37-.65a.66.66,0,0,1-.93-.19l0-.06a.67.67,0,0,1,.3-.89l0,0a.75.75,0,0,1,.26-.05c.07,0,.06,0,.09.05a2.13,2.13,0,0,1,.07.44l.06.45c.08.65.15,1.31.21,2h.75a21.53,21.53,0,0,1-.14-3.5c0-.48-.73-.48-.75,0Z" transform="translate(0 0)"/><path class="cls-1" d="M383.24,199c-.95.75-1.67,2.6-.36,3.37a1.46,1.46,0,0,0,1.78-.26,2.37,2.37,0,0,0,.48-1.72,1.19,1.19,0,0,0-.43-1,1.6,1.6,0,0,0-.56-.22l-.57-.17a.37.37,0,0,0-.45.28.36.36,0,0,0,.25.44c.27.08.54.15.8.24l.12.05s0,0,0,0,0,0,0,0,0,.06,0,0a.14.14,0,0,1,0,.06.24.24,0,0,1,0,.08s0,.09,0,0a2,2,0,0,1-.17,1.2.71.71,0,0,1-.89.3.55.55,0,0,1-.18-.13.62.62,0,0,1-.17-.22.66.66,0,0,1-.06-.2,1,1,0,0,1,0-.35,2.36,2.36,0,0,1,.84-1.33.37.37,0,0,0,0-.53.39.39,0,0,0-.53,0Z" transform="translate(0 0)"/><path class="cls-1" d="M386.59,198a1.8,1.8,0,0,0-1.43,1.13,1.91,1.91,0,0,0-.17,1.13,1.27,1.27,0,0,0,.54.76,1.44,1.44,0,0,0,1.67,0,1.85,1.85,0,0,0,.72-1.73,1.33,1.33,0,0,0-.59-.93,1.07,1.07,0,0,0-1.09,0,.37.37,0,0,0,.38.64h.08c.05,0-.08,0,0,0h.06s.07,0,0,0l.06,0,.07,0c-.07,0,0,0,0,0l.05,0s0,0,0,0,.06.07,0,0l0,.06,0,.06c0,.07,0,0,0,0a1.21,1.21,0,0,1,.05.18c0,.12,0,0,0,0v.07a.91.91,0,0,1,0,.17c0-.06,0,.06,0,.09a.84.84,0,0,0-.05.17c0,.1,0,0,0,0l0,.07-.08.13,0,.06c0-.05,0,0,0,0l-.12.13-.05,0,0,0-.14.08s-.06,0,0,0l-.07,0-.09,0h-.22l-.13,0-.06,0c.08,0,0,0,0,0l-.05,0s-.09-.06,0,0l0,0,0,0,0,0c0,.06,0,0,0,0l0-.05s0-.09,0,0a.94.94,0,0,1,0-.64l0-.08c0,.07,0,0,0,0l.09-.16.1-.15s0,0,0,0l.06-.07.07-.06.06-.05,0,0,.09-.06.06,0h0l.07,0s.13,0,.06,0a.38.38,0,0,0,.37-.37.38.38,0,0,0-.37-.38Z" transform="translate(0 0)"/><path class="cls-1" d="M368.77,195.23a31.08,31.08,0,0,0,2.52,6.29.38.38,0,0,0,.7-.19,65.42,65.42,0,0,1,1.11-8.82c.09-.47-.63-.67-.73-.2a70.13,70.13,0,0,0-1.13,9l.69-.19a30.44,30.44,0,0,1-2.44-6.11.36.36,0,0,0-.47-.24A.38.38,0,0,0,368.77,195.23Z" transform="translate(0 0)"/><path class="cls-1" d="M374.73,194.21v6a.36.36,0,0,0,.38.36.38.38,0,0,0,.37-.36v-6a.38.38,0,0,0-.39-.36A.36.36,0,0,0,374.73,194.21Z" transform="translate(0 0)"/><path class="cls-1" d="M374.59,192.67a.36.36,0,0,0,.36-.38.36.36,0,1,0-.72,0A.36.36,0,0,0,374.59,192.67Z" transform="translate(0 0)"/><path class="cls-1" d="M379.39,192c-1.76-.51-3.18,1.47-2.71,3.09.23.83,1.57.86,2.25.78a2.28,2.28,0,0,0,.69-.13s.16,0,.06-.05,0,0,0,0a1.65,1.65,0,0,0,.06.32,2.14,2.14,0,0,1-.23,1.19,2.12,2.12,0,0,1-2.36,1c-.47-.11-.67.61-.2.72a2.86,2.86,0,0,0,3.47-2.08c0-.13.05-.26.07-.4a2.38,2.38,0,0,0-.14-1.15c-.21-.44-.61-.41-1-.31a3.14,3.14,0,0,1-1.43,0c-.14,0-.41-.06-.49-.19a1.26,1.26,0,0,1,0-.61c.07-.92.82-1.85,1.82-1.56a.37.37,0,0,0,.45-.28.36.36,0,0,0-.25-.44Z" transform="translate(0 0)"/><path class="cls-1" d="M381.36,191.15a52.06,52.06,0,0,0,.12,5.86c0,.48.79.48.75,0a52.06,52.06,0,0,1-.12-5.86C382.13,190.67,381.38,190.67,381.36,191.15Z" transform="translate(0 0)"/><path class="cls-1" d="M381.73,189.23a.37.37,0,0,0,.36-.38.37.37,0,1,0-.73,0A.37.37,0,0,0,381.73,189.23Z" transform="translate(0 0)"/><path class="cls-1" d="M385.13,189.41a1.66,1.66,0,0,0-1.54.36,2.47,2.47,0,0,0-.82,1.53,8.17,8.17,0,0,0-.08,1.78,3,3,0,0,0,.39,1.53,2,2,0,0,0,2.72.5,3,3,0,0,0,1.18-3,3.43,3.43,0,0,0-.67-1.81,1.86,1.86,0,0,0-1.76-.68.37.37,0,0,0-.26.46.38.38,0,0,0,.46.26c.92-.15,1.36,1,1.47,1.68a2.52,2.52,0,0,1-.63,2.3,1.3,1.3,0,0,1-1.8,0,3.52,3.52,0,0,1-.34-2.32,2.44,2.44,0,0,1,.41-1.46,1,1,0,0,1,1.08-.42.37.37,0,0,0,.19-.72Z" transform="translate(0 0)"/><path class="cls-1" d="M388.8,192.39a12.87,12.87,0,0,0,0-2.91c0-.69.33-1.61,1.18-1.57.37,0,.54.29.62.62a11.36,11.36,0,0,1,.15,1.43l.31,3.23c.05.47.8.48.75,0l-.28-3c0-.48-.08-1-.14-1.43a2.31,2.31,0,0,0-.33-1.08,1.45,1.45,0,0,0-1.86-.38,2.18,2.18,0,0,0-1.13,1.84c-.11,1,.26,2,0,3a.38.38,0,0,0,.28.45.36.36,0,0,0,.44-.25Z" transform="translate(0 0)"/><path class="cls-1" d="M350.16,195.69a1.5,1.5,0,0,0-2,.68,1.56,1.56,0,0,0-.15.77,1.12,1.12,0,0,0,.26.68c.22.21.52.07.79.11a1,1,0,0,1,.81,1.17,1.05,1.05,0,0,1-.05.19,1.27,1.27,0,0,1-1.65.67c-.18-.06-.26.23-.08.29a1.51,1.51,0,0,0,2-.84,1.36,1.36,0,0,0,.11-.63,1.26,1.26,0,0,0-1.29-1.16c-.2,0-.36.08-.47-.13a1.09,1.09,0,0,1,0-.85,1.2,1.2,0,0,1,1.52-.75l.13.06c.17.08.33-.18.15-.26Z" transform="translate(0 0)"/><path class="cls-1" d="M351.44,196.73a2.21,2.21,0,0,0,.17,1.91,1.05,1.05,0,0,0,1.42.23,1.76,1.76,0,0,0,.75-1.53,8,8,0,0,0-.08-1.09l-.13-1.15c0-.19-.32-.19-.3,0,.07.59.15,1.18.2,1.77a2,2,0,0,1-.37,1.56.81.81,0,0,1-1.13.15,1.14,1.14,0,0,1-.11-.11,1.87,1.87,0,0,1-.13-1.66c0-.19-.25-.27-.29-.08Z" transform="translate(0 0)"/><path class="cls-1" d="M355,198.83a15.93,15.93,0,0,0,0-2.49,2,2,0,0,1,.79-1.64c.25-.16.82-.29.88.13,0,.22,0,.45,0,.67v1.64c0,.13,0,.22-.15.24a1.19,1.19,0,0,1-.32,0l-.34,0-.69-.08c-.19,0-.19.27,0,.3.44,0,.88.12,1.32.16s.47-.16.48-.46,0-.86,0-1.29v-.65a1.94,1.94,0,0,0,0-.59c-.17-.63-1-.47-1.41-.18a2.25,2.25,0,0,0-.8,1.48c-.13.92.18,1.84,0,2.76,0,.19.26.27.29.08Z" transform="translate(0 0)"/><path class="cls-1" d="M358.08,195.4a1.56,1.56,0,0,0,.95-1.12,1.38,1.38,0,0,0,0-.35.66.66,0,0,0-.09-.39.69.69,0,0,0-.64-.19c-.59.11-.78.72-.8,1.25a2.23,2.23,0,0,0,.47,1.63,1.05,1.05,0,0,0,1.47.08c.13-.14-.08-.36-.21-.21a.73.73,0,0,1-1,0,1.52,1.52,0,0,1-.46-1.19c0-.38,0-.94.35-1.17a.49.49,0,0,1,.47-.06c.09,0,.09.07.1.16a1,1,0,0,1,0,.3,1.25,1.25,0,0,1-.75,1c-.18.07-.11.36.08.29Z" transform="translate(0 0)"/><path class="cls-1" d="M360.7,194.3a1.58,1.58,0,0,0,.31,1.31c.1.12.3,0,.25-.15a6.76,6.76,0,0,1-.33-2,1,1,0,0,1,.22-.79c.13-.12.42-.2.55,0s.38,0,.26-.15a.64.64,0,0,0-.75-.21.9.9,0,0,0-.55.75,4.23,4.23,0,0,0,0,1.23,7.77,7.77,0,0,0,.28,1.27l.26-.14a1.25,1.25,0,0,1-.24-1c0-.19-.26-.27-.29-.08Z" transform="translate(0 0)"/><path class="cls-1" d="M365.63,187.94c-.66.15-1.4-.2-2,.12a1.2,1.2,0,0,0-.55.77,3,3,0,0,0-.09,1.07c.08.71.71.93,1.34.95.48,0,1.82-.09,1.64.76a1.91,1.91,0,0,1-.95,1,2.93,2.93,0,0,1-1.36.39c-.19,0-.19.31,0,.3a3.28,3.28,0,0,0,2-.8c.46-.41.89-1.15.29-1.64s-1.21-.27-1.82-.33c-.38,0-.77-.16-.86-.58a2.38,2.38,0,0,1,.13-1.24c.19-.46.65-.51,1.09-.48a4.53,4.53,0,0,0,1.22,0C365.9,188.19,365.82,187.9,365.63,187.94Z" transform="translate(0 0)"/><path class="cls-1" d="M367.17,188a13.86,13.86,0,0,0,.57,4.48.15.15,0,0,0,.29-.08,13.38,13.38,0,0,1-.56-4.4c0-.2-.29-.2-.3,0Z" transform="translate(0 0)"/><path class="cls-1" d="M368.12,190.52v-.39A.15.15,0,0,0,368,190a.15.15,0,0,0-.15.15h0v.39a.14.14,0,0,0,.14.15.16.16,0,0,0,.16-.15Z" transform="translate(0 0)"/><path class="cls-1" d="M370,189.22a1.86,1.86,0,0,0,.41-1.06.86.86,0,0,0-.45-.74c-.7-.32-1.32.62-1.51,1.16-.41,1.16.26,2.75,1.64,2.71a1.53,1.53,0,0,0,1.46-1,.15.15,0,0,0-.29-.08,1.2,1.2,0,0,1-1,.77,1.34,1.34,0,0,1-1.23-.41,1.91,1.91,0,0,1-.44-1.38,1.82,1.82,0,0,1,.83-1.45.44.44,0,0,1,.59.18.36.36,0,0,1,.06.2,1.55,1.55,0,0,1-.37,1c-.1.16.16.31.26.15Z" transform="translate(0 0)"/><path class="cls-1" d="M372.56,186.63l1-.12a.46.46,0,0,1,.2,0c.07,0,.07.09.07.16s0,.34,0,.51a11.62,11.62,0,0,1-.13,2,.47.47,0,0,1-.12.3.67.67,0,0,1-.44.07h-1c-.13,0-.37.05-.44-.08a.87.87,0,0,1,0-.39,1.34,1.34,0,0,1,.27-.7,1.46,1.46,0,0,1,1.64-.43c.18.07.26-.22.08-.29a1.78,1.78,0,0,0-1.85.41,1.69,1.69,0,0,0-.42.87c0,.26-.05.69.21.85a1,1,0,0,0,.49.06h.67c.32,0,.76.08,1-.17s.22-.68.25-1a11.62,11.62,0,0,0,.07-1.31c0-.24,0-.47,0-.71a.41.41,0,0,0-.21-.38,1,1,0,0,0-.55,0l-.78.1c-.19,0-.19.32,0,.3Z" transform="translate(0 0)"/><path class="cls-1" d="M376.88,184.76c-.44,0-.89,0-1.33,0s-.47.24-.47.57,0,.92,0,1.37a2.29,2.29,0,0,0,.11,1.16.78.78,0,0,0,.75.26,2.76,2.76,0,0,0,.9-.17,1,1,0,0,0,.56-.54,3.18,3.18,0,0,0,.05-1.23l-.08-3.3a.14.14,0,0,0-.15-.14.15.15,0,0,0-.15.14l.07,2.84c0,.43.05.86,0,1.29a.74.74,0,0,1-.66.73,1.6,1.6,0,0,1-1,0c-.19-.12-.14-.42-.14-.62v-1.38c0-.19-.09-.64.17-.71a2.83,2.83,0,0,1,.65,0h.68a.15.15,0,0,0,.15-.15.16.16,0,0,0-.15-.15Z" transform="translate(0 0)"/><path class="cls-1" d="M378,184a1.94,1.94,0,0,0,0,1.28.82.82,0,0,0,.83.52,1,1,0,0,0,.74-.65,2.11,2.11,0,0,0-.12-1.38c-.05-.16-.31-.14-.29,0a10.33,10.33,0,0,1-.05,2.72c-.06.37-.09.86-.41,1.1a1.78,1.78,0,0,1-1,.24c-.2,0-.2.31,0,.3a2.26,2.26,0,0,0,1.08-.25,1.33,1.33,0,0,0,.54-1,10.21,10.21,0,0,0,.12-3.12l-.3,0c.16.49.41,1.44-.31,1.64a.53.53,0,0,1-.61-.41,1.79,1.79,0,0,1,.06-1,.15.15,0,0,0-.11-.18.15.15,0,0,0-.18.1Z" transform="translate(0 0)"/><path class="cls-1" d="M382.91,180.26a1.5,1.5,0,0,0-1.88.49,1.72,1.72,0,0,0-.14,2c.4.46,1.05.28,1.57.16a1.83,1.83,0,0,1,.9-.05c.45.17.5.75.39,1.15a2.46,2.46,0,0,1-2.41,1.5c-.19,0-.19.31,0,.3a3.24,3.24,0,0,0,2.13-.79,1.78,1.78,0,0,0,.51-1.95c-.27-.59-.9-.59-1.45-.48s-1.51.41-1.59-.51.81-2.06,1.82-1.55c.17.09.32-.17.15-.26Z" transform="translate(0 0)"/><path class="cls-1" d="M384.4,179.94a23.2,23.2,0,0,0,.13,4.33.15.15,0,0,0,.15.15.16.16,0,0,0,.15-.15,7.43,7.43,0,0,1,.22-1.55,1.88,1.88,0,0,1,.68-1.18.77.77,0,0,1,1.06.16l.06.11a2.1,2.1,0,0,1,0,1.5c0,.19.25.27.29.08a2.4,2.4,0,0,0,0-1.73,1,1,0,0,0-1.26-.51,1.72,1.72,0,0,0-1,1.16,7.19,7.19,0,0,0-.33,2h.3a23.2,23.2,0,0,1-.13-4.33c0-.19-.29-.19-.3,0Z" transform="translate(0 0)"/><path class="cls-1" d="M388.78,179.86a1,1,0,0,0-1.24.52s0,.08,0,.12a2.6,2.6,0,0,0-.09,1,2.29,2.29,0,0,0,.15.82.8.8,0,0,0,.55.48,1,1,0,0,0,.81-.24,1.53,1.53,0,0,0,.42-.78,2.58,2.58,0,0,0,.06-1,1.15,1.15,0,0,0-.48-.81.84.84,0,0,0-.86-.09c-.18.08,0,.34.15.26a.53.53,0,0,1,.53.07.8.8,0,0,1,.35.54,1.8,1.8,0,0,1,0,.73,1.68,1.68,0,0,1-.24.68c-.24.35-.77.47-1,0a1.48,1.48,0,0,1-.13-.58,4.33,4.33,0,0,1,0-.72,1,1,0,0,1,.31-.66.54.54,0,0,1,.6-.11c.17.09.32-.17.15-.26Z" transform="translate(0 0)"/><path class="cls-1" d="M390.25,177.26a30.45,30.45,0,0,0,.24,5.23c0,.19.32.19.3,0a30.45,30.45,0,0,1-.24-5.23A.15.15,0,0,0,390.25,177.26Z" transform="translate(0 0)"/><path class="cls-1" d="M390.73,180.15a2.64,2.64,0,0,1,1-.55.15.15,0,1,0-.08-.29h0a3.25,3.25,0,0,0-1.12.62.16.16,0,1,0,.22.22Z" transform="translate(0 0)"/><path class="cls-1" d="M248,255a54.85,54.85,0,0,0-.55-12.08c-.13-.86-1.46-.62-1.47.2,0,2.05-1.11,3.84-2.17,5.53a18.48,18.48,0,0,0-2.74,5.58c-.11.5.36,1.16.93.92a40.62,40.62,0,0,1,7.63-2.29c1-.18.55-1.63-.4-1.44a40.62,40.62,0,0,0-7.63,2.29l.92.92c.94-4.16,4.91-7.06,5-11.51l-1.47.2a53.69,53.69,0,0,1,.49,11.68c-.07,1,1.43,1,1.5,0Z" transform="translate(0 0)"/><path class="cls-1" d="M257.29,238.08a8.92,8.92,0,0,0-6.15,1,4.35,4.35,0,0,0-2.22,4.54,3.21,3.21,0,0,0,1.3,2,3.76,3.76,0,0,0,3,.35,15.42,15.42,0,0,0,2.58-.89,6.32,6.32,0,0,0,2.09-1.37,3.55,3.55,0,0,0-.08-5,2.37,2.37,0,0,0-.39-.32.75.75,0,0,0-1,.26.77.77,0,0,0,.26,1,2,2,0,0,1,.3,2.83l-.09.11a7.36,7.36,0,0,1-3.34,1.71,3.39,3.39,0,0,1-2.26.19,1.65,1.65,0,0,1-.88-1.08,2.73,2.73,0,0,1,1.33-3,7.27,7.27,0,0,1,5.15-1,.77.77,0,0,0,.92-.52.74.74,0,0,0-.52-.92Z" transform="translate(0 0)"/><path class="cls-1" d="M255.42,244.62a4.09,4.09,0,0,0-4.48,3,7.36,7.36,0,0,0-.16,3.2,2.22,2.22,0,0,0,1.95,2.1c1.85.22,4.15.06,5.47-1.43a6.07,6.07,0,0,0,1.19-5.3c-.59-2.28-3.2-2.17-5-1.7a.75.75,0,0,0,.4,1.44,6.3,6.3,0,0,1,1.83-.24,1.46,1.46,0,0,1,1.19.52,3.35,3.35,0,0,1,.22,2,4.45,4.45,0,0,1-.52,1.73c-.75,1.31-2.17,1.53-3.57,1.53a9.49,9.49,0,0,1-1.07,0,.55.55,0,0,1-.5-.44,5.38,5.38,0,0,1-.14-2.22c.18-1.34,1.23-3,2.81-2.75a.75.75,0,0,0,.4-1.45Z" transform="translate(0 0)"/><path class="cls-1" d="M261.24,244.15c2.24-.47,4.27,1.44,5.75,2.87.69.67,1.76-.39,1.06-1.06-1.93-1.86-4.35-3.85-7.21-3.26a.75.75,0,1,0,.39,1.45Z" transform="translate(0 0)"/><path class="cls-1" d="M261.71,248.19a22.16,22.16,0,0,1,4.62-6.49c.7-.67-.36-1.73-1.06-1.06a23.52,23.52,0,0,0-4.86,6.79.79.79,0,0,0,.27,1,.75.75,0,0,0,1-.27Z" transform="translate(0 0)"/><path class="cls-1" d="M240.81,261a10.62,10.62,0,0,0,.29,3.42.15.15,0,0,0,.19.1.15.15,0,0,0,.09-.06c.32-.56.89-.9,1.25-1.43a3,3,0,0,0,.52-1.69,2.32,2.32,0,0,0-.13-.9.62.62,0,0,0-.64-.36,2.61,2.61,0,0,0-1.61.82c-.14.13.07.34.21.21a2.31,2.31,0,0,1,1.4-.73.34.34,0,0,1,.39.27,1.76,1.76,0,0,1,.07.4,2.78,2.78,0,0,1-.71,2.13,7.28,7.28,0,0,0-1,1.13l.27,0a10.43,10.43,0,0,1-.28-3.34c0-.19-.28-.19-.3,0Z" transform="translate(0 0)"/><path class="cls-1" d="M244.11,259.89a19.42,19.42,0,0,0,0,2.53c0,.19.31.2.3,0a19.42,19.42,0,0,1,0-2.53C244.42,259.7,244.12,259.7,244.11,259.89Z" transform="translate(0 0)"/><path class="cls-1" d="M246.58,258.31c-.55-.08-1.18-.07-1.38.56a3.38,3.38,0,0,0-.1.95,7.14,7.14,0,0,0,0,1.13c.05.4.2,1.41.84,1.23.27-.08.47-.42.61-.64a1.18,1.18,0,0,0,.2-.86.91.91,0,0,0-1.12-.65l-.14.05c-.16.08-.05.32.11.28a4.18,4.18,0,0,0,1.22-.59c.16-.1,0-.36-.15-.25a4.06,4.06,0,0,1-1.15.55l.12.27a.61.61,0,0,1,.62.1.57.57,0,0,1,.18.63,2,2,0,0,1-.24.45,1.3,1.3,0,0,1-.28.34c-.29.17-.41-.35-.45-.53a6.64,6.64,0,0,1-.08-1.94.85.85,0,0,1,.29-.74,1.26,1.26,0,0,1,.79,0c.19,0,.27-.26.08-.29Z" transform="translate(0 0)"/><path class="cls-1" d="M247.78,257.74A16.92,16.92,0,0,0,248,261c0,.19.33.11.29-.08a16.89,16.89,0,0,1-.21-3.18c0-.19-.29-.19-.3,0Z" transform="translate(0 0)"/><path class="cls-1" d="M249.2,257.64a2.08,2.08,0,0,0,1.57-.31.15.15,0,0,0,.06-.2.16.16,0,0,0-.21-.06,1.76,1.76,0,0,1-1.34.28.15.15,0,0,0-.18.11.14.14,0,0,0,.1.18Z" transform="translate(0 0)"/><path class="cls-1" d="M249.7,257.43v2.92a.14.14,0,0,0,.16.14.14.14,0,0,0,.14-.14v-2.92a.14.14,0,0,0-.15-.14A.15.15,0,0,0,249.7,257.43Z" transform="translate(0 0)"/><path class="cls-1" d="M251.39,256.43v3.44h.3c0-1.12,0-2.23,0-3.34l-.22.13a4,4,0,0,1,1.69,1.92c.08.18.34,0,.26-.15a4.24,4.24,0,0,0-1.8-2,.16.16,0,0,0-.21.06.19.19,0,0,0,0,.07c0,1.11,0,2.22,0,3.34a.15.15,0,0,0,.16.14.14.14,0,0,0,.14-.14v-3.44a.15.15,0,0,0-.16-.14.15.15,0,0,0-.14.14Z" transform="translate(0 0)"/><path class="cls-1" d="M251.65,258.54a6.54,6.54,0,0,1,.89-.59.15.15,0,0,0,.06-.2.16.16,0,0,0-.21-.05,6,6,0,0,0-.95.63.15.15,0,0,0,.21.21Z" transform="translate(0 0)"/><path class="cls-1" d="M253.55,256.13a5.26,5.26,0,0,0,0,1.05c0,.18,0,.36.07.53a1.64,1.64,0,0,0,.13.43.38.38,0,0,0,.32.22,1.05,1.05,0,0,0,.49-.13l1-.39c.17-.07.1-.36-.08-.29l-.9.34a3.16,3.16,0,0,1-.43.16c-.12,0-.17,0-.21-.13a3.51,3.51,0,0,1-.14-.85,5.88,5.88,0,0,1,0-.94.14.14,0,0,0-.15-.15.16.16,0,0,0-.15.15Z" transform="translate(0 0)"/><path class="cls-1" d="M257.68,253.67h1.07c.08,0,0,0,.05,0s-.06.23-.08.3l-.08.29-.18.62-.68,2.4a.15.15,0,0,0,.11.19.14.14,0,0,0,.14,0l1.56-1.49c.14-.13-.07-.34-.21-.21l-1.56,1.49.25.14.81-2.84.19-.69c.05-.16.1-.33-.06-.44s-.42,0-.59,0h-.74a.15.15,0,0,0,0,.3Z" transform="translate(0 0)"/><path class="cls-1" d="M259.77,252.75a7.71,7.71,0,0,0,.07,1.92,1.93,1.93,0,0,0,.3.84c.21.25.52.13.78,0s.65-.21,1-.33a.44.44,0,0,0,.28-.56.14.14,0,0,0,0-.06c-.12-.33-.27-.64-.4-1l-.42-1c-.06-.12-.13-.25-.27-.28a1.09,1.09,0,0,0-.47.09,4.79,4.79,0,0,0-1,.45.16.16,0,0,0-.05.21.15.15,0,0,0,.2.05,5.19,5.19,0,0,1,.71-.35l.33-.1a.61.61,0,0,1,.18,0c.08,0,.09.08.12.14l.65,1.56.15.35c.05.15,0,.2-.13.25l-.79.28-.37.12a.19.19,0,0,1-.25-.1v0a2.35,2.35,0,0,1-.21-.73,7.79,7.79,0,0,1,0-1.74C260.08,252.56,259.78,252.56,259.77,252.75Z" transform="translate(0 0)"/><path class="cls-1" d="M262.13,252.21a3.58,3.58,0,0,0,.66,2.12.15.15,0,0,0,.2,0l.76-.46a3.59,3.59,0,0,0,.64-.4c.2-.19.14-.45.09-.69s-.12-.52-.2-.78a1.83,1.83,0,0,0-.26-.67c-.17-.21-.44-.13-.67-.07a6.94,6.94,0,0,0-1.52.56c-.17.08,0,.34.15.26a7,7,0,0,1,1.25-.48l.3-.08c.11,0,.23-.07.29.05a4.35,4.35,0,0,1,.2.61c.06.21.11.42.16.63a1.33,1.33,0,0,1,.05.34c0,.11-.12.16-.21.21l-1.18.71.21.06a3.32,3.32,0,0,1-.62-2,.15.15,0,0,0-.16-.14.14.14,0,0,0-.14.14Z" transform="translate(0 0)"/><path class="cls-1" d="M265.51,253.13c0-.89,0-1.78,0-2.68l-.26.11,1.86,2a.15.15,0,0,0,.21,0,.14.14,0,0,0,.05-.1,14.69,14.69,0,0,1,0-2.2l-.28.08a24.8,24.8,0,0,1,1.81,2.95c.09.18.35,0,.26-.15a26.19,26.19,0,0,0-1.81-2.95.14.14,0,0,0-.21-.05.14.14,0,0,0-.07.12,14.69,14.69,0,0,0,0,2.2l.25-.11-1.86-2a.15.15,0,0,0-.21,0,.14.14,0,0,0,0,.1c-.05.9-.07,1.79,0,2.68,0,.2.31.2.3,0Z" transform="translate(0 0)"/><path class="cls-1" d="M334.59,90.16a7,7,0,0,0-.26-2,.78.78,0,0,0-.72-.56,8.41,8.41,0,0,0-5.45,1.53,2.45,2.45,0,0,0-1,2.28,1.81,1.81,0,0,0,1.56,1.54,6.63,6.63,0,0,0,2.81-.56,2.68,2.68,0,0,1,2.36.08,3.24,3.24,0,0,1,.8,2.28,2.08,2.08,0,0,1-1,2c-.66.45-1.84,1.12-2.66.86a3.67,3.67,0,0,1-2-2.06.76.76,0,0,0-1-.26l-.14.11-.73.81c-.65.71.41,1.77,1.06,1.06l.73-.81-1.18-.15a5.54,5.54,0,0,0,1.75,2.15,3.06,3.06,0,0,0,2.9.53c1.64-.52,3.46-1.54,3.7-3.42a6.38,6.38,0,0,0-.39-3,3,3,0,0,0-1.87-1.82,4.82,4.82,0,0,0-2.86.15c-.48.14-1,.33-1.45.45-.26.06-.74.18-.91-.1-.47-.76,1-1.43,1.45-1.63a8.29,8.29,0,0,1,3.45-.59l-.73-.55a5.79,5.79,0,0,1,.21,1.65.76.76,0,0,0,.78.73.75.75,0,0,0,.72-.73Z" transform="translate(0 0)"/><path class="cls-1" d="M340.71,84.83c-2.09.53-3.07,2.59-3.25,4.58-.17,1.76.07,4,1.62,5.07s3.91.26,5.14-1.11A6.56,6.56,0,0,0,345.79,88c-.41-2.51-3.29-3.46-5.51-2.94-.94.22-.54,1.66.4,1.44,1.24-.28,3.2.08,3.58,1.5a4.83,4.83,0,0,1-.82,4c-.66.94-2.05,2-3.26,1.44s-1.27-2.14-1.26-3.22c0-1.53.48-3.46,2.19-3.9a.75.75,0,0,0-.4-1.44Z" transform="translate(0 0)"/><path class="cls-1" d="M352.08,90.26a6.83,6.83,0,0,0-3.32.41.82.82,0,0,0-.45.35.71.71,0,0,0-.07.57.76.76,0,0,0,.92.53,6.59,6.59,0,0,1,.75-.25l.39-.09.17,0,.11,0h-.06a6.78,6.78,0,0,1,1.56,0,.75.75,0,0,0,.53-1.28h0a.87.87,0,0,0-.53-.22Z" transform="translate(0 0)"/><path class="cls-1" d="M350.73,90.9a25.74,25.74,0,0,0-.68-8l-1.1.84A18,18,0,0,1,355.76,89c.46.57,1.22,0,1.28-.53a22.16,22.16,0,0,0-.34-7.22.75.75,0,0,0-.72-.55l-1.46.14.38,1.4a11.62,11.62,0,0,1,2.31-1.16c.9-.33.51-1.78-.4-1.45A14.06,14.06,0,0,0,354.14,81c-.58.37-.41,1.48.38,1.4l1.46-.14-.73-.55a20.82,20.82,0,0,1,.29,6.82l1.28-.53a18.73,18.73,0,0,0-7.12-5.49.76.76,0,0,0-1.1.85,24.1,24.1,0,0,1,.63,7.57c-.07,1,1.43,1,1.5,0Z" transform="translate(0 0)"/><path class="cls-1" d="M359.59,80.92,362.88,79a.75.75,0,0,0,.27-1,.74.74,0,0,0-1-.27l-3.3,1.88a.76.76,0,0,0-.26,1A.74.74,0,0,0,359.59,80.92Z" transform="translate(0 0)"/><path class="cls-1" d="M366.58,84.7a15.58,15.58,0,0,0-4.11,1.7.75.75,0,0,0,.76,1.3c.31-.19.62-.36.93-.52l.45-.21.26-.12h0l.1,0a14.93,14.93,0,0,1,2-.65.75.75,0,0,0-.4-1.45Z" transform="translate(0 0)"/><path class="cls-1" d="M366,85a6.57,6.57,0,0,0-1.42-3.18c-.43-.43-.94-.74-1.39-1.13s-.92-.91-1.36-1.38a.75.75,0,1,0-1.06,1.06c.41.44.82.88,1.26,1.28s.93.72,1.35,1.11a3,3,0,0,1,.73,1.07,11.75,11.75,0,0,1,.44,1.57.76.76,0,0,0,.93.52A.75.75,0,0,0,366,85Z" transform="translate(0 0)"/><path class="cls-1" d="M365.87,82.36a4.43,4.43,0,0,1,0-.52,2.28,2.28,0,0,1,0-.26c0,.19,0-.09,0-.12a6.17,6.17,0,0,1,.26-1c0-.08.05-.15.08-.22-.06.16,0-.09.06-.11a4,4,0,0,1,.24-.46l.28-.44.08-.1h0c.05-.07.11-.13.17-.2a.75.75,0,0,0,0-1.06.77.77,0,0,0-1.07,0,6.79,6.79,0,0,0-1.67,4.45.75.75,0,1,0,1.5,0Z" transform="translate(0 0)"/><path class="cls-1" d="M365,78.42a21.9,21.9,0,0,0,3.62-.17.89.89,0,0,0,.53-.22.84.84,0,0,0,.22-.53c0-.37-.34-.81-.75-.75a21.9,21.9,0,0,1-3.62.17.75.75,0,0,0,0,1.5Z" transform="translate(0 0)"/><path class="cls-1" d="M177.64,175.11a6.66,6.66,0,0,0,.85-.31c.22-.1.5-.19.5-.48a4.77,4.77,0,0,0-.49-1.69c-.14-.22-.36-.13-.56,0L177,173c-.23.1-.46.19-.35.48s.26.62.38.94a18.34,18.34,0,0,1,.68,2.18c0,.19.33.11.29-.08a19,19,0,0,0-.58-1.91c-.11-.3-.22-.6-.34-.89l-.09-.21,0-.1c-.05,0-.05-.05,0-.06a.72.72,0,0,1,.2-.09l.24-.11.45-.19.2-.09.15-.07s0,0,0,0a.82.82,0,0,1,.09.19l.09.22c.05.16.1.31.14.47a3.55,3.55,0,0,1,.09.47c0,.06,0,.15,0,.21a.61.61,0,0,1-.18.09,6.12,6.12,0,0,1-.93.35.15.15,0,0,0-.1.19.15.15,0,0,0,.18.1Z" transform="translate(0 0)"/><path class="cls-1" d="M180.28,175.81l-.4-2.32-.09-.55a.52.52,0,0,1,.15-.56,1.48,1.48,0,0,1,.8-.37,3.86,3.86,0,0,1,.9,0c.07,0,.16,0,.21.06a1.07,1.07,0,0,1,0,.31v.54a1.6,1.6,0,0,1,0,.31c0,.1-.11.1-.2.13l-.59.19-1.12.37a.15.15,0,0,0-.1.19.24.24,0,0,0,.1.1,7.83,7.83,0,0,1,2.58,1.17c.16.12.31-.14.15-.25a8.07,8.07,0,0,0-2.65-1.21v.29l1.12-.37.52-.17a.88.88,0,0,0,.41-.17.48.48,0,0,0,.08-.35v-.62c0-.23.09-.67-.19-.78a1.23,1.23,0,0,0-.38,0h-.49a2.8,2.8,0,0,0-.86.17,1.4,1.4,0,0,0-.65.5,1.15,1.15,0,0,0,0,.91l.45,2.64c0,.19.32.11.29-.08Z" transform="translate(0 0)"/><path class="cls-1" d="M184.08,170.86c-.29,0-.67-.1-.72.28s-.06.77-.08,1.16,0,.77,0,1.16V174a.39.39,0,0,0,.11.34.67.67,0,0,0,.42,0l.53-.06c.24,0,.66-.05.76-.34a1.81,1.81,0,0,0,.07-.52c0-.2,0-.4,0-.61,0-.38,0-.76,0-1.15,0-.21,0-.43,0-.64s0-.32-.16-.41a.89.89,0,0,0-.51-.06,2.9,2.9,0,0,0-.59.09.16.16,0,0,0-.1.19.15.15,0,0,0,.18.1,1.94,1.94,0,0,1,.79-.08c.08,0,.07.06.08.14a1.23,1.23,0,0,1,0,.2c0,.14,0,.29,0,.44a13.62,13.62,0,0,1,0,1.69c0,.14,0,.27,0,.41s0,.13-.09.16a.73.73,0,0,1-.2.05,5.18,5.18,0,0,1-.87.11h-.1s0,.08,0,0a.74.74,0,0,1,0-.21v-.44c0-.29,0-.57,0-.85s0-.64.05-1c0-.08,0-.16,0-.24a.58.58,0,0,1,0-.23c.08-.15,0,0,0,0a.66.66,0,0,1,.14,0h.28a.16.16,0,0,0,.15-.16.15.15,0,0,0-.15-.14Z" transform="translate(0 0)"/><path class="cls-1" d="M187.85,169.64a3,3,0,0,0-1.55.27.16.16,0,0,0-.08.13,8.45,8.45,0,0,0,.32,3c.1.21.21.35.45.36a3.31,3.31,0,0,0,.83-.1,2.13,2.13,0,0,0,.72-.25c.22-.15.09-.42,0-.62s-.1-.59-.36-.65a1.7,1.7,0,0,0-.45,0h-.54a.15.15,0,0,0-.15.15.15.15,0,0,0,.15.15c.15,0,.31,0,.47,0h.2a.74.74,0,0,1,.21,0c.11,0,.13.28.16.38s.13.32.09.37-.31.12-.4.15l-.37.09a3,3,0,0,1-.43,0c-.16,0-.22,0-.3-.1-.47-.87-.25-2-.33-2.91l-.07.13a2.7,2.7,0,0,1,1.4-.23c.19,0,.19-.29,0-.3Z" transform="translate(0 0)"/><path class="cls-1" d="M189.63,168.83a16,16,0,0,0,.18,3.78c0,.18.28.12.29,0,0-.64.05-1.28,0-1.93,0-.19-.31-.19-.3,0,0,.65,0,1.29,0,1.93l.29,0a16.37,16.37,0,0,1-.16-3.7c0-.2-.29-.19-.3,0Z" transform="translate(0 0)"/><path class="cls-1" d="M189.88,169a3.72,3.72,0,0,1,.59-.2,1.31,1.31,0,0,1,.59-.05.7.7,0,0,1,.42.79,2.32,2.32,0,0,1-.47,1,1.67,1.67,0,0,1-.38.37c-.12.08-.15.05-.2-.07a.8.8,0,0,1-.06-.3l-.23.13a7.13,7.13,0,0,1,1.72,1.47c.12.15.33-.06.21-.21a7.4,7.4,0,0,0-1.78-1.52.15.15,0,0,0-.2.06.19.19,0,0,0,0,.07,1,1,0,0,0,.27.71c.19.14.45-.07.6-.19a2.74,2.74,0,0,0,.82-1.36.95.95,0,0,0-1.16-1.25,3.05,3.05,0,0,0-.87.28c-.17.08,0,.34.15.25Z" transform="translate(0 0)"/><path class="cls-1" d="M192.65,168.1a10.88,10.88,0,0,0,.41,3.63.15.15,0,0,0,.19.09.14.14,0,0,0,.1-.17,10.63,10.63,0,0,1-.4-3.55c0-.19-.29-.19-.3,0Z" transform="translate(0 0)"/><path class="cls-1" d="M193.21,171.88a6,6,0,0,0,1,0,.14.14,0,0,0,.15-.15.15.15,0,0,0-.15-.15,6,6,0,0,1-1,0,.15.15,0,0,0-.15.15A.15.15,0,0,0,193.21,171.88Z" transform="translate(0 0)"/><path class="cls-1" d="M193.11,169.79a4.79,4.79,0,0,1,1,0,.16.16,0,0,0,.16-.15.15.15,0,0,0-.15-.15h0a5.59,5.59,0,0,0-1.08.05.16.16,0,0,0-.1.19.14.14,0,0,0,.18.1Z" transform="translate(0 0)"/><path class="cls-1" d="M193,168.29l1.17-.52a.16.16,0,0,0,.06-.21.16.16,0,0,0-.21-.05l-1.17.52a.15.15,0,0,0-.06.2.16.16,0,0,0,.21.06Z" transform="translate(0 0)"/><path class="cls-1" d="M197.18,166.77c-.48-.1-1.13-.16-1.39.37a1.9,1.9,0,0,0-.11.78c0,.22,0,.55.24.68a.5.5,0,0,0,.34.06h.49c.07,0,.2,0,.25,0a.74.74,0,0,1,0,.21c0,.15,0,.31,0,.46v.27a.67.67,0,0,1,0,.2s-.17.05-.21.07l-.2.06-1,.3a.14.14,0,0,0-.1.18.15.15,0,0,0,.18.1l.93-.27.43-.13a.37.37,0,0,0,.22-.14.78.78,0,0,0,0-.37v-.43c0-.15,0-.29,0-.44a.44.44,0,0,0-.09-.31.41.41,0,0,0-.32-.08h-.42c-.14,0-.38.06-.44-.11a1.18,1.18,0,0,1,0-.46c0-.26,0-.56.25-.71a1.21,1.21,0,0,1,.86,0c.19,0,.27-.26.08-.29Z" transform="translate(0 0)"/><path class="cls-1" d="M200,165.86h-1.08c-.21,0-.6-.08-.68.2a.81.81,0,0,0,0,.41c0,.16.07.32.11.47s.13.64.36.76a.55.55,0,0,0,.38,0l.28-.06c.05,0,.18-.06.23,0s0,.39,0,.49,0,.36,0,.53,0,.44-.08.52a.79.79,0,0,1-.26.08l-.25.07-1.12.32a.15.15,0,0,0-.1.19.16.16,0,0,0,.18.1l1.08-.31a5.7,5.7,0,0,0,.55-.16.33.33,0,0,0,.22-.18,1.41,1.41,0,0,0,.07-.45c0-.16,0-.33,0-.5s0-.35.05-.53a.6.6,0,0,0,0-.35c-.15-.25-.52-.09-.73-.05s-.24.08-.31,0-.06-.13-.07-.17a4.68,4.68,0,0,1-.17-.53c0-.16-.07-.31-.1-.47s0-.1.1-.1H200a.15.15,0,0,0,.15-.15.16.16,0,0,0-.15-.15Z" transform="translate(0 0)"/><path class="cls-1" d="M201.38,165.2a20,20,0,0,0,.1,3.63c0,.19.33.19.3,0a20,20,0,0,1-.1-3.63C201.69,165,201.39,165,201.38,165.2Z" transform="translate(0 0)"/><path class="cls-1" d="M202.83,164.79a10.35,10.35,0,0,0,1.23,3.37.15.15,0,0,0,.21.05.14.14,0,0,0,.07-.12,10.72,10.72,0,0,1,.21-3,.15.15,0,0,0-.11-.19.16.16,0,0,0-.18.11,10.89,10.89,0,0,0-.22,3.07l.28-.08a10.22,10.22,0,0,1-1.2-3.3c0-.19-.32-.11-.29.08Z" transform="translate(0 0)"/><path class="cls-1" d="M207.19,162.82h-.51a1.81,1.81,0,0,0-.46,0c-.34.08-.27.46-.27.73v1a1.49,1.49,0,0,0,.15.83.16.16,0,0,0,.21,0l0,0a2,2,0,0,1,.9-.39c.19,0,.11-.32-.08-.29a2.35,2.35,0,0,0-1,.47l.24,0a1.21,1.21,0,0,1-.11-.65v-1.26a.67.67,0,0,1,0-.2s.07,0,.11,0a7.66,7.66,0,0,1,.83,0c.19,0,.19-.29,0-.3Z" transform="translate(0 0)"/><path class="cls-1" d="M206,165.1a4.88,4.88,0,0,0,.1,1.57.37.37,0,0,0,.16.27.45.45,0,0,0,.36,0l.78-.23a.15.15,0,0,0-.08-.29l-.67.2-.16.05-.07,0s0,0,0,0a.19.19,0,0,1,0-.08l0-.17a4.56,4.56,0,0,1-.06-1.33.15.15,0,1,0-.3,0Z" transform="translate(0 0)"/><path class="cls-1" d="M211.72,161.39a1.74,1.74,0,0,0-1.64.4.88.88,0,0,0,.11,1.24l0,0a1.75,1.75,0,0,0,.76.34c.15,0,.31,0,.4.18a1.26,1.26,0,0,1,.16.46,1.47,1.47,0,0,1,0,.51.21.21,0,0,1-.17.23l-.2.07c-.34.12-.68.24-1,.33a.16.16,0,0,0-.1.19.14.14,0,0,0,.18.1c.32-.09.64-.19.95-.3s.55-.14.63-.39a1.64,1.64,0,0,0,0-.88,1.1,1.1,0,0,0-.39-.69c-.25-.13-.57-.12-.83-.25a.71.71,0,0,1-.43-.69c.13-.7,1-.65,1.55-.58.2,0,.19-.28,0-.3Z" transform="translate(0 0)"/><path class="cls-1" d="M214.71,160.62a1.68,1.68,0,0,0-1.85,1,2.06,2.06,0,0,0,.61,2.25,1.1,1.1,0,0,0,1.32-.07c.15-.11,0-.37-.15-.26a1,1,0,0,1-.64.22.76.76,0,0,1-.55-.35,1.81,1.81,0,0,1-.41-1.16,1.4,1.4,0,0,1,1.39-1.4h.2C214.82,161,214.9,160.66,214.71,160.62Z" transform="translate(0 0)"/><path class="cls-1" d="M216.33,162.56a8,8,0,0,1,.24-2.48l.12-.43.06-.18a.9.9,0,0,0,.08-.21s0,0-.06,0l.06.1a1.19,1.19,0,0,1,.08.16,3,3,0,0,1,.14.39l.24.83.5,1.73a.15.15,0,0,0,.19.1.15.15,0,0,0,.1-.18l-.59-2a9.15,9.15,0,0,0-.29-.93c-.08-.18-.23-.57-.48-.5s-.15.14-.19.24l-.15.42a8.19,8.19,0,0,0-.35,2.93c0,.19.32.19.3,0Z" transform="translate(0 0)"/><path class="cls-1" d="M216.22,161.43a3.8,3.8,0,0,0,1.07-.38.15.15,0,0,0,.06-.2.15.15,0,0,0-.21-.06h0a3.52,3.52,0,0,1-1,.36.15.15,0,1,0,.08.28Z" transform="translate(0 0)"/><path class="cls-1" d="M219.1,161.88c0-1.14,0-2.28,0-3.43l-.28.08c.71,1,.92,2.19,1.7,3.11.09.11.25,0,.26-.1l.13-2.48c0-.19-.29-.19-.3,0l-.13,2.48.25-.11c-.75-.9-1-2.11-1.65-3.05a.16.16,0,0,0-.21,0,.15.15,0,0,0-.07.12c0,1.15,0,2.29,0,3.43a.15.15,0,0,0,.15.15.16.16,0,0,0,.15-.15Z" transform="translate(0 0)"/><path class="cls-1" d="M385.22,16.26c2.47.55,4.8,1.49,7.2,2.27A39.94,39.94,0,0,0,399.69,20c5.1.69,9.19,3.6,13.14,6.71a30,30,0,0,1,9.09,10.87,54.51,54.51,0,0,1,3.91,13.59c1.05,5.76,1.82,11.59,3.7,17.16.31.91,1.76.52,1.45-.4-3.3-9.78-3.16-20.43-7.26-30a29.75,29.75,0,0,0-8.78-11.48c-3.62-2.95-7.51-6-12.07-7.36-2.87-.83-5.9-.77-8.78-1.59s-5.57-2-8.47-2.67c-.94-.21-1.34,1.24-.4,1.45Z" transform="translate(0 0)"/><path class="cls-1" d="M433.1,55.62c.85,1,2.12,1.79,3.32.85s.94-2.64.56-4c-1.09-3.85-2.13-7.72-3.31-11.54-.76-2.47-2.05-5.78-4.81-6.62a1.5,1.5,0,0,0-1.94.9,1.44,1.44,0,0,0-.06.87,12.7,12.7,0,0,0,.75,2.41l1.07,3.13,4.48,13.09c.31.91,1.76.52,1.45-.4L431,43.78l-1.87-5.48c-.12-.34-1-2.3-.66-2.52s1.46,1,1.63,1.22c2,2.26,2.56,5.83,3.36,8.64L435,51.08a26.59,26.59,0,0,1,.77,2.78c.07.39.14,1.25-.34,1.48s-1-.46-1.29-.78c-.63-.73-1.68.34-1.06,1.06Z" transform="translate(0 0)"/><path class="cls-1" d="M448.64,64.4c-.9-7.13-1.77-14.27-2.71-21.4a52.86,52.86,0,0,0-2.22-9.78c-1-3-1.64-6.1-2.71-9.06a14.32,14.32,0,0,0-4.43-6.47,21.15,21.15,0,0,0-6.87-3.45c-2.86-.91-5.82-1.47-8.75-2.1-3.52-.76-7-1.55-10.57-2.26-6.45-1.29-13.85-1.82-19,3-.71.67.36,1.73,1.06,1.06,4.6-4.34,11.33-3.88,17.09-2.75,6,1.18,12.2,2.34,18.15,4,5.28,1.44,9.93,3.94,11.88,9.35,1,2.74,1.58,5.61,2.49,8.38a54.68,54.68,0,0,1,2.3,9.34c1,7.36,1.87,14.75,2.8,22.12.12.95,1.62,1,1.5,0Z" transform="translate(0 0)"/><path class="cls-1" d="M128.35,125.44A65.76,65.76,0,0,0,118.11,128c-1.63.54-3.24,1.16-4.83,1.84-1,.43-3.32.93-3.37,2.33s1,2.95,1.56,4a11.62,11.62,0,0,0,2.73,3.65c1.31,1,2.39.09,3.51-.7q2.06-1.44,4.22-2.71a63.12,63.12,0,0,1,10.84-5c.9-.32.52-1.77-.4-1.45a65.79,65.79,0,0,0-10,4.52c-1.69.95-3.33,2-4.92,3.06-.51.34-1.58,1.46-2.21,1.21s-1.4-1.59-1.79-2.18a19.43,19.43,0,0,1-1.26-2.28,10.84,10.84,0,0,1-.61-1.55c-.14-.52-.19-.38.29-.65a39.88,39.88,0,0,1,5.72-2.33,65.5,65.5,0,0,1,11.18-2.86C129.7,126.73,129.3,125.29,128.35,125.44Z" transform="translate(0 0)"/><path class="cls-1" d="M303.77,226.39v-2.68l-.28.08a5.43,5.43,0,0,0,1.26,1.74.14.14,0,0,0,.21,0,.15.15,0,0,0,0-.14l-.24-1.77-.28.11,1.12,1.5c.11.15.37,0,.26-.15l-1.12-1.5a.16.16,0,0,0-.21,0,.15.15,0,0,0-.06.16l.24,1.78.25-.14a5.34,5.34,0,0,1-1.21-1.69.15.15,0,0,0-.28.08v2.68a.16.16,0,0,0,.16.15.15.15,0,0,0,.14-.15Z" transform="translate(0 0)"/><path class="cls-1" d="M305.7,223.73a7.37,7.37,0,0,0,.4,1.39.14.14,0,0,0,.18.1.15.15,0,0,0,.11-.18,6.7,6.7,0,0,1-.4-1.39.15.15,0,0,0-.18-.11.16.16,0,0,0-.11.19Z" transform="translate(0 0)"/><path class="cls-1" d="M305.78,223.14a.15.15,0,0,0,.15-.15.15.15,0,0,0-.15-.15.15.15,0,0,0-.14.16A.14.14,0,0,0,305.78,223.14Z" transform="translate(0 0)"/><path class="cls-1" d="M307.27,224.8l-.21-1c0-.12-.09-.3,0-.41a.26.26,0,0,1,.21-.08c.24,0,.39.25.48.45a4.18,4.18,0,0,1,.32.92c0,.19.33.11.29-.08a5.33,5.33,0,0,0-.29-.88,1.28,1.28,0,0,0-.48-.62.61.61,0,0,0-.64,0,.46.46,0,0,0-.21.28,1.14,1.14,0,0,0,0,.45l.22,1.08c0,.19.33.11.29-.08Z" transform="translate(0 0)"/><path class="cls-1" d="M308.72,223.14a.14.14,0,0,0,.14-.15.15.15,0,0,0-.14-.15.16.16,0,0,0-.15.16A.15.15,0,0,0,308.72,223.14Z" transform="translate(0 0)"/><path class="cls-1" d="M308.55,223a11.58,11.58,0,0,0,.43,1.53c.06.18.35.11.29-.08a11.58,11.58,0,0,1-.43-1.53C308.8,222.77,308.51,222.85,308.55,223Z" transform="translate(0 0)"/><path class="cls-1" d="M308.33,222.06a.15.15,0,0,0,.15-.15.16.16,0,0,0-.15-.15.15.15,0,0,0-.14.16A.14.14,0,0,0,308.33,222.06Z" transform="translate(0 0)"/><path class="cls-1" d="M224.93,203.28a55.51,55.51,0,0,0-22.47,1.38c-3.2.85-7.19,2-9.69,4.31a5.9,5.9,0,0,0-1.61,5c.17,2.47.5,4.94.75,7.41,2.11,20.06,4.58,40.11,5.7,60.26a332.64,332.64,0,0,1,.3,34l2.1-.57c-2.55-5-2.56-10.78-4-16.14s-4.59-9.65-7-14.45c-5.37-10.66-3.21-22.82,0-33.77,2-6.63,4.29-13.14,5.77-19.9.3-1.41-1.86-2-2.17-.6-2.62,12-8,23.36-9,35.72a37.09,37.09,0,0,0,2.08,16.67c2.11,5.32,5.86,9.86,7.66,15.3,2,6,1.76,12.57,4.68,18.31.54,1.05,2.05.48,2.1-.57.89-19.24-.31-38.49-2.14-57.64-.91-9.6-2-19.18-3-28.77-.52-4.83-1.06-9.66-1.52-14.5a8.05,8.05,0,0,1,0-2.77,3.7,3.7,0,0,1,2-2.19,27,27,0,0,1,4.56-2,51.68,51.68,0,0,1,24.24-2.28c1.41.22,2-1.95.6-2.17Z" transform="translate(0 0)"/><path class="cls-1" d="M193.69,212.75c10.6,5.15,21.69-.67,30.88-6a1.13,1.13,0,0,0-1.14-1.95c-8.36,4.89-18.86,10.77-28.6,6C193.53,210.18,192.39,212.12,193.69,212.75Z" transform="translate(0 0)"/><path class="cls-1" d="M220.09,180.79c11.31-1.2,21.92-5.31,32.22-9.93,10.67-4.77,21.13-9.85,32.28-13.43,11.74-3.77,23.71-6.74,35.28-11,11.31-4.22,22.31-9.2,33.35-14.09,12.38-5.48,24.85-10.84,37.81-14.84,1.38-.42.79-2.6-.59-2.17-22.93,7.06-44.18,18.37-66.45,27.12-11.44,4.49-23.21,7.75-35,11.29-5.83,1.76-11.6,3.68-17.24,6-5.21,2.14-10.32,4.52-15.43,6.88-11.57,5.32-23.46,10.61-36.26,12C218.66,178.69,218.65,180.94,220.09,180.79Z" transform="translate(0 0)"/><path class="cls-1" d="M217.64,180.24c-6.38-.32-13.27-.32-19.47,1.39-4.06,1.11-7.92,2.63-12.11,3.27a44.62,44.62,0,0,1-12.85.06c-1.41-.19-2,2-.59,2.17a47.86,47.86,0,0,0,12.82.11,69.79,69.79,0,0,0,12-3.05c6.42-2,13.54-2,20.21-1.7,1.44.08,1.44-2.17,0-2.25Z" transform="translate(0 0)"/><path class="cls-1" d="M163.93,136.45c12.86-4.15,25.59-8.68,38.44-12.82q20.94-6.75,41.87-13.54,41.63-13.52,83.08-27.51,23.4-8,46.7-16.21c1.36-.48.77-2.66-.6-2.17Q332,78.92,290.16,92.68,248.63,106.45,207,119.79c-14.58,4.7-29,9.79-43.61,14.49-1.38.45-.79,2.62.59,2.17Z" transform="translate(0 0)"/><path class="cls-1" d="M402.35,208.41c4.88-4.29,10.53-9.5,11.4-16.32.67-5.34-3.2-11.72-9.16-11.19-1.43.13-1.45,2.38,0,2.25a6.15,6.15,0,0,1,5.68,3,8.73,8.73,0,0,1,.94,7.2c-1.5,5.56-6.29,9.78-10.45,13.44-1.09,1,.5,2.54,1.59,1.59Z" transform="translate(0 0)"/><path class="cls-1" d="M376.66,20.8a36.14,36.14,0,0,0-12.92,2.89,2.27,2.27,0,0,0-1.42,1.62c-.17,1,.5,1.69,1.16,2.34A57.57,57.57,0,0,0,368.2,32a6,6,0,0,0,5.28,1.15A53.17,53.17,0,0,0,380,31q3.13-1.17,6.21-2.48c1.55-.67,2.88-2,1.88-3.74s-3.61-2.75-5.47-3.39a19.88,19.88,0,0,0-7-1,1.13,1.13,0,0,0,0,2.25,18.16,18.16,0,0,1,5.82.76,16.46,16.46,0,0,1,2.79,1.13,11.49,11.49,0,0,1,1.08.61,2.81,2.81,0,0,1,.61.48c.34.24.32.46-.09.66a4.71,4.71,0,0,1-1.32.57l-1.47.6L380.3,28.5c-2,.75-4,1.47-6,2.12a6.34,6.34,0,0,1-3,.5,4.72,4.72,0,0,1-2.19-1.27c-.69-.61-1.34-1.26-2-1.9-.23-.22-2.39-1.93-2.32-2.21s2.14-.81,2.55-.94c1-.32,2-.59,3-.83a41.36,41.36,0,0,1,6.35-.92c1.44-.09,1.45-2.34,0-2.25Z" transform="translate(0 0)"/><path class="cls-1" d="M9.53,145A30.07,30.07,0,0,0,3.13,159a1.16,1.16,0,0,0,.79,1.38,1.13,1.13,0,0,0,1.38-.78,28,28,0,0,1,5.82-13.08,1.16,1.16,0,0,0,0-1.59,1.12,1.12,0,0,0-1.59,0Z" transform="translate(0 0)"/><path class="cls-1" d="M6.35,156.36a1.13,1.13,0,0,0,0-2.25,1.14,1.14,0,0,0-1.09,1.17A1.12,1.12,0,0,0,6.35,156.36Z" transform="translate(0 0)"/><path class="cls-1" d="M6.61,153a11.25,11.25,0,0,0-1.84,2.84.9.9,0,0,0-.13.42.86.86,0,0,0,0,.45,1.12,1.12,0,0,0,.52.67,1.08,1.08,0,0,0,.86.12,1.11,1.11,0,0,0,.68-.52A9.89,9.89,0,0,1,8,154.83l-.18.23c.13-.16.25-.32.39-.47a1.22,1.22,0,0,0,.33-.79,1.18,1.18,0,0,0-.33-.8,1.15,1.15,0,0,0-.8-.33,1.11,1.11,0,0,0-.79.33Z" transform="translate(0 0)"/><path class="cls-1" d="M8.56,153.22c.12-.19.24-.38.37-.57l.21-.28,0,0,.11-.13a10.89,10.89,0,0,1,.93-1c.16-.14.32-.29.49-.42l.15-.12c-.07.05-.19.14,0,0l.26-.19a11,11,0,0,1,1.19-.71,1.13,1.13,0,0,0,.41-1.54,1.15,1.15,0,0,0-1.54-.41,11.43,11.43,0,0,0-4.44,4.15,1.13,1.13,0,1,0,2,1.13Z" transform="translate(0 0)"/><path class="cls-1" d="M336.78,141.78a18.14,18.14,0,0,0,.6,4.75.38.38,0,0,0,.47.24.36.36,0,0,0,.25-.44,17.52,17.52,0,0,1-.57-4.55.38.38,0,0,0-.75,0Z" transform="translate(0 0)"/><path class="cls-1" d="M337.67,141.63h0l.06,0c.07,0-.05,0,0,0h.07s-.05,0,0,0l.11,0c.09,0-.05,0,0,0s.12.09.06,0l.08.07s.06.08,0,0a1,1,0,0,1,.17.45s0,.11,0,0,0,.1,0,.16a2.25,2.25,0,0,1,0,.26h0a.24.24,0,0,1,0,.08c0,.09,0,0,0,0l0,0s0,0,0,0l-.06.07c-.06.06,0,0,0,0l-.09.06-.08,0c.08,0,0,0,0,0-.29.11-.58.17-.86.3a.38.38,0,0,0-.14.51.39.39,0,0,0,.52.14h0l.08,0,.21-.07.39-.12a1.3,1.3,0,0,0,.73-.55,1.78,1.78,0,0,0,.09-1.16,1.53,1.53,0,0,0-.54-.95,1.1,1.1,0,0,0-1.2-.13.39.39,0,0,0-.14.52.4.4,0,0,0,.52.13Z" transform="translate(0 0)"/><path class="cls-1" d="M340.31,145.12c0-.64,0-1.28,0-1.92a11.66,11.66,0,0,1,.09-1.87c0-.18.1-.43.3-.48s.24.24.28.37c.11.4.05,1.07-.51,1a.38.38,0,0,0-.27.64A22,22,0,0,1,342,145a.4.4,0,0,0,.51.14.39.39,0,0,0,.14-.52,25.05,25.05,0,0,0-2-2.28l-.26.64a1.31,1.31,0,0,0,1.32-1.32,1.09,1.09,0,0,0,0-.18,1.83,1.83,0,0,0-.41-1.12.9.9,0,0,0-1.05-.17c-.77.38-.71,1.42-.74,2.14q0,1.39,0,2.79c0,.48.77.48.75,0Z" transform="translate(0 0)"/><path class="cls-1" d="M342.18,139.38a13,13,0,0,0,.21,3.41q.08.41.18.81c.07.24.11.54.34.68s.52,0,.77-.09l.78-.38c.43-.21.05-.86-.38-.65l-.51.25a1.62,1.62,0,0,1-.42.2l.19,0c.05.06.06,0,0,0l0-.12c0-.09-.05-.17-.07-.26l-.12-.55c-.07-.36-.13-.71-.17-1.07a13.84,13.84,0,0,1,0-2.23c0-.48-.71-.48-.75,0Z" transform="translate(0 0)"/><path class="cls-1" d="M343,142h.58a.36.36,0,0,0,.26-.11.37.37,0,0,0,0-.53h0a.36.36,0,0,0-.26-.11H343a.39.39,0,0,0-.27.11.37.37,0,0,0,0,.53h0A.39.39,0,0,0,343,142Z" transform="translate(0 0)"/><path class="cls-1" d="M342.69,139.9h.87a.36.36,0,0,0,.26-.11.37.37,0,0,0,0-.53.36.36,0,0,0-.26-.11h-.87a.39.39,0,0,0-.27.11.37.37,0,0,0,0,.53A.39.39,0,0,0,342.69,139.9Z" transform="translate(0 0)"/><path class="cls-1" d="M345.89,138c-.73,0-1.16.69-1.31,1.32a6.13,6.13,0,0,0-.07,2,1.69,1.69,0,0,0,1,1.51,1.48,1.48,0,0,0,1.59-.36c.33-.35-.2-.89-.53-.53a.76.76,0,0,1-.82.19c-.39-.15-.48-.63-.51-1a6.28,6.28,0,0,1,0-1.5c.05-.3.21-.93.62-.93a.38.38,0,0,0,0-.75Z" transform="translate(0 0)"/><path class="cls-1" d="M347.83,138.44a.42.42,0,0,0-.28-.52h0a.43.43,0,0,0-.51.33v0a1.36,1.36,0,0,0,.12.63l.16.62L348,142a.39.39,0,0,0,.48.24.38.38,0,0,0,.25-.44l-.48-1.76-.24-.86-.11-.41a1.91,1.91,0,0,1-.11-.41l-.05.19,0,0-.23.18h-.13l-.23-.17,0,0,0-.29v0a.38.38,0,0,0,.73.2Z" transform="translate(0 0)"/><path class="cls-1" d="M349.59,136.73a1.49,1.49,0,0,0-1.24.91,1.51,1.51,0,0,0,.3,1.56,1.67,1.67,0,0,0,.67.44c.17.07.41.11.5.29.24.49-.42,1-.72,1.2a.37.37,0,0,0,0,.53.39.39,0,0,0,.53,0,2.23,2.23,0,0,0,.94-1.25,1.15,1.15,0,0,0-.61-1.32c-.4-.19-.87-.28-1-.8a.73.73,0,0,1,.59-.81.38.38,0,0,0,.37-.38.37.37,0,0,0-.37-.37Z" transform="translate(0 0)"/><path class="cls-1" d="M350.62,137.13a15.37,15.37,0,0,0,.93,4,.38.38,0,0,0,.46.26.37.37,0,0,0,.26-.46,15.18,15.18,0,0,1-.9-3.82.38.38,0,0,0-.75,0Z" transform="translate(0 0)"/><path class="cls-1" d="M352.7,136.21a2.15,2.15,0,0,1-.17.9,2.34,2.34,0,0,0,0,.95,1.43,1.43,0,0,0,1.23,1.2,1.15,1.15,0,0,0,1.25-.94,2.79,2.79,0,0,0-.21-1.8,1.36,1.36,0,0,0-1.78-.69.37.37,0,0,0-.14.51.39.39,0,0,0,.51.13.51.51,0,0,1,.17,0h.08c-.07,0,0,0,0,0l.07,0c.09,0,0,0,.05,0a.69.69,0,0,1,.37.38,2.19,2.19,0,0,1,.16.57c0,.11,0,.21,0,.32v.15a.22.22,0,0,1,0,.08c0,.11,0-.06,0,.05a.74.74,0,0,1,0,.14.14.14,0,0,1,0,.07s0,.06,0,0l-.07.12c0-.06-.08.08-.05.05l-.08.05c-.06,0,0,0,0,0h-.06c-.06,0,0,0,0,0h-.14c-.09,0,0,0,0,0l-.13,0-.07,0a.73.73,0,0,1-.16-.14.92.92,0,0,1-.18-.5v-.21c0-.06,0-.12,0-.13a3.6,3.6,0,0,1,.12-.44,2.13,2.13,0,0,0,.09-1,.38.38,0,0,0-.47-.26.37.37,0,0,0-.26.45Z" transform="translate(0 0)"/><path class="cls-1" d="M355.87,138.58l-.11-2.75a.39.39,0,0,0-.39-.36.38.38,0,0,0-.36.36c0,.53.55.87.9,1.19l1.19,1.11a.39.39,0,0,0,.54,0,.37.37,0,0,0,.09-.35c-.29-1.1-.56-2.21-.79-3.33-.1-.48-.82-.28-.72.19.23,1.12.49,2.24.79,3.34l.63-.36-1-.95-.49-.45-.23-.22s-.13-.09-.13-.15H355l.11,2.75c0,.48.77.49.75,0Z" transform="translate(0 0)"/><path class="cls-1" d="M359.25,133.14a9.51,9.51,0,0,0,.29,3.23,5.28,5.28,0,0,0,.24.77.65.65,0,0,0,.49.48,1.34,1.34,0,0,0,.77-.28l.78-.41c.43-.22.05-.87-.38-.65l-.6.32-.33.17-.14.08-.07,0,.2.06a1.06,1.06,0,0,0-.09-.25l-.09-.3c-.06-.22-.12-.44-.16-.66a8.68,8.68,0,0,1-.16-2.59.39.39,0,0,0-.38-.38.38.38,0,0,0-.37.38Z" transform="translate(0 0)"/><path class="cls-1" d="M362.46,131.79c-1.24.62-1.06,2.25-.84,3.38a1.77,1.77,0,0,0,.91,1.36,1.09,1.09,0,0,0,1.39-.38.38.38,0,0,0-.65-.38.24.24,0,0,1-.23.11.6.6,0,0,1-.34-.11,1.71,1.71,0,0,1-.39-1c-.13-.75-.3-1.88.53-2.3C363.27,132.22,362.89,131.57,362.46,131.79Z" transform="translate(0 0)"/><path class="cls-1" d="M363.63,131.57a21.94,21.94,0,0,0,.93,3.84c.16.45.89.26.73-.2a22,22,0,0,1-.94-3.84.37.37,0,0,0-.46-.26A.38.38,0,0,0,363.63,131.57Z" transform="translate(0 0)"/><path class="cls-1" d="M364.25,131.67c.74-.09.88,1,.93,1.48a5.24,5.24,0,0,1-.31,2.29.37.37,0,0,0,.26.46.38.38,0,0,0,.46-.26,5.84,5.84,0,0,0,.29-2.9c-.12-.83-.59-2-1.63-1.82a.39.39,0,0,0-.38.38.38.38,0,0,0,.38.37Z" transform="translate(0 0)"/><path class="cls-1" d="M368.25,130c0,1.48,0,3,.05,4.43a.36.36,0,0,0,.38.36.37.37,0,0,0,.37-.36l0-4.07-.7.19.71,1.35c.18.35.43.81.9.75.18,0,.4-.16.37-.38a9.82,9.82,0,0,1,0-2.54h-.73c.43,1.22.82,2.46,1.15,3.71a.37.37,0,0,0,.47.24.37.37,0,0,0,.26-.44c-.34-1.25-.72-2.48-1.15-3.71-.11-.31-.67-.4-.73,0a10.48,10.48,0,0,0,0,2.74l.38-.37c-.08,0-.08,0,0,0l-.05-.05a1.1,1.1,0,0,0-.09-.14c-.1-.18-.18-.36-.28-.53l-.54-1a.38.38,0,0,0-.52-.12.39.39,0,0,0-.17.31l0,4.07h.75C369,133,369,131.49,369,130a.38.38,0,0,0-.39-.36.37.37,0,0,0-.36.36Z" transform="translate(0 0)"/><path class="cls-1" d="M374.07,131.83a9.25,9.25,0,0,0,0-1.18,4.19,4.19,0,0,0-.21-1.11,1.41,1.41,0,0,0-.68-.78.93.93,0,0,0-1,.12c-.3.29-.24.75-.24,1.12s0,.75,0,1.12a1.71,1.71,0,0,0,1,1.75,1,1,0,0,0,1.22-.62,1,1,0,0,0,0-.68.38.38,0,0,0-.52-.13.38.38,0,0,0-.13.51s0,.06,0,0a.15.15,0,0,1,0,.11.36.36,0,0,1-.16.11c-.15,0-.35-.15-.44-.31a1.57,1.57,0,0,1-.15-.8c0-.35,0-.71,0-1.06a4.69,4.69,0,0,1,0-.53c0-.07,0-.08,0,0s0,0,.08,0,.35.22.42.38a3.46,3.46,0,0,1,.17,1,9.74,9.74,0,0,1,0,1.08.37.37,0,0,0,.39.36.39.39,0,0,0,.36-.36Z" transform="translate(0 0)"/><path class="cls-1" d="M375,131.17A25.85,25.85,0,0,1,375,128l-.7.19,1.93,2.53a.38.38,0,0,0,.52.11.36.36,0,0,0,.16-.4l-.47-3.06a.37.37,0,0,0-.46-.26.38.38,0,0,0-.27.46l.48,3.06.69-.29L375,127.81a.38.38,0,0,0-.52-.12.4.4,0,0,0-.18.31,25.85,25.85,0,0,0-.07,3.17c0,.48.77.49.75,0Z" transform="translate(0 0)"/><path class="cls-1" d="M376.77,127a14.31,14.31,0,0,0,.71,3.73c.15.46.87.26.72-.2a13.7,13.7,0,0,1-.68-3.53c0-.48-.78-.48-.75,0Z" transform="translate(0 0)"/><path class="cls-1" d="M378.19,127.23a1.14,1.14,0,0,0,.56-.19,1.92,1.92,0,0,0,.39-.36l.32-.37.08-.08s.07-.08.09-.08-.09.06,0,0l0,0,.11-.06a.37.37,0,0,0,.13-.51.37.37,0,0,0-.51-.14,2.39,2.39,0,0,0-.72.66l-.15.17a.6.6,0,0,1-.08.08l-.08.07s.09-.06,0,0l0,0-.09,0h0l0,0c-.06,0,.11,0,0,0a.38.38,0,1,0,0,.75Z" transform="translate(0 0)"/><path class="cls-1" d="M378.56,126.67c0,1,0,1.89,0,2.84a.38.38,0,0,0,.38.37.38.38,0,0,0,.37-.37c-.05-.95-.05-1.89,0-2.84a.37.37,0,0,0-.38-.37A.36.36,0,0,0,378.56,126.67Z" transform="translate(0 0)"/><path class="cls-1" d="M380.73,125.33a4.31,4.31,0,0,0-.52,2,1.92,1.92,0,0,0,.46,1.62,1.22,1.22,0,0,0,1.69-.22,2,2,0,0,0,.17-2,2.61,2.61,0,0,0-.58-1,1.35,1.35,0,0,0-1.16-.4.38.38,0,0,0,.2.73.59.59,0,0,1,.47.24,1.81,1.81,0,0,1,.33.61,1.53,1.53,0,0,1,0,1.38.67.67,0,0,1-.37.24h-.17a.4.4,0,0,1-.15-.1.86.86,0,0,1-.1-.16,1.32,1.32,0,0,1-.07-.3,2.91,2.91,0,0,1,0-.59,3.51,3.51,0,0,1,.42-1.64.38.38,0,0,0-.15-.51.39.39,0,0,0-.5.13Z" transform="translate(0 0)"/><path class="cls-1" d="M383.61,127.47l-.06-1.28,0-.63v-.25a1,1,0,0,1,0-.11s0,0,0,0l0,0c0-.05,0,0,0,0l.06-.06c-.05,0,0,0,0,0l0,0s-.05,0,0,0l.1,0c.06,0-.06,0,0,0h.13c.05,0-.06,0,0,0l.08,0h0a.05.05,0,0,1,0,0s.08,0,0,0l0,0s0,0,0,0,0-.05,0,0,0,.08,0,0a.34.34,0,0,1,0,.1s0,0,0,0,0,0,0,0l0,.1s0,0,0,0l0,0,0,.06s0,0,0,0,0,0,0,0,0,0,0,0l0,0s0,0,0,0h-.05s.08,0,0,0a.38.38,0,0,0-.26.64,23.22,23.22,0,0,0,1.81,1.47.4.4,0,0,0,.52-.13.39.39,0,0,0-.14-.52,21.27,21.27,0,0,1-1.66-1.35l-.27.64a1.07,1.07,0,0,0,.94-.75,1,1,0,0,0-.36-1.15,1.14,1.14,0,0,0-1.13,0,1.17,1.17,0,0,0-.55,1.2l.09,1.86a.38.38,0,0,0,.38.37.37.37,0,0,0,.37-.37Z" transform="translate(0 0)"/><path class="cls-1" d="M178,155.51a23.21,23.21,0,0,1,4.19-1c.21,0,2.18-.1,2.21-.17l-.42-.29v1.81c0,.41,0,.81,0,1.21a1.26,1.26,0,0,1,0,.51c-.1.14-.46.24-.61.31l-1.1.47-4.1,1.75,1.13,1.94a6.15,6.15,0,0,1,4.21-1.17,1.75,1.75,0,0,1,1.31,2.08,1.46,1.46,0,0,1-.05.2,4.59,4.59,0,0,1-2.58,2.64c-1.46.75-3,1.2-4.48,2-1.26.7-.13,2.65,1.14,1.95,1.81-1,3.9-1.47,5.61-2.69a5.53,5.53,0,0,0,2.61-4.59,3.83,3.83,0,0,0-2.89-3.73,8.07,8.07,0,0,0-6,1.38,1.12,1.12,0,0,0,1.13,1.94c1.8-.76,3.63-1.47,5.4-2.3s1.56-2.87,1.54-4.64c0-.9.12-1.93-.62-2.58a3.15,3.15,0,0,0-2.43-.38,25.25,25.25,0,0,0-5.78,1.18c-1.37.45-.79,2.62.59,2.17Z" transform="translate(0 0)"/><path class="cls-1" d="M194.34,152.82c-1.66,0-3.37.24-4.52,1.56a6,6,0,0,0-1.41,4.31,11.7,11.7,0,0,0,.5,2.7,8.32,8.32,0,0,0,.89,2.31,1.79,1.79,0,0,0,1.08.74,2.49,2.49,0,0,0,1.49-.26l2.48-1a1.15,1.15,0,0,0,.79-1.38,1.12,1.12,0,0,0-1.38-.78l-2,.78a4.74,4.74,0,0,0-1,.37l-.14.05a.42.42,0,0,1,.43.15c.1.11.11.1,0,0h0a11.13,11.13,0,0,1-1-3.84,3.8,3.8,0,0,1,.76-2.54,3.58,3.58,0,0,1,2.93-.91,1.13,1.13,0,0,0,0-2.25Z" transform="translate(0 0)"/><path class="cls-1" d="M202.93,157.91l-2,.8-.95.39a5.14,5.14,0,0,0-.94.38c-.28.09-.1.2.53.35-.06-.11-.08-.14-.05-.08s-.11-.33-.15-.44c-.1-.31-.2-.62-.29-.93a7,7,0,0,1-.35-1.76,3.17,3.17,0,0,1,.79-2.53,3.57,3.57,0,0,1,1.23-.66,19,19,0,0,0,1.89-.74,1.13,1.13,0,0,0-1.14-1.94c-1.32.65-2.83.84-3.83,2a5.67,5.67,0,0,0-1.15,4.31,12.6,12.6,0,0,0,.58,2.5c.27.82.52,1.83,1.46,2.11s1.81-.36,2.57-.66l2.39-1a1.17,1.17,0,0,0,.79-1.39,1.14,1.14,0,0,0-1.39-.78Z" transform="translate(0 0)"/><path class="cls-1" d="M204.14,150.29c.48,2.75.87,5.51,1.15,8.29a1.15,1.15,0,0,0,1.17,1.12l.26,0a13.82,13.82,0,0,0,2.36-.76,7.13,7.13,0,0,0,2.31-1.26,3.14,3.14,0,0,0,.65-2.49c0-.86,0-1.71,0-2.57,0-1.63.13-3.62-1.48-4.58s-3.3-.22-4.74.58c-1.26.7-.13,2.64,1.14,1.94.66-.37,1.92-1.14,2.58-.5.21.21.21.79.22,1.13,0,.67,0,1.33,0,2s0,1.34,0,2a2.77,2.77,0,0,1,0,.91c0-.06-.14.08-.21.12a12.23,12.23,0,0,1-3.45,1.31l1.42,1.09q-.45-4.47-1.23-8.88a1.13,1.13,0,0,0-1.38-.79,1.15,1.15,0,0,0-.79,1.38Z" transform="translate(0 0)"/><path class="cls-1" d="M222.42,138.42a35.83,35.83,0,0,0,1.29,8.1.38.38,0,0,0,.47.25.37.37,0,0,0,.25-.45,35.1,35.1,0,0,1-1.26-7.9C223.15,137.94,222.4,137.94,222.42,138.42Z" transform="translate(0 0)"/><path class="cls-1" d="M226.24,138.46a1.72,1.72,0,0,1,1.78.37,2.57,2.57,0,0,1,.8,2.06,9.44,9.44,0,0,1-1.86,4.78c-.26.39.28.71.59.46a35.68,35.68,0,0,1,3.5-2.48c.41-.25,0-.9-.37-.64A33.56,33.56,0,0,0,227,145.6l.59.45a14.28,14.28,0,0,0,1.44-2.77,6.29,6.29,0,0,0,.48-3c-.21-1.59-1.8-3.19-3.49-2.51-.45.18-.25.9.2.72Z" transform="translate(0 0)"/><path class="cls-1" d="M231.59,137.06c.71-.17,2.17-.49,2.44.53s-1.06,1.68-1.57,2.28a.38.38,0,0,0,.46.59,8.25,8.25,0,0,1,2.37-.73c.25,0,.89-.21,1.05,0a2.31,2.31,0,0,1,.1,1,1.52,1.52,0,0,1-.86,1.57,13.93,13.93,0,0,0-1.9.59c-.42.23-.05.87.38.64.74-.4,1.65-.31,2.34-.85a2.68,2.68,0,0,0,.78-2.35,1.79,1.79,0,0,0-.32-1.17,1.36,1.36,0,0,0-1.24-.27,9.21,9.21,0,0,0-3.08.87l.45.59c.75-.89,2.28-1.79,1.7-3.19s-2.17-1.15-3.3-.87c-.47.11-.27.83.2.72Z" transform="translate(0 0)"/><path class="cls-1" d="M238.77,135.27a.36.36,0,0,0,.36-.38.38.38,0,0,0-.36-.37.37.37,0,0,0-.36.39A.36.36,0,0,0,238.77,135.27Z" transform="translate(0 0)"/><path class="cls-1" d="M240,140.35a.38.38,0,0,0,.36-.39.37.37,0,0,0-.36-.36.38.38,0,0,0-.37.38A.39.39,0,0,0,240,140.35Z" transform="translate(0 0)"/><path class="cls-1" d="M242.65,133.76c.23.92.49,1.83.77,2.73.14.44.29.89.44,1.34a7.21,7.21,0,0,0,.48,1.27c.23.41.61.3.92.06l1.18-.94,2.29-1.82a.37.37,0,0,0-.53-.53l-2,1.58-1,.78-.26.2s-.24.16-.25.2c.21.15.29.18.24.06a1.12,1.12,0,0,0-.05-.13c0-.09-.07-.19-.1-.29a45,45,0,0,1-1.45-4.71.38.38,0,0,0-.47-.24.36.36,0,0,0-.25.44Z" transform="translate(0 0)"/><path class="cls-1" d="M245.41,135.18a10.47,10.47,0,0,0,1,4.26.37.37,0,0,0,.51.13.37.37,0,0,0,.14-.51,9.46,9.46,0,0,1-.86-3.88.38.38,0,0,0-.75,0Z" transform="translate(0 0)"/><path class="cls-1" d="M248.45,132.58a1.77,1.77,0,0,1,2.1,1.22c.45,1.17-.07,2.5-.46,3.61-.14.38.37.59.62.36a24.51,24.51,0,0,1,3.16-2.3.38.38,0,0,0-.38-.65,27,27,0,0,0-3.31,2.42l.63.37c.49-1.35,1-2.92.34-4.3a2.47,2.47,0,0,0-2.9-1.45c-.45.16-.26.89.2.72Z" transform="translate(0 0)"/><path class="cls-1" d="M256.67,130.24a2.48,2.48,0,0,0-2,2.25,2.86,2.86,0,0,0,.19,1.91,2.32,2.32,0,0,0,1,1,2.49,2.49,0,0,0,2.87-.42,2.88,2.88,0,0,0,.68-2.94,3.27,3.27,0,0,0-2.91-2.07c-.48,0-.48.72,0,.75a2.52,2.52,0,0,1,2.05,1.24,2.09,2.09,0,0,1-.09,2.17,1.72,1.72,0,0,1-1.91.74,1.65,1.65,0,0,1-1.25-1.72c0-.76.4-2.08,1.34-2.15.48,0,.49-.78,0-.75Z" transform="translate(0 0)"/><path class="cls-1" d="M139.55,186.08a10.37,10.37,0,0,0,.74,4.67.3.3,0,1,0,.58-.16,10,10,0,0,1-.72-4.51C140.18,185.7,139.58,185.7,139.55,186.08Z" transform="translate(0 0)"/><path class="cls-1" d="M140.45,186.68c.12-.13.25-.25.38-.37l.2-.17.11-.09,0,0,0,0s0,0,0,0l.05,0,.11-.08.22-.15c.15-.1.31-.19.47-.28a.29.29,0,0,0,.1-.41.3.3,0,0,0-.41-.11,8.34,8.34,0,0,0-1.77,1.36.31.31,0,0,0,0,.43.3.3,0,0,0,.43,0Z" transform="translate(0 0)"/><path class="cls-1" d="M140.71,189.16l1.23-.52a.31.31,0,0,0,.14-.18.31.31,0,0,0,0-.23.28.28,0,0,0-.18-.14.31.31,0,0,0-.23,0l-1.24.53a.3.3,0,0,0-.13.18.27.27,0,0,0,0,.23.3.3,0,0,0,.18.13.32.32,0,0,0,.23,0Z" transform="translate(0 0)"/><path class="cls-1" d="M144.78,185.13a2.71,2.71,0,0,0-.53,2.62,1.78,1.78,0,0,0,2.46.46,2.41,2.41,0,0,0,1.16-2.09,2,2,0,0,0-1.39-1.76,2.23,2.23,0,0,0-2.39.49c-.26.28.16.7.43.42a1.66,1.66,0,0,1,2.35,0,1.52,1.52,0,0,1,.35.55,1.68,1.68,0,0,1-.58,1.65,1.29,1.29,0,0,1-1.77.07,1.05,1.05,0,0,1-.13-1,4,4,0,0,1,.56-1.16c.21-.32-.31-.62-.52-.3Z" transform="translate(0 0)"/><path class="cls-1" d="M151.06,182.81a2.21,2.21,0,0,0-2.54,1.83v0a1.89,1.89,0,0,0,.35,1.56,1.82,1.82,0,0,0,1.25.6,1.5,1.5,0,0,0,1.38-.65c.21-.33-.31-.63-.52-.31a.87.87,0,0,1-.74.36,1.18,1.18,0,0,1-.85-.33,1.53,1.53,0,0,1,.19-2,1.4,1.4,0,0,1,1.32-.47.29.29,0,0,0,.36-.22.29.29,0,0,0-.2-.35Z" transform="translate(0 0)"/><path class="cls-1" d="M152.09,182.54a5.58,5.58,0,0,0,1.4,3.3c.33.37,1,1.13,1.54.69a1.15,1.15,0,0,0,.3-.81,9.07,9.07,0,0,0,.06-1,8.87,8.87,0,0,0-.33-2.41.3.3,0,0,0-.37-.2.31.31,0,0,0-.21.36,8.67,8.67,0,0,1,.31,2.21,8.42,8.42,0,0,1-.07,1.12.85.85,0,0,1,0,.22s0,.1,0,.09-.28-.2-.34-.25a5,5,0,0,1-1.62-3.28c0-.38-.63-.38-.6,0Z" transform="translate(0 0)"/><path class="cls-1" d="M157.63,180.46a1,1,0,0,0-1.18.84,1,1,0,0,0,0,.42,1.36,1.36,0,0,0,.66.86,4,4,0,0,1,.93.45,1.26,1.26,0,0,1,.22,1.6,1.29,1.29,0,0,1-1.54.43c-.35-.17-.65.35-.3.52a1.83,1.83,0,0,0,2.44-.86,1.68,1.68,0,0,0,.17-1,1.87,1.87,0,0,0-1.11-1.5c-.34-.14-.75-.23-.88-.64-.08-.25.1-.64.42-.58s.53-.51.15-.58Z" transform="translate(0 0)"/><path class="cls-1" d="M122.58,203.76v5a.29.29,0,0,0,.31.29.3.3,0,0,0,.29-.29v-5a.32.32,0,0,0-.31-.29A.3.3,0,0,0,122.58,203.76Z" transform="translate(0 0)"/><path class="cls-1" d="M122.88,203.89a10.12,10.12,0,0,1,3.35,2.71.3.3,0,0,0,.42-.42,10.4,10.4,0,0,0-3.47-2.81C122.84,203.2,122.53,203.72,122.88,203.89Z" transform="translate(0 0)"/><path class="cls-1" d="M122,206.64l3.2-1.39a.3.3,0,1,0-.3-.51l-3.2,1.38a.3.3,0,1,0,.3.52Z" transform="translate(0 0)"/><path class="cls-1" d="M125.08,203a3.51,3.51,0,0,0,.27,2.12,2.73,2.73,0,0,0,1.54,1.48,1.63,1.63,0,0,0,1.73-.58,2.13,2.13,0,0,0,.44-1.88,3.7,3.7,0,0,0-1.39-2,.31.31,0,0,0-.42,0,.29.29,0,0,0,0,.42c.8.63,1.67,1.75,1.08,2.8a1.19,1.19,0,0,1-1.1.68A1.94,1.94,0,0,1,126,205a2.84,2.84,0,0,1-.31-1.85C125.72,202.76,125.15,202.6,125.08,203Z" transform="translate(0 0)"/><path class="cls-1" d="M130,201.94a9.18,9.18,0,0,1,2.54-1,.3.3,0,0,0,.21-.37.31.31,0,0,0-.37-.21,9.6,9.6,0,0,0-2.68,1,.29.29,0,0,0-.1.41A.3.3,0,0,0,130,201.94Z" transform="translate(0 0)"/><path class="cls-1" d="M131.06,200.76V205a.32.32,0,0,0,.31.29.3.3,0,0,0,.29-.29v-4.24a.29.29,0,0,0-.31-.29A.3.3,0,0,0,131.06,200.76Z" transform="translate(0 0)"/><path class="cls-1" d="M134.77,200a2.69,2.69,0,0,0-1.6,1.77,1.33,1.33,0,0,0,.34,1.11,1.53,1.53,0,0,0,.9.43,3.49,3.49,0,0,0,1.07,0c.43,0,.81-.14,1-.59a4,4,0,0,0,.12-.58c0-.22.07-.45.09-.67a2.46,2.46,0,0,0-.21-1.31,1.49,1.49,0,0,0-2-.74l-.06,0c-.32.21,0,.73.31.52a.85.85,0,0,1,1.12.36,2.6,2.6,0,0,1,.09,1.94c0,.1,0,.27-.12.35a.56.56,0,0,1-.31.09,3.85,3.85,0,0,1-.83,0c-.47,0-.95-.26-.93-.8,0-.72.77-1.12,1.31-1.43a.32.32,0,0,0,.1-.42.31.31,0,0,0-.4-.1Z" transform="translate(0 0)"/><path class="cls-1" d="M122.11,225l0-2.43-.45.26,1.5,1.16a.31.31,0,0,0,.46-.26,7.64,7.64,0,0,1,.36-2.6l-.55.07,1.77,2.92a.3.3,0,0,0,.52-.31L124,220.88a.29.29,0,0,0-.41-.1.27.27,0,0,0-.13.17,8.34,8.34,0,0,0-.38,2.76l.45-.26L122,222.29c-.18-.14-.45.06-.45.26l0,2.43a.32.32,0,0,0,.31.29A.3.3,0,0,0,122.11,225Z" transform="translate(0 0)"/><path class="cls-1" d="M126.17,223.74l0-3.8-.51.21a27,27,0,0,1,2.51,2.51c.25.3.68-.13.43-.42a25,25,0,0,0-2.52-2.52.3.3,0,0,0-.43,0,.28.28,0,0,0-.08.2l0,3.8a.32.32,0,0,0,.32.29.3.3,0,0,0,.28-.29Z" transform="translate(0 0)"/><path class="cls-1" d="M125.86,222.76l1.61-.84a.3.3,0,0,0-.3-.52l-1.61.85a.3.3,0,0,0-.11.41A.3.3,0,0,0,125.86,222.76Z" transform="translate(0 0)"/><path class="cls-1" d="M129.18,222.32l0-2.95-.59.08a5.12,5.12,0,0,0,2,2.54.31.31,0,0,0,.42-.12.32.32,0,0,0,0-.14,17,17,0,0,0,.08-2.94c0-.38-.62-.39-.6,0a17,17,0,0,1-.08,2.94l.45-.26a4.45,4.45,0,0,1-1.69-2.18.3.3,0,0,0-.38-.2.31.31,0,0,0-.21.28l0,2.95a.29.29,0,0,0,.31.29.3.3,0,0,0,.29-.29Z" transform="translate(0 0)"/><path class="cls-1" d="M132,218.55a3.51,3.51,0,0,0-.09,1.58,2.87,2.87,0,0,0,.61,1.43.7.7,0,0,0,1,.08.88.88,0,0,0,.19-.24,2.09,2.09,0,0,0,.2-.73,5.47,5.47,0,0,0,.08-.9,6.8,6.8,0,0,0-.27-2,.3.3,0,0,0-.37-.19.29.29,0,0,0-.21.35,5.86,5.86,0,0,1,.25,1.81,5.1,5.1,0,0,1-.07.87,1.08,1.08,0,0,1-.19.57c-.2.21-.53-.77-.57-.91a3,3,0,0,1,0-1.56.29.29,0,0,0-.22-.36.3.3,0,0,0-.36.2Z" transform="translate(0 0)"/><path class="cls-1" d="M135,220l0-2.7-.52.21,1.91,2.36a.31.31,0,0,0,.42,0,.3.3,0,0,0,0-.43l-1.9-2.35c-.17-.21-.51,0-.51.21l0,2.7a.32.32,0,0,0,.31.29A.3.3,0,0,0,135,220Z" transform="translate(0 0)"/><path class="cls-1" d="M134.9,219.44h.71a.3.3,0,0,0,0-.6h-.71a.27.27,0,0,0-.21.09.29.29,0,0,0,0,.42A.27.27,0,0,0,134.9,219.44Z" transform="translate(0 0)"/><path class="cls-1" d="M136.8,216.26a2.16,2.16,0,0,0,3.3,2.51.3.3,0,1,0-.3-.52,1.56,1.56,0,0,1-2.2-.23,1.57,1.57,0,0,1-.23-1.6.3.3,0,0,0-.21-.37.29.29,0,0,0-.36.21Z" transform="translate(0 0)"/><path class="cls-1" d="M122.17,237.53l.34,4.25c0,.38.63.38.6,0l-.34-4.25C122.73,237.15,122.13,237.15,122.17,237.53Z" transform="translate(0 0)"/><path class="cls-1" d="M124.17,238.06v2.79a.3.3,0,0,0,.31.29.29.29,0,0,0,.29-.29l0-3.82-.56.15,1.8,2.61c.13.19.51.21.55-.07a7.91,7.91,0,0,0-.12-3.14c-.09-.37-.67-.22-.58.16a7.05,7.05,0,0,1,.12,2.82l.55-.07-1.81-2.61a.29.29,0,0,0-.41-.1.3.3,0,0,0-.14.25l0,3.82h.6v-2.79a.3.3,0,0,0-.31-.29.3.3,0,0,0-.29.29Z" transform="translate(0 0)"/><path class="cls-1" d="M127.19,236.12a19.88,19.88,0,0,0,.14,4.15.3.3,0,0,0,.37.2.3.3,0,0,0,.21-.36,19,19,0,0,1-.12-4c0-.39-.58-.39-.6,0Z" transform="translate(0 0)"/><path class="cls-1" d="M127.65,236.42h.53a.37.37,0,0,0,.21-.09.3.3,0,0,0-.21-.51h-.53a.32.32,0,0,0-.21.08.3.3,0,0,0,0,.43A.4.4,0,0,0,127.65,236.42Z" transform="translate(0 0)"/><path class="cls-1" d="M127.65,238.54h1.24a.31.31,0,0,0,.3-.3.29.29,0,0,0-.3-.3h-1.24a.29.29,0,0,0-.3.29.3.3,0,0,0,.3.31Z" transform="translate(0 0)"/><path class="cls-1" d="M129.28,235.94a12.12,12.12,0,0,0,.61,3.42c.12.37.7.21.57-.16a11.63,11.63,0,0,1-.58-3.26C129.86,235.55,129.26,235.55,129.28,235.94Z" transform="translate(0 0)"/><path class="cls-1" d="M131.57,237.64a9.9,9.9,0,0,1,0-2.55l-.56.15a11,11,0,0,0,1.8,1.93.31.31,0,0,0,.43,0,.33.33,0,0,0,.07-.13,6.36,6.36,0,0,0-.11-3.27c-.11-.37-.69-.21-.57.16a5.68,5.68,0,0,1,.1,3l.5-.13a10,10,0,0,1-1.7-1.8.31.31,0,0,0-.42-.1.35.35,0,0,0-.14.25,10.69,10.69,0,0,0,.05,2.71.3.3,0,0,0,.37.21A.32.32,0,0,0,131.57,237.64Z" transform="translate(0 0)"/><path class="cls-1" d="M133.86,233.64l.21,2.48a.31.31,0,0,0,.3.3.31.31,0,0,0,.3-.3l-.21-2.48a.32.32,0,0,0-.3-.3A.3.3,0,0,0,133.86,233.64Z" transform="translate(0 0)"/><path class="cls-1" d="M135.18,233a3.62,3.62,0,0,0,2.35-.36.3.3,0,0,0-.3-.52,3,3,0,0,1-1.9.3.31.31,0,0,0-.36.21.29.29,0,0,0,.21.37Z" transform="translate(0 0)"/><path class="cls-1" d="M136.2,232.4a13.66,13.66,0,0,0,.17,3.44.29.29,0,0,0,.37.21.31.31,0,0,0,.21-.37,12.86,12.86,0,0,1-.15-3.28c0-.38-.57-.38-.6,0Z" transform="translate(0 0)"/><path class="cls-1" d="M137.89,231.46a1.31,1.31,0,0,0,1.22.65,1.28,1.28,0,0,0,1.1-1.69.3.3,0,1,0-.57.16s0,.1,0,.15,0,0,0,0v.07a.38.38,0,0,1,0,.1c0-.08,0,0,0,0a1,1,0,0,1,0,.16c0-.07,0,0,0,0l0,.07,0,.07c0-.05,0,0,0,0l-.06.06s-.06,0,0,0a1.29,1.29,0,0,0-.16.09h0l0,0-.08,0s-.11,0,0,0H139l-.16,0s-.09,0,0,0l-.07,0-.07,0-.05,0,0,0-.06-.06c-.05-.06,0,0,0,0a.41.41,0,0,1-.05-.09.3.3,0,0,0-.41-.1.29.29,0,0,0-.11.41Z" transform="translate(0 0)"/><path class="cls-1" d="M139.2,231.7v3.18a.3.3,0,0,0,.31.29.31.31,0,0,0,.29-.29V231.7a.3.3,0,0,0-.31-.29A.29.29,0,0,0,139.2,231.7Z" transform="translate(0 0)"/><path class="cls-1" d="M142.61,246.48a4.76,4.76,0,0,0,.68,3.76c.22.32.74,0,.52-.3a4.19,4.19,0,0,1-.62-3.3c.09-.38-.49-.54-.58-.16Z" transform="translate(0 0)"/><path class="cls-1" d="M143.06,246.79l0-.15a.14.14,0,0,0,0-.06s0,0,0,0a.6.6,0,0,1,.14-.21.93.93,0,0,1,.18-.16l.12-.07.07,0c.05,0,0,0,0,0a1.11,1.11,0,0,1,.26-.07h.25c-.05,0,0,0,0,0l.09,0,.07,0,.13.07.06,0s0,0,0,0l.11.11,0,0c.06.07,0,0,0,0a2,2,0,0,1,.14.25,1.82,1.82,0,0,1,.07.25s0,0,0,.06,0,0,0,0a.86.86,0,0,1,0,.16v.07c0,.09,0,0,0,0l0,.13a.66.66,0,0,1-.11.24,1,1,0,0,1-.36.33,1.16,1.16,0,0,1-1.14,0c-.33-.18-.64.33-.3.52a1.73,1.73,0,0,0,2.35-.68,1.68,1.68,0,0,0,.17-.42,1.74,1.74,0,0,0-.44-1.48,1.48,1.48,0,0,0-1.45-.41,1.58,1.58,0,0,0-1.18,1.18.3.3,0,0,0,.21.36.3.3,0,0,0,.37-.2Z" transform="translate(0 0)"/><path class="cls-1" d="M144.81,246.64a2.36,2.36,0,0,0,1.84,1.78,1,1,0,0,0,1-.5,1.69,1.69,0,0,0,.09-.77c0-.28-.05-.55-.09-.83a8,8,0,0,0-.48-1.8.32.32,0,0,0-.37-.21.31.31,0,0,0-.21.37,7.84,7.84,0,0,1,.46,1.64,6.42,6.42,0,0,1,.09.87c0,.17,0,.45-.11.57s-.74,0-1-.21a1.92,1.92,0,0,1-.71-1.07.31.31,0,0,0-.38-.19.3.3,0,0,0-.2.35Z" transform="translate(0 0)"/><path class="cls-1" d="M149.12,243.54A1.51,1.51,0,0,0,149,246a1.47,1.47,0,0,0,.63.3c.19,0,.53,0,.69.1s.08.55-.08.72c-.37.41-1.12.21-1.57.11s-.54.49-.16.58a2.91,2.91,0,0,0,1.68,0,1.23,1.23,0,0,0,.8-1,.93.93,0,0,0-.48-1,5.75,5.75,0,0,0-.83-.14.87.87,0,0,1-.49-.35.91.91,0,0,1,.23-1.27l0,0c.33-.2,0-.72-.3-.52Z" transform="translate(0 0)"/><path class="cls-1" d="M150.32,243.63l1,3a.31.31,0,0,0,.37.21.3.3,0,0,0,.21-.37l-1.05-3a.3.3,0,1,0-.57.16Z" transform="translate(0 0)"/><path class="cls-1" d="M151.35,244.76l1.58-.22a.3.3,0,0,0,.21-.08.31.31,0,0,0,.09-.22.3.3,0,0,0-.3-.3l-1.58.22a.28.28,0,0,0-.3.3.3.3,0,0,0,.3.3Z" transform="translate(0 0)"/><path class="cls-1" d="M152.81,243a5.14,5.14,0,0,0,.76,3.15c.21.32.73,0,.52-.31a4.56,4.56,0,0,1-.68-2.84.31.31,0,0,0-.3-.3.3.3,0,0,0-.3.3Z" transform="translate(0 0)"/><path class="cls-1" d="M156.72,240.89a28.52,28.52,0,0,0,.08,4.43c0,.38.63.38.6,0a28.52,28.52,0,0,1-.08-4.43C157.34,240.5,156.74,240.5,156.72,240.89Z" transform="translate(0 0)"/><path class="cls-1" d="M157.32,241.45a5.8,5.8,0,0,1,1.17,2.17.3.3,0,0,0,.58-.16,6.4,6.4,0,0,0-1.32-2.43.3.3,0,0,0-.43,0A.31.31,0,0,0,157.32,241.45Z" transform="translate(0 0)"/><path class="cls-1" d="M157.19,243.38l.76-.84a.29.29,0,0,0,0-.42.31.31,0,0,0-.42,0l-.76.84a.3.3,0,0,0,.42.42Z" transform="translate(0 0)"/><path class="cls-1" d="M158.41,240.93a14.84,14.84,0,0,0,1,1.62c.28.43.83.88,1.33.47s.31-.94.31-1.4l0-2a.31.31,0,0,0-.31-.29.3.3,0,0,0-.29.29l0,1.62c0,.27,0,.53,0,.8a.84.84,0,0,1-.07.44c-.15.28-.55-.4-.62-.52-.29-.44-.56-.9-.82-1.37s-.7,0-.51.31Z" transform="translate(0 0)"/><path class="cls-1" d="M161.6,239.26a3.84,3.84,0,0,0,2.23-.64.3.3,0,1,0-.3-.52,3.25,3.25,0,0,1-1.93.56.3.3,0,1,0,0,.6Z" transform="translate(0 0)"/><path class="cls-1" d="M162.55,238.59a23,23,0,0,0,.09,4.07.3.3,0,1,0,.6,0,23,23,0,0,1-.09-4.07c0-.38-.57-.38-.6,0Z" transform="translate(0 0)"/><path class="cls-1" d="M164.34,238.06l-.19,2.47c0,.51-.08,1.25.48,1.5s1.26-.52,1.5-1a2.31,2.31,0,0,0,.1-1.94A1.8,1.8,0,0,0,164.6,238a.29.29,0,0,0-.29.31.3.3,0,0,0,.29.29,1.15,1.15,0,0,1,1,.62,1.58,1.58,0,0,1,0,1.39,2.25,2.25,0,0,1-.38.63c-.07.1-.29.37-.43.28s-.13-.28-.14-.4a5.51,5.51,0,0,1,.05-.81l.17-2.21c0-.38-.57-.38-.6,0Z" transform="translate(0 0)"/><path class="cls-1" d="M104,131a4.09,4.09,0,0,0-.58-1.72l-.26.46a3.82,3.82,0,0,1,1.62.65.3.3,0,0,0,.41-.12.23.23,0,0,0,0-.14,2.88,2.88,0,0,0-.49-1.42.3.3,0,0,0-.52.3,2.38,2.38,0,0,1,.41,1.12l.45-.26a4.41,4.41,0,0,0-1.92-.73.3.3,0,0,0-.3.3.42.42,0,0,0,0,.15,3.41,3.41,0,0,1,.5,1.41.3.3,0,1,0,.6,0Z" transform="translate(0 0)"/><path class="cls-1" d="M105.45,128.57a16.56,16.56,0,0,0,.89,1.45.3.3,0,0,0,.52-.3,14.45,14.45,0,0,1-.89-1.45.3.3,0,0,0-.52.3Z" transform="translate(0 0)"/><path class="cls-1" d="M105.69,128.38h.86c.07,0,0,0,0,0h0l.09.09c0-.06,0,0,0,0l0,.06s0,.07,0,0,0,0,0,0,0,.1,0,.15,0,.06,0,.09v0a1,1,0,0,1,0,.17,1.09,1.09,0,0,1,0,.18s0,0,0,0,0,0,0,.08a1.09,1.09,0,0,1,0,.17l0,.09s0,0,0,0a.3.3,0,0,0,.1.41.3.3,0,0,0,.41-.11h0a1.92,1.92,0,0,0,0-1.7.84.84,0,0,0-.6-.48,2.43,2.43,0,0,0-.47,0h-.47a.29.29,0,0,0-.3.3.3.3,0,0,0,.3.3Z" transform="translate(0 0)"/><path class="cls-1" d="M109.93,127.08a1.27,1.27,0,0,0,.23.41l.31.41.6.79a.3.3,0,0,0,.52-.3l-.58-.77-.29-.38-.14-.18,0-.09h0l0,0a.3.3,0,0,0-.37-.21.31.31,0,0,0-.21.37Z" transform="translate(0 0)"/><path class="cls-1" d="M110.32,127.15l.11-.1-.06,0a6.61,6.61,0,0,1,.55-.37.28.28,0,0,0,.14-.18.29.29,0,0,0-.21-.36.24.24,0,0,0-.23,0,4,4,0,0,0-.72.5.29.29,0,0,0-.09.21.31.31,0,0,0,.09.22.3.3,0,0,0,.21.08h.08a.33.33,0,0,0,.13-.07Z" transform="translate(0 0)"/><path class="cls-1" d="M110.93,128.1a3.36,3.36,0,0,0,.6-.45.29.29,0,0,0,0-.42.27.27,0,0,0-.21-.09.29.29,0,0,0-.21.09l-.21.17.06,0a3.78,3.78,0,0,1-.33.22.31.31,0,0,0-.14.18.31.31,0,0,0,0,.23.28.28,0,0,0,.18.14.31.31,0,0,0,.23,0Z" transform="translate(0 0)"/><path class="cls-1" d="M111.61,126.51a5.24,5.24,0,0,0,.65,1.09.28.28,0,0,0,.18.14.31.31,0,0,0,.23,0,.29.29,0,0,0,.1-.41,5.74,5.74,0,0,1-.64-1.1.34.34,0,0,0-.18-.13.31.31,0,0,0-.23,0,.28.28,0,0,0-.14.18.31.31,0,0,0,0,.23Z" transform="translate(0 0)"/><path class="cls-1" d="M112.82,126.14a6,6,0,0,0,.26.66c0,.1.08.2.13.3a3.07,3.07,0,0,0,.17.31.35.35,0,0,0,.49.07l.29-.2.57-.41a.3.3,0,1,0-.3-.51l-.46.32-.22.16-.12.08,0,0,0,0h.19c.1,0,.16.15.1,0l0-.07a.91.91,0,0,1-.07-.14c0-.09-.09-.19-.14-.29s0-.08,0,0l0-.06a.78.78,0,0,0,0-.14c0-.11-.08-.21-.11-.31a.3.3,0,0,0-.58.15Z" transform="translate(0 0)"/><path class="cls-1" d="M114.82,125.59a3.45,3.45,0,0,1,.54-.28l.07,0c-.08,0,0,0,0,0l.14,0,.29-.1a.3.3,0,1,0-.16-.58,6.17,6.17,0,0,0-1.21.53.29.29,0,0,0-.1.41.3.3,0,0,0,.41.11Z" transform="translate(0 0)"/><path class="cls-1" d="M115,125.2a6.79,6.79,0,0,0,.81,1.67.3.3,0,0,0,.41.11.29.29,0,0,0,.11-.41,7.15,7.15,0,0,1-.44-.76l-.09-.2,0-.1s0,0,0-.05l-.15-.42a.3.3,0,0,0-.37-.21.31.31,0,0,0-.21.37Z" transform="translate(0 0)"/><path class="cls-1" d="M116.68,124.72a10.13,10.13,0,0,0,.78,1.93.3.3,0,1,0,.51-.3,10.26,10.26,0,0,1-.71-1.79.3.3,0,0,0-.37-.21.31.31,0,0,0-.21.37Z" transform="translate(0 0)"/><path class="cls-1" d="M117.15,124.77a1.26,1.26,0,0,0,.76-.18.32.32,0,0,0,.14-.18.31.31,0,0,0,0-.23.36.36,0,0,0-.18-.14.36.36,0,0,0-.23,0l-.13.07.08,0-.27.07h.08a.81.81,0,0,1-.22,0,.31.31,0,0,0-.3.3.27.27,0,0,0,.09.21.29.29,0,0,0,.21.09Z" transform="translate(0 0)"/><path class="cls-1" d="M117.67,125.81l.41-.17a.38.38,0,0,0,.18-.13.27.27,0,0,0,0-.12.24.24,0,0,0,0-.12.29.29,0,0,0-.14-.17l-.07,0a.22.22,0,0,0-.16,0l-.41.16a.31.31,0,0,0-.18.14.2.2,0,0,0,0,.11.24.24,0,0,0,0,.12.31.31,0,0,0,.14.18l.07,0Z" transform="translate(0 0)"/><path class="cls-1" d="M118.14,126.85a2.7,2.7,0,0,0,.33-.22,1.75,1.75,0,0,0,.24-.23.27.27,0,0,0,.09-.21.3.3,0,0,0-.51-.21,2.73,2.73,0,0,1-.25.23l.06,0-.26.17a.31.31,0,0,0-.11.41h0a.31.31,0,0,0,.18.14.31.31,0,0,0,.23,0Z" transform="translate(0 0)"/><path class="cls-1" d="M118.63,124.3a2.48,2.48,0,0,0,.36,1c.16.32.32.64.49,1a.3.3,0,0,0,.41.11.3.3,0,0,0,.1-.41l-.45-.9-.21-.44a.93.93,0,0,1-.1-.37.3.3,0,0,0-.3-.3.31.31,0,0,0-.3.3Z" transform="translate(0 0)"/><path class="cls-1" d="M119.09,124.59a1.55,1.55,0,0,1,.31-.06c.06,0,.11,0,0,0a.1.1,0,0,1-.08,0s0,0,0,0,0,.06,0,.08,0,.08,0,0a.43.43,0,0,1,0,.16v.06s0,0,0,0a.19.19,0,0,1,0,.08.42.42,0,0,1,0,.06.91.91,0,0,1-.07.14.31.31,0,0,0,0,.33.33.33,0,0,0,.32.11,14.21,14.21,0,0,1,1.46-.19.31.31,0,0,0,.3-.3.3.3,0,0,0-.3-.3,14.64,14.64,0,0,0-1.62.21l.34.44a1.41,1.41,0,0,0,.17-1c-.06-.23-.18-.42-.43-.44a1.52,1.52,0,0,0-.56.08.3.3,0,0,0-.21.37.29.29,0,0,0,.37.21Z" transform="translate(0 0)"/><path class="cls-1" d="M97.51,286.2a.29.29,0,0,0,.29-.31.3.3,0,0,0-.29-.29.3.3,0,0,0-.29.31A.3.3,0,0,0,97.51,286.2Z" transform="translate(0 0)"/><path class="cls-1" d="M168.42,243.27A55.47,55.47,0,0,0,154.3,248c-1.1.55-2.18,1.13-3.24,1.76-.73.42-1.72.85-1.84,1.79a2.75,2.75,0,0,0,.47,1.52,15.36,15.36,0,0,1,.73,1.67,18.28,18.28,0,0,1,1,3.92.75.75,0,0,0,.93.51.68.68,0,0,0,.32-.18,16.47,16.47,0,0,1,7-4.15c2.94-1,5.94-1.93,8.91-2.88.91-.29.52-1.74-.4-1.44-3.16,1-6.36,1.93-9.47,3.08a17.34,17.34,0,0,0-7.09,4.33l1.26.33a18.55,18.55,0,0,0-.75-3.28q-.24-.74-.54-1.44a11.09,11.09,0,0,1-.72-1.52c-.07-.34-.1-.22.12-.45a3.52,3.52,0,0,1,.72-.43c.48-.29,1-.56,1.46-.83,1-.54,2-1,3-1.52a53.51,53.51,0,0,1,12.69-4.12c.95-.18.55-1.63-.39-1.44Z" transform="translate(0 0)"/><path class="cls-1" d="M102.17,88l0,3c0,1,.25,2.08-1,2.46a24.77,24.77,0,0,0-4.63,1.79c-3.16,1.68-6.07,3.79-9.28,5.4A60.76,60.76,0,0,1,66,106.84c-1,.09-1,1.59,0,1.5a62.94,62.94,0,0,0,22.89-6.75c3.59-1.87,6.86-4.56,10.66-6,1.26-.48,3.19-.53,3.93-1.84a5,5,0,0,0,.27-2.47l0-3.24a.75.75,0,0,0-1.5,0Z" transform="translate(0 0)"/><path class="cls-1" d="M45.82,181.28A264,264,0,0,1,58.47,208a80.18,80.18,0,0,1,3.88,13.05c.93,4.37,1.87,8.73,3.82,12.78.35.73,1.34.29,1.4-.38a67.4,67.4,0,0,0-11.78-43.8,65.41,65.41,0,0,0-8.48-9.95c-.69-.67-1.76.39-1.06,1.06a65.94,65.94,0,0,1,19.67,40,64,64,0,0,1,.15,12.68l1.4-.38c-2-4.19-2.89-8.77-3.86-13.28a77.28,77.28,0,0,0-4-13.05,279.21,279.21,0,0,0-12.45-26.22c-.46-.86-1.75-.1-1.3.75Z" transform="translate(0 0)"/></svg>